<?xml version="1.0" encoding="UTF-8"?> <svg xmlns="http://www.w3.org/2000/svg" width="93" height="16" viewBox="0 0 93 16" fill="none"> <path d="M36.5244 1.62895C36.5244 1.25043 36.6726 0.887406 36.9365 0.619748C37.2004 0.35209 37.5583 0.201721 37.9314 0.201721C38.3046 0.201721 38.6624 0.35209 38.9263 0.619748C39.1901 0.887406 39.3383 1.25043 39.3383 1.62895C39.3248 1.99826 39.1706 2.34785 38.9082 2.60425C38.6458 2.86065 38.2957 3.00391 37.9314 3.00391C37.5671 3.00391 37.2169 2.86065 36.9546 2.60425C36.6922 2.34785 36.538 1.99826 36.5244 1.62895Z" fill="#B6BBDA"></path> <path d="M58.7231 11.1478C58.7231 10.3557 59.3522 9.71559 60.1272 9.71559C60.5014 9.71559 60.8602 9.86638 61.1248 10.1348C61.3894 10.4032 61.5381 10.7672 61.5381 11.1468C61.5381 11.5264 61.3894 11.8904 61.1248 12.1588C60.8602 12.4272 60.5014 12.578 60.1272 12.578C59.3531 12.578 58.7231 11.9369 58.7231 11.1468" fill="#499FDD"></path> <path d="M13.434 10.5283C12.223 10.5283 11.3804 9.55226 11.3804 8.15683C11.3804 6.7624 12.2229 5.78738 13.4349 5.78738C14.6528 5.78738 15.5042 6.7624 15.5042 8.15683C15.5042 9.57412 14.6714 10.5283 13.434 10.5283V10.5283ZM13.434 3.70319C10.8709 3.70319 9.01025 5.57668 9.01025 8.15683C9.01025 10.738 10.8719 12.6105 13.434 12.6105C16.0079 12.6105 17.8753 10.738 17.8753 8.15782C17.8753 5.57668 16.0078 3.70319 13.4349 3.70319H13.434ZM33.7997 8.38046C33.7105 8.20544 33.5977 8.04388 33.4646 7.90041L33.3862 7.81791L33.4685 7.7384C33.5861 7.61218 33.7066 7.46309 33.8222 7.29015L36.0855 3.87911H33.3382L31.6383 6.54772C31.5423 6.69084 31.3483 6.7624 31.0573 6.7624H30.6703V1.71739C30.6703 0.708584 30.0501 0.571426 29.3809 0.571426H28.2345L28.2374 12.4793H30.6712V8.90722H30.8996C31.1768 8.90722 31.3649 8.94002 31.4521 9.09308L32.7944 11.6633C33.1697 12.361 33.543 12.4793 34.2464 12.4793H36.111L34.7217 10.1496L33.8007 8.38046H33.7997ZM45.6139 3.68331C44.3755 3.68331 43.5857 4.24188 43.1429 4.71398L42.9959 4.86505L42.943 4.65932C42.8137 4.15342 42.3748 3.87613 41.7154 3.87613H40.6248L40.6317 12.4763H43.0488V8.51264C43.0488 8.12503 43.0978 7.78909 43.1997 7.48198C43.4681 6.55269 44.2187 5.97523 45.1563 5.97523C45.9108 5.97523 46.2057 6.37975 46.2057 7.42334V11.1693C46.2057 12.0599 46.6123 12.4763 47.4911 12.4763H48.6414L48.6375 7.0059C48.6375 4.83325 47.5921 3.6843 45.6139 3.6843V3.68331ZM37.9608 3.87911H36.8154L36.8233 10.5293V12.4793H38.0451L38.0882 12.4813L38.6584 12.4793H39.2248V12.4763H39.2287L39.2336 5.18608C39.2336 4.30648 38.8191 3.8801 37.9618 3.8801L37.9608 3.87911ZM22.927 10.5283C21.716 10.5283 20.8725 9.55226 20.8725 8.15683C20.8725 6.7624 21.7161 5.78738 22.9281 5.78738C24.143 5.78738 24.9974 6.7624 24.9974 8.15683C24.9974 9.57412 24.1645 10.5283 22.9281 10.5283H22.927ZM22.927 3.70319C20.362 3.70319 18.5004 5.57668 18.5004 8.15683C18.5004 10.738 20.362 12.6105 22.9281 12.6105C25.498 12.6105 27.3694 10.738 27.3694 8.15782C27.3694 5.57668 25.498 3.70319 22.9281 3.70319" fill="#B6BBDA"></path> <path d="M74.7323 10.5283C73.5213 10.5283 72.6767 9.55226 72.6767 8.15683C72.6767 6.7624 73.5213 5.78739 74.7323 5.78739C75.9492 5.78739 76.8026 6.7624 76.8026 8.15683C76.8026 9.57413 75.9697 10.5283 74.7323 10.5283ZM74.7323 3.70319C72.1672 3.70319 70.3066 5.57668 70.3066 8.15683C70.3066 10.738 72.1672 12.6105 74.7323 12.6105C77.3032 12.6105 79.1736 10.738 79.1736 8.15782C79.1736 5.57668 77.3022 3.70319 74.7323 3.70319Z" fill="#499FDD"></path> <path d="M53.7327 10.1496C52.411 10.1496 51.9407 8.98082 51.9407 7.88455C51.9407 7.40152 52.0612 5.82818 53.6063 5.82818C54.3735 5.82818 55.3954 6.05082 55.3954 7.96506C55.3954 9.77096 54.4911 10.1496 53.7327 10.1496ZM56.6505 3.8563C56.1919 3.8563 55.8392 4.04216 55.6619 4.38107L55.5953 4.51227L55.4836 4.41288C55.0936 4.07098 54.3941 3.66447 53.2585 3.66447C50.9981 3.66447 49.4766 5.3869 49.4766 7.94816C49.4766 10.5084 51.0511 12.2974 53.3036 12.2974C54.0727 12.2974 54.6811 12.1146 55.1632 11.7448L55.3493 11.6027V11.8412C55.3493 12.9902 54.6174 13.6243 53.2898 13.6243C52.6442 13.6243 52.0573 13.4653 51.6634 13.3202C51.152 13.1631 50.8502 13.2933 50.6435 13.8151L50.4514 14.2962L50.18 14.9998L50.3476 15.0903C51.198 15.5475 52.3042 15.8208 53.3036 15.8208C55.3611 15.8208 57.7655 14.7524 57.7655 11.7448L57.7743 3.8563H56.6505Z" fill="#B6BBDA"></path> <path d="M4.43328 10.43L2.46589 10.428V8.04264C2.46589 7.53178 2.66086 7.2674 3.09099 7.20578H4.43328C5.39053 7.20578 6.00974 7.81802 6.01072 8.80893C6.00974 9.82668 5.40621 10.429 4.43328 10.429V10.43ZM2.46589 3.99351V3.36537C2.46589 2.81575 2.69516 2.55435 3.19779 2.52056H4.20502C5.06821 2.52056 5.58553 3.04434 5.58553 3.92195C5.58553 4.58985 5.23084 5.37006 4.23636 5.37006H2.46589V3.99351ZM6.94547 6.37488L6.58977 6.17213L6.90038 5.90278C7.26192 5.58772 7.86646 4.87907 7.86646 3.65658C7.86646 1.78409 6.43598 0.575509 4.22069 0.575509H1.40478C1.08793 0.587228 0.787687 0.722159 0.566245 0.952343C0.344803 1.18253 0.219148 1.49031 0.215332 1.81191V12.4366H4.27062C6.73281 12.4366 8.32203 11.077 8.32203 8.97094C8.32203 7.8369 7.80865 6.86786 6.94547 6.37488Z" fill="#B6BBDA"></path> <path d="M89.9701 3.71221C89.4711 3.71408 88.9789 3.82963 88.5298 4.05034C88.0808 4.27106 87.6863 4.59129 87.3756 4.98738L87.2012 5.212L87.064 4.96054C86.6153 4.13263 85.8452 3.71221 84.7743 3.71221C83.6505 3.71221 82.897 4.3483 82.5472 4.72598L82.318 4.97744L82.2298 4.64647C82.1024 4.1694 81.6841 3.90801 81.0511 3.90801H80.0351L80.0253 12.4754H82.3327V8.69361C82.3327 8.36165 82.3738 8.03466 82.4552 7.69176C82.6756 6.77738 83.2811 5.79442 84.2991 5.89282C84.9261 5.95444 85.2338 6.44642 85.2338 7.39658V12.4754H87.5579V8.69361C87.5579 8.27916 87.5961 7.96906 87.6882 7.65897C87.8743 6.78633 88.5073 5.89182 89.489 5.89182C90.2003 5.89182 90.4629 6.29932 90.4629 7.39658V11.2231C90.4629 12.0878 90.8431 12.4754 91.6965 12.4754H92.782L92.784 7.00598C92.784 4.8204 91.8356 3.71221 89.9701 3.71221ZM68.9694 9.50065C68.9625 9.5096 67.97 10.5711 66.662 10.5711C65.4706 10.5711 64.2675 9.82963 64.2675 8.1748C64.2675 6.74558 65.2002 5.74671 66.5366 5.74671C66.9697 5.74671 67.4635 5.90375 67.5409 6.16912L67.5517 6.21384C67.6011 6.39654 67.7085 6.55761 67.8573 6.67207C68.0061 6.78654 68.1879 6.84801 68.3747 6.84696L69.6386 6.84894V5.72783C69.6386 4.24891 67.7839 3.71221 66.5366 3.71221C63.8677 3.71221 61.9316 5.59663 61.9316 8.19269C61.9316 10.7868 63.8462 12.6692 66.4877 12.6692C68.7784 12.6692 70.0247 11.1416 70.0364 11.1267L70.103 11.0432L69.1017 9.35853L68.9694 9.50065Z" fill="#499FDD"></path> </svg> 