<?xml version="1.0" encoding="UTF-8"?> <svg xmlns="http://www.w3.org/2000/svg" width="32" height="32" viewBox="0 0 32 32" fill="none"> <path d="M11.3171 6.86437C11.3171 8.1243 10.2917 9.03764 9.03983 9.03764C7.79153 9.03764 6.78906 8.11851 6.78906 6.86437C6.78906 5.60451 7.81478 4.69214 9.06647 4.69214C10.3146 4.69214 11.3171 5.6101 11.3171 6.86437Z" fill="#64687E"></path> <path d="M11.0524 10.7548V23.3308H7.02705V10.7548H11.0524Z" fill="#64687E"></path> <path d="M12.9216 23.3308H16.9469V16.3076C16.9469 15.9318 16.9731 15.5563 17.0795 15.2876C17.3704 14.537 18.0326 13.7592 19.1447 13.7592C20.6014 13.7592 21.1841 14.9128 21.1841 16.6024V23.3308H25.2091V16.1197C25.2091 12.2568 23.223 10.4593 20.5746 10.4593C18.4395 10.4593 17.482 11.6781 16.947 12.535V10.7548H12.9216C12.9745 11.9349 12.9216 23.3308 12.9216 23.3308Z" fill="#64687E"></path> </svg> 