<?xml version="1.0" encoding="UTF-8"?> <svg xmlns="http://www.w3.org/2000/svg" width="660" height="229" viewBox="0 0 660 229" fill="none"> <mask id="mask0" mask-type="alpha" maskUnits="userSpaceOnUse" x="0" y="0" width="660" height="229"> <rect width="660" height="229" rx="16" fill="#434760"></rect> </mask> <g mask="url(#mask0)"> <circle cx="494" cy="54" r="34" fill="url(#paint0_linear)"></circle> <path d="M485.695 61H478.047V59.6953L481.836 55.5625C482.383 54.9531 482.771 54.4453 483 54.0391C483.234 53.6276 483.352 53.2161 483.352 52.8047C483.352 52.263 483.198 51.8255 482.891 51.4922C482.589 51.1589 482.18 50.9922 481.664 50.9922C481.049 50.9922 480.573 51.1797 480.234 51.5547C479.896 51.9297 479.727 52.4427 479.727 53.0938H477.828C477.828 52.401 477.984 51.7786 478.297 51.2266C478.615 50.6693 479.065 50.237 479.648 49.9297C480.237 49.6224 480.914 49.4688 481.68 49.4688C482.784 49.4688 483.654 49.7474 484.289 50.3047C484.93 50.8568 485.25 51.6224 485.25 52.6016C485.25 53.1693 485.089 53.7656 484.766 54.3906C484.448 55.0104 483.924 55.7161 483.195 56.5078L480.414 59.4844H485.695V61ZM493.562 56.9453H494.977V58.4688H493.562V61H491.664V58.4688H486.75L486.695 57.3125L491.602 49.625H493.562V56.9453ZM488.688 56.9453H491.664V52.1953L491.523 52.4453L488.688 56.9453ZM496.891 61.9766H495.398L499.875 49.625H501.367L496.891 61.9766ZM510.133 50.6797L505.586 61H503.594L508.133 51.1484H502.25V49.625H510.133V50.6797Z" fill="white"></path> <circle cx="556" cy="161" r="24" fill="url(#paint1_linear)"></circle> <path d="M550.81 165.353H546.029V164.538L548.397 161.954C548.739 161.574 548.982 161.256 549.125 161.002C549.271 160.745 549.345 160.488 549.345 160.231C549.345 159.892 549.249 159.619 549.057 159.411C548.868 159.202 548.612 159.098 548.29 159.098C547.906 159.098 547.608 159.215 547.396 159.45C547.185 159.684 547.079 160.005 547.079 160.412H545.893C545.893 159.979 545.99 159.59 546.186 159.245C546.384 158.896 546.666 158.626 547.03 158.434C547.398 158.242 547.821 158.146 548.3 158.146C548.99 158.146 549.534 158.32 549.931 158.668C550.331 159.013 550.531 159.492 550.531 160.104C550.531 160.459 550.43 160.831 550.229 161.222C550.03 161.609 549.703 162.051 549.247 162.545L547.509 164.406H550.81V165.353ZM555.727 162.819H556.61V163.771H555.727V165.353H554.54V163.771H551.469L551.435 163.048L554.501 158.244H555.727V162.819ZM552.68 162.819H554.54V159.85L554.452 160.006L552.68 162.819ZM557.807 165.963H556.874L559.672 158.244H560.604L557.807 165.963ZM566.083 158.903L563.241 165.353H561.996L564.833 159.196H561.156V158.244H566.083V158.903Z" fill="white"></path> <path fill-rule="evenodd" clip-rule="evenodd" d="M593.696 52.1411C593.028 52.7035 592.039 52.6579 591.422 52.0418L584.266 44.8823C583.938 44.5523 583.758 44.0994 583.774 43.635C583.791 43.1671 584 42.7292 584.352 42.4229C593.545 34.4122 605.318 30 617.503 30C629.689 30 641.462 34.4122 650.653 42.4233C651.004 42.7297 651.213 43.1692 651.23 43.6354C651.247 44.0999 651.067 44.5527 650.738 44.8827L643.581 52.0418C643.253 52.3683 642.822 52.5351 642.389 52.5351C642.007 52.5351 641.622 52.4053 641.307 52.1411C634.651 46.5494 626.197 43.4687 617.501 43.4687C608.805 43.4687 600.352 46.549 593.696 52.1411ZM655.577 47.3469C655.27 46.995 654.831 46.7861 654.365 46.7711C653.9 46.729 653.447 46.9344 653.115 47.2626L645.958 54.4217C645.34 55.0396 645.298 56.0261 645.859 56.6959C651.453 63.3502 654.531 71.8055 654.531 80.5015C654.531 89.1975 651.451 97.6511 645.859 104.307C645.298 104.975 645.34 105.962 645.958 106.581L653.115 113.74C653.432 114.057 653.86 114.234 654.307 114.234C654.326 114.234 654.346 114.234 654.365 114.232C654.831 114.217 655.27 114.008 655.577 113.656C663.588 104.462 668 92.6885 668 80.5028C668 68.3171 663.589 56.5413 655.577 47.3469ZM589.141 104.306C583.547 97.6516 580.469 89.1962 580.469 80.5002C580.469 71.8042 583.549 63.3506 589.141 56.6947C589.702 56.0265 589.66 55.04 589.042 54.4204L581.884 47.2609C581.554 46.9327 581.098 46.7406 580.635 46.7694C580.169 46.7844 579.729 46.9933 579.423 47.3452C571.412 56.5396 567 68.3128 567 80.4985C567 92.6842 571.412 104.457 579.423 113.652C579.729 114.004 580.169 114.213 580.635 114.228C580.642 114.228 580.65 114.229 580.658 114.229C580.669 114.229 580.681 114.229 580.692 114.229C581.138 114.229 581.566 114.053 581.884 113.736L589.042 106.577C589.659 105.96 589.703 104.974 589.141 104.306ZM643.58 108.959C642.963 108.341 641.974 108.295 641.306 108.859C634.65 114.451 626.197 117.532 617.501 117.532C608.805 117.532 600.351 114.451 593.695 108.859C593.027 108.296 592.039 108.341 591.421 108.959L584.263 116.118C583.935 116.448 583.755 116.901 583.772 117.365C583.788 117.831 583.997 118.271 584.349 118.577C593.54 126.588 605.315 131 617.499 131C629.683 131 641.458 126.588 650.651 118.577C651.002 118.271 651.211 117.833 651.228 117.365C651.245 116.901 651.065 116.448 650.736 116.118L643.58 108.959ZM617.505 51.8867C618.082 51.8884 618.619 52.1849 618.927 52.673C619.185 53.0786 625.018 61.9834 639.383 61.9812C639.829 61.9812 640.258 62.1596 640.575 62.4762C640.891 62.7946 641.068 63.2238 641.066 63.6715L641.004 80.1986C641.004 88.6458 638.233 96.6079 633.203 102.607C628.649 108.041 623.364 110.798 617.5 110.798C611.635 110.798 606.351 108.043 601.796 102.607C596.766 96.6079 593.995 88.6458 593.995 80.1939L593.933 63.6737C593.933 63.2255 594.108 62.795 594.424 62.4784C594.739 62.16 595.169 61.9834 595.616 61.9834C610.005 61.9834 615.833 53.0515 616.074 52.6713C616.384 52.1814 616.922 51.9017 617.505 51.8867ZM628.852 74.9382C628.909 74.8491 628.965 74.7598 629.022 74.6705C629.521 73.8864 629.29 72.8462 628.504 72.3443C627.718 71.8476 626.678 72.0784 626.179 72.8612L615.702 89.326L612.113 84.5404C611.556 83.7962 610.501 83.6479 609.757 84.2035C609.012 84.7608 608.861 85.816 609.42 86.5585C609.437 86.5813 609.455 86.6044 609.472 86.6275C609.489 86.6505 609.507 86.6736 609.524 86.6964C609.777 87.0343 610.03 87.3717 610.283 87.709C610.604 88.1364 610.925 88.5636 611.245 88.9908C611.758 89.675 612.271 90.36 612.786 91.0452C613.041 91.3849 613.296 91.7248 613.551 92.0646C613.634 92.1758 613.718 92.2939 613.804 92.4146C614.368 93.2081 615.015 94.1164 616.094 93.9281C616.853 93.7948 617.221 93.2144 617.597 92.6207C617.61 92.6004 617.623 92.58 617.636 92.5596C618.033 91.9399 618.428 91.3183 618.823 90.6969L618.916 90.5514C620.511 88.0443 622.107 85.5372 623.702 83.03C625.301 80.5174 626.9 78.0047 628.499 75.492C628.617 75.3079 628.734 75.1233 628.852 74.9382Z" fill="url(#paint2_linear)"></path> <path fill-rule="evenodd" clip-rule="evenodd" d="M460.158 168.084C459.854 168.34 459.404 168.319 459.123 168.039L455.864 164.778C455.714 164.628 455.632 164.422 455.64 164.21C455.647 163.997 455.742 163.797 455.903 163.658C460.09 160.01 465.452 158 471.002 158C476.551 158 481.913 160.01 486.099 163.658C486.259 163.798 486.354 163.998 486.362 164.21C486.37 164.422 486.288 164.628 486.138 164.778L482.878 168.039C482.729 168.188 482.533 168.263 482.336 168.263C482.162 168.263 481.986 168.204 481.843 168.084C478.811 165.537 474.961 164.134 471.001 164.134C467.04 164.134 463.19 165.537 460.158 168.084ZM488.342 165.901C488.202 165.74 488.002 165.645 487.79 165.638C487.578 165.619 487.372 165.713 487.221 165.862L483.961 169.123C483.68 169.404 483.661 169.853 483.916 170.159C486.464 173.189 487.866 177.04 487.866 181.001C487.866 184.961 486.463 188.811 483.916 191.843C483.661 192.147 483.68 192.596 483.961 192.879L487.221 196.139C487.365 196.283 487.56 196.364 487.764 196.364L487.778 196.364C487.782 196.364 487.786 196.363 487.79 196.363C488.002 196.356 488.202 196.261 488.342 196.101C491.991 191.913 494 186.551 494 181.001C494 175.451 491.991 170.088 488.342 165.901ZM458.084 191.842C455.536 188.812 454.134 184.961 454.134 181C454.134 177.04 455.537 173.189 458.084 170.158C458.339 169.854 458.32 169.404 458.039 169.122L454.779 165.861C454.629 165.712 454.421 165.624 454.21 165.638C453.998 165.644 453.797 165.74 453.658 165.9C450.01 170.087 448 175.449 448 180.999C448 186.549 450.01 191.911 453.658 196.099C453.797 196.259 453.998 196.354 454.21 196.361C454.218 196.362 454.228 196.362 454.236 196.362C454.439 196.362 454.634 196.281 454.779 196.137L458.039 192.876C458.32 192.596 458.34 192.147 458.084 191.842ZM482.878 193.961C482.597 193.68 482.147 193.659 481.842 193.916C478.811 196.463 474.961 197.866 471 197.866C467.04 197.866 463.19 196.463 460.158 193.916C459.854 193.659 459.404 193.68 459.122 193.961L455.862 197.222C455.713 197.372 455.631 197.578 455.638 197.79C455.646 198.002 455.741 198.203 455.902 198.342C460.087 201.991 465.45 204 470.999 204C476.549 204 481.911 201.99 486.098 198.342C486.259 198.203 486.354 198.003 486.361 197.79C486.369 197.578 486.287 197.372 486.137 197.222L482.878 193.961ZM471.002 167.968C471.265 167.969 471.51 168.104 471.65 168.326C471.767 168.511 474.424 172.567 480.967 172.566C481.17 172.566 481.365 172.647 481.509 172.791C481.654 172.936 481.734 173.132 481.733 173.336L481.705 180.863C481.705 184.71 480.443 188.336 478.152 191.069C476.078 193.544 473.671 194.799 471 194.799C468.329 194.799 465.922 193.544 463.848 191.069C461.557 188.336 460.295 184.71 460.295 180.861L460.267 173.337C460.267 173.132 460.346 172.936 460.49 172.792C460.634 172.647 460.829 172.567 461.033 172.567C467.587 172.567 470.241 168.499 470.351 168.326C470.492 168.102 470.737 167.975 471.002 167.968ZM476.17 178.467C476.196 178.426 476.222 178.386 476.248 178.345C476.475 177.988 476.37 177.514 476.012 177.286C475.654 177.059 475.18 177.164 474.953 177.521L470.181 185.02L468.547 182.84C468.293 182.501 467.812 182.434 467.473 182.687C467.135 182.941 467.065 183.421 467.32 183.759C467.325 183.765 467.329 183.771 467.334 183.777C467.345 183.792 467.356 183.807 467.368 183.822C467.483 183.976 467.598 184.13 467.713 184.283C467.859 184.478 468.005 184.672 468.151 184.867C468.383 185.176 468.615 185.486 468.848 185.795C468.965 185.953 469.083 186.11 469.201 186.267C469.239 186.318 469.278 186.371 469.317 186.426C469.574 186.788 469.868 187.202 470.36 187.116C470.705 187.055 470.873 186.791 471.045 186.52C471.05 186.511 471.056 186.502 471.062 186.492C471.243 186.21 471.423 185.926 471.604 185.643L471.645 185.578C472.373 184.434 473.101 183.29 473.829 182.146C474.556 181.004 475.283 179.861 476.01 178.719C476.063 178.635 476.117 178.551 476.17 178.467Z" fill="url(#paint3_linear)"></path> <path fill-rule="evenodd" clip-rule="evenodd" d="M603.78 207.111C603.535 207.317 603.173 207.3 602.946 207.075L600.325 204.452C600.205 204.331 600.139 204.165 600.145 203.995C600.151 203.824 600.228 203.663 600.356 203.551C603.724 200.616 608.037 199 612.501 199C616.965 199 621.278 200.616 624.645 203.551C624.774 203.663 624.85 203.824 624.857 203.995C624.863 204.165 624.797 204.331 624.676 204.452L622.054 207.075C621.934 207.194 621.776 207.255 621.618 207.255C621.478 207.255 621.337 207.208 621.221 207.111C618.783 205.063 615.686 203.934 612.5 203.934C609.315 203.934 606.218 205.063 603.78 207.111ZM626.449 205.355C626.337 205.226 626.176 205.149 626.005 205.144C625.835 205.128 625.669 205.204 625.547 205.324L622.925 207.947C622.699 208.173 622.684 208.534 622.889 208.78C624.938 211.217 626.066 214.315 626.066 217.501C626.066 220.686 624.938 223.783 622.889 226.222C622.684 226.466 622.699 226.828 622.925 227.055L625.547 229.677C625.663 229.793 625.82 229.858 625.984 229.858C625.991 229.858 625.998 229.858 626.005 229.857C626.176 229.852 626.337 229.775 626.449 229.646C629.384 226.278 631 221.965 631 217.501C631 213.037 629.384 208.723 626.449 205.355ZM602.111 226.221C600.062 223.783 598.934 220.686 598.934 217.5C598.934 214.314 600.063 211.218 602.111 208.779C602.317 208.535 602.301 208.173 602.075 207.946L599.453 205.323C599.332 205.203 599.165 205.133 598.995 205.143C598.824 205.149 598.663 205.225 598.551 205.354C595.616 208.722 594 213.035 594 217.5C594 221.964 595.616 226.277 598.551 229.645C598.663 229.774 598.824 229.85 598.995 229.856C599.002 229.856 599.009 229.856 599.016 229.856C599.179 229.856 599.336 229.792 599.453 229.676L602.075 227.053C602.301 226.827 602.317 226.466 602.111 226.221ZM622.054 227.926C621.828 227.699 621.466 227.683 621.221 227.889C618.783 229.938 615.686 231.066 612.5 231.066C609.315 231.066 606.218 229.938 603.779 227.889C603.535 227.683 603.173 227.699 602.946 227.926L600.324 230.548C600.204 230.669 600.138 230.835 600.144 231.005C600.15 231.176 600.227 231.337 600.356 231.449C603.723 234.384 608.036 236 612.5 236C616.963 236 621.277 234.384 624.644 231.449C624.773 231.337 624.85 231.177 624.856 231.005C624.862 230.835 624.796 230.669 624.676 230.548L622.054 227.926ZM612.502 207.018C612.713 207.019 612.91 207.127 613.023 207.306C613.117 207.455 615.254 210.717 620.517 210.716C620.68 210.716 620.837 210.781 620.953 210.897C621.069 211.014 621.134 211.171 621.133 211.335L621.111 217.39C621.111 220.484 620.095 223.401 618.253 225.599C616.584 227.589 614.649 228.6 612.5 228.6C610.351 228.6 608.416 227.59 606.747 225.599C604.905 223.401 603.889 220.484 603.889 217.388L603.867 211.336C603.867 211.172 603.931 211.014 604.047 210.898C604.162 210.781 604.319 210.717 604.483 210.717C609.755 210.717 611.89 207.445 611.978 207.305C612.091 207.126 612.288 207.023 612.502 207.018ZM616.659 215.462C616.68 215.43 616.7 215.397 616.721 215.365C616.904 215.077 616.819 214.696 616.531 214.512C616.243 214.33 615.862 214.415 615.68 214.702L611.842 220.733L610.527 218.98C610.323 218.708 609.936 218.653 609.663 218.857C609.391 219.061 609.335 219.448 609.54 219.72C609.548 219.729 609.555 219.74 609.563 219.75C609.568 219.756 609.573 219.763 609.578 219.77C609.671 219.894 609.764 220.018 609.857 220.141C609.974 220.298 610.091 220.454 610.209 220.611C610.395 220.86 610.583 221.109 610.77 221.359C610.864 221.485 610.959 221.611 611.053 221.737C611.084 221.777 611.115 221.821 611.146 221.865C611.353 222.156 611.59 222.488 611.985 222.419C612.263 222.37 612.398 222.158 612.536 221.94C612.541 221.933 612.545 221.925 612.55 221.918C612.696 221.69 612.841 221.462 612.986 221.234L613.019 221.182C613.603 220.264 614.188 219.345 614.773 218.426C615.358 217.506 615.944 216.586 616.53 215.665C616.573 215.598 616.616 215.53 616.659 215.462Z" fill="url(#paint4_linear)"></path> </g> <defs> <linearGradient id="paint0_linear" x1="384.5" y1="20" x2="554.924" y2="74.0972" gradientUnits="userSpaceOnUse"> <stop stop-color="#98CDFE"></stop> <stop offset="1" stop-color="#98CDFE" stop-opacity="0"></stop> </linearGradient> <linearGradient id="paint1_linear" x1="478.706" y1="137" x2="599.005" y2="175.186" gradientUnits="userSpaceOnUse"> <stop stop-color="#98CDFE"></stop> <stop offset="1" stop-color="#98CDFE" stop-opacity="0"></stop> </linearGradient> <linearGradient id="paint2_linear" x1="534" y1="-21" x2="661.211" y2="133.503" gradientUnits="userSpaceOnUse"> <stop stop-color="#98CDFE"></stop> <stop offset="1" stop-color="#98CDFE" stop-opacity="0"></stop> </linearGradient> <linearGradient id="paint3_linear" x1="432.97" y1="134.772" x2="490.908" y2="205.14" gradientUnits="userSpaceOnUse"> <stop stop-color="#98CDFE"></stop> <stop offset="1" stop-color="#98CDFE" stop-opacity="0"></stop> </linearGradient> <linearGradient id="paint4_linear" x1="581.911" y1="180.317" x2="628.513" y2="236.917" gradientUnits="userSpaceOnUse"> <stop stop-color="#98CDFE"></stop> <stop offset="1" stop-color="#98CDFE" stop-opacity="0"></stop> </linearGradient> </defs> </svg> 