<?xml version="1.0" encoding="UTF-8"?> <svg xmlns="http://www.w3.org/2000/svg" width="211" height="176" viewBox="0 0 211 176" fill="none"> <path d="M18.4234 167.226C21.4226 167.474 24.4381 167.604 27.4158 168.003C29.8152 168.327 32.1822 168.942 34.5438 169.498C35.8736 169.794 37.0861 170.476 38.0295 171.457C39.0347 172.494 39.694 173.713 39.0293 175.106C38.2943 176.66 36.9325 175.775 35.9327 175.494C28.394 173.373 20.5796 173.805 12.9058 172.931C11.0359 172.715 9.18773 172.213 7.3125 172.051C3.29184 171.7 2.14077 168.197 0.379025 165.574C-0.653162 164.052 0.557357 162.336 2.38935 161.883C13.23 159.227 22.2873 152.751 32.1877 148.093C34.0034 147.235 36.1381 145.395 37.6296 147.823C39.1211 150.252 36.5488 151.364 34.8465 152.416C31.096 154.705 27.3185 156.939 23.6167 159.497C26.562 160.247 29.4478 159.497 32.2633 159.244C46.9355 158.013 61.2618 154.926 75.426 150.981C85.5155 148.19 94.6755 143.462 103.365 137.731C103.837 137.469 104.235 137.094 104.525 136.64C104.815 136.186 104.986 135.666 105.024 135.129C106.105 120.46 113.557 109.304 124.479 100.048C127.878 97.1605 131.386 94.6076 135.914 93.7549C140.967 92.805 143.777 95.1905 143.41 100.339C143.21 103.189 141.983 105.737 140.61 108.154C134.37 119.248 125.842 128.892 115.589 136.446C114.509 137.267 112.287 137.731 112.979 139.684C113.763 141.897 115.924 142.556 118.102 142.383C121.697 142.052 125.208 141.109 128.484 139.593C136.893 135.843 144.616 130.715 151.332 124.421C162.681 113.762 174.084 103.151 182.325 89.6963C192.922 72.4255 201.855 54.4584 205.125 34.1598C206.584 25.125 206.114 16.0525 205.849 6.9853C205.874 5.26268 205.385 3.57159 204.444 2.12788C203.974 1.46943 203.72 0.816381 204.514 0.271271C204.818 0.0659712 205.183 -0.0274619 205.548 0.00700643C205.913 0.0414748 206.254 0.201698 206.514 0.460174C207.811 1.5396 208.373 3.07778 208.897 4.61596C210.561 9.47337 210.588 14.5197 210.88 19.5336C211.604 32.2223 208.978 44.4468 204.855 56.3042C198.602 74.2605 189.999 91.1373 177.91 105.844C166.599 119.602 154.326 132.576 138.665 141.725C132.883 145.103 126.943 148.028 120.183 148.924C115.152 149.594 110.845 148.449 107.818 144.169C106.624 142.48 105.657 143.193 104.446 143.97C96.5831 149.129 88.2932 153.442 79.2143 156.059C63.1803 160.69 46.8868 164.004 30.2314 165.418C26.3026 165.753 22.39 166.271 18.4666 166.702L18.4234 167.226ZM111.504 130.331C111.585 130.693 111.542 131.346 111.807 131.502C112.606 131.988 113.109 131.179 113.628 130.785C123.355 123.401 131.526 114.669 137.346 103.869C137.912 102.842 138.363 101.756 138.692 100.631C139.324 98.3802 138.524 97.5976 136.19 98.1266C134.338 98.5568 132.602 99.3816 131.099 100.544C126.017 104.289 121.613 108.872 118.075 114.097C114.782 118.995 112.544 124.523 111.504 130.331V130.331Z" fill="#F5B53D"></path> </svg> 