<?xml version="1.0" encoding="UTF-8"?> <svg xmlns="http://www.w3.org/2000/svg" width="300" height="345" viewBox="0 0 300 345" fill="none"> <g clip-path="url(#clip0)"> <mask id="mask0" mask-type="alpha" maskUnits="userSpaceOnUse" x="-297" y="163" width="606" height="211"> <rect x="-297" y="163" width="606" height="210.264" rx="16" fill="#434760"></rect> </mask> <g mask="url(#mask0)"> <path opacity="0.47" d="M-32.5 376C-13.7488 321.9 12 314.959 49 318C49 318 101.423 340.428 124.5 320.5C152.964 273.424 178.58 293.323 186.882 304.987C196.982 321.924 215.345 323.094 226.823 314.041C238.3 304.987 263.079 224.385 286.096 218.629C309.113 212.872 311.295 255.356 343.432 249.388C360.45 242.676 366.706 237.06 368.798 233.225C369.71 231.554 369.141 231.613 369.141 233.516V445.469L-32.5 376Z" fill="url(#paint0_linear)"></path> <path d="M-51.8455 390.709C-29.6874 390.709 -19.8368 309.321 1.5 307.155C23.765 302.756 39.368 338.245 63.5 337.455C96.3998 336.374 99.4191 314.688 126.282 307.155C153.145 299.621 162.091 337.455 181.832 337.455C201.573 337.455 201.304 226.002 228.2 224.518C273.65 215.795 261.714 277.314 283.291 277.314C304.868 277.314 295.446 206.155 323.691 206.155" stroke="#0085FF" stroke-width="2" stroke-linecap="round" stroke-linejoin="round"></path> <g filter="url(#filter0_d)"> <circle cx="232.791" cy="226.355" r="13.7727" fill="white"></circle> </g> <circle cx="232.791" cy="226.355" r="5.50909" fill="#0085FF"></circle> </g> <path d="M154.911 222.133H157.694V223.759H154.911V226.931H153.183V223.759H150.385V222.133H153.183V219.167H154.911V222.133ZM164.25 225.217C164.25 224.802 164.118 224.46 163.854 224.191C163.59 223.918 163.151 223.674 162.536 223.459C161.92 223.239 161.442 223.037 161.1 222.851C159.962 222.241 159.394 221.337 159.394 220.141C159.394 219.331 159.64 218.664 160.133 218.142C160.626 217.619 161.295 217.309 162.14 217.211V215.615H163.312V217.226C164.162 217.348 164.818 217.709 165.282 218.31C165.746 218.906 165.978 219.682 165.978 220.639H164.206C164.206 220.024 164.066 219.541 163.788 219.189C163.515 218.833 163.141 218.654 162.667 218.654C162.199 218.654 161.833 218.781 161.569 219.035C161.305 219.289 161.173 219.653 161.173 220.126C161.173 220.551 161.303 220.893 161.562 221.152C161.825 221.406 162.27 221.647 162.895 221.877C163.52 222.106 164.01 222.319 164.367 222.514C164.723 222.709 165.023 222.934 165.268 223.188C165.512 223.437 165.7 223.725 165.832 224.052C165.963 224.379 166.029 224.763 166.029 225.202C166.029 226.027 165.775 226.696 165.268 227.209C164.765 227.722 164.062 228.024 163.158 228.117V229.545H161.994V228.125C161.027 228.017 160.282 227.67 159.76 227.084C159.242 226.499 158.983 225.722 158.983 224.755H160.763C160.763 225.371 160.917 225.847 161.225 226.184C161.537 226.521 161.977 226.689 162.543 226.689C163.1 226.689 163.522 226.555 163.81 226.286C164.103 226.018 164.25 225.661 164.25 225.217ZM174.629 228H172.857V219.438L170.242 220.332V218.83L174.402 217.299H174.629V228ZM178.812 222.712L179.39 217.336H185.118V218.874H180.87L180.577 221.423C181.07 221.14 181.626 220.998 182.247 220.998C183.262 220.998 184.051 221.323 184.612 221.972C185.179 222.622 185.462 223.496 185.462 224.594C185.462 225.678 185.149 226.542 184.524 227.187C183.899 227.827 183.042 228.146 181.954 228.146C180.977 228.146 180.167 227.871 179.522 227.319C178.882 226.762 178.536 226.03 178.482 225.122H180.203C180.271 225.639 180.457 226.037 180.76 226.315C181.062 226.589 181.458 226.726 181.946 226.726C182.493 226.726 182.918 226.53 183.221 226.14C183.528 225.749 183.682 225.217 183.682 224.543C183.682 223.894 183.514 223.381 183.177 223.005C182.84 222.624 182.376 222.434 181.785 222.434C181.463 222.434 181.189 222.478 180.965 222.565C180.74 222.648 180.496 222.814 180.232 223.063L178.812 222.712ZM193.812 223.51C193.812 225.043 193.523 226.201 192.947 226.982C192.376 227.758 191.504 228.146 190.333 228.146C189.18 228.146 188.311 227.768 187.725 227.011C187.144 226.25 186.846 225.124 186.832 223.635V221.789C186.832 220.256 187.117 219.106 187.688 218.339C188.265 217.573 189.141 217.189 190.318 217.189C191.485 217.189 192.354 217.563 192.925 218.31C193.501 219.057 193.797 220.175 193.812 221.665V223.51ZM192.032 221.518C192.032 220.517 191.895 219.785 191.622 219.321C191.348 218.852 190.914 218.618 190.318 218.618C189.737 218.618 189.31 218.84 189.036 219.284C188.763 219.724 188.619 220.412 188.604 221.35V223.767C188.604 224.763 188.743 225.505 189.021 225.993C189.3 226.481 189.737 226.726 190.333 226.726C190.904 226.726 191.326 226.501 191.6 226.052C191.873 225.598 192.017 224.89 192.032 223.928V221.518ZM202.337 223.51C202.337 225.043 202.049 226.201 201.473 226.982C200.901 227.758 200.03 228.146 198.858 228.146C197.706 228.146 196.836 227.768 196.25 227.011C195.669 226.25 195.372 225.124 195.357 223.635V221.789C195.357 220.256 195.643 219.106 196.214 218.339C196.79 217.573 197.667 217.189 198.843 217.189C200.01 217.189 200.879 217.563 201.451 218.31C202.027 219.057 202.322 220.175 202.337 221.665V223.51ZM200.557 221.518C200.557 220.517 200.42 219.785 200.147 219.321C199.874 218.852 199.439 218.618 198.843 218.618C198.262 218.618 197.835 218.84 197.562 219.284C197.288 219.724 197.144 220.412 197.129 221.35V223.767C197.129 224.763 197.269 225.505 197.547 225.993C197.825 226.481 198.262 226.726 198.858 226.726C199.429 226.726 199.852 226.501 200.125 226.052C200.398 225.598 200.542 224.89 200.557 223.928V221.518Z" fill="#0085FF"></path> </g> <defs> <filter id="filter0_d" x="209.018" y="206.582" width="47.5455" height="47.5455" filterUnits="userSpaceOnUse" color-interpolation-filters="sRGB"> <feFlood flood-opacity="0" result="BackgroundImageFix"></feFlood> <feColorMatrix in="SourceAlpha" type="matrix" values="0 0 0 0 0 0 0 0 0 0 0 0 0 0 0 0 0 0 127 0"></feColorMatrix> <feOffset dy="4"></feOffset> <feGaussianBlur stdDeviation="5"></feGaussianBlur> <feColorMatrix type="matrix" values="0 0 0 0 0 0 0 0 0 0 0 0 0 0 0 0 0 0 0.07 0"></feColorMatrix> <feBlend mode="normal" in2="BackgroundImageFix" result="effect1_dropShadow"></feBlend> <feBlend mode="normal" in="SourceGraphic" in2="effect1_dropShadow" result="shape"></feBlend> </filter> <linearGradient id="paint0_linear" x1="178.618" y1="201.105" x2="180.358" y2="404.027" gradientUnits="userSpaceOnUse"> <stop stop-color="#98CDFE"></stop> <stop offset="1" stop-color="#98CDFE" stop-opacity="0"></stop> </linearGradient> <clipPath id="clip0"> <rect width="300" height="345" rx="16" fill="white"></rect> </clipPath> </defs> </svg> 