<?xml version="1.0" encoding="UTF-8"?> <svg xmlns="http://www.w3.org/2000/svg" width="122" height="14" viewBox="0 0 122 14" fill="none"> <path d="M95.2555 5.40819C79.8294 4.46201 64.3063 4.06113 48.7732 3.87165C39.3513 3.7572 29.9368 3.92055 20.52 4.24017C15.0091 4.42537 9.50412 4.70165 3.9893 4.86144C2.63472 4.90378 0.54541 5.37571 0.336773 3.73149C0.202582 2.67592 2.42118 2.82045 3.59063 2.6988C19.3779 1.10131 35.2383 0.301964 51.1099 0.303887C73.288 0.396728 95.4195 1.48116 117.559 2.50039C117.814 2.49719 118.069 2.50916 118.323 2.53626C119.756 2.78009 121.425 2.88872 121.516 4.76449C121.599 6.46337 120.098 6.90744 118.766 7.24339C113.564 8.55795 108.223 9.04369 102.896 9.43427C90.5311 10.3671 78.2379 11.944 65.8995 13.0698C63.8745 13.2572 61.8408 13.4139 59.8073 13.4597C58.3205 13.4908 56.7023 13.2786 56.4869 11.4525C56.2715 9.62636 57.8129 9.0833 59.2753 8.80893C65.0383 7.71242 70.9058 7.43299 76.7203 6.86858C82.8928 6.2907 89.0771 5.89499 95.2555 5.40819Z" fill="#FF3049"></path> </svg> 