<?xml version="1.0" encoding="UTF-8"?> <svg xmlns="http://www.w3.org/2000/svg" width="560" height="240" viewBox="0 0 560 240" fill="none"> <g clip-path="url(#clip0)"> <circle cx="453" cy="26" r="34" fill="url(#paint0_linear)"></circle> <path d="M444.695 33H437.047V31.6953L440.836 27.5625C441.383 26.9531 441.771 26.4453 442 26.0391C442.234 25.6276 442.352 25.2161 442.352 24.8047C442.352 24.263 442.198 23.8255 441.891 23.4922C441.589 23.1589 441.18 22.9922 440.664 22.9922C440.049 22.9922 439.573 23.1797 439.234 23.5547C438.896 23.9297 438.727 24.4427 438.727 25.0938H436.828C436.828 24.401 436.984 23.7786 437.297 23.2266C437.615 22.6693 438.065 22.237 438.648 21.9297C439.237 21.6224 439.914 21.4688 440.68 21.4688C441.784 21.4688 442.654 21.7474 443.289 22.3047C443.93 22.8568 444.25 23.6224 444.25 24.6016C444.25 25.1693 444.089 25.7656 443.766 26.3906C443.448 27.0104 442.924 27.7161 442.195 28.5078L439.414 31.4844H444.695V33ZM452.562 28.9453H453.977V30.4688H452.562V33H450.664V30.4688H445.75L445.695 29.3125L450.602 21.625H452.562V28.9453ZM447.688 28.9453H450.664V24.1953L450.523 24.4453L447.688 28.9453ZM455.891 33.9766H454.398L458.875 21.625H460.367L455.891 33.9766ZM469.133 22.6797L464.586 33H462.594L467.133 23.1484H461.25V21.625H469.133V22.6797Z" fill="white"></path> <circle cx="463" cy="220" r="24" fill="url(#paint1_linear)"></circle> <path d="M457.81 224.353H453.029V223.537L455.397 220.954C455.739 220.574 455.982 220.256 456.125 220.002C456.271 219.745 456.345 219.488 456.345 219.231C456.345 218.892 456.249 218.619 456.057 218.411C455.868 218.202 455.612 218.098 455.29 218.098C454.906 218.098 454.608 218.215 454.396 218.45C454.185 218.684 454.079 219.005 454.079 219.411H452.893C452.893 218.979 452.99 218.59 453.186 218.245C453.384 217.896 453.666 217.626 454.03 217.434C454.398 217.242 454.821 217.146 455.3 217.146C455.99 217.146 456.534 217.32 456.931 217.668C457.331 218.013 457.531 218.492 457.531 219.104C457.531 219.459 457.43 219.831 457.229 220.222C457.03 220.609 456.703 221.05 456.247 221.545L454.509 223.406H457.81V224.353ZM462.727 221.819H463.61V222.771H462.727V224.353H461.54V222.771H458.469L458.435 222.048L461.501 217.244H462.727V221.819ZM459.68 221.819H461.54V218.85L461.452 219.006L459.68 221.819ZM464.807 224.963H463.874L466.672 217.244H467.604L464.807 224.963ZM473.083 217.903L470.241 224.353H468.996L471.833 218.196H468.156V217.244H473.083V217.903Z" fill="white"></path> <path fill-rule="evenodd" clip-rule="evenodd" d="M531.696 55.1411C531.028 55.7035 530.039 55.6579 529.422 55.0418L522.266 47.8823C521.938 47.5523 521.758 47.0994 521.774 46.635C521.791 46.1671 522 45.7292 522.352 45.4229C531.545 37.4122 543.318 33 555.503 33C567.689 33 579.462 37.4122 588.653 45.4233C589.004 45.7297 589.213 46.1692 589.23 46.6354C589.247 47.0999 589.067 47.5527 588.738 47.8827L581.581 55.0418C581.253 55.3683 580.822 55.5351 580.389 55.5351C580.007 55.5351 579.622 55.4053 579.307 55.1411C572.651 49.5494 564.197 46.4687 555.501 46.4687C546.805 46.4687 538.352 49.549 531.696 55.1411ZM593.577 50.3469C593.27 49.995 592.831 49.7861 592.365 49.7711C591.9 49.729 591.447 49.9344 591.115 50.2626L583.958 57.4217C583.34 58.0396 583.298 59.0261 583.859 59.6959C589.453 66.3502 592.531 74.8055 592.531 83.5015C592.531 92.1975 589.451 100.651 583.859 107.307C583.298 107.975 583.34 108.962 583.958 109.581L591.115 116.74C591.432 117.057 591.86 117.234 592.307 117.234C592.326 117.234 592.346 117.234 592.365 117.232C592.831 117.217 593.27 117.008 593.577 116.656C601.588 107.462 606 95.6885 606 83.5028C606 71.3171 601.589 59.5413 593.577 50.3469ZM527.141 107.306C521.547 100.652 518.469 92.1962 518.469 83.5002C518.469 74.8042 521.549 66.3506 527.141 59.6947C527.702 59.0265 527.66 58.04 527.042 57.4204L519.884 50.2609C519.554 49.9327 519.098 49.7406 518.635 49.7694C518.169 49.7844 517.729 49.9933 517.423 50.3452C509.412 59.5396 505 71.3128 505 83.4985C505 95.6842 509.412 107.457 517.423 116.652C517.729 117.004 518.169 117.213 518.635 117.228C518.642 117.228 518.65 117.229 518.658 117.229C518.669 117.229 518.681 117.229 518.692 117.229C519.138 117.229 519.566 117.053 519.884 116.736L527.042 109.577C527.659 108.96 527.703 107.974 527.141 107.306ZM581.58 111.959C580.963 111.341 579.974 111.295 579.306 111.859C572.65 117.451 564.197 120.532 555.501 120.532C546.805 120.532 538.351 117.451 531.695 111.859C531.027 111.296 530.039 111.341 529.421 111.959L522.263 119.118C521.935 119.448 521.755 119.901 521.772 120.365C521.788 120.831 521.997 121.271 522.349 121.577C531.54 129.588 543.315 134 555.499 134C567.683 134 579.458 129.588 588.651 121.577C589.002 121.271 589.211 120.833 589.228 120.365C589.245 119.901 589.065 119.448 588.736 119.118L581.58 111.959ZM555.505 54.8867C556.082 54.8884 556.619 55.1849 556.927 55.673C557.185 56.0786 563.018 64.9834 577.383 64.9812C577.829 64.9812 578.258 65.1596 578.575 65.4762C578.891 65.7946 579.068 66.2238 579.066 66.6715L579.004 83.1986C579.004 91.6458 576.233 99.6079 571.203 105.607C566.649 111.041 561.364 113.798 555.5 113.798C549.635 113.798 544.351 111.043 539.796 105.607C534.766 99.6079 531.995 91.6458 531.995 83.1939L531.933 66.6737C531.933 66.2255 532.108 65.795 532.424 65.4784C532.739 65.16 533.169 64.9834 533.616 64.9834C548.005 64.9834 553.833 56.0515 554.074 55.6713C554.384 55.1814 554.922 54.9017 555.505 54.8867ZM566.852 77.9382C566.909 77.8491 566.965 77.7598 567.022 77.6705C567.521 76.8864 567.29 75.8462 566.504 75.3443C565.718 74.8476 564.678 75.0784 564.179 75.8612L553.702 92.326L550.113 87.5404C549.556 86.7962 548.501 86.6479 547.757 87.2035C547.012 87.7608 546.861 88.816 547.42 89.5585C547.437 89.5813 547.455 89.6044 547.472 89.6275C547.489 89.6505 547.507 89.6736 547.524 89.6964C547.777 90.0343 548.03 90.3717 548.283 90.709C548.604 91.1364 548.925 91.5636 549.245 91.9908C549.758 92.675 550.271 93.36 550.786 94.0452C551.041 94.3849 551.296 94.7248 551.551 95.0646C551.634 95.1758 551.718 95.2939 551.804 95.4146C552.368 96.2081 553.015 97.1164 554.094 96.9281C554.853 96.7948 555.221 96.2144 555.597 95.6207C555.61 95.6004 555.623 95.58 555.636 95.5596C556.033 94.9399 556.428 94.3183 556.823 93.6969L556.916 93.5514C558.511 91.0443 560.107 88.5372 561.702 86.03C563.301 83.5174 564.9 81.0047 566.499 78.492C566.617 78.3079 566.734 78.1233 566.852 77.9382Z" fill="url(#paint2_linear)"></path> <path fill-rule="evenodd" clip-rule="evenodd" d="M441.158 136.084C440.854 136.34 440.404 136.319 440.123 136.039L436.864 132.778C436.714 132.628 436.632 132.422 436.64 132.21C436.647 131.997 436.742 131.797 436.903 131.658C441.09 128.01 446.452 126 452.002 126C457.551 126 462.913 128.01 467.099 131.658C467.259 131.798 467.354 131.998 467.362 132.21C467.37 132.422 467.288 132.628 467.138 132.778L463.878 136.039C463.729 136.188 463.533 136.263 463.336 136.263C463.162 136.263 462.986 136.204 462.843 136.084C459.811 133.537 455.961 132.134 452.001 132.134C448.04 132.134 444.19 133.537 441.158 136.084ZM469.342 133.901C469.202 133.74 469.002 133.645 468.79 133.638C468.578 133.619 468.372 133.713 468.221 133.862L464.961 137.123C464.68 137.404 464.661 137.853 464.916 138.159C467.464 141.189 468.866 145.04 468.866 149.001C468.866 152.961 467.463 156.811 464.916 159.843C464.661 160.147 464.68 160.596 464.961 160.879L468.221 164.139C468.365 164.283 468.56 164.364 468.764 164.364L468.778 164.364C468.782 164.364 468.786 164.363 468.79 164.363C469.002 164.356 469.202 164.261 469.342 164.101C472.991 159.913 475 154.551 475 149.001C475 143.451 472.991 138.088 469.342 133.901ZM439.084 159.842C436.536 156.812 435.134 152.961 435.134 149C435.134 145.04 436.537 141.189 439.084 138.158C439.339 137.854 439.32 137.404 439.039 137.122L435.779 133.861C435.629 133.712 435.421 133.624 435.21 133.638C434.998 133.644 434.797 133.74 434.658 133.9C431.01 138.087 429 143.449 429 148.999C429 154.549 431.01 159.911 434.658 164.099C434.797 164.259 434.998 164.354 435.21 164.361C435.218 164.362 435.228 164.362 435.236 164.362C435.439 164.362 435.634 164.281 435.779 164.137L439.039 160.876C439.32 160.596 439.34 160.147 439.084 159.842ZM463.878 161.961C463.597 161.68 463.147 161.659 462.842 161.916C459.811 164.463 455.961 165.866 452 165.866C448.04 165.866 444.19 164.463 441.158 161.916C440.854 161.659 440.404 161.68 440.122 161.961L436.862 165.222C436.713 165.372 436.631 165.578 436.638 165.79C436.646 166.002 436.741 166.203 436.902 166.342C441.087 169.991 446.45 172 451.999 172C457.549 172 462.911 169.99 467.098 166.342C467.259 166.203 467.354 166.003 467.361 165.79C467.369 165.578 467.287 165.372 467.137 165.222L463.878 161.961ZM452.002 135.968C452.265 135.969 452.51 136.104 452.65 136.326C452.767 136.511 455.424 140.567 461.967 140.566C462.17 140.566 462.365 140.647 462.509 140.791C462.654 140.936 462.734 141.132 462.733 141.336L462.705 148.863C462.705 152.71 461.443 156.336 459.152 159.069C457.078 161.544 454.671 162.799 452 162.799C449.329 162.799 446.922 161.544 444.848 159.069C442.557 156.336 441.295 152.71 441.295 148.861L441.267 141.337C441.267 141.132 441.346 140.936 441.49 140.792C441.634 140.647 441.829 140.567 442.033 140.567C448.587 140.567 451.241 136.499 451.351 136.326C451.492 136.102 451.737 135.975 452.002 135.968ZM457.17 146.467C457.196 146.426 457.222 146.386 457.248 146.345C457.475 145.988 457.37 145.514 457.012 145.286C456.654 145.059 456.18 145.164 455.953 145.521L451.181 153.02L449.547 150.84C449.293 150.501 448.812 150.434 448.473 150.687C448.135 150.941 448.065 151.421 448.32 151.759C448.325 151.765 448.329 151.771 448.334 151.777C448.345 151.792 448.356 151.807 448.368 151.822C448.483 151.976 448.598 152.13 448.713 152.283C448.859 152.478 449.005 152.672 449.151 152.867C449.383 153.176 449.615 153.486 449.848 153.795C449.965 153.953 450.083 154.11 450.201 154.267C450.239 154.318 450.278 154.371 450.317 154.426C450.574 154.788 450.868 155.202 451.36 155.116C451.705 155.055 451.873 154.791 452.045 154.52C452.05 154.511 452.056 154.502 452.062 154.492C452.243 154.21 452.423 153.926 452.604 153.643L452.645 153.578C453.373 152.434 454.101 151.29 454.829 150.146C455.556 149.004 456.283 147.861 457.01 146.719C457.063 146.635 457.117 146.551 457.17 146.467Z" fill="url(#paint3_linear)"></path> <path fill-rule="evenodd" clip-rule="evenodd" d="M540.78 204.111C540.535 204.317 540.173 204.3 539.946 204.075L537.325 201.452C537.205 201.331 537.139 201.165 537.145 200.995C537.151 200.824 537.228 200.663 537.356 200.551C540.724 197.616 545.037 196 549.501 196C553.965 196 558.278 197.616 561.645 200.551C561.774 200.663 561.85 200.824 561.857 200.995C561.863 201.165 561.797 201.331 561.676 201.452L559.054 204.075C558.934 204.194 558.776 204.255 558.618 204.255C558.478 204.255 558.337 204.208 558.221 204.111C555.783 202.063 552.686 200.934 549.5 200.934C546.315 200.934 543.218 202.063 540.78 204.111ZM563.449 202.355C563.337 202.226 563.176 202.149 563.005 202.144C562.835 202.128 562.669 202.204 562.547 202.324L559.925 204.947C559.699 205.173 559.684 205.534 559.889 205.78C561.938 208.217 563.066 211.315 563.066 214.501C563.066 217.686 561.938 220.783 559.889 223.222C559.684 223.466 559.699 223.828 559.925 224.055L562.547 226.677C562.663 226.793 562.82 226.858 562.984 226.858C562.991 226.858 562.998 226.858 563.005 226.857C563.176 226.852 563.337 226.775 563.449 226.646C566.384 223.278 568 218.965 568 214.501C568 210.037 566.384 205.723 563.449 202.355ZM539.111 223.221C537.062 220.783 535.934 217.686 535.934 214.5C535.934 211.314 537.063 208.218 539.111 205.779C539.317 205.535 539.301 205.173 539.075 204.946L536.453 202.323C536.332 202.203 536.165 202.133 535.995 202.143C535.824 202.149 535.663 202.225 535.551 202.354C532.616 205.722 531 210.035 531 214.5C531 218.964 532.616 223.277 535.551 226.645C535.663 226.774 535.824 226.85 535.995 226.856C536.002 226.856 536.009 226.856 536.016 226.856C536.179 226.856 536.336 226.792 536.453 226.676L539.075 224.053C539.301 223.827 539.317 223.466 539.111 223.221ZM559.054 224.926C558.828 224.699 558.466 224.683 558.221 224.889C555.783 226.938 552.686 228.066 549.5 228.066C546.315 228.066 543.218 226.938 540.779 224.889C540.535 224.683 540.173 224.699 539.946 224.926L537.324 227.548C537.204 227.669 537.138 227.835 537.144 228.005C537.15 228.176 537.227 228.337 537.356 228.449C540.723 231.384 545.036 233 549.5 233C553.963 233 558.277 231.384 561.644 228.449C561.773 228.337 561.85 228.177 561.856 228.005C561.862 227.835 561.796 227.669 561.676 227.548L559.054 224.926ZM549.502 204.018C549.713 204.019 549.91 204.127 550.023 204.306C550.117 204.455 552.254 207.717 557.517 207.716C557.68 207.716 557.837 207.781 557.953 207.897C558.069 208.014 558.134 208.171 558.133 208.335L558.111 214.39C558.111 217.484 557.095 220.401 555.253 222.599C553.584 224.589 551.649 225.6 549.5 225.6C547.351 225.6 545.416 224.59 543.747 222.599C541.905 220.401 540.889 217.484 540.889 214.388L540.867 208.336C540.867 208.172 540.931 208.014 541.047 207.898C541.162 207.781 541.319 207.717 541.483 207.717C546.755 207.717 548.89 204.445 548.978 204.305C549.091 204.126 549.288 204.023 549.502 204.018ZM553.659 212.462C553.68 212.43 553.7 212.397 553.721 212.365C553.904 212.077 553.819 211.696 553.531 211.512C553.243 211.33 552.862 211.415 552.68 211.702L548.842 217.733L547.527 215.98C547.323 215.708 546.936 215.653 546.663 215.857C546.391 216.061 546.335 216.448 546.54 216.72C546.548 216.729 546.555 216.74 546.563 216.75C546.568 216.756 546.573 216.763 546.578 216.77C546.671 216.894 546.764 217.018 546.857 217.141C546.974 217.298 547.091 217.454 547.209 217.611C547.395 217.86 547.583 218.109 547.77 218.359C547.864 218.485 547.959 218.611 548.053 218.737C548.084 218.777 548.115 218.821 548.146 218.865C548.353 219.156 548.59 219.488 548.985 219.419C549.263 219.37 549.398 219.158 549.536 218.94C549.541 218.933 549.545 218.925 549.55 218.918C549.696 218.69 549.841 218.462 549.986 218.234L550.019 218.182C550.603 217.264 551.188 216.345 551.773 215.426C552.358 214.506 552.944 213.586 553.53 212.665C553.573 212.598 553.616 212.53 553.659 212.462Z" fill="url(#paint4_linear)"></path> </g> <defs> <linearGradient id="paint0_linear" x1="343.5" y1="-8" x2="513.924" y2="46.0972" gradientUnits="userSpaceOnUse"> <stop stop-color="#98CDFE"></stop> <stop offset="1" stop-color="#98CDFE" stop-opacity="0"></stop> </linearGradient> <linearGradient id="paint1_linear" x1="385.706" y1="196" x2="506.005" y2="234.186" gradientUnits="userSpaceOnUse"> <stop stop-color="#98CDFE"></stop> <stop offset="1" stop-color="#98CDFE" stop-opacity="0"></stop> </linearGradient> <linearGradient id="paint2_linear" x1="472" y1="-18" x2="599.211" y2="136.503" gradientUnits="userSpaceOnUse"> <stop stop-color="#98CDFE"></stop> <stop offset="1" stop-color="#98CDFE" stop-opacity="0"></stop> </linearGradient> <linearGradient id="paint3_linear" x1="413.97" y1="102.772" x2="471.908" y2="173.14" gradientUnits="userSpaceOnUse"> <stop stop-color="#98CDFE"></stop> <stop offset="1" stop-color="#98CDFE" stop-opacity="0"></stop> </linearGradient> <linearGradient id="paint4_linear" x1="518.911" y1="177.317" x2="565.513" y2="233.917" gradientUnits="userSpaceOnUse"> <stop stop-color="#98CDFE"></stop> <stop offset="1" stop-color="#98CDFE" stop-opacity="0"></stop> </linearGradient> <clipPath id="clip0"> <rect width="560" height="240" fill="white"></rect> </clipPath> </defs> </svg> 