<?xml version="1.0" encoding="UTF-8"?> <svg xmlns="http://www.w3.org/2000/svg" width="2560" height="36" viewBox="0 0 2560 36" fill="none"> <g clip-path="url(#clip0)"> <path fill-rule="evenodd" clip-rule="evenodd" d="M2328.52 35.9945C2333.28 35.9945 2337.14 31.9697 2337.14 27.0047C2337.14 22.0398 2333.28 18.015 2328.52 18.015C2323.77 18.015 2319.91 22.0398 2319.91 27.0047C2319.91 31.9697 2323.77 35.9945 2328.52 35.9945ZM2328.52 31.6045C2330.96 31.6045 2332.93 29.5443 2332.93 27.0047C2332.93 24.4651 2330.96 22.405 2328.52 22.405C2326.09 22.405 2324.12 24.4651 2324.12 27.0047C2324.12 29.5462 2326.09 31.6045 2328.52 31.6045Z" fill="#0F6193"></path> <path fill-rule="evenodd" clip-rule="evenodd" d="M2299.04 35.9944C2300.63 35.9944 2301.91 34.6533 2301.91 32.9979C2301.91 31.3422 2300.63 30.0012 2299.04 30.0012C2297.45 30.0012 2296.17 31.3422 2296.17 32.9979C2296.17 34.6533 2297.46 35.9944 2299.04 35.9944Z" fill="#0F6193"></path> <path fill-rule="evenodd" clip-rule="evenodd" d="M2359.66 23.6543C2359.21 20.4667 2356.57 18.017 2353.37 18.017C2351.74 18.017 2350.26 18.6519 2349.13 19.6932C2348.01 18.65 2346.52 18.017 2344.9 18.017C2344.9 18.017 2344.89 18.017 2344.89 18.017C2344.68 18.017 2344.47 18.0282 2344.26 18.0507C2344.21 18.0563 2344.17 18.0657 2344.12 18.0713C2343.96 18.0919 2343.8 18.1144 2343.64 18.1481C2343.6 18.1574 2343.56 18.1687 2343.51 18.1799C2343.35 18.2174 2343.19 18.2586 2343.03 18.3092C2343 18.3185 2342.97 18.3316 2342.94 18.341C2342.77 18.3972 2342.61 18.4608 2342.44 18.5301C2342.43 18.5376 2342.41 18.547 2342.39 18.5545C2342.22 18.6332 2342.04 18.7174 2341.88 18.8111C2341.87 18.8148 2341.87 18.8186 2341.86 18.8204C2341.43 19.0658 2341.02 19.3542 2340.66 19.6932L2340.64 19.7306C2339.46 20.8394 2338.68 22.3938 2338.56 24.1356L2338.54 24.1843V24.6038V31.6813V31.9267V35.9965H2342.77V29.0668V24.1843C2342.77 23.0306 2343.68 22.0942 2344.79 22.0942H2344.8H2344.99C2346.11 22.0942 2347.01 23.0306 2347.01 24.1843V27.4992V35.9965H2347.02H2351.25V29.0668V24.1843C2351.25 23.0306 2352.15 22.0942 2353.27 22.0942H2353.47C2354.58 22.0942 2355.49 23.0306 2355.49 24.1843V27.4992V35.9965H2359.72V24.1843C2359.72 24.0008 2359.7 23.8228 2359.66 23.6543Z" fill="#0F6193"></path> <path d="M2315.38 29.5986C2315.26 29.7709 2315.14 29.9357 2315 30.0893C2314.22 30.9396 2313.13 31.4696 2311.91 31.4696C2309.56 31.4696 2307.65 29.4731 2307.65 27.0215C2307.65 24.57 2309.56 22.5735 2311.91 22.5735C2313.23 22.5735 2314.4 23.1953 2315.18 24.1729C2315.33 24.3583 2315.46 24.555 2315.58 24.7629L2319.21 22.272C2318.92 21.7944 2318.6 21.3468 2318.23 20.9366C2316.66 19.1612 2314.41 18.0487 2311.91 18.0487C2307.16 18.0487 2303.31 22.066 2303.31 27.0215C2303.31 31.9771 2307.16 35.9944 2311.91 35.9944C2314.32 35.9944 2316.5 34.9586 2318.07 33.2898C2318.4 32.9285 2318.71 32.5371 2318.99 32.1194L2315.38 29.5986Z" fill="#0F6193"></path> <path d="M2182.42 29.5818C2181.88 29.8403 2181.29 29.9882 2180.65 29.9882C2178.24 29.9882 2176.31 27.9431 2176.31 25.4297V18.1031H2183.51V12.11H2176.31V6.13745H2170.56V25.4316C2170.56 31.2487 2175.07 35.9831 2180.65 35.9831C2182.48 35.9831 2184.16 35.4699 2185.64 34.5804L2182.42 29.5818Z" fill="#0E94F7"></path> <path d="M2196.59 12.0817C2190.26 12.0817 2185.13 17.4305 2185.13 24.0286C2185.13 30.6267 2190.26 35.9754 2196.59 35.9754C2198.66 35.9754 2200.61 35.3968 2202.29 34.3891V35.9829H2208.03V24.3301C2208.03 24.229 2208.04 24.1297 2208.04 24.0286C2208.04 17.4305 2202.91 12.0817 2196.59 12.0817ZM2196.59 30.0068C2193.42 30.0068 2190.86 27.3304 2190.86 24.0286C2190.86 20.7267 2193.42 18.0504 2196.59 18.0504C2199.75 18.0504 2202.32 20.7267 2202.32 24.0286C2202.32 27.3304 2199.75 30.0068 2196.59 30.0068Z" fill="#0E94F7"></path> <path d="M2250.96 12.095C2244.64 12.095 2239.51 17.4439 2239.51 24.0419C2239.51 30.64 2244.64 35.989 2250.96 35.989C2253.04 35.989 2254.98 35.41 2256.66 34.4027V35.9965H2262.41V24.3434C2262.41 24.2423 2262.41 24.143 2262.41 24.0419C2262.41 17.4439 2257.29 12.095 2250.96 12.095ZM2250.96 30.0201C2247.8 30.0201 2245.23 27.3438 2245.23 24.0419C2245.23 20.7401 2247.8 18.0638 2250.96 18.0638C2254.13 18.0638 2256.69 20.7401 2256.69 24.0419C2256.7 27.3438 2254.13 30.0201 2250.96 30.0201Z" fill="#0E94F7"></path> <path fill-rule="evenodd" clip-rule="evenodd" d="M2209.84 35.9814H2215.58V3.11646H2209.84V35.7339V35.9814Z" fill="#0E94F7"></path> <path d="M2168.8 35.9814H2163.06V22.611C2163.06 20.0976 2161.1 18.0525 2158.69 18.0525C2156.28 18.0525 2154.32 20.0976 2154.32 22.611V35.9814H2148.57V22.611C2148.57 16.7939 2153.11 12.0593 2158.69 12.0593C2164.26 12.0593 2168.8 16.792 2168.8 22.611V35.9814Z" fill="#0E94F7"></path> <path d="M2233.2 27.8381C2232.16 29.1398 2230.59 29.9695 2228.84 29.9695C2225.71 29.9695 2223.16 27.31 2223.16 24.0437C2223.16 20.7756 2225.71 18.118 2228.84 18.118C2230.59 18.118 2232.16 18.9477 2233.2 20.2493C2233.4 20.4947 2233.57 20.7588 2233.73 21.0359L2238.56 17.7172C2238.18 17.0824 2237.74 16.4849 2237.26 15.938C2235.17 13.5726 2232.17 12.0912 2228.84 12.0912C2222.51 12.0912 2217.38 17.4438 2217.38 24.0456C2217.38 30.6474 2222.51 36.0001 2228.84 36.0001C2232.17 36.0001 2235.17 34.5185 2237.26 32.1532C2237.74 31.6045 2238.18 31.0089 2238.56 30.374L2233.73 27.0553C2233.57 27.3287 2233.4 27.5909 2233.2 27.8381Z" fill="#0E94F7"></path> <path d="M2125.49 35.9774L2122.41 30.1473H2122.41L2118.97 23.6523C2122.1 21.27 2124.14 17.4213 2124.14 13.0856C2124.14 5.86954 2118.5 0 2111.57 0C2104.64 0 2099 5.86954 2099 13.0838V23.1709V26.1675V35.9758H2104.74V26.1675H2111.57C2112.28 26.1675 2112.97 26.1038 2113.65 25.9858L2118.93 35.9774H2125.49ZM2104.74 20.1744V13.0838C2104.74 9.17322 2107.81 5.99315 2111.57 5.99315C2115.33 5.99315 2118.4 9.17322 2118.4 13.0838C2118.4 16.9943 2115.34 20.1744 2111.57 20.1744H2104.74Z" fill="#0E94F7"></path> <path fill-rule="evenodd" clip-rule="evenodd" d="M2287.28 21.6614L2287.28 21.652C2287.28 21.652 2285.55 21.3805 2284.79 20.9066C2284.69 20.8298 2284.6 20.7493 2284.51 20.6613C2284.49 20.6332 2284.47 20.6163 2284.46 20.6032C2284.08 20.1912 2283.87 19.6687 2283.91 19.1162L2283.95 18.8821C2283.94 18.927 2283.93 18.9663 2283.92 19C2283.93 18.9401 2283.94 18.8821 2283.96 18.824L2283.95 18.8821C2283.98 18.721 2284.06 18.4906 2284.19 18.2509C2284.48 17.7921 2284.95 17.4418 2285.53 17.2639C2285.83 17.1797 2286.19 17.131 2286.61 17.1422C2288.14 17.1815 2289.65 17.7265 2290.65 18.1722L2293.1 13.6437C2291.52 12.9301 2287.98 11.5798 2285.01 12.196L2285.01 12.2035C2281.32 12.6792 2278.63 15.318 2278.4 18.6985C2278.21 21.401 2279.64 23.8695 2282.05 25.2741C2282.05 25.276 2282.05 25.2779 2282.06 25.2797C2282.16 25.3434 2282.36 25.4483 2282.61 25.5681C2282.66 25.5944 2282.71 25.6187 2282.77 25.6431C2283.46 25.9652 2284.48 26.3622 2285.26 26.4371C2286.26 26.5345 2286.8 26.6638 2286.92 26.6956C2287.97 27.0327 2288.7 27.9242 2288.64 28.9168L2288.6 29.1509C2288.61 29.106 2288.62 29.0667 2288.62 29.0329C2288.61 29.0929 2288.6 29.1509 2288.59 29.209L2288.6 29.1509C2288.56 29.312 2288.49 29.5423 2288.35 29.7821C2288.07 30.2409 2287.59 30.593 2287.02 30.7691C2286.71 30.8533 2286.36 30.902 2285.93 30.8908C2283.33 30.8253 2280.73 29.2764 2280.73 29.2764L2277.91 33.5615L2278.61 33.983C2278.61 33.983 2283.57 36.6574 2287.53 35.835L2287.53 35.8275C2291.22 35.352 2293.91 32.7131 2294.14 29.3326C2294.41 25.585 2291.55 22.2907 2287.28 21.6614Z" fill="#0E94F7"></path> <path d="M2278.29 12.9565C2277.07 12.4059 2275.73 12.1006 2274.31 12.1006C2268.74 12.1006 2264.21 16.8333 2264.21 22.6523V35.9831H2269.95V22.6523C2269.95 20.1389 2271.91 18.0937 2274.31 18.0937C2274.91 18.0937 2275.46 18.2192 2275.98 18.4421" fill="#0E94F7"></path> <path fill-rule="evenodd" clip-rule="evenodd" d="M2139.48 28.4618C2139.41 28.5274 2139.34 28.5948 2139.27 28.6566H2139.27C2138.18 29.6136 2136.78 30.1923 2135.24 30.1923C2132.66 30.1923 2130.44 28.5498 2129.49 26.2106H2138.2H2141H2146.51C2146.63 25.5083 2146.7 24.7872 2146.7 24.0493C2146.7 17.4513 2141.57 12.1024 2135.25 12.1024C2128.92 12.1024 2123.79 17.4513 2123.79 24.0493C2123.79 30.6474 2128.92 35.9964 2135.25 35.9964C2140.02 35.9964 2144.1 32.9528 2145.82 28.6285H2145.83C2145.85 28.5742 2145.86 28.518 2145.89 28.4637H2139.48V28.4618ZM2135.24 17.6142C2137.78 17.6142 2139.94 19.268 2140.81 21.5959H2129.68C2130.54 19.268 2132.71 17.6142 2135.24 17.6142Z" fill="#0E94F7"></path> </g> <path d="M1950.92 8.42395C1948.74 8.42395 1946.8 9.413 1945.47 10.9743V9.33344H1940.02V36H1946.07V26.6626C1947.4 27.7616 1949.08 28.423 1950.92 28.423C1956.27 28.423 1960.6 23.9456 1960.6 18.4225C1960.6 12.9012 1956.27 8.42395 1950.92 8.42395ZM1960.6 18.4244C1960.6 12.9012 1956.27 8.42395 1950.91 8.42395L1960.6 18.4244ZM1950.31 22.8486C1947.97 22.8486 1946.07 20.8686 1946.07 18.4244C1946.07 15.9802 1947.97 14.0002 1950.31 14.0002C1952.65 14.0002 1954.55 15.9802 1954.55 18.4244C1954.55 20.8686 1952.65 22.8486 1950.31 22.8486Z" fill="#287DFA"></path> <path d="M1966.96 28.4249C1968.97 28.4249 1970.59 26.797 1970.59 24.789C1970.59 22.7808 1968.97 21.153 1966.96 21.153C1964.95 21.153 1963.33 22.7808 1963.33 24.789C1963.33 26.797 1964.95 28.4249 1966.96 28.4249Z" fill="#FFB400"></path> <path d="M1932.75 6.78695C1934.62 6.78695 1936.14 5.26765 1936.14 3.39346C1936.14 1.51931 1934.62 0 1932.75 0C1930.88 0 1929.36 1.51931 1929.36 3.39346C1929.36 5.26765 1930.88 6.78695 1932.75 6.78695Z" fill="#287DFA"></path> <path d="M1935.78 9.33337H1929.72V27.5153H1935.78V9.33337Z" fill="#287DFA"></path> <path fill-rule="evenodd" clip-rule="evenodd" d="M1894 0.848877V5.94004H1901.87V27.5154H1907.93V5.94004H1915.8V0.848877H1894Z" fill="#287DFA"></path> <path d="M1983.31 22.8486C1980.97 22.8486 1979.07 20.8686 1979.07 18.4244C1979.07 15.9802 1980.97 14.0002 1983.31 14.0002C1984.51 14.0002 1985.59 14.525 1986.37 15.3644L1990.37 11.3532C1988.56 9.54373 1986.07 8.42395 1983.31 8.42395C1977.79 8.42395 1973.32 12.9012 1973.32 18.4244C1973.32 23.9475 1977.79 28.4248 1983.31 28.4248C1986.07 28.4248 1988.56 27.3049 1990.37 25.4955L1986.37 21.4844C1985.59 22.3238 1984.51 22.8486 1983.31 22.8486Z" fill="#287DFA"></path> <path fill-rule="evenodd" clip-rule="evenodd" d="M2036.31 8.42395C2033.86 8.42395 2031.86 9.35049 2030.66 11.4025C2029.58 9.49449 2027.58 8.42395 2025.24 8.42395C2022.86 8.42395 2021.07 9.52481 2019.94 11.3949V9.33344H2014.49V15.5747V27.5153H2020.55V16.1753C2020.55 14.6387 2021.74 13.3939 2023.21 13.3939C2024.68 13.3939 2025.88 14.6387 2025.88 16.1753V27.5153H2031.57V16.1753C2031.57 14.6387 2032.76 13.3939 2034.23 13.3939C2035.71 13.3939 2036.9 14.6387 2036.9 16.1753V27.5153H2042.95V15.0347C2042.95 10.9307 2040.37 8.42395 2036.31 8.42395Z" fill="#287DFA"></path> <path d="M2001.47 8.42395C1995.95 8.42395 1991.48 12.9012 1991.48 18.4244C1991.48 23.9475 1995.95 28.4248 2001.47 28.4248C2006.99 28.4248 2011.46 23.9475 2011.46 18.4244C2011.46 12.9012 2006.99 8.42395 2001.47 8.42395ZM2001.47 22.8486C1999.13 22.8486 1997.23 20.8686 1997.23 18.4244C1997.23 15.9802 1999.13 14.0002 2001.47 14.0002C2003.81 14.0002 2005.71 15.9802 2005.71 18.4244C2005.71 20.8686 2003.81 22.8486 2001.47 22.8486Z" fill="#287DFA"></path> <path d="M1925.48 9.23865C1923.2 9.23865 1921.19 10.4229 1920.04 12.2115V9.33338H1914.59V18.4243V27.5153H1920.64H1920.66V19.8852C1920.66 16.7513 1922.94 14.794 1925.75 14.794C1926.07 14.794 1926.39 14.8357 1926.7 14.8963V9.33338C1926.3 9.27845 1925.9 9.23865 1925.48 9.23865Z" fill="#287DFA"></path> <path d="M1781.92 20.3352H1777.43V13.1849C1777.43 13.1153 1777.4 13.0486 1777.35 12.9994C1777.3 12.9502 1777.24 12.9226 1777.17 12.9226H1774.31C1774.24 12.9226 1774.17 12.9503 1774.13 12.9995C1774.08 13.0488 1774.05 13.1156 1774.05 13.1853V23.0371C1774.05 23.1822 1774.17 23.3002 1774.31 23.3002H1781.92C1781.99 23.3001 1782.05 23.2723 1782.1 23.223C1782.15 23.1737 1782.17 23.1068 1782.17 23.0371V20.5975C1782.17 20.5278 1782.15 20.461 1782.1 20.4118C1782.05 20.3626 1781.99 20.335 1781.92 20.3352ZM1814.42 16.8512C1814.42 17.4885 1813.93 17.8588 1813.12 17.8588H1811.67V15.8279H1813.14C1813.92 15.8279 1814.42 16.1546 1814.42 16.8213V16.8512ZM1815.96 20.0154C1815.94 19.9853 1815.92 19.9513 1815.92 19.9156C1815.91 19.8799 1815.91 19.8432 1815.92 19.8078C1815.93 19.7724 1815.94 19.7391 1815.96 19.7101C1815.98 19.681 1816.01 19.6567 1816.04 19.6389C1817.12 19.0158 1817.78 18.0063 1817.78 16.5992V16.5693C1817.78 15.5016 1817.47 14.731 1816.86 14.1083C1816.15 13.3822 1815.01 12.9226 1813.22 12.9226H1808.55C1808.48 12.9226 1808.41 12.9503 1808.36 12.9995C1808.32 13.0488 1808.29 13.1156 1808.29 13.1853V23.0371C1808.29 23.1822 1808.4 23.3002 1808.55 23.3002H1811.41C1811.55 23.3002 1811.67 23.1822 1811.67 23.0371V20.3352H1812.39L1814.22 23.1818C1814.26 23.2558 1814.34 23.3006 1814.43 23.3006H1817.66C1817.87 23.3006 1817.99 23.0631 1817.87 22.8889L1815.96 20.0154ZM1804.03 18.1411C1804.03 19.3566 1803.23 20.4535 1801.94 20.4535C1800.64 20.4535 1799.82 19.3417 1799.82 18.1116V18.0817C1799.82 16.8661 1800.63 15.7685 1801.91 15.7685C1803.21 15.7685 1804.03 16.8807 1804.03 18.1116V18.1411ZM1801.94 12.6997C1798.83 12.6997 1796.42 15.1014 1796.42 18.1112V18.1411C1796.42 21.1501 1798.8 23.5223 1801.91 23.5223C1805.03 23.5223 1807.44 21.121 1807.44 18.1116V18.0817C1807.44 15.0719 1805.06 12.6997 1801.94 12.6997ZM1772.89 20.4535H1767.78V20.1919V19.5895V19.3268H1772.45C1772.6 19.3268 1772.71 19.2088 1772.71 19.0637V17.0848C1772.71 17.015 1772.68 16.9481 1772.63 16.8988C1772.59 16.8494 1772.52 16.8217 1772.45 16.8217H1767.78V15.7693H1772.81C1772.96 15.7693 1773.07 15.6517 1773.07 15.5062V13.1853C1773.07 13.1157 1773.04 13.0489 1773 12.9998C1772.95 12.9506 1772.88 12.923 1772.81 12.923H1764.71C1764.64 12.923 1764.58 12.9506 1764.53 12.9999C1764.48 13.0492 1764.46 13.116 1764.46 13.1857V23.0375C1764.46 23.1826 1764.57 23.3006 1764.71 23.3006H1772.89C1773.03 23.3006 1773.14 23.1826 1773.14 23.0375V20.717C1773.14 20.6472 1773.12 20.5804 1773.07 20.531C1773.02 20.4817 1772.95 20.454 1772.89 20.4539V20.4535ZM1826.76 20.3352H1822.27V13.1849C1822.27 13.1154 1822.24 13.0487 1822.19 12.9995C1822.15 12.9503 1822.08 12.9227 1822.01 12.9226H1819.15C1819.08 12.9226 1819.02 12.9503 1818.97 12.9995C1818.92 13.0488 1818.89 13.1156 1818.89 13.1853V23.0371C1818.89 23.1822 1819.01 23.3002 1819.15 23.3002H1826.76C1826.9 23.3002 1827.02 23.1822 1827.02 23.0371V20.5975C1827.02 20.563 1827.01 20.5288 1827 20.4969C1826.99 20.465 1826.97 20.436 1826.94 20.4117C1826.92 20.3873 1826.89 20.368 1826.86 20.3549C1826.83 20.3417 1826.79 20.335 1826.76 20.3352H1826.76ZM1796.51 12.9226H1793.58C1793.46 12.9226 1793.36 12.9992 1793.33 13.111L1792.19 17.1017C1792.12 17.3483 1791.78 17.3544 1791.7 17.1105L1790.39 13.0723C1790.37 13.02 1790.34 12.9745 1790.29 12.9422C1790.25 12.9098 1790.2 12.8924 1790.14 12.8923H1787.6C1787.54 12.8923 1787.49 12.9097 1787.45 12.942C1787.4 12.9743 1787.37 13.0199 1787.35 13.0723L1786.04 17.1105C1785.96 17.3544 1785.62 17.3483 1785.55 17.1017L1784.41 13.111C1784.39 13.0566 1784.36 13.0088 1784.31 12.9748C1784.27 12.9408 1784.22 12.9225 1784.16 12.9226H1781.17C1781.13 12.9226 1781.09 12.9324 1781.05 12.9512C1781.02 12.97 1780.99 12.9973 1780.96 13.0308C1780.94 13.0643 1780.92 13.1032 1780.92 13.1441C1780.91 13.1851 1780.91 13.227 1780.93 13.2665L1784.06 23.1926C1784.08 23.2454 1784.11 23.2914 1784.16 23.3241C1784.2 23.3567 1784.25 23.3742 1784.31 23.3741H1786.88C1786.99 23.3741 1787.09 23.304 1787.13 23.1991L1788.6 18.9162C1788.68 18.6826 1789 18.6826 1789.08 18.9162L1790.55 23.1991C1790.57 23.2503 1790.61 23.2946 1790.65 23.3259C1790.69 23.3572 1790.74 23.3741 1790.8 23.3741H1793.37C1793.48 23.3741 1793.58 23.3013 1793.62 23.1926L1796.75 13.2665C1796.77 13.2271 1796.77 13.1852 1796.76 13.1443C1796.76 13.1033 1796.74 13.0645 1796.72 13.0309C1796.69 12.9974 1796.66 12.9701 1796.63 12.9513C1796.59 12.9324 1796.55 12.9226 1796.51 12.9226ZM1731.55 12.9226H1728.69C1728.65 12.9225 1728.62 12.9293 1728.59 12.9425C1728.56 12.9557 1728.53 12.975 1728.5 12.9994C1728.48 13.0238 1728.46 13.0527 1728.45 13.0846C1728.44 13.1165 1728.43 13.1507 1728.43 13.1853V16.5843H1725.34V13.1853C1725.34 13.1156 1725.31 13.0488 1725.27 12.9995C1725.22 12.9503 1725.15 12.9226 1725.09 12.9226H1722.22C1722.19 12.9225 1722.15 12.9293 1722.12 12.9425C1722.09 12.9557 1722.06 12.975 1722.04 12.9994C1722.02 13.0238 1722 13.0528 1721.98 13.0847C1721.97 13.1166 1721.96 13.1508 1721.96 13.1853V23.0371C1721.96 23.1822 1722.08 23.3002 1722.22 23.3002H1725.09C1725.23 23.3002 1725.34 23.1822 1725.34 23.0371V19.5792H1728.43V23.0371C1728.43 23.1822 1728.54 23.3002 1728.69 23.3002H1731.55C1731.69 23.3002 1731.81 23.1822 1731.81 23.0371V13.1853C1731.81 13.1156 1731.78 13.0488 1731.73 12.9995C1731.68 12.9503 1731.62 12.9226 1731.55 12.9226ZM1834.3 18.1261C1834.3 19.6236 1833.31 20.2758 1831.76 20.2758H1831.2V15.9466H1831.76C1833.31 15.9466 1834.3 16.5992 1834.3 18.0966V18.1261ZM1831.69 12.9226H1828.08C1828.05 12.9225 1828.02 12.9293 1827.98 12.9425C1827.95 12.9557 1827.92 12.975 1827.9 12.9994C1827.88 13.0238 1827.86 13.0528 1827.85 13.0847C1827.83 13.1166 1827.83 13.1508 1827.83 13.1853V23.0371C1827.83 23.1822 1827.94 23.3002 1828.08 23.3002H1831.58C1835.66 23.3002 1837.71 21.121 1837.71 18.0518V18.022C1837.71 14.9535 1835.7 12.9222 1831.69 12.9222V12.9226ZM1749.23 16.5992C1748.17 16.3916 1747.89 16.2132 1747.89 15.932V15.9022C1747.89 15.6502 1748.12 15.4725 1748.63 15.4725C1749.5 15.4725 1750.55 15.7425 1751.46 16.3552C1751.57 16.4311 1751.73 16.3997 1751.8 16.2871L1753.16 14.3607C1753.18 14.3323 1753.19 14.3003 1753.2 14.2664C1753.21 14.2325 1753.21 14.1973 1753.2 14.163C1753.2 14.1287 1753.18 14.0959 1753.16 14.0665C1753.15 14.037 1753.12 14.0116 1753.1 13.9915C1751.96 13.1505 1750.58 12.7296 1748.74 12.7296C1745.96 12.7296 1744.46 14.2565 1744.46 16.2285V16.2583C1744.46 18.4524 1746.45 19.1192 1748.72 19.5941C1749.8 19.8162 1750.11 19.9794 1750.11 20.2758V20.3053C1750.11 20.5872 1749.85 20.7499 1749.25 20.7499C1748.13 20.7499 1746.95 20.4328 1745.9 19.6738C1745.85 19.6369 1745.78 19.6215 1745.72 19.6306C1745.66 19.6397 1745.6 19.6726 1745.56 19.7228L1744.08 21.5412C1744.05 21.5682 1744.04 21.5996 1744.03 21.6333C1744.02 21.6671 1744.01 21.7025 1744.02 21.7376C1744.02 21.7727 1744.03 21.8067 1744.05 21.8376C1744.06 21.8685 1744.09 21.8957 1744.11 21.9176C1745.39 22.9593 1747.15 23.4928 1749.09 23.4928C1751.8 23.4928 1753.55 22.1585 1753.55 19.9794V19.9495C1753.55 17.8588 1751.82 17.0883 1749.23 16.5992H1749.23ZM1763.15 12.9226H1754.34C1754.3 12.9225 1754.27 12.9293 1754.24 12.9425C1754.21 12.9557 1754.18 12.975 1754.16 12.9994C1754.13 13.0238 1754.11 13.0528 1754.1 13.0847C1754.09 13.1166 1754.08 13.1508 1754.08 13.1853V15.5946C1754.08 15.7402 1754.2 15.8581 1754.34 15.8581H1757.05V23.0371C1757.05 23.1822 1757.17 23.3002 1757.31 23.3002H1760.17C1760.32 23.3002 1760.43 23.1822 1760.43 23.0371V15.8581H1763.15C1763.18 15.8581 1763.21 15.8512 1763.25 15.838C1763.28 15.8247 1763.3 15.8052 1763.33 15.7808C1763.35 15.7563 1763.37 15.7273 1763.38 15.6953C1763.4 15.6634 1763.4 15.6292 1763.4 15.5946V13.1853C1763.4 13.1156 1763.38 13.0488 1763.33 12.9995C1763.28 12.9503 1763.22 12.9226 1763.15 12.9226H1763.15ZM1740.35 18.1411C1740.35 19.3566 1739.54 20.4535 1738.25 20.4535C1736.96 20.4535 1736.13 19.3417 1736.13 18.1116V18.0817C1736.13 16.8661 1736.94 15.7685 1738.23 15.7685C1739.52 15.7685 1740.35 16.8807 1740.35 18.1116V18.1411ZM1738.25 12.6997C1735.14 12.6997 1732.73 15.1014 1732.73 18.1112V18.1411C1732.73 21.1501 1735.11 23.5223 1738.23 23.5223C1741.34 23.5223 1743.75 21.121 1743.75 18.1116V18.0817C1743.75 15.0719 1741.37 12.6997 1738.25 12.6997Z" fill="#FF7346"></path> <path d="M1714.84 31.009C1714.84 33.7549 1712.67 35.9812 1710 35.9812H1684.89C1682.22 35.9812 1680.05 33.7549 1680.05 31.009V5.21266C1680.05 2.4667 1682.22 0.241211 1684.89 0.241211H1710C1712.67 0.241211 1714.84 2.46746 1714.84 5.21305V31.0093V31.009Z" fill="#FF7346"></path> <path d="M1708.83 5.92383H1701.88C1701.62 5.92383 1701.41 6.13906 1701.41 6.40408V12.7952H1702.19C1702.24 12.7985 1702.29 12.8228 1702.33 12.863C1702.36 12.9033 1702.39 12.9565 1702.39 13.012C1702.38 13.059 1702.37 13.1043 1702.34 13.1411L1697.88 17.8054C1697.81 17.8913 1697.78 17.9993 1697.78 18.111C1697.78 18.2226 1697.81 18.3307 1697.88 18.4166L1702.34 23.0809C1702.37 23.1177 1702.38 23.1632 1702.39 23.2103C1702.39 23.2657 1702.36 23.319 1702.33 23.3591C1702.29 23.3993 1702.24 23.4235 1702.19 23.4267H1701.41V29.8186C1701.41 30.0829 1701.62 30.2981 1701.88 30.2981H1708.83C1709.09 30.2981 1709.3 30.0833 1709.3 29.8183V6.40408C1709.3 6.13906 1709.09 5.92383 1708.83 5.92383H1708.83ZM1692.59 13.1675L1692.59 13.1671C1692.57 13.1374 1692.55 13.0998 1692.54 13.0587C1692.53 13.0176 1692.53 12.9748 1692.55 12.9355C1692.56 12.8962 1692.59 12.8621 1692.62 12.8372C1692.65 12.8123 1692.69 12.7977 1692.73 12.7952H1693.5V6.40408C1693.5 6.13906 1693.29 5.92383 1693.03 5.92383H1686.06C1685.8 5.92383 1685.59 6.13906 1685.59 6.40408V29.8183C1685.59 30.0833 1685.8 30.2981 1686.06 30.2981H1693.03C1693.29 30.2981 1693.5 30.0833 1693.5 29.8183V23.4267H1692.73C1692.69 23.4243 1692.65 23.4098 1692.62 23.385C1692.59 23.3601 1692.56 23.326 1692.55 23.2867C1692.53 23.2474 1692.53 23.2046 1692.54 23.1635C1692.55 23.1225 1692.57 23.0848 1692.59 23.0552V23.0549L1697.03 18.4143C1697.1 18.3288 1697.13 18.2216 1697.13 18.111C1697.13 18.0003 1697.1 17.8931 1697.03 17.8077L1692.59 13.1675Z" fill="white"></path> <g clip-path="url(#clip1)"> <path d="M1590.72 8.13934H1583.03C1582.8 8.13934 1582.61 8.32735 1582.61 8.56045V34.8645C1582.61 35.1051 1582.8 35.2857 1583.03 35.2857H1590.71C1590.95 35.2857 1591.12 35.0901 1591.12 34.8645V8.57551C1591.12 8.33485 1590.95 8.13934 1590.71 8.13934H1590.72ZM1608.84 36C1617.62 36 1623.74 30.1272 1623.74 21.7275C1623.74 13.328 1617.61 7.44754 1608.84 7.44754C1600.24 7.44754 1593.98 13.4558 1593.98 21.72C1593.98 29.9842 1600.22 36 1608.84 36ZM1608.84 15.2305C1612.92 15.2305 1615.12 18.2158 1615.12 21.72C1615.12 25.164 1612.92 28.2095 1608.84 28.2095C1604.75 28.2095 1602.6 25.164 1602.6 21.72C1602.6 18.2233 1604.75 15.2305 1608.84 15.2305ZM1566.92 7.44754C1564.11 7.43248 1561.4 8.53789 1559.4 10.5231C1559.18 10.7487 1558.82 10.7637 1558.59 10.5457C1558.58 10.5381 1558.58 10.5306 1558.57 10.5231C1556.56 8.52286 1553.85 7.42498 1551.03 7.46257C1543.97 7.46257 1538.85 12.3955 1538.85 19.2009V34.8795C1538.85 35.1201 1539.04 35.3007 1539.27 35.3007H1546.98C1547.21 35.3007 1547.39 35.1051 1547.39 34.8795V19.5318C1547.39 17.524 1548.64 15.5012 1551.02 15.5012C1553.45 15.5012 1554.73 17.524 1554.73 19.5318V34.8795C1554.73 35.1201 1554.92 35.3007 1555.15 35.3007H1562.83C1563.07 35.3007 1563.25 35.1051 1563.25 34.8795V19.5318C1563.25 17.524 1564.49 15.5012 1566.87 15.5012C1569.31 15.5012 1570.59 17.524 1570.59 19.5318V34.8795C1570.59 35.1201 1570.78 35.3007 1571 35.3007H1578.67C1578.91 35.3007 1579.08 35.1051 1579.08 34.8795V19.1858C1579.11 12.3805 1573.99 7.44754 1566.9 7.44754H1566.92ZM1521.58 36C1530.19 36 1536.44 29.9917 1536.44 21.7275C1536.44 13.4633 1530.2 7.44754 1521.58 7.44754C1512.8 7.44754 1506.68 13.3205 1506.68 21.72C1506.67 30.1272 1512.8 36 1521.58 36ZM1521.58 15.2305C1525.67 15.2305 1527.82 18.2158 1527.82 21.72C1527.82 25.164 1525.67 28.2095 1521.58 28.2095C1517.5 28.2095 1515.3 25.164 1515.3 21.72C1515.3 18.2233 1517.5 15.2305 1521.58 15.2305Z" fill="#132968"></path> <path d="M1503.33 0.00299351C1499.95 -0.102283 1497.11 2.58226 1497 5.99622C1497 6.26694 1497 6.53013 1497.03 6.80085C1497.36 10.2524 1500.4 12.779 1503.82 12.4482C1503.83 12.4482 1503.83 12.4482 1503.84 12.4482C1507.25 12.1624 1509.8 9.13197 1509.51 5.68791C1509.24 2.45443 1506.55 -0.0195657 1503.33 0.00299351Z" fill="#F96B6B"></path> </g> <g clip-path="url(#clip2)"> <path d="M949.265 18.3544C948.362 12.9043 943.213 9.23829 937.795 10.167L939.381 1.0387L933.561 0C933.073 1.0998 930.876 6.10998 929.814 11.7312C931.974 13.1976 933.561 15.5193 934.036 18.3299C934.525 21.2994 933.67 24.1955 931.889 26.3462C932.328 26.8839 932.828 27.3727 933.39 27.8126C935.647 29.5967 938.393 30.2933 941.077 29.8411C946.532 28.9369 950.193 23.78 949.253 18.3544H949.265Z" fill="#054752"></path> <path d="M929.717 12.3666L929.839 11.7556C927.764 10.3381 925.202 9.70265 922.542 10.1426L924.128 1.02648L918.319 0C917.807 1.13646 915.464 6.47658 914.463 12.3422C913.658 17.0835 913.695 22.167 916.172 25.7475C916.721 26.5173 917.368 27.2138 918.149 27.8248C920.418 29.609 923.176 30.3055 925.861 29.8534C928.325 29.4501 930.412 28.1426 931.889 26.3707L931.425 25.7597C928.936 22.1914 928.899 17.1079 929.717 12.3788V12.3666Z" fill="#2DBEFF"></path> <path d="M934.049 18.3544C933.561 15.5438 931.974 13.222 929.827 11.7556L929.705 12.3666C928.912 17.108 928.948 22.1915 931.437 25.7719L931.889 26.3829C933.671 24.1833 934.549 21.2994 934.037 18.3177L934.049 18.3544Z" fill="#9EF769"></path> <path d="M1066.41 27.8614H1062.94C1062.82 27.8614 1062.74 27.9225 1062.7 28.0203C1062.21 29.3156 1061.53 30.391 1060.55 31.1486C1059.58 31.8818 1058.32 32.3217 1056.68 32.3217C1054.45 32.3217 1052.66 31.3441 1051.44 29.7067C1050.22 28.057 1049.53 25.7718 1049.53 23.1568C1049.53 20.5173 1050.2 18.2321 1051.44 16.6069C1052.66 14.9816 1054.46 14.004 1056.68 14.004C1058.31 14.004 1059.55 14.4317 1060.53 15.1771C1061.5 15.9348 1062.17 17.0101 1062.67 18.2688C1062.71 18.3665 1062.8 18.4399 1062.92 18.4399H1066.4C1066.45 18.4399 1066.52 18.4154 1066.56 18.3665C1066.6 18.3299 1066.63 18.2688 1066.63 18.1955V18.1344C1066.08 15.7881 1064.94 13.8574 1063.26 12.5132C1061.58 11.169 1059.38 10.3869 1056.65 10.3869C1053.47 10.3869 1050.67 11.6944 1048.65 13.9307C1046.64 16.1792 1045.42 19.3686 1045.42 23.1934C1045.42 27.0183 1046.64 30.2199 1048.65 32.4562C1050.67 34.7168 1053.47 35.9999 1056.66 35.9999C1059.39 35.9999 1061.61 35.2423 1063.31 33.8859C1064.99 32.5417 1066.14 30.5865 1066.66 28.2036V28.1425C1066.66 28.0692 1066.64 28.0203 1066.59 27.9592C1066.57 27.9225 1066.49 27.8981 1066.42 27.8981L1066.41 27.8614ZM1096.83 17.5722C1096.59 17.5234 1096.24 17.4745 1095.77 17.4745C1095.35 17.4745 1094.84 17.5111 1094.25 17.6211C1093.77 17.7189 1093.24 17.9144 1092.75 18.1832C1092.27 18.4521 1091.78 18.8187 1091.34 19.2586C1091.09 19.503 1090.85 19.8085 1090.63 20.1507L1090.47 20.3951V18.0244C1090.47 17.8777 1090.35 17.7555 1090.23 17.7555H1086.91C1086.79 17.7555 1086.66 17.8777 1086.66 18.0244V35.3767C1086.66 35.4989 1086.79 35.6211 1086.91 35.6211H1090.25C1090.4 35.6211 1090.52 35.4989 1090.52 35.3767V26.945C1090.52 25.9674 1090.64 25.1364 1090.85 24.4521C1091.07 23.7678 1091.4 23.2301 1091.83 22.8146C1092.28 22.3991 1092.78 22.0814 1093.36 21.8737C1094.05 21.6293 1094.79 21.5559 1095.44 21.5559C1095.93 21.5559 1096.41 21.6048 1096.7 21.6537H1096.73C1096.88 21.6537 1096.98 21.5559 1096.98 21.4093V17.8411C1097.01 17.7189 1096.93 17.5967 1096.79 17.5722H1096.83ZM1024.92 10.3625H1024.86L1021.5 10.949C1021.38 10.9735 1021.26 11.0712 1021.26 11.1934V35.3645C1021.26 35.5111 1021.38 35.6333 1021.54 35.6333H1024.92C1025.04 35.6333 1025.16 35.5111 1025.16 35.3645V10.6313C1025.16 10.4847 1025.04 10.3625 1024.88 10.3625H1024.92ZM1018 24.7087C1017.51 23.7067 1016.83 22.8513 1015.99 22.1425L1015.74 21.9592C1015.38 21.6781 1014.98 21.4215 1014.55 21.226L1014.43 21.1649L1014.51 21.0794C1014.9 20.6272 1015.24 20.1018 1015.49 19.5397C1015.85 18.7209 1016.04 17.8777 1016.04 16.9979C1016.04 16.0447 1015.84 15.1649 1015.48 14.3095C1015.11 13.4541 1014.58 12.7454 1013.93 12.1344C1013.32 11.5722 1012.58 11.1323 1011.75 10.8146C1010.92 10.4969 1009.89 10.3258 1008.67 10.3258H1001.27C1001.13 10.3258 1001 10.448 1001 10.6069V35.3523C1001 35.4989 1001.13 35.6211 1001.27 35.6211H1010.4C1011.71 35.6211 1012.79 35.4745 1013.67 35.1812C1014.52 34.8879 1015.32 34.448 1015.99 33.8981C1016.82 33.2016 1017.5 32.334 1018 31.3319C1018.12 31.0875 1018.21 30.8798 1018.29 30.6598L1018.33 30.5621L1018.39 30.391C1018.64 29.6333 1018.78 28.839 1018.78 28.0081C1018.76 26.8105 1018.5 25.6863 1017.99 24.6843L1018 24.7087ZM1004.94 14.0773H1008.04C1009.02 14.0773 1009.75 14.1629 1010.24 14.3217C1010.7 14.505 1011.07 14.7494 1011.34 15.0549C1011.86 15.6415 1012.13 16.3258 1012.13 17.1323C1012.13 17.9144 1011.89 18.5987 1011.34 19.1853C1011.07 19.4908 1010.73 19.7352 1010.24 19.9185C1009.9 20.0407 1009.39 20.114 1008.78 20.1629H1004.91V14.0773H1004.94ZM1014.46 29.4256C1014.27 29.9144 1014 30.3299 1013.66 30.6965C1013.27 31.0631 1012.8 31.3808 1012.23 31.6008C1011.66 31.8085 1010.81 31.9307 1009.69 31.9307H1004.93V23.9022H1009.69C1010.81 23.9022 1011.64 24.0244 1012.22 24.2321C1012.77 24.4521 1013.24 24.7576 1013.62 25.1364C1013.96 25.503 1014.23 25.9185 1014.44 26.3828C1014.65 26.835 1014.74 27.3604 1014.74 27.8859C1014.74 28.4358 1014.65 28.949 1014.44 29.4256H1014.46ZM1041.06 19.2097C1039.77 18.0244 1037.99 17.4378 1035.77 17.4378C1033.77 17.4378 1032.13 17.9266 1030.89 18.9042C1029.79 19.723 1029 20.7739 1028.57 22.0203C1028.52 22.1425 1028.61 22.3014 1028.75 22.3258L1031.9 22.8757C1032.02 22.9001 1032.11 22.839 1032.14 22.7535C1032.79 21.3238 1034 20.6272 1035.78 20.6272C1037 20.6272 1037.93 20.9572 1038.59 21.6293C1039.25 22.3014 1039.56 23.1934 1039.56 24.3177V24.9531C1037.92 24.4643 1036.34 24.2199 1034.88 24.2199C1032.8 24.2199 1031.07 24.7331 1029.69 25.7841C1028.32 26.835 1027.62 28.3136 1027.62 30.2077C1027.62 32.0162 1028.26 33.4338 1029.52 34.4602C1030.78 35.4867 1032.29 35.9999 1034.07 35.9999C1036.34 35.9999 1038.22 35.3401 1039.59 33.9714V35.3401C1039.59 35.5111 1039.73 35.6456 1039.89 35.6456H1042.8C1042.96 35.6456 1043.09 35.5234 1043.09 35.3523V24.0733C1043.05 21.9959 1042.39 20.3828 1041.08 19.2097H1041.06ZM1038.11 31.4297C1037.13 32.2484 1035.95 32.6517 1034.54 32.6517C1033.5 32.6517 1032.71 32.4073 1032.14 31.9429C1031.61 31.4786 1031.33 30.8431 1031.33 30.0366C1031.33 29.1568 1031.69 28.4969 1032.38 28.057C1033.06 27.6171 1033.96 27.3849 1035.06 27.3849C1036.44 27.3849 1037.95 27.6293 1039.58 28.1181C1039.58 29.5478 1039.09 30.6354 1038.11 31.4175V31.4297ZM979.649 10.3625H979.6L976.233 10.949C976.111 10.9735 975.988 11.0712 975.988 11.1934V35.3645C975.988 35.5111 976.111 35.6333 976.269 35.6333H979.649C979.771 35.6333 979.893 35.5111 979.893 35.3645V10.6313C979.893 10.4847 979.771 10.3625 979.625 10.3625H979.649ZM972.694 24.7087C972.206 23.7067 971.547 22.8513 970.705 22.1425L970.461 21.9592C970.095 21.6781 969.692 21.4215 969.265 21.226L969.143 21.1649L969.228 21.0794C969.619 20.6272 969.96 20.1018 970.205 19.5397C970.571 18.7209 970.754 17.8777 970.754 16.9979C970.754 16.0447 970.571 15.1649 970.205 14.3095C969.838 13.4541 969.314 12.7454 968.655 12.1344C968.045 11.5722 967.313 11.1323 966.507 10.8146C965.677 10.4969 964.64 10.3258 963.42 10.3258H956.037C955.891 10.3258 955.769 10.448 955.769 10.6069V35.3523C955.769 35.4989 955.891 35.6211 956.037 35.6211H965.128C966.434 35.6211 967.52 35.4745 968.399 35.1812C969.253 34.8879 970.046 34.448 970.717 33.8981C971.547 33.2016 972.23 32.334 972.73 31.3319C972.852 31.0875 972.938 30.8798 973.023 30.6598L973.06 30.5621C973.06 30.5132 973.084 30.4399 973.109 30.391C973.353 29.6333 973.499 28.839 973.499 28.0081C973.475 26.8105 973.219 25.6863 972.706 24.6843L972.694 24.7087ZM959.637 14.0773H962.761C963.737 14.0773 964.469 14.1629 964.957 14.3217C965.421 14.505 965.787 14.7494 966.056 15.0549C966.58 15.6415 966.849 16.3258 966.849 17.1323C966.849 17.9144 966.605 18.5987 966.056 19.1853C965.787 19.4908 965.446 19.7352 964.957 19.9185C964.616 20.0407 964.103 20.114 963.493 20.1629H959.637V14.0773ZM969.192 29.4256C968.984 29.9144 968.704 30.3299 968.374 30.6965C967.984 31.0631 967.52 31.3808 966.946 31.6008C966.373 31.8085 965.531 31.9307 964.408 31.9307H959.649V23.9022H964.408C965.543 23.9022 966.385 24.0244 966.946 24.2321C967.52 24.4521 967.996 24.7576 968.374 25.1364C968.716 25.503 968.984 25.9185 969.192 26.3828C969.399 26.835 969.497 27.3604 969.497 27.8859C969.497 28.4358 969.375 28.949 969.18 29.4256H969.192ZM995.793 19.2097C994.487 18.0244 992.706 17.4378 990.485 17.4378C988.496 17.4378 986.861 17.9266 985.604 18.9042C984.506 19.723 983.725 20.7739 983.286 22.0203C983.249 22.1425 983.334 22.3014 983.481 22.3258L986.617 22.8757C986.739 22.9001 986.861 22.839 986.897 22.7535C987.532 21.3238 988.728 20.6272 990.522 20.6272C991.705 20.6272 992.645 20.9572 993.304 21.6293C993.963 22.3014 994.304 23.1934 994.304 24.3177V24.9531C992.633 24.4643 991.059 24.2199 989.594 24.2199C987.52 24.2199 985.787 24.7331 984.408 25.7841C983.005 26.835 982.334 28.3136 982.334 30.2077C982.334 32.0162 982.944 33.4338 984.201 34.4602C985.458 35.4867 986.971 35.9999 988.752 35.9999C991.034 35.9999 992.901 35.3401 994.28 33.9714V35.3401C994.28 35.5111 994.402 35.6456 994.561 35.6456H997.465C997.636 35.6456 997.77 35.5234 997.77 35.3523V24.0733C997.733 21.9959 997.087 20.3828 995.769 19.2097H995.793ZM992.816 31.4297C991.839 32.2484 990.619 32.6517 989.216 32.6517C988.179 32.6517 987.386 32.4073 986.824 31.9429C986.263 31.4786 985.97 30.8431 985.97 30.0366C985.97 29.1568 986.336 28.4969 987.032 28.057C987.727 27.6171 988.618 27.3849 989.716 27.3849C991.107 27.3849 992.62 27.6293 994.231 28.1181C994.256 29.5478 993.767 30.6354 992.791 31.4175L992.816 31.4297ZM1081.97 19.2097C1080.66 18.0244 1078.88 17.4378 1076.66 17.4378C1074.68 17.4378 1073.05 17.9266 1071.78 18.9042C1070.68 19.723 1069.91 20.7739 1069.46 22.0203C1069.43 22.1425 1069.52 22.3014 1069.67 22.3258L1072.81 22.8757C1072.94 22.9001 1073.02 22.839 1073.06 22.7535C1073.71 21.3238 1074.91 20.6272 1076.7 20.6272C1077.89 20.6272 1078.83 20.9572 1079.5 21.6293C1080.15 22.3014 1080.48 23.1934 1080.48 24.3177V24.9531C1078.82 24.4643 1077.24 24.2199 1075.78 24.2199C1073.71 24.2199 1071.97 24.7331 1070.59 25.7841C1069.22 26.835 1068.52 28.3136 1068.52 30.2077C1068.52 32.0162 1069.15 33.4338 1070.41 34.4602C1071.67 35.4867 1073.18 35.9999 1074.96 35.9999C1077.26 35.9999 1079.11 35.3401 1080.5 33.9714V35.3401C1080.5 35.5111 1080.62 35.6456 1080.8 35.6456H1083.7C1083.86 35.6456 1083.99 35.5234 1083.99 35.3523V24.0733C1083.94 21.9959 1083.28 20.3828 1081.98 19.2097H1081.97ZM1078.98 31.4297C1078 32.2484 1076.83 32.6517 1075.41 32.6517C1074.38 32.6517 1073.58 32.4073 1073.02 31.9429C1072.49 31.4786 1072.2 30.8431 1072.2 30.0366C1072.2 29.1568 1072.57 28.4969 1073.25 28.057C1073.95 27.6171 1074.84 27.3849 1075.94 27.3849C1077.33 27.3849 1078.87 27.6293 1080.45 28.1181C1080.45 29.5478 1079.97 30.6354 1078.99 31.4175L1078.98 31.4297Z" fill="#054752"></path> </g> <g clip-path="url(#clip3)"> <path d="M810.511 9.4785V16.653C810.511 17.3627 810.443 18.0724 810.253 18.7772C810.088 19.3265 809.796 19.8417 809.407 20.2257C808.984 20.6438 808.459 20.9354 807.876 21.0958C807.093 21.2853 806.31 21.3826 805.532 21.3826C804.749 21.3826 803.967 21.2853 803.218 21.0277C802.6 20.8334 802.08 20.5125 801.623 20.0945C801.297 19.8077 801.103 19.3897 801.069 18.9376C801.069 18.646 801.166 18.3883 801.395 18.1939C801.589 18.0043 801.881 17.9071 802.143 17.9071C802.537 17.9071 802.863 18.1015 803.091 18.3883L803.514 18.8744C803.646 19.0348 803.806 19.1952 804.001 19.3265C804.195 19.4528 804.394 19.5501 804.623 19.5841C804.881 19.6473 805.177 19.6813 805.469 19.6813C805.989 19.7153 806.514 19.6181 806.971 19.4237C807.297 19.2633 807.555 19.0057 807.72 18.6848C807.851 18.3592 807.949 18.0092 807.978 17.6544C808.012 17.2995 808.012 16.6919 808.046 15.885C807.686 16.3662 807.229 16.7843 806.709 17.1051C806.154 17.3967 805.537 17.5231 804.915 17.5231C804.132 17.5231 803.383 17.2995 802.732 16.8766C802.08 16.4246 801.589 15.817 801.297 15.1073C800.938 14.2712 800.777 13.3671 800.806 12.4679C800.806 11.7922 800.904 11.1166 801.103 10.475C801.297 9.93056 801.589 9.41045 801.983 8.96327C802.343 8.57926 802.795 8.25844 803.286 8.02999C803.806 7.8064 804.36 7.70918 804.915 7.70918C805.566 7.70918 806.188 7.83556 806.738 8.09317C807.292 8.41886 807.812 8.83688 808.172 9.34726V9.02645C808.138 8.67161 808.269 8.31678 808.498 8.02999C808.692 7.8064 809.018 7.67515 809.31 7.67515C809.704 7.6071 810.059 7.80153 810.258 8.1272C810.452 8.54523 810.516 8.99729 810.486 9.44447L810.511 9.4785ZM803.242 12.5359C803.179 13.338 803.408 14.1449 803.894 14.7865C804.317 15.3017 804.939 15.5593 805.62 15.5593C806.043 15.5593 806.432 15.433 806.791 15.2385C807.185 15.0149 807.511 14.6601 807.705 14.2421C807.934 13.7268 808.065 13.1824 808.065 12.6332C808.128 11.7971 807.871 10.9562 807.38 10.2854C806.957 9.74098 806.305 9.41531 805.62 9.44934C804.934 9.41531 804.317 9.73613 803.894 10.2514C803.442 10.9222 803.213 11.7291 803.242 12.5359Z" fill="#919191"></path> <path d="M826.438 12.6914C826.438 13.401 826.341 14.0767 826.078 14.7232C825.85 15.3308 825.524 15.88 825.067 16.3321C824.61 16.7841 824.09 17.139 823.506 17.3626C822.855 17.6202 822.14 17.7174 821.45 17.7174C820.764 17.7174 820.05 17.6202 819.398 17.3626C818.192 16.8765 817.249 15.9432 816.826 14.7232C816.369 13.401 816.369 11.9525 816.826 10.6352C817.055 10.0568 817.381 9.50754 817.838 9.06034C818.295 8.6083 818.815 8.25345 819.403 8.02986C820.74 7.54864 822.174 7.54864 823.506 8.02986C824.09 8.25345 824.644 8.6083 825.101 9.06034C825.558 9.5124 825.884 10.0568 826.112 10.6352C826.341 11.3109 826.438 11.9865 826.438 12.6914ZM823.929 12.6914C823.993 11.8553 823.735 11.0192 823.244 10.3436C822.821 9.79433 822.135 9.47351 821.45 9.50754C820.993 9.50754 820.541 9.63391 820.147 9.89639C819.753 10.1832 819.461 10.572 819.301 10.9901C818.912 12.0838 818.912 13.2746 819.301 14.3975C819.466 14.8495 819.758 15.2335 820.147 15.5252C820.536 15.7828 820.993 15.9141 821.45 15.9141C822.17 15.9481 822.821 15.6273 823.244 15.078C823.735 14.3683 823.993 13.5323 823.929 12.6914Z" fill="#919191"></path> <path d="M839.861 16.2982V16.0406C839.569 16.3906 839.244 16.6823 838.884 16.9739C838.553 17.1975 838.198 17.3919 837.809 17.5183C837.416 17.6495 836.993 17.7127 836.57 17.7127C835.981 17.7127 835.427 17.5864 834.907 17.3239C834.387 17.0662 833.93 16.7163 833.57 16.2642C833.176 15.7781 832.884 15.2337 832.724 14.6213C832.529 13.9796 832.427 13.27 832.427 12.5943C832.427 11.0486 832.821 9.8577 833.57 8.99247C834.319 8.12239 835.422 7.67519 836.565 7.70437C837.182 7.67034 837.805 7.80158 838.354 8.05434C838.908 8.34599 839.394 8.72999 839.788 9.18205V5.55103C839.754 5.13301 839.851 4.74414 840.08 4.39417C840.275 4.13654 840.6 3.97614 840.96 4.0053C841.286 3.97128 841.612 4.10252 841.84 4.35528C842.069 4.64693 842.166 5.03579 842.132 5.41979V16.2982C842.166 16.6871 842.034 17.0711 841.806 17.3627C841.577 17.5864 841.286 17.7176 840.96 17.7176C840.634 17.7176 840.343 17.5912 840.114 17.3627C839.924 17.0371 839.798 16.6871 839.861 16.2982ZM834.912 12.6624C834.912 13.2408 835.009 13.8241 835.238 14.3685C835.398 14.7865 835.724 15.1754 836.118 15.433C836.477 15.6566 836.9 15.783 837.318 15.783C837.741 15.783 838.164 15.6566 838.524 15.433C838.918 15.1754 839.21 14.8206 839.404 14.4025C839.633 13.8581 839.764 13.2457 839.73 12.6672C839.73 12.0888 839.633 11.5104 839.404 10.9611C839.21 10.509 838.918 10.1591 838.495 9.86741C838.135 9.6098 837.712 9.48342 837.289 9.48342C836.866 9.48342 836.409 9.6098 836.05 9.86741C835.656 10.1591 835.364 10.5479 835.204 10.9611C834.975 11.5347 834.878 12.118 834.912 12.6624Z" fill="#919191"></path> <path d="M855.241 16.2983C854.72 16.7163 854.132 17.0711 853.481 17.3239C852.858 17.5475 852.241 17.6787 851.589 17.6787C851.006 17.6787 850.417 17.5475 849.897 17.2898C849.44 17.0663 849.051 16.7114 848.789 16.2594C848.526 15.8413 848.395 15.3601 848.395 14.874C848.395 14.2324 848.624 13.62 849.046 13.1339C849.533 12.6186 850.155 12.2978 850.84 12.1714L852.012 11.9138C852.63 11.7826 853.184 11.6902 853.641 11.559C854.098 11.4326 854.584 11.3354 855.104 11.1701C855.104 10.6549 854.973 10.1737 854.711 9.72161C854.482 9.43482 853.996 9.26955 853.242 9.26955C852.756 9.23552 852.265 9.33274 851.808 9.52718C851.482 9.72161 851.186 9.97922 850.996 10.3C850.768 10.65 850.602 10.8785 850.505 10.9757C850.345 11.1021 850.116 11.1653 849.888 11.1361C849.625 11.1361 849.367 11.0389 849.168 10.8785C848.974 10.7181 848.842 10.4604 848.876 10.2028C848.876 9.75077 849.037 9.30357 849.333 8.94874C849.722 8.49668 850.213 8.1467 850.797 7.95228C851.579 7.6655 852.425 7.53426 853.237 7.56342C854.117 7.53426 854.997 7.66063 855.809 7.95228C856.398 8.17588 856.884 8.5939 857.146 9.17233C857.443 9.88201 857.569 10.6208 857.54 11.3937V12.8714C857.54 12.8714 857.54 13.7415 857.54 14.1887C857.54 14.6699 857.638 15.156 857.769 15.6372C857.866 15.958 857.963 16.2788 857.997 16.5996C857.997 16.8913 857.866 17.1149 857.638 17.3093C857.409 17.5037 857.117 17.635 856.821 17.635C856.529 17.635 856.266 17.5037 856.072 17.2801C855.727 17.0371 855.469 16.7163 855.241 16.2983ZM855.075 12.7596C854.555 12.92 854.035 13.0804 853.481 13.1776C852.795 13.338 852.309 13.4352 852.017 13.4984C851.725 13.5616 851.463 13.722 851.234 13.9165C850.972 14.1401 850.84 14.4317 850.875 14.7525C850.875 15.1074 851.04 15.4622 851.331 15.715C851.657 15.9726 852.046 16.133 852.469 16.1038C852.926 16.1038 853.412 16.0066 853.806 15.7781C854.166 15.5886 854.492 15.2969 854.72 14.9421C854.983 14.3637 855.114 13.7172 855.046 13.1047L855.075 12.7596Z" fill="#919191"></path> <path d="M791.841 16.2984C791.32 16.7164 790.698 17.0712 790.081 17.324C789.458 17.5525 788.841 17.6788 788.189 17.6788C787.601 17.6788 787.018 17.5525 786.493 17.29C786.036 17.0664 785.647 16.7115 785.389 16.2595C785.131 15.8512 785 15.3651 785 14.8839C785 14.2423 785.229 13.6298 785.651 13.1437C786.138 12.6285 786.76 12.3077 787.446 12.1813L788.617 11.9237C789.235 11.7924 789.789 11.7001 790.246 11.5688C790.703 11.4716 791.194 11.3452 791.714 11.1848C791.714 10.6696 791.583 10.1835 791.325 9.73631C791.097 9.44952 790.606 9.28425 789.862 9.28425C789.366 9.25023 788.875 9.34746 788.423 9.54188C788.097 9.73631 787.8 9.99393 787.606 10.3147C787.377 10.6647 787.217 10.8932 787.12 10.9904C786.959 11.1168 786.731 11.1848 786.497 11.1508C786.24 11.1508 785.977 11.0536 785.783 10.8932C785.588 10.7328 785.457 10.4751 785.491 10.2175C785.491 9.76547 785.656 9.31828 785.948 8.96345C786.337 8.48223 786.857 8.1274 787.446 7.93782C788.228 7.64618 789.074 7.5198 789.92 7.54896C790.8 7.51493 791.68 7.64618 792.497 7.93782C793.081 8.16142 793.572 8.57944 793.834 9.15788C794.126 9.86755 794.257 10.6064 794.223 11.3793V12.8618C794.223 12.8618 794.223 13.7319 794.223 14.1791C794.223 14.6603 794.32 15.1464 794.452 15.6276C794.549 15.9484 794.646 16.2692 794.68 16.59C794.68 16.8476 794.549 17.1053 794.32 17.2997C794.092 17.4941 793.8 17.6205 793.508 17.6205C793.217 17.6205 792.954 17.4893 792.76 17.2657C792.463 16.9449 792.171 16.59 791.977 16.2352L791.841 16.2984ZM791.743 12.7597C791.223 12.9201 790.698 13.0805 790.144 13.1777C789.458 13.3382 788.972 13.4354 788.68 13.4986C788.389 13.5618 788.126 13.7222 787.898 13.9166C787.64 14.1402 787.509 14.4318 787.538 14.7526C787.538 15.1075 787.698 15.4623 787.995 15.7151C788.321 15.9727 788.71 16.1331 789.133 16.1039C789.59 16.1039 790.081 16.0067 790.47 15.7783C790.863 15.5887 791.189 15.297 791.384 14.9422C791.641 14.3638 791.773 13.7173 791.709 13.1048L791.743 12.7597Z" fill="#919191"></path> <path d="M789.789 32.9999C792.434 32.9999 794.578 30.8806 794.578 28.2655C794.578 25.6551 792.434 23.5359 789.789 23.5359C787.144 23.5407 785 25.6551 785 28.2703C785 30.8806 787.144 32.9999 789.789 32.9999Z" fill="#ED2224"></path> <path d="M805.625 32.9999C808.27 32.9999 810.414 30.8806 810.414 28.2655C810.414 25.6551 808.27 23.5359 805.625 23.5359C802.98 23.5359 800.836 25.6503 800.836 28.2655C800.836 30.8806 802.98 32.9999 805.625 32.9999Z" fill="#F69E1D"></path> <path d="M821.489 32.9999C824.134 32.9999 826.278 30.8806 826.278 28.2655C826.278 25.6551 824.134 23.5359 821.489 23.5359C818.844 23.5359 816.7 25.6503 816.7 28.2655C816.7 30.8806 818.844 32.9999 821.489 32.9999Z" fill="#19AC5B"></path> <path d="M837.319 32.9999C839.964 32.9999 842.113 30.8806 842.113 28.2655C842.113 25.6551 839.969 23.5359 837.319 23.5359C834.674 23.5359 832.53 25.6503 832.53 28.2655C832.53 30.8806 834.674 32.9999 837.319 32.9999Z" fill="#8150A0"></path> <path d="M853.184 32.9999C855.829 32.9999 857.973 30.8806 857.973 28.2655C857.973 25.6551 855.829 23.5359 853.184 23.5359C850.539 23.5359 848.395 25.6503 848.395 28.2655C848.395 30.8806 850.539 32.9999 853.184 32.9999Z" fill="#347FC2"></path> </g> <path d="M700.636 2.354H689.68L685.007 12.0763L680.333 2.354H669.377L679.598 23.6337V33.6458H690.4V23.6337L700.636 2.354Z" fill="#ED3026"></path> <path d="M713.769 2C705.372 2 698.538 9.17907 698.538 18C698.538 26.8209 705.372 34 713.769 34C722.166 34 729 26.8209 729 18C729 9.17907 722.166 2 713.769 2ZM713.769 23.6982C710.781 23.6982 708.345 21.1388 708.345 18C708.345 14.8612 710.781 12.3018 713.769 12.3018C716.757 12.3018 719.193 14.8612 719.193 18C719.209 21.1388 716.772 23.6982 713.769 23.6982Z" fill="#ED3026"></path> <path d="M656.231 2C647.834 2 641 9.17907 641 18C641 26.8209 647.834 34 656.231 34C664.628 34 671.462 26.8209 671.462 18C671.462 9.17907 664.628 2 656.231 2ZM656.231 23.6982C653.243 23.6982 650.807 21.1388 650.807 18C650.807 14.8612 653.243 12.3018 656.231 12.3018C659.219 12.3018 661.655 14.8612 661.655 18C661.655 21.1388 659.219 23.6982 656.231 23.6982Z" fill="#ED3026"></path> <path d="M543.632 14.9367C543.668 14.8438 543.706 14.6955 543.706 14.6028C543.706 14.1023 543.316 13.8611 542.908 13.8611C542.556 13.8611 542.333 14.028 542.203 14.4175L540.571 19.405L538.697 14.3803C538.585 14.0653 538.382 13.8611 537.992 13.8611C537.602 13.8611 537.398 14.0651 537.287 14.3803L535.432 19.405L533.799 14.4175C533.669 14.0283 533.447 13.8611 533.094 13.8611C532.686 13.8611 532.297 14.1023 532.297 14.6028C532.297 14.6955 532.333 14.8438 532.371 14.9367L534.652 21.7038C534.727 22.0004 534.968 22.2046 535.376 22.2046C535.784 22.2046 536.007 21.982 536.118 21.6852L537.992 16.5495L539.884 21.6852C539.995 22.0001 540.236 22.2046 540.626 22.2046C541.016 22.2046 541.238 22.0193 541.35 21.7038L543.632 14.9367ZM526.62 20.6572L523.92 17.9754L526.62 15.2939C526.961 14.9527 526.988 14.4283 526.62 14.0614C526.253 13.6942 525.728 13.7202 525.387 14.0614L522.102 17.3442C522.019 17.4266 521.953 17.525 521.909 17.6335C521.865 17.742 521.843 17.8583 521.845 17.9754C521.843 18.0925 521.865 18.2088 521.909 18.3173C521.953 18.4258 522.019 18.5242 522.102 18.6066L525.387 21.8891C525.728 22.2303 526.253 22.2566 526.62 21.8891C526.987 21.5225 526.961 20.9981 526.62 20.6572ZM521.432 21.2705V14.6698C521.432 14.1879 521.061 13.7984 520.56 13.7984C520.059 13.7984 519.688 14.1879 519.688 14.6698V21.2705C519.688 21.7521 520.04 22.1416 520.56 22.1416C521.079 22.1416 521.432 21.7521 521.432 21.2703V21.2705ZM528.812 14.7327V21.3327C528.812 21.8148 529.165 22.2046 529.684 22.2046C530.204 22.2046 530.557 21.8148 530.557 21.3327V14.7327C530.557 14.2506 530.185 13.8614 529.685 13.8614C529.184 13.8614 528.813 14.2506 528.813 14.7327H528.812ZM545.475 14.7327V21.3327C545.475 21.8148 545.828 22.2046 546.347 22.2046C546.867 22.2046 547.219 21.8148 547.219 21.3327V14.7327C547.219 14.2506 546.848 13.8614 546.347 13.8614C545.846 13.8614 545.475 14.2506 545.475 14.7327ZM545.475 14.7327V21.3327C545.475 21.8148 545.828 22.2046 546.347 22.2046C546.867 22.2046 547.219 21.8148 547.219 21.3327V14.7327C547.219 14.2506 546.848 13.8614 546.347 13.8614C545.846 13.8614 545.475 14.2506 545.475 14.7327ZM545.475 14.7327V21.3327C545.475 21.8148 545.828 22.2046 546.347 22.2046C546.867 22.2046 547.219 21.8148 547.219 21.3327V14.7327C547.219 14.2506 546.848 13.8614 546.347 13.8614C545.846 13.8614 545.475 14.2506 545.475 14.7327ZM563.123 15.3784C563.905 15.3784 564.36 15.6765 564.796 16.0088C564.971 16.129 565.141 16.1873 565.317 16.1873C565.74 16.1873 566.06 15.8629 566.06 15.433C566.06 15.2325 565.978 15.0535 565.811 14.886C565.189 14.2422 564.184 13.858 563.123 13.858C560.718 13.858 559.037 15.5613 559.037 18.0001C559.037 20.4391 560.717 22.1424 563.124 22.1424C564.184 22.1424 565.187 21.7595 565.807 21.1186C565.977 20.948 566.06 20.7679 566.06 20.5674C566.06 20.1375 565.74 19.8131 565.317 19.8131C565.14 19.8131 564.966 19.8743 564.784 20.0005C564.372 20.3149 563.904 20.622 563.123 20.622C561.682 20.622 560.676 19.5438 560.676 18.0001C560.676 16.4563 561.682 15.3784 563.123 15.3784ZM571.242 13.858C568.899 13.858 567.132 15.6387 567.132 18.0001C567.132 20.3616 568.899 22.1424 571.242 22.1424C573.584 22.1424 575.351 20.3616 575.351 18.0001C575.351 15.6387 573.585 13.858 571.242 13.858ZM571.242 20.6629C569.616 20.6629 568.766 19.3234 568.766 18.0001C568.766 16.2521 570.011 15.3374 571.242 15.3374C572.868 15.3374 573.719 16.677 573.719 18.0001C573.719 19.7483 572.473 20.6629 571.242 20.6629ZM584.222 13.9047C583.92 13.9047 583.655 14.0834 583.512 14.3824L580.973 19.6971L580.95 19.6504L578.405 14.3719C578.229 14.0532 578.002 13.9047 577.689 13.9047C577.588 13.9036 577.487 13.9227 577.394 13.9608C577.3 13.999 577.215 14.0554 577.144 14.1268C577.073 14.1982 577.016 14.2831 576.978 14.3765C576.94 14.47 576.921 14.5701 576.922 14.6711V21.3175C576.922 21.7393 577.273 22.0954 577.689 22.0954C578.11 22.0954 578.467 21.7393 578.467 21.3175V17.7859L580.3 21.6681C580.446 21.9595 580.66 22.0954 580.973 22.0954C581.271 22.0954 581.517 21.9382 581.648 21.6642L583.456 17.7867V21.3296C583.456 21.7519 583.8 22.0954 584.222 22.0954C584.658 22.0954 585 21.7589 585 21.3296V14.6826C585 14.2175 584.688 13.905 584.222 13.905V13.9047Z" fill="#171B1E"></path> <path d="M551.375 25.6577C551.151 25.4914 550.879 25.4019 550.6 25.4023C550.395 25.4027 550.193 25.4509 550.01 25.5431C549.828 25.6354 549.669 25.769 549.547 25.9335C547.907 28.1539 545.592 30.0155 542.851 31.3167C540.002 32.671 536.744 33.3862 533.422 33.3862C528.353 33.3862 523.6 31.7571 520.037 28.7985C518.326 27.3802 516.986 25.7335 516.054 23.9047C515.1 22.0321 514.616 20.0456 514.615 18.0005C514.616 15.9555 515.1 13.9687 516.054 12.0955C517.457 9.34211 519.796 6.99129 522.819 5.29741C525.951 3.54158 529.619 2.61353 533.429 2.61353C536.751 2.61353 540.016 3.33266 542.872 4.69323C545.618 6.00131 547.935 7.87078 549.571 10.0998C549.693 10.265 549.852 10.3993 550.035 10.492C550.218 10.5847 550.421 10.6331 550.626 10.6334C550.904 10.6339 551.175 10.5451 551.399 10.3801C551.678 10.1748 551.864 9.86712 551.917 9.52468C551.969 9.18223 551.884 8.83295 551.679 8.55343C549.787 5.97743 547.131 3.8266 543.997 2.33376C540.792 0.807051 537.138 0.000262456 533.43 0C527.751 0.00104982 522.402 1.84454 518.366 5.19059C516.38 6.83802 514.819 8.76182 513.724 10.9092C512.58 13.1519 511.999 15.5376 512 18.0003C511.999 20.4629 512.58 22.8483 513.724 25.091C515.365 28.3069 518.068 31.0356 521.54 32.982C525.062 34.956 529.173 35.9997 533.429 36C537.127 36 540.774 35.1969 543.974 33.6773C547.101 32.1912 549.756 30.0501 551.651 27.4854C551.857 27.2063 551.943 26.8571 551.891 26.5144C551.84 26.1718 551.654 25.8635 551.375 25.6574" fill="#00A991"></path> <path d="M553.467 16.5605C553.085 16.561 552.719 16.7128 552.449 16.9827C552.179 17.2525 552.027 17.6183 552.027 17.9999C552.027 18.3814 552.179 18.7472 552.449 19.017C552.719 19.2869 553.085 19.4387 553.467 19.4392C553.849 19.4387 554.215 19.2869 554.485 19.017C554.754 18.7472 554.906 18.3814 554.907 17.9999C554.906 17.6183 554.754 17.2525 554.485 16.9827C554.215 16.7128 553.849 16.561 553.467 16.5605Z" fill="#00A991"></path> <path d="M82.6499 3.30612C82.6499 1.46939 84.078 0 85.8631 0C87.6482 0 89.0763 1.46939 89.0763 3.30612C89.0763 5.14286 87.6482 6.61225 85.8631 6.61225C84.078 6.61225 82.6499 4.95918 82.6499 3.30612Z" fill="#273B7D"></path> <path d="M133.17 25.1631C133.17 23.3263 134.598 21.8569 136.384 21.8569C138.169 21.8569 139.597 23.3263 139.597 25.1631C139.597 26.9998 138.169 28.4692 136.384 28.4692C134.598 28.4692 133.17 26.9998 133.17 25.1631Z" fill="#499FDD"></path> <path d="M29.9908 23.6938C27.3131 23.6938 25.3495 21.4897 25.3495 18.1836C25.3495 14.8775 27.3131 12.6734 29.9908 12.6734C32.847 12.6734 34.6321 14.8775 34.6321 18.1836C34.8106 21.4897 32.847 23.6938 29.9908 23.6938ZM29.9908 8.08154C24.0999 8.08154 19.9941 12.4897 19.9941 18.3673C19.9941 24.2448 24.2784 28.653 29.9908 28.653C35.8816 28.653 40.1659 24.2448 40.1659 18.3673C40.1659 12.4897 35.8816 8.08154 29.9908 8.08154Z" fill="#273B7D"></path> <path d="M76.4035 18.7348C76.225 18.3674 75.868 18.0001 75.6895 17.6327L75.511 17.4491L75.6895 17.2654C75.868 17.0817 76.225 16.7144 76.4035 16.347L81.5804 8.44907H75.3325L71.4052 14.5103C71.2267 14.8776 70.6912 15.0613 70.1557 15.0613H69.2631V3.48989C69.2631 1.10213 67.835 0.918457 66.4069 0.918457H63.7292V28.4695H69.2631V20.0205H69.7986C70.5127 20.0205 70.8697 20.0205 71.0482 20.3878L74.0829 26.2654C74.9755 27.9185 75.868 28.1021 77.4746 28.1021H81.5804L78.3672 22.7756L76.4035 18.7348Z" fill="#273B7D"></path> <path d="M103.359 7.89771C100.503 7.89771 98.7178 9.18342 97.6467 10.2855L97.2897 10.6528L97.1112 10.1018C96.7542 8.99975 95.8616 8.26505 94.255 8.26505H91.7559V28.1018H97.2897V18.9181C97.2897 17.9997 97.4682 17.2651 97.6467 16.5304C98.1823 14.3263 99.9674 13.0406 102.11 13.0406C103.895 13.0406 104.43 13.9589 104.43 16.3467V24.9793C104.43 26.9997 105.323 27.9181 107.286 27.9181H110.143V15.2446C110.143 10.6528 107.822 7.89771 103.359 7.89771Z" fill="#273B7D"></path> <path d="M85.8649 8.44873H83.1873V23.8773V28.4691H86.0434C86.0434 28.4691 86.0434 28.4691 86.2219 28.4691H87.4715H88.7211V11.5712C88.7211 9.3671 87.8285 8.44873 85.8649 8.44873Z" fill="#273B7D"></path> <path d="M51.5897 23.6938C48.912 23.6938 46.9484 21.4897 46.9484 18.1836C46.9484 14.8775 48.912 12.6734 51.5897 12.6734C54.4458 12.6734 56.2309 14.8775 56.2309 18.1836C56.4095 21.4897 54.4458 23.6938 51.5897 23.6938ZM51.5897 8.08154C45.6988 8.08154 41.593 12.4897 41.593 18.3673C41.593 24.2448 45.8773 28.653 51.5897 28.653C57.4805 28.653 61.7648 24.2448 61.7648 18.3673C61.7648 12.4897 57.4805 8.08154 51.5897 8.08154Z" fill="#273B7D"></path> <path d="M169.587 23.6938C166.909 23.6938 164.945 21.4897 164.945 18.1836C164.945 14.8775 166.909 12.6734 169.587 12.6734C172.443 12.6734 174.228 14.8775 174.228 18.1836C174.407 21.4897 172.443 23.6938 169.587 23.6938ZM169.587 8.08154C163.696 8.08154 159.59 12.4897 159.59 18.3673C159.59 24.2448 163.874 28.653 169.587 28.653C175.478 28.653 179.762 24.2448 179.762 18.3673C179.762 12.4897 175.478 8.08154 169.587 8.08154Z" fill="#499FDD"></path> <path d="M121.745 22.9593C118.711 22.9593 117.64 20.2042 117.64 17.8164C117.64 16.7144 117.997 13.0409 121.388 13.0409C123.173 13.0409 125.494 13.5919 125.494 18.0001C125.494 22.0409 123.53 22.9593 121.745 22.9593ZM128.529 8.44905C127.458 8.44905 126.744 8.8164 126.208 9.73477L126.03 10.1021L125.851 9.91844C124.958 9.18375 123.352 8.26538 120.853 8.26538C115.676 8.26538 112.284 12.3062 112.284 18.1837C112.284 24.0613 115.854 28.2858 121.031 28.2858C122.816 28.2858 124.244 27.9184 125.316 27.0001L125.673 26.6327V27.1837C125.673 29.7552 124.066 31.2246 121.031 31.2246C119.603 31.2246 118.175 30.8572 117.282 30.4899C116.033 30.1225 115.497 30.4899 114.962 31.5919L114.605 32.694L113.712 34.1633L114.069 34.347C116.033 35.4491 118.532 36.0001 120.853 36.0001C125.494 36.0001 131.028 33.6123 131.028 26.6327V8.44905H128.529Z" fill="#273B7D"></path> <path d="M9.4611 23.51H4.99832V17.9998C4.99832 16.8978 5.35534 16.1631 6.42641 15.9794H9.4611C11.6032 15.9794 13.0313 17.4488 13.0313 19.6529C13.0313 22.2243 11.7817 23.51 9.4611 23.51ZM4.99832 8.63246V7.16307C4.99832 5.87735 5.53385 5.32633 6.60492 5.14266H8.92556C10.8892 5.14266 12.1388 6.42837 12.1388 8.44878C12.1388 9.91817 11.2462 11.7549 9.10407 11.7549H4.99832V8.63246ZM15.1735 14.1427L14.4594 13.7753L15.1735 13.2243C15.8875 12.3059 17.3156 10.6529 17.3156 7.89776C17.3156 3.4896 14.1024 0.734497 9.10407 0.734497H3.2132H2.67767C1.24958 0.734497 0 2.02021 0 3.67327V28.2855H2.67767H9.28259C14.8164 28.2855 18.5652 25.1631 18.5652 20.2039C18.3867 17.6325 17.1371 15.2447 15.1735 14.1427Z" fill="#273B7D"></path> <path d="M204.395 8.08138C202.075 8.08138 199.933 9.18342 198.504 11.0202L198.147 11.5712L197.79 10.8365C196.719 8.99975 194.934 7.89771 192.614 7.89771C190.114 7.89771 188.329 9.36709 187.615 10.2855L186.901 11.0202L186.723 10.2855C186.366 9.18342 185.473 8.6324 184.045 8.6324H181.724V28.4691H186.901V19.6528C186.901 18.9181 187.08 18.1834 187.258 17.2651C187.794 15.2446 189.222 12.8569 191.542 13.0406C192.971 13.2242 193.685 14.3263 193.685 16.5304V28.2855H199.04V19.4691C199.04 18.5508 199.04 17.8161 199.397 17.0814C199.754 15.061 201.182 13.0406 203.503 13.0406C205.109 13.0406 205.645 13.9589 205.645 16.5304V25.3467C205.645 27.3671 206.537 28.2855 208.501 28.2855H211V15.612C210.643 10.6528 208.501 8.08138 204.395 8.08138Z" fill="#499FDD"></path> <path d="M156.555 21.4897C156.555 21.4897 154.234 23.8775 151.378 23.8775C148.701 23.8775 145.844 22.2244 145.844 18.3673C145.844 15.0611 147.987 12.6734 151.021 12.6734C152.092 12.6734 153.163 13.0407 153.342 13.5917V13.7754C153.699 15.2448 154.948 15.2448 155.127 15.2448H157.983V12.6734C157.983 9.18358 153.699 8.08154 150.843 8.08154C144.773 8.08154 140.311 12.4897 140.311 18.3673C140.311 24.4285 144.595 28.653 150.664 28.653C155.841 28.653 158.697 25.1632 158.697 25.1632L158.876 24.9795L156.555 21.1224V21.4897Z" fill="#499FDD"></path> <path d="M319.968 28.4046V19.5821H307.089V28.4046C307.089 29.355 306.336 30.1261 305.385 30.1261C304.417 30.1261 303.627 29.337 303.627 28.4046V8.26707C303.627 7.31669 304.417 6.52769 305.367 6.52769C306.354 6.52769 307.107 7.31669 307.107 8.26707V16.462H320.022V8.26707C319.986 7.28083 320.721 6.50975 321.69 6.43803C322.658 6.40216 323.448 7.13737 323.519 8.1057C323.519 8.17743 323.519 8.19534 323.519 8.26707V28.4046C323.483 29.3729 322.658 30.1081 321.69 30.0723C320.721 30.0543 320.004 29.3191 319.968 28.4046Z" fill="#D32E2E"></path> <path d="M325.922 21.5366C325.922 16.6771 329.205 12.7141 334.442 12.7141C339.68 12.7141 342.962 16.695 342.962 21.5366C342.962 26.3961 339.716 30.395 334.442 30.395C329.187 30.395 325.922 26.432 325.922 21.5366ZM339.698 21.5366C339.698 18.3627 337.832 15.4756 334.46 15.4756C331.07 15.4756 329.205 18.3447 329.205 21.5366C329.205 24.7285 331.106 27.6155 334.46 27.6155C337.796 27.6155 339.698 24.7464 339.698 21.5366Z" fill="#D32E2E"></path> <path d="M361.292 12.7141C366.368 12.7141 369.489 16.6591 369.489 21.1062C369.489 22.0566 368.825 22.6125 367.624 22.6125H356.126C356.377 25.4816 358.458 27.8486 361.866 27.8486C363.391 27.8486 364.843 27.3645 366.063 26.4858C366.278 26.3603 366.512 26.3065 366.763 26.3244C367.462 26.3244 368.018 26.8982 368.018 27.5797C368.018 27.9921 367.821 28.4045 367.444 28.6197C365.705 29.857 363.66 30.4846 361.543 30.4488C356.521 30.4488 352.79 26.8982 352.79 21.5904C352.826 16.6591 356.359 12.7141 361.292 12.7141ZM356.108 20.3172H366.422C366.368 18.0757 364.843 15.2963 361.274 15.2963C357.884 15.2963 356.306 18.004 356.108 20.3172Z" fill="#D32E2E"></path> <path d="M371.517 28.6016V8.10548C371.517 7.22681 372.216 6.52747 373.095 6.52747C373.974 6.52747 374.674 7.22681 374.674 8.10548V28.6016C374.674 29.4803 373.974 30.1796 373.095 30.1796C372.216 30.1796 371.517 29.4444 371.517 28.6016Z" fill="#D32E2E"></path> <path d="M376.664 27.4002C376.664 26.647 377.238 26.0553 377.992 26.0553H378.028C378.314 26.0553 378.566 26.1449 378.781 26.3063C380.162 27.3105 381.812 27.8843 383.552 27.9202C385.92 27.9202 387.175 26.9519 387.175 25.5173C387.175 23.8497 385.256 23.2758 383.068 22.8096C380.198 22.1461 376.844 21.393 376.844 17.7349C376.844 15.0451 379.14 12.7498 383.283 12.7498C385.292 12.7139 387.247 13.3236 388.897 14.4713C389.238 14.7223 389.435 15.0989 389.471 15.5113C389.471 16.2286 388.897 16.8024 388.18 16.8024C387.929 16.8024 387.678 16.7128 387.48 16.5514C386.278 15.7086 384.79 15.2244 383.319 15.2603C381.166 15.2603 379.839 16.1031 379.839 17.4659C379.839 18.9363 381.669 19.4205 383.749 19.9226C386.691 20.586 390.189 21.375 390.189 25.2483C390.189 28.1533 387.821 30.4127 383.373 30.4127C381.041 30.4127 378.924 29.803 377.22 28.5299C376.88 28.243 376.664 27.8485 376.664 27.4002Z" fill="#D32E2E"></path> <path d="M394.37 26.0195C395.571 26.0195 396.54 27.0058 396.594 28.1893C396.558 29.3728 395.571 30.359 394.37 30.3949C393.168 30.359 392.199 29.3907 392.199 28.1893C392.199 26.9879 393.186 26.0195 394.37 26.0195Z" fill="#D32E2E"></path> <path d="M412.914 21.5366C412.914 16.6771 416.196 12.7141 421.434 12.7141C426.672 12.7141 429.954 16.695 429.954 21.5366C429.954 26.3961 426.707 30.395 421.434 30.395C416.161 30.395 412.914 26.432 412.914 21.5366ZM426.671 21.5366C426.671 18.3627 424.806 15.4756 421.434 15.4756C418.062 15.4756 416.196 18.3447 416.196 21.5366C416.196 24.7285 418.08 27.6155 421.434 27.6155C424.788 27.6155 426.671 24.7464 426.671 21.5366Z" fill="#D32E2E"></path> <path d="M456 17.7887V28.5658C456 29.4445 455.3 30.1438 454.421 30.1438H454.386C453.543 30.1438 452.843 29.4265 452.843 28.5658V18.7391C452.843 16.7846 451.964 15.8342 449.919 15.8342C448.215 15.8342 446.511 17.7529 445.722 18.9902V28.5658C445.722 29.4445 445.023 30.1438 444.144 30.1438C443.265 30.1438 442.565 29.4445 442.565 28.5658V18.7391C442.565 16.7846 441.722 15.8342 439.606 15.8342C437.973 15.8342 436.323 17.8784 435.48 19.1157V28.6017C435.48 29.4804 434.781 30.1797 433.902 30.1797C433.023 30.1797 432.323 29.4804 432.323 28.6017V14.5431C432.323 13.7003 432.987 12.9651 433.866 12.9651C434.745 12.9651 435.444 13.6285 435.48 14.5072V15.5114C436.18 14.4713 438.422 12.732 440.933 12.732C443.462 12.732 444.969 14.0589 445.507 15.888C446.798 13.9692 448.951 12.8037 451.247 12.732C454.368 12.714 456 14.4176 456 17.7887Z" fill="#D32E2E"></path> <path d="M406.009 12.7141C408.412 12.7141 410.116 13.4673 411.372 14.6687C411.659 14.9556 411.838 15.2963 411.838 15.7087C411.838 16.4977 411.246 17.1254 410.457 17.1254C410.098 17.1254 409.758 16.9998 409.506 16.7846C408.592 15.906 407.372 15.4577 406.134 15.4935C402.816 15.4935 400.682 18.0399 400.682 21.5545C400.682 25.0513 402.834 27.5079 406.134 27.6335C408.376 27.7052 410.618 26.0913 412.448 23.2222C412.663 22.8636 413.022 22.218 413.273 21.8594C413.775 21.1959 414.152 21.5187 414.439 21.8235C415.013 22.3973 415.013 23.7781 414.637 24.4774C413.919 25.8582 412.968 27.1493 411.802 28.2252C410.224 29.6777 408.143 30.4667 405.991 30.4308C400.879 30.4308 397.399 26.6113 397.399 21.5725C397.381 16.5336 400.879 12.7141 406.009 12.7141Z" fill="#D32E2E"></path> <path d="M355.069 27.4002C355.069 27.992 353.365 29.3189 352.128 29.9286C351.374 30.2693 350.549 30.4666 349.724 30.3948C347.07 30.3948 345.706 28.8886 345.706 26.2346V15.87H344.092C343.339 15.9059 342.675 15.332 342.639 14.543C342.621 13.7899 343.177 13.1264 343.966 13.0906C344.002 13.0906 344.056 13.0906 344.092 13.0906H345.706V9.91663C345.706 9.03795 346.406 8.33862 347.285 8.33862C348.164 8.33862 348.863 9.03795 348.863 9.91663V13.1264H351.07C351.823 13.0906 352.487 13.6644 352.522 14.4534C352.558 15.2424 351.984 15.87 351.195 15.9059C351.159 15.9059 351.105 15.9059 351.07 15.9059H348.863V25.5712C348.863 26.7726 349.437 27.6154 350.495 27.6154C352.415 27.6154 353.939 24.6208 354.8 24.6208C355.679 24.6208 355.069 26.6112 355.069 27.4002Z" fill="#D32E2E"></path> <path d="M282.891 10.0455C282.891 9.321 283.107 8.61375 283.521 8.01001C282.288 8.36364 281.442 9.48487 281.442 10.7613V13.0728L282.891 13.1504V10.0455Z" fill="#D32E2E"></path> <path d="M281.442 25.9326C281.442 27.2091 282.296 28.3303 283.521 28.6839C283.107 28.0802 282.891 27.373 282.891 26.6485V22.3102H281.442V25.9326Z" fill="#D32E2E"></path> <path d="M285.064 22.3102H283.615V26.6399C283.615 27.9163 284.46 29.0376 285.693 29.3912C285.271 28.7961 285.055 28.0888 285.055 27.3643V22.3102H285.064Z" fill="#D32E2E"></path> <path d="M285.065 9.32111C285.065 8.59662 285.281 7.88939 285.703 7.28564C284.47 7.63925 283.625 8.76913 283.625 10.0456V13.1851L285.074 13.2627V9.32111H285.065Z" fill="#D32E2E"></path> <path d="M268.768 8.39819C267.681 9.04507 267 10.2181 267 11.4945V25.2081C267 26.4845 267.681 27.6575 268.768 28.3044C268.552 27.7783 268.44 27.2263 268.44 26.657V10.0456C268.432 9.49356 268.552 8.92433 268.768 8.39819Z" fill="#D32E2E"></path> <path d="M270.605 8.60524C270.605 8.03599 270.709 7.484 270.933 6.95789C269.838 7.60474 269.156 8.78635 269.156 10.0456V26.6312C269.156 28.1406 270.096 29.4774 271.511 30.0035C270.924 29.2445 270.605 28.313 270.605 27.3557V8.60524Z" fill="#D32E2E"></path> <path d="M288.672 6.44898C287.085 6.44898 285.791 7.74271 285.782 9.32968V14.0216L278.57 13.668V8.60518C278.561 6.62147 276.939 5 274.955 5C272.971 5 271.349 6.62147 271.349 8.60518V27.3643C271.349 29.348 272.971 30.9695 274.955 30.9695C276.939 30.9695 278.561 29.348 278.561 27.3643V21.5942H285.791V27.3643C285.791 28.9685 287.085 30.2622 288.689 30.2622C290.294 30.2622 291.588 28.9685 291.588 27.3643V9.32106C291.571 7.74271 290.277 6.44898 288.672 6.44898Z" fill="#D32E2E"></path> <path d="M291.571 27.3556C291.571 28.9599 290.277 30.2536 288.672 30.2536C287.076 30.2536 285.782 28.9599 285.782 27.3556V21.5856H278.561V27.3556C278.561 29.3393 276.939 30.9608 274.955 30.9608C272.971 30.9608 271.349 29.3393 271.349 27.3556V8.60518C271.349 6.62147 272.962 5 274.955 5C276.939 5 278.561 6.62147 278.561 8.60518V13.6507L285.791 14.0216V9.32106C285.791 7.71682 287.085 6.44035 288.689 6.44035C290.294 6.44035 291.588 7.73409 291.588 9.32106L291.571 27.3556Z" fill="#D32E2E"></path> <g clip-path="url(#clip4)"> <path d="M1218.16 3.6546H1199.3V9.50239H1218.16V3.6546ZM1196.92 26.8347H1186.57V21.008H1195.8V15.2024H1186.57V9.4813H1196.74V3.61237H1180.98V32.6614H1196.88V26.8347H1196.92ZM1163.49 33.3158C1167.08 33.3158 1170.26 31.1836 1172.12 27.8692V32.7248H1177.01V16.5747H1163.9V22.148H1169.41C1168.9 25.1458 1166.65 27.4469 1163.92 27.4469C1160.89 27.4469 1158.43 24.5969 1158.43 20.4169V16.1313C1158.43 12.0357 1161.05 8.99574 1164.73 8.99574C1167.58 8.99574 1170.15 10.8113 1170.98 13.4713L1176.14 11.3602C1174.73 6.25128 1170.08 3.08459 1164.73 3.08459C1158 3.10571 1153 8.40462 1153 16.1313V20.438C1153.04 27.8058 1157.71 33.3158 1163.49 33.3158ZM1205.92 32.7036H1211.48V27.2781H1205.92V32.7036ZM1211.52 19.5725H1205.96V24.9769H1211.52V19.5725ZM1211.52 11.8246H1205.96V17.2291H1211.52V11.8246Z" fill="#FF5533"></path> <path d="M1250.68 13.3023C1250.68 11.3389 1251.98 9.88226 1253.61 9.88226C1255.23 9.88226 1256.53 11.3601 1256.53 13.3023C1256.53 15.2656 1255.23 16.7223 1253.61 16.7223C1251.98 16.7012 1250.68 15.2234 1250.68 13.3023ZM1255.86 7.15892C1255.86 9.12224 1257.16 10.5789 1258.79 10.5789C1260.41 10.5789 1261.71 9.10115 1261.71 7.15892C1261.71 5.19557 1260.41 3.73889 1258.79 3.73889C1257.16 3.76 1255.86 5.19557 1255.86 7.15892ZM1262.96 3V9.12224C1267.05 9.12224 1270.27 13.0067 1270.27 18.1156C1270.27 23.2245 1267.03 27.109 1262.96 27.109C1258.86 27.109 1255.64 23.2245 1255.64 18.1156H1249.92C1249.92 26.5812 1255.7 33.2313 1262.94 33.2313C1270.18 33.2313 1275.95 26.5812 1275.95 18.1156C1275.99 9.65004 1270.21 3 1262.96 3ZM1300.14 21.3245V3.59111H1294.6V21.4301C1294.6 24.7657 1292.56 27.2568 1289.76 27.2568C1286.96 27.2568 1284.92 24.7868 1284.92 21.4301V3.59111H1279.38V21.3245C1279.38 28.1857 1283.77 33.2102 1289.74 33.2102C1295.73 33.2102 1300.14 28.1857 1300.14 21.3245ZM1235.81 32.619H1241.37V21.599L1250.7 3.59111H1244.4L1238.52 15.4767L1232.72 3.59111H1226.44L1235.77 21.6834V32.6402H1235.81V32.619ZM1312.83 25.2935L1309.94 21.7467L1312.79 18.1367L1309.9 14.5901L1312.76 10.98L1309.87 7.43335L1313.04 3.61222H1307.27L1304.15 7.47559L1307.03 11.0223L1304.2 14.6112L1307.09 18.1579L1304.22 21.7679L1307.11 25.3145L1304.25 28.9246L1307.32 32.6402H1313.12L1309.99 28.8823L1312.83 25.2935ZM1327.32 32.619L1320.55 21.5356C1323.86 20.3323 1326.15 16.9545 1326.15 12.8167C1326.15 7.58112 1322.43 3.59111 1317.76 3.59111H1314.49V9.48115H1317.56C1319.18 9.48115 1320.44 11.0011 1320.44 12.9856C1320.44 14.9701 1319.18 16.4901 1317.56 16.4901H1314.49V22.0634L1320.55 32.6402H1327.32V32.619Z" fill="#FF5533"></path> <path d="M1430.56 26.8135V20.9868H1439.78V15.1601H1430.56V9.4389H1440.72V3.59111H1424.96V32.6402H1440.86V26.7923H1430.56V26.8135ZM1421.64 18.1156C1421.64 26.4546 1416.19 32.619 1408.5 32.619H1400.3V3.54889H1408.5C1416.19 3.54889 1421.64 9.77669 1421.64 18.1156ZM1415.92 18.1156C1415.92 13.1545 1413.08 9.3967 1408.93 9.3967H1405.86V26.7923H1408.93C1413.1 26.8135 1415.92 23.0768 1415.92 18.1156ZM1378.55 21.4723C1378.55 24.8079 1376.51 27.299 1373.72 27.299C1370.92 27.299 1368.88 24.829 1368.88 21.4723V3.61222H1363.34V21.3456C1363.34 28.2068 1367.72 33.2313 1373.7 33.2313C1379.67 33.2313 1384.06 28.1646 1384.06 21.3456V3.61222H1378.52V21.4723H1378.55ZM1346.33 22.0423H1351.84C1351.33 25.0401 1349.08 27.3412 1346.35 27.3412C1343.32 27.3412 1340.87 24.4912 1340.87 20.3112V16.0256C1340.87 11.9301 1343.48 8.89002 1347.17 8.89002C1350.02 8.89002 1352.58 10.7056 1353.41 13.3656L1358.57 11.2545C1357.17 6.16668 1352.51 3 1347.18 3C1340.43 3 1335.43 8.29893 1335.43 16.0256V20.3323C1335.47 27.7423 1340.14 33.2524 1345.92 33.2524C1349.51 33.2524 1352.69 31.1201 1354.55 27.8057V32.6613H1359.44V16.5112H1346.33V22.0423ZM1394.6 17.2712C1395.43 16.4056 1396.8 14.9701 1396.8 12.2678C1396.8 9.6078 1395.41 8.13004 1394.6 7.26445C1394.56 7.22225 1394.55 7.20113 1394.51 7.15892C1394.1 6.65224 1394.04 5.91335 1394.01 5.57557V3.54889H1388.41V6.27224C1388.41 6.31446 1388.41 6.33557 1388.41 6.37778C1388.41 9.03779 1389.8 10.5156 1390.61 11.3811C1391.21 11.9934 1391.21 12.0356 1391.21 12.2678C1391.21 12.5001 1391.21 12.5423 1390.61 13.1545C1389.82 13.9778 1388.52 15.35 1388.43 17.8412C1388.43 17.8834 1388.43 17.9467 1388.43 17.989C1388.43 18.0312 1388.43 18.0312 1388.43 18.0523C1388.43 18.0945 1388.43 18.0945 1388.43 18.1156C1388.43 18.1579 1388.43 18.2212 1388.43 18.2634C1388.52 20.7334 1389.84 22.1268 1390.61 22.9501C1391.21 23.5623 1391.21 23.6046 1391.21 23.8368C1391.21 24.069 1391.21 24.1112 1390.61 24.7235C1389.78 25.589 1388.41 27.0246 1388.41 29.7268C1388.41 29.769 1388.41 29.7901 1388.41 29.8324V32.5557H1394.01V30.529C1394.01 30.1912 1394.1 29.4523 1394.51 28.9457C1394.55 28.9035 1394.56 28.8823 1394.6 28.8401C1395.43 27.9746 1396.8 26.539 1396.8 23.8368C1396.8 21.1767 1395.41 19.699 1394.6 18.8334C1394.08 18.2845 1394.01 18.179 1394.01 18.0101C1394.04 17.9256 1394.1 17.8201 1394.6 17.2712Z" fill="#FF5533"></path> </g> <path d="M2455.82 7.0697H2447.12V35.3482H2455.82V7.0697Z" fill="#186B6D"></path> <path d="M2503.46 32.5203C2500.9 32.5203 2499.68 30.9846 2499.68 28.3609V9.42615H2506.59V7.06962H2499.68V0H2491.32L2490.93 7.06962H2487.22V9.42615H2490.93V28.0546C2490.93 32.8542 2493.68 35.9844 2499.31 35.9844C2503.53 35.9844 2506.03 34.26 2507.05 31.9587L2506.66 31.5108C2505.73 32.1864 2504.61 32.5437 2503.46 32.5203Z" fill="#186B6D"></path> <path d="M2521.63 6.42932C2512.36 6.42932 2506.47 12.8902 2506.47 21.3541C2506.47 29.7316 2511.97 35.9999 2521.44 35.9999C2531.1 35.9999 2536.6 29.543 2536.6 21.0948C2536.6 12.7016 2530.84 6.42932 2521.63 6.42932ZM2521.57 33.9419C2516.9 33.9419 2516.25 30.1634 2516.25 21.1302C2516.25 12.2382 2516.89 8.39702 2521.49 8.39702C2526.16 8.39702 2526.8 12.2382 2526.8 21.2559C2526.81 30.1007 2526.24 33.9419 2521.57 33.9419Z" fill="#186B6D"></path> <path d="M2548.77 11.932L2548.58 7.06963H2540.14V35.3482H2548.85V12.7018C2549.37 12.5368 2549.92 12.4504 2550.46 12.4425C2552.01 12.4425 2553.82 13.0827 2559.25 15.6435L2559.76 15.4511V7.51738C2558.76 6.79078 2557.55 6.40981 2556.31 6.42943C2553.87 6.42943 2551.03 7.96513 2548.77 11.932Z" fill="#186B6D"></path> <path d="M2475.94 31.9583L2476.94 35.348H2484.38V13.5971C2484.38 8.79764 2480.61 6.42932 2474.4 6.42932C2470.24 6.42932 2465.12 7.58009 2461.6 8.73479L2461.21 13.66L2461.73 13.9153C2468.38 9.43784 2470.37 8.41667 2472.41 8.41667C2474.76 8.41667 2475.74 9.63419 2475.74 12.1911V18.0824C2465.88 20.1286 2459.87 21.6172 2459.87 28.3176C2459.87 32.9246 2462.94 35.996 2467.87 35.996C2471.65 35.9882 2474.46 34.1972 2475.94 31.9583ZM2468.45 26.7112C2468.45 22.3595 2469.92 21.2716 2475.74 20.058V30.9491C2474.69 31.7855 2473.37 32.2178 2472.03 32.1665C2469.54 32.1509 2468.45 30.7409 2468.45 26.7112Z" fill="#186B6D"></path> <path d="M2438.19 17.0848C2441.12 17.0848 2443.49 14.7109 2443.49 11.7825C2443.49 8.85422 2441.12 6.48035 2438.19 6.48035C2435.26 6.48035 2432.89 8.85422 2432.89 11.7825C2432.89 14.7109 2435.26 17.0848 2438.19 17.0848Z" fill="#186B6D"></path> <path d="M2432.35 35.3482L2435.12 29.1308L2425.3 7.0697H2416L2428.59 35.3482H2432.35Z" fill="#186B6D"></path> <defs> <clipPath id="clip0"> <rect width="261" height="36" fill="white" transform="translate(2099)"></rect> </clipPath> <clipPath id="clip1"> <rect width="127" height="36" fill="white" transform="translate(1497)"></rect> </clipPath> <clipPath id="clip2"> <rect width="183" height="36" fill="white" transform="translate(914)"></rect> </clipPath> <clipPath id="clip3"> <rect width="73" height="28.9999" fill="white" transform="translate(785 4)"></rect> </clipPath> <clipPath id="clip4"> <rect width="288" height="30.3158" fill="white" transform="translate(1153 3)"></rect> </clipPath> </defs> </svg> 