<?xml version="1.0" encoding="UTF-8"?> <svg xmlns="http://www.w3.org/2000/svg" width="135" height="47" viewBox="0 0 135 47" fill="none"> <path d="M61.0526 17.5279H61.0883C63.9154 17.5279 66.6915 17.8169 69.2384 19.0491C69.5598 19.248 69.934 19.3457 70.3121 19.3294C70.6901 19.3131 71.0545 19.1836 71.3574 18.9578C80.455 12.6297 90.9024 9.83068 101.574 7.65537C102.695 7.42719 103.326 7.36636 102.949 5.81474C102.511 4.00452 104.151 3.45181 105.593 3.06137C111.196 1.54018 116.891 0.84044 122.642 0.394223C125.515 0.166044 128.393 -0.178759 131.271 0.110268C134.949 0.485496 136.085 2.77743 133.874 5.65755C129.198 11.7423 123.686 17.1983 119.193 23.4504C118.929 23.8206 118.608 24.0843 118.139 23.8713C117.67 23.6583 117.889 23.2273 117.94 22.8166C118.541 18.0908 121.134 14.379 124.017 10.7941C124.359 10.3682 125.036 9.97773 124.756 9.31854C124.476 8.65936 123.737 8.90782 123.182 8.93825C110.091 9.67349 97.2035 11.5801 84.8917 16.2501C81.3971 17.5479 78.0518 19.2138 74.9129 21.2193C73.8941 21.8633 73.3848 22.4515 74.2201 23.6228C74.7651 24.4859 75.0562 25.4836 75.0606 26.503C75.2338 28.9774 74.5105 31.0209 72.2132 32.2581C70.685 33.0999 69.0499 33.0948 67.6949 31.9133C65.9885 30.4226 65.5454 28.5008 65.7746 26.4066C65.8356 25.9457 65.9431 25.4922 66.0955 25.0528C67.3537 21.6199 67.4046 21.5033 63.7625 21.0672C57.5786 20.2914 51.6239 21.8126 45.7457 23.3592C30.9736 27.2686 17.2203 33.3078 5.06644 42.7341C3.79298 43.7229 2.55009 44.7319 1.77583 46.2024C1.56189 46.6081 1.36832 47.2165 0.685751 46.9224C0.412019 46.7902 0.197975 46.5606 0.0857803 46.2791C-0.0264145 45.9975 -0.0286273 45.6843 0.0795855 45.4012C0.431059 43.9409 1.44983 42.9014 2.50425 41.9279C8.21442 36.6645 14.7956 32.7196 21.713 29.2513C32.7513 23.7547 44.2838 19.7641 56.514 17.9082C58.0167 17.7054 59.5398 17.6598 61.0526 17.5279ZM122.881 3.77633C122.849 3.7812 122.817 3.7812 122.785 3.77633C121.256 3.36561 119.978 4.22763 118.572 4.53187H122.78C125.163 4.36454 127.685 5.37866 129.911 3.79155L122.881 3.77633ZM69.7631 27.1824C69.7594 27.2551 69.7716 27.3278 69.7987 27.3954C69.9464 27.8365 69.6561 28.7087 70.6035 28.6225C71.3778 28.5464 71.5102 27.654 71.5 27.0151C71.4898 26.3762 71.5408 25.3976 70.7258 25.4128C69.9108 25.428 69.8446 26.3356 69.7631 27.1824Z" fill="#F5B53D"></path> </svg> 