<?xml version="1.0" encoding="UTF-8"?> <svg xmlns="http://www.w3.org/2000/svg" width="1792" height="395" viewBox="0 0 1792 395" fill="none"> <path d="M23.846 135.929C17.594 144.85 13.7156 155.215 12.576 166.049C10.046 188.049 11.786 210.049 16.266 231.609C19.866 248.949 29.846 263.369 40.096 277.359C53.666 295.889 70.176 311.359 91.306 320.929C109.64 329.343 129.019 335.262 148.926 338.529C169.466 341.839 190.016 342.149 210.676 342.439C230.986 342.719 251.286 343.739 271.596 344.059C293.466 344.389 315.076 340.749 336.826 339.169C366.076 337.049 395.136 333.239 424.136 329.049C448.696 325.499 472.996 320.249 497.706 317.679C513.416 316.039 529.056 313.199 544.956 315.169C545.631 315.165 546.304 315.253 546.956 315.429C556.046 319.279 564.186 316.479 572.626 312.669C586.846 306.229 602.446 304.589 617.516 301.089C660.736 291.029 704.606 292.959 748.376 293.429C788.056 293.849 827.436 298.109 866.716 303.729C885.646 306.429 904.896 306.809 923.876 309.199C959.406 313.659 994.876 318.859 1030.33 323.679C1045.68 325.769 1061.2 326.929 1076.38 329.859C1099.76 334.359 1122.92 339.989 1146.17 345.199C1171.17 350.819 1196.36 355.819 1221.44 361.199C1241.25 365.449 1261.27 369.389 1281.82 368.349C1286.22 368.129 1287.82 367.149 1287.61 362.349C1287.1 351.819 1294.76 343.059 1305.15 341.439C1310.6 340.589 1315.57 341.649 1319.04 346.289C1320.72 348.382 1321.78 350.904 1322.11 353.57C1322.44 356.236 1322.01 358.941 1320.89 361.379C1318.38 367.379 1313.81 370.859 1307.75 372.739C1306.56 373.109 1304.75 373.139 1304.65 374.739C1304.55 376.339 1306.25 376.739 1307.35 377.409C1316.85 383.169 1327.54 384.139 1338.21 384.179C1372.37 384.43 1406.48 381.417 1440.07 375.179C1489.76 365.709 1538.62 353.279 1585.49 333.819C1621.28 318.989 1654.29 298.16 1683.08 272.229C1702.48 254.677 1720.25 235.394 1736.17 214.619C1756.47 188.598 1769.62 157.714 1774.29 125.039C1776.52 109.889 1779.76 94.8688 1780.5 79.5088C1781.52 58.3381 1779.25 37.1368 1773.79 16.6588C1772.6 12.1688 1771.63 7.52882 1772.79 2.82882C1773.1 1.54882 1773.58 0.138816 1775.21 0.00881577C1776.84 -0.121184 1777.47 1.20882 1777.81 2.52882C1781.95 18.8088 1788.81 34.3688 1790.59 51.2788C1792.43 68.5688 1792.59 85.7388 1789.71 102.999C1786.34 123.049 1783.59 143.179 1777.58 162.699C1769.17 190.019 1753.3 212.939 1735.43 234.699C1701.43 276.039 1661.43 309.989 1613.28 333.699C1578.15 350.989 1541.07 362.949 1503.08 372.239C1471.34 379.999 1439.48 387.169 1406.97 390.829C1388.77 392.829 1370.51 394.139 1352.18 394.479C1342.18 394.659 1332.18 394.789 1322.34 393.249C1311.57 391.579 1301.7 387.929 1294.08 379.639C1293.08 378.529 1291.95 377.379 1290.27 377.639C1259.15 381.479 1229.51 373.109 1199.56 366.889C1161.06 358.889 1122.56 350.889 1084.28 341.889C1068.86 338.289 1052.95 337.589 1037.28 335.449C1006.72 331.235 976.196 327.019 945.696 322.799C926.696 320.139 907.696 318.399 888.556 317.129C867.776 315.739 847.216 312.359 826.556 309.859C810.506 307.929 794.436 306.859 778.306 305.949C747.306 304.159 716.376 304.379 685.396 304.119C652.606 303.849 620.906 310.839 589.216 317.989C583.376 319.309 577.876 321.819 572.296 324.059C568.756 325.479 567.836 326.679 569.766 330.559C575.456 341.969 564.386 358.469 551.656 358.049C543.806 357.789 538.516 352.519 538.276 344.719C538.106 339.239 539.146 334.109 542.606 329.719C543.196 328.959 544.106 327.929 543.936 327.239C543.596 325.779 542.026 326.239 540.936 326.239C530.112 326.004 519.284 326.495 508.526 327.709C479.206 331.089 450.336 337.219 421.186 341.569C386.106 346.809 350.796 350.119 315.496 353.629C290.298 356.179 264.953 356.965 239.646 355.979C213.716 354.929 187.696 355.979 161.846 352.429C136.936 349.049 112.676 343.519 89.756 332.989C60.066 319.349 38.756 296.769 21.806 269.429C9.07597 248.879 3.74597 226.219 2.55597 202.429C1.99597 191.319 0.745975 180.229 1.99597 169.009C3.16597 158.459 5.436 148.329 9.836 138.679C11.006 136.109 11.716 134.359 7.34601 134.959C1.55601 135.749 -1.33399 131.749 0.596011 126.149C1.1794 124.413 2.02589 122.777 3.10596 121.299C8.71596 113.839 14.466 106.479 21.196 99.9788C22.6607 98.6194 24.2177 97.3631 25.856 96.2188C28.236 94.4888 30.856 93.3288 33.776 94.7388C36.696 96.1488 37.396 99.1488 37.246 101.989C36.5793 114.449 35.7826 126.902 34.856 139.349C34.4637 142.156 33.8143 144.921 32.916 147.609C32.596 148.809 32.796 150.609 31.126 150.859C29.216 151.199 28.126 149.749 27.126 148.369C24.806 144.939 24.906 140.799 23.846 135.929ZM1297.45 361.139C1297.8 362.139 1297.05 364.859 1299.54 364.359C1303.87 363.499 1308.54 362.769 1311.14 358.359C1311.63 357.606 1311.92 356.736 1311.98 355.835C1312.03 354.935 1311.85 354.036 1311.45 353.229C1310.45 351.229 1308.55 351.229 1306.71 351.349C1304.21 351.506 1301.87 352.603 1300.15 354.42C1298.43 356.237 1297.46 358.638 1297.45 361.139V361.139ZM549.446 342.229C549.446 346.229 551.276 347.969 554.446 346.529C556.298 345.754 557.89 344.468 559.038 342.821C560.186 341.174 560.84 339.234 560.926 337.229C561.156 333.939 557.996 331.349 555.676 332.769C552.176 334.859 549.446 337.669 549.446 342.229Z" fill="#F5B53D"></path> </svg> 