<?xml version="1.0" encoding="UTF-8"?> <svg xmlns="http://www.w3.org/2000/svg" width="460" height="264" viewBox="0 0 460 264" fill="none"> <mask id="mask0" mask-type="alpha" maskUnits="userSpaceOnUse" x="0" y="0" width="460" height="264"> <rect width="460" height="264" rx="16" fill="white"></rect> </mask> <g mask="url(#mask0)"> <path d="M369.262 55.2382C386.79 54.8174 400.659 40.2666 400.238 22.7381C399.817 5.20963 385.267 -8.6589 367.738 -8.23811C350.21 -7.81732 336.341 6.73346 336.762 24.262C337.183 41.7904 351.733 55.659 369.262 55.2382Z" fill="url(#paint0_linear)"></path> <path fill-rule="evenodd" clip-rule="evenodd" d="M359.724 34.3178C359.184 33.5295 358.837 32.5507 357.785 32.2717C357.401 32.1258 357.608 31.8525 357.699 31.6341C359.379 27.5983 361.052 23.5815 362.732 19.5458C362.851 19.2609 362.954 19.014 363.342 18.9747C366.879 18.5262 369.402 15.9435 372.262 14.0168C373.71 13.0652 374.979 11.8359 375.993 10.4019C377.008 8.96791 377.747 7.35858 378.167 5.66962C378.418 4.72001 378.99 4.46437 379.836 4.56625C380.28 4.5752 380.699 4.73046 381.033 5.00955C381.366 5.28864 381.597 5.67705 381.692 6.11854C381.838 8.08051 381.653 10.0789 381.145 12.026C380.682 13.6098 379.543 14.9039 378.736 16.3459C378.14 17.406 377.444 18.4064 376.781 19.4523C376.952 19.7372 377.286 19.7542 377.563 19.8594L387.158 23.5069C388.506 24.0192 388.997 24.6786 388.789 25.6995C388.647 26.3249 388.314 26.9002 387.84 27.3378C387.367 27.7754 386.779 28.0513 386.166 28.1234C385.874 28.1552 385.488 27.8655 385.291 28.2637C385.094 28.6618 385.56 28.784 385.712 29.0398C386.512 30.3226 385.574 31.9789 383.816 32.4765C383.392 32.6013 382.815 32.2498 382.587 32.7463C382.36 33.2428 383.001 33.3657 383.154 33.7429C383.652 35.0318 382.432 36.7681 380.779 36.9645C380.561 36.9562 380.341 36.9609 380.122 36.9787C379.914 37.0316 379.707 37.1068 379.924 37.4535C380.869 39.0334 380.233 40.4856 378.429 41.0429L377.879 41.1968C377.238 41.3323 376.586 41.2471 376.026 40.9544C371.01 39.0475 365.993 37.1406 360.977 35.2338C360.711 35.1855 360.462 35.0789 360.246 34.9211C360.03 34.7633 359.853 34.5578 359.724 34.3178V34.3178Z" fill="#DCECF9"></path> <path fill-rule="evenodd" clip-rule="evenodd" d="M348.002 20.9673C349.063 18.4143 350.12 15.8708 351.181 13.3179C351.394 12.8073 351.544 12.5689 352.139 12.7953C355.058 13.9068 357.968 15.0149 360.887 16.1265C361.464 16.3461 361.47 16.5784 361.237 17.114C359.102 22.2514 356.969 27.3825 354.839 32.5073C354.567 33.1597 354.324 33.2751 353.716 33.0326C350.904 31.9181 348.076 30.8415 345.233 29.8027C344.523 29.5324 344.532 29.24 344.828 28.5531C345.897 26.0799 346.94 23.5202 348.002 20.9673Z" fill="#DCECF9"></path> <path d="M433.478 200.702C431.521 201.702 429.415 202.382 427.242 202.715C422.029 203.531 416.7 202.351 412.319 199.412C407.937 196.472 404.825 191.988 403.603 186.856C402.381 181.723 403.139 176.318 405.727 171.719C408.314 167.121 412.539 163.667 417.561 162.046C422.582 160.426 428.03 160.758 432.817 162.977C437.604 165.196 441.379 169.138 443.388 174.017C445.397 178.895 445.492 184.352 443.656 189.299C441.819 194.245 438.185 198.317 433.478 200.702V200.702Z" fill="url(#paint1_linear)"></path> <path d="M430.554 180.159C430.446 181.416 429.968 182.614 429.18 183.599C428.392 184.584 427.329 185.314 426.126 185.695C424.923 186.076 423.634 186.092 422.422 185.74C421.21 185.388 420.13 184.685 419.318 183.719C418.506 182.753 417.999 181.567 417.861 180.313C417.724 179.059 417.961 177.792 418.543 176.672C419.126 175.553 420.027 174.631 421.134 174.025C422.24 173.418 423.502 173.153 424.759 173.264C426.441 173.412 427.996 174.221 429.082 175.513C430.168 176.806 430.698 178.477 430.554 180.159V180.159Z" fill="#DCECF9"></path> <path d="M433.699 198.077L433.479 200.702C431.521 201.702 429.415 202.382 427.243 202.715C424.497 203.151 421.692 203.033 418.993 202.368C416.293 201.703 413.754 200.504 411.526 198.843L411.746 196.225C411.867 194.783 412.272 193.379 412.936 192.094C413.6 190.808 414.511 189.666 415.617 188.732C416.722 187.798 418.001 187.092 419.38 186.652C420.758 186.213 422.21 186.049 423.652 186.171C425.094 186.293 426.498 186.697 427.783 187.361C429.069 188.025 430.211 188.936 431.145 190.042C432.079 191.148 432.785 192.426 433.225 193.805C433.664 195.184 433.828 196.636 433.706 198.077L433.699 198.077Z" fill="#DCECF9"></path> <path d="M420.213 236.709L387.708 229.621L380.621 262.126L413.126 269.213L420.213 236.709Z" fill="url(#paint2_linear)"></path> <path d="M396.511 252.089L392.179 251.128C392.536 249.453 392.874 247.872 393.234 246.203L397.487 247.146C397.585 246.774 397.672 246.489 397.739 246.199C398.045 244.908 398.282 243.582 398.669 242.339C399.547 239.571 401.725 237.963 404.637 238.205C406.452 238.351 408.232 238.954 410.071 239.362C409.748 240.892 409.448 242.285 409.115 243.845C408.457 243.698 407.803 243.541 407.147 243.412C406.567 243.266 405.974 243.177 405.377 243.144C404.986 243.115 404.6 243.225 404.286 243.455C403.972 243.684 403.752 244.017 403.665 244.394C403.341 245.641 403.109 246.912 402.835 248.288L407.782 249.38C407.222 250.946 406.724 252.404 406.173 253.84C406.105 253.973 405.704 254.08 405.473 254.059C404.271 253.829 403.083 253.548 401.778 253.253C400.865 257.492 399.971 261.66 399.065 265.897L393.796 264.726C394.706 260.526 395.596 256.356 396.511 252.089Z" fill="#DCECF9"></path> <path d="M471.371 71.2496L423.25 49.6516L401.652 97.7728L449.773 119.371L471.371 71.2496Z" fill="url(#paint3_linear)"></path> <path d="M458.411 83.196C460.545 78.3893 458.898 73.9192 454.176 71.7461C447.621 68.7211 441.016 65.7577 434.361 62.8561C429.665 60.8137 425.254 62.541 423.097 67.157C421.574 70.4266 420.135 73.7329 418.668 76.9947C417.2 80.2565 415.756 83.4218 414.335 86.6472C412.171 91.574 413.807 96.0493 418.618 98.2957C425.124 101.293 431.659 104.224 438.221 107.089C443.024 109.176 447.499 107.417 449.65 102.686C452.606 96.2043 455.527 89.7076 458.411 83.196ZM446.457 101.347C445.063 104.364 442.67 105.304 439.615 103.968C433.062 101.077 426.527 98.1457 420.012 95.1747C416.981 93.7942 416.048 91.3656 417.392 88.3412C420.308 81.7705 423.26 75.1972 426.248 68.6214C427.619 65.597 430.067 64.6751 433.105 65.9799C439.661 68.8657 446.196 71.7941 452.711 74.7651C455.74 76.1534 456.657 78.629 455.31 81.6351C453.874 84.9336 452.375 88.211 450.905 91.4807C449.434 94.7504 447.977 98.0592 446.462 101.331L446.457 101.347Z" fill="#DCECF9"></path> <path d="M440.715 75.3804C438.814 74.5327 436.714 74.2264 434.679 74.4998C432.644 74.7733 430.766 75.6144 429.279 76.9172C427.793 78.2201 426.766 79.9263 426.328 81.8212C425.889 83.716 426.058 85.7148 426.815 87.5656C427.571 89.4165 428.88 91.0368 430.577 92.2225C432.275 93.4082 434.284 94.1062 436.352 94.2287C438.421 94.3512 440.456 93.8927 442.202 92.9109C443.947 91.9291 445.325 90.4679 446.162 88.7113C446.723 87.535 447.028 86.2551 447.058 84.9459C447.087 83.6366 446.842 82.324 446.335 81.084C445.829 79.844 445.071 78.7014 444.106 77.7223C443.142 76.7433 441.989 75.9473 440.715 75.3804ZM433.762 90.2538C432.116 89.4732 430.823 88.1373 430.148 86.5208C429.474 84.9043 429.469 83.1301 430.135 81.563C430.494 80.7773 431.016 80.0727 431.672 79.4895C432.328 78.9062 433.104 78.4558 433.956 78.1639C434.808 77.8719 435.719 77.7443 436.638 77.7881C437.557 77.8319 438.465 78.0464 439.311 78.4193C440.157 78.7922 440.924 79.3163 441.568 79.9615C442.212 80.6067 442.72 81.3605 443.064 82.1798C443.409 82.9991 443.581 83.8679 443.573 84.7366C443.565 85.6052 443.376 86.4567 443.017 87.2425C442.25 88.8101 440.851 90.0041 439.12 90.5673C437.389 91.1306 435.465 91.018 433.762 90.2538V90.2538Z" fill="#DCECF9"></path> <path d="M453.308 80.6942C453.19 80.9418 453 81.1564 452.752 81.3231C452.504 81.4899 452.203 81.6049 451.871 81.6604C451.538 81.7158 451.182 81.7103 450.826 81.6442C450.47 81.5781 450.123 81.453 449.808 81.2775C449.445 81.1425 449.112 80.9479 448.833 80.7085C448.555 80.469 448.338 80.191 448.2 79.8956C448.062 79.6001 448.006 79.295 448.037 79.0034C448.068 78.7118 448.184 78.4414 448.377 78.2127C449.058 77.1165 450.337 77.0121 451.928 77.5997C453.418 78.459 454.026 79.5166 453.308 80.6942Z" fill="#DCECF9"></path> <path d="M384.761 109.956L349.956 119.194L359.194 153.999L393.999 144.761L384.761 109.956Z" fill="url(#paint4_linear)"></path> <path d="M361.323 144.167C364.127 143.594 366.615 142.045 368.361 139.783C364.896 139.605 363.345 138.929 362.367 137.196L364.476 136.544C361.689 136.195 359.729 134.843 358.749 132.07L361.117 132.102C357.985 129.718 356.879 127.534 357.647 125.02C359.523 126.368 361.64 127.32 363.866 127.817C366.093 128.315 368.381 128.347 370.59 127.911C370.469 127.549 370.366 127.279 370.28 127.007C369.871 125.937 369.796 124.775 370.065 123.682C370.334 122.589 370.934 121.619 371.782 120.905C372.592 120.14 373.624 119.654 374.737 119.514C375.85 119.373 376.989 119.585 378.001 120.12C378.199 120.243 378.428 120.305 378.656 120.297C378.885 120.288 379.104 120.21 379.284 120.072C380.066 119.536 380.843 119.003 381.693 118.419C381.609 119.642 381.141 120.792 380.357 121.702C380.394 121.749 380.428 121.799 380.458 121.85L382.907 120.482L383.047 120.566C382.56 121.44 382.101 122.341 381.564 123.183C381.422 123.37 381.326 123.589 381.284 123.823C381.242 124.057 381.255 124.3 381.321 124.532C382.447 128.492 382.076 132.686 380.282 136.284C378.487 139.881 375.4 142.619 371.633 143.954C368.544 145.092 365.154 145.236 361.916 144.366C361.715 144.286 361.512 144.217 361.323 144.167Z" fill="#DCECF9"></path> <path d="M308.415 233.074C305.532 228.112 304.186 222.406 304.546 216.678C304.907 210.951 306.958 205.459 310.44 200.897C313.922 196.335 318.679 192.909 324.109 191.051C329.539 189.193 335.398 188.988 340.945 190.461C346.492 191.933 351.477 195.018 355.27 199.325C359.064 203.632 361.494 208.967 362.255 214.655C363.016 220.343 362.072 226.129 359.544 231.281C357.015 236.433 353.016 240.72 348.051 243.598C341.398 247.455 333.487 248.513 326.055 246.539C318.623 244.566 312.278 239.723 308.415 233.074V233.074Z" fill="url(#paint5_linear)"></path> <path d="M349.312 218.095C347.568 227.775 338.972 235.723 338.972 235.723C338.972 235.723 327.373 233.675 320.698 226.479C315.087 220.475 315.072 212.228 320.151 208.933C327.419 204.212 333.536 217.329 333.536 217.329C333.536 217.329 331.518 203.014 340.217 203.056C346.276 203.086 350.754 209.992 349.312 218.095Z" fill="#DCECF9"></path> </g> <defs> <linearGradient id="paint0_linear" x1="349.955" y1="-11.492" x2="392.069" y2="83.8682" gradientUnits="userSpaceOnUse"> <stop stop-color="#E3F3FF"></stop> <stop offset="1" stop-color="#F6FBFF" stop-opacity="0.37"></stop> </linearGradient> <linearGradient id="paint1_linear" x1="442.33" y1="165.72" x2="381.357" y2="214.442" gradientUnits="userSpaceOnUse"> <stop stop-color="#E3F3FF"></stop> <stop offset="1" stop-color="#F6FBFF" stop-opacity="0.37"></stop> </linearGradient> <linearGradient id="paint2_linear" x1="395.31" y1="229.306" x2="404.938" y2="283.07" gradientUnits="userSpaceOnUse"> <stop stop-color="#E3F3FF"></stop> <stop offset="1" stop-color="#F6FBFF" stop-opacity="0.37"></stop> </linearGradient> <linearGradient id="paint3_linear" x1="435.148" y1="51.641" x2="446.682" y2="172.09" gradientUnits="userSpaceOnUse"> <stop stop-color="#E3F3FF"></stop> <stop offset="1" stop-color="#F6FBFF" stop-opacity="0.37"></stop> </linearGradient> <linearGradient id="paint4_linear" x1="347.252" y1="115.343" x2="418.605" y2="163.714" gradientUnits="userSpaceOnUse"> <stop stop-color="#E3F3FF"></stop> <stop offset="1" stop-color="#F6FBFF" stop-opacity="0.37"></stop> </linearGradient> <linearGradient id="paint5_linear" x1="312.083" y1="189.329" x2="362.831" y2="269.946" gradientUnits="userSpaceOnUse"> <stop stop-color="#E3F3FF"></stop> <stop offset="1" stop-color="#F6FBFF" stop-opacity="0.37"></stop> </linearGradient> </defs> </svg> 