<?xml version="1.0" encoding="UTF-8"?> <svg xmlns="http://www.w3.org/2000/svg" width="120" height="40" viewBox="0 0 120 40" fill="none"> <path d="M112.455 39.9873C112.15 39.9941 111.837 39.998 111.531 39.998L112.455 39.9873ZM112.455 39.9873C113.128 39.9789 113.798 39.9198 114.461 39.8105L112.455 39.9873ZM7.55 0.514768L7.54798 0.5148C6.90026 0.522396 6.25407 0.579196 5.61501 0.684701C5.00172 0.788441 4.40767 0.98384 3.8529 1.26428C3.30021 1.5466 2.79524 1.91335 2.35628 2.3512L2.35486 2.35262L2.35485 2.35261C1.91443 2.7884 1.54735 3.29206 1.2677 3.8442L1.26727 3.84505C0.985577 4.39858 0.790272 4.9917 0.688071 5.60392L0.687927 5.60478C0.580582 6.24096 0.52282 6.88446 0.515157 7.52953L0.515048 7.53876L0.514962 7.53875C0.508778 7.74249 0.506397 7.94339 0.503954 8.14937C0.50279 8.24761 0.501611 8.34701 0.5 8.44843V31.5547C0.501589 31.6559 0.502757 31.7542 0.503908 31.851C0.506367 32.0578 0.508746 32.2579 0.514968 32.4656L0.515239 32.4746H0.515157C0.522823 33.1196 0.580585 33.7631 0.687926 34.3992L0.688117 34.4004C0.790017 35.0128 0.9853 35.6062 1.26721 36.1598L1.26745 36.1603C1.54677 36.7103 1.91364 37.2115 2.35383 37.6446L2.35776 37.6484C2.7943 38.0875 3.29878 38.4539 3.85193 38.7335L3.8525 38.7338C4.40743 39.0151 5.00161 39.2119 5.61518 39.3174C6.25453 39.422 6.90083 39.4788 7.54868 39.4873L7.55308 39.4874C7.86003 39.4942 8.16089 39.498 8.46364 39.498H8.46637C8.83083 39.5 9.19213 39.5 9.55934 39.5H9.56145H110.444H110.446C110.806 39.5 111.17 39.5 111.528 39.498L111.531 39.498C111.832 39.498 112.142 39.4942 112.444 39.4874L112.449 39.4873C113.096 39.4793 113.74 39.4225 114.378 39.3175C114.994 39.2112 115.591 39.0144 116.149 38.7335C116.702 38.4538 117.206 38.0874 117.642 37.6486L117.645 37.6457C118.084 37.2103 118.453 36.7086 118.736 36.1592C119.015 35.6056 119.208 35.0129 119.309 34.4015L119.309 34.3991C119.417 33.7626 119.477 33.119 119.488 32.4737C119.492 32.1669 119.492 31.8694 119.492 31.5586V31.5479L119.492 31.5479C119.5 31.1908 119.5 30.8349 119.5 30.4648V9.53623C119.5 9.1691 119.5 8.81123 119.492 8.45523L119.492 8.44444C119.492 8.13738 119.492 7.83304 119.488 7.53022C119.477 6.88489 119.417 6.24133 119.309 5.60486L119.309 5.60275C119.208 4.99139 119.015 4.3988 118.736 3.84526C118.165 2.73685 117.26 1.83424 116.148 1.26437C115.591 0.98449 114.994 0.789053 114.378 0.684518C113.741 0.578607 113.096 0.521819 112.45 0.514659L112.447 0.514632C112.391 0.51372 112.334 0.512784 112.277 0.511848L7.55 0.514768ZM7.55 0.514768C7.61513 0.51374 7.67976 0.512677 7.74403 0.51162C7.9877 0.507612 8.22615 0.50369 8.46659 0.502121L7.55 0.514768ZM110.444 0.50013H110.88H9.56145H110.444Z" stroke="#333647"></path> <path d="M24.769 20.3008C24.7797 19.4662 25.0014 18.6478 25.4135 17.9218C25.8255 17.1959 26.4145 16.5859 27.1256 16.1488C26.6738 15.5036 26.0779 14.9727 25.385 14.5981C24.6922 14.2236 23.9216 14.0157 23.1344 13.9911C21.4552 13.8148 19.8272 14.9959 18.9715 14.9959C18.0992 14.9959 16.7817 14.0086 15.363 14.0378C14.4453 14.0674 13.551 14.3343 12.7671 14.8123C11.9832 15.2904 11.3365 15.9633 10.8901 16.7656C8.95607 20.1141 10.3987 25.0351 12.2513 27.7417C13.1782 29.0671 14.2615 30.5475 15.6789 30.495C17.066 30.4375 17.584 29.6105 19.2583 29.6105C20.9171 29.6105 21.4031 30.495 22.8493 30.4616C24.3377 30.4375 25.2754 29.1304 26.1698 27.7925C26.8358 26.8481 27.3483 25.8044 27.6882 24.7C26.8235 24.3343 26.0856 23.7221 25.5665 22.9398C25.0474 22.1575 24.77 21.2397 24.769 20.3008Z" fill="white"></path> <path d="M22.0373 12.2111C22.8489 11.2369 23.2487 9.98469 23.1518 8.72046C21.912 8.85068 20.7668 9.44324 19.9443 10.3801C19.5421 10.8377 19.2341 11.3702 19.0379 11.9469C18.8416 12.5237 18.761 13.1335 18.8006 13.7415C19.4207 13.7478 20.0342 13.6134 20.5949 13.3483C21.1555 13.0833 21.6487 12.6944 22.0373 12.2111Z" fill="white"></path> <path d="M42.3025 27.1399H37.5691L36.4324 30.4964H34.4275L38.9109 18.0784H40.9939L45.4773 30.4964H43.4382L42.3025 27.1399ZM38.0593 25.5911H41.8113L39.9617 20.1438H39.91L38.0593 25.5911Z" fill="white"></path> <path d="M55.1599 25.9699C55.1599 28.7834 53.6541 30.591 51.3816 30.591C50.806 30.6211 50.2335 30.4885 49.7297 30.2084C49.2259 29.9283 48.8112 29.5119 48.533 29.007H48.49V33.4914H46.6316V21.4426H48.4305V22.9485H48.4646C48.7556 22.446 49.1773 22.0318 49.6849 21.7499C50.1926 21.4681 50.7671 21.3291 51.3474 21.3479C53.6453 21.3479 55.1599 23.1643 55.1599 25.9699ZM53.2498 25.9699C53.2498 24.1369 52.3025 22.9319 50.8572 22.9319C49.4373 22.9319 48.4822 24.1623 48.4822 25.9699C48.4822 27.7942 49.4373 29.0158 50.8572 29.0158C52.3025 29.0158 53.2498 27.8196 53.2498 25.9699Z" fill="white"></path> <path d="M65.1248 25.9699C65.1248 28.7834 63.6189 30.591 61.3465 30.591C60.7708 30.6211 60.1983 30.4885 59.6945 30.2084C59.1907 29.9283 58.776 29.5119 58.4978 29.007H58.4548V33.4914H56.5964V21.4426H58.3953V22.9484H58.4294C58.7204 22.446 59.1421 22.0318 59.6498 21.7499C60.1574 21.4681 60.7319 21.3291 61.3123 21.3479C63.6101 21.3479 65.1248 23.1643 65.1248 25.9699ZM63.2146 25.9699C63.2146 24.1369 62.2674 22.9318 60.822 22.9318C59.4021 22.9318 58.447 24.1623 58.447 25.9699C58.447 27.7942 59.4021 29.0158 60.822 29.0158C62.2674 29.0158 63.2146 27.8195 63.2146 25.9699H63.2146Z" fill="white"></path> <path d="M71.7107 27.0364C71.8484 28.2679 73.0447 29.0764 74.6795 29.0764C76.2459 29.0764 77.3728 28.2678 77.3728 27.1575C77.3728 26.1936 76.6931 25.6165 75.0838 25.221L73.4744 24.8333C71.1941 24.2825 70.1355 23.2161 70.1355 21.4856C70.1355 19.343 72.0027 17.8713 74.6541 17.8713C77.2781 17.8713 79.0769 19.343 79.1375 21.4856H77.2615C77.1492 20.2463 76.1248 19.4983 74.6277 19.4983C73.1306 19.4983 72.1062 20.2551 72.1062 21.3567C72.1062 22.2346 72.7605 22.7512 74.3611 23.1467L75.7292 23.4826C78.2771 24.0852 79.3357 25.1086 79.3357 26.925C79.3357 29.2483 77.4851 30.7033 74.5417 30.7033C71.7878 30.7033 69.9285 29.2824 69.8083 27.0363L71.7107 27.0364Z" fill="white"></path> <path d="M83.3464 19.3V21.4426H85.0681V22.9143H83.3464V27.9055C83.3464 28.6809 83.6912 29.0422 84.448 29.0422C84.6524 29.0387 84.8564 29.0243 85.0593 28.9992V30.4621C84.719 30.5257 84.3732 30.5545 84.0271 30.5481C82.1941 30.5481 81.4792 29.8596 81.4792 28.1037V22.9143H80.1628V21.4426H81.4792V19.3H83.3464Z" fill="white"></path> <path d="M86.0652 25.97C86.0652 23.1213 87.7429 21.3313 90.3591 21.3313C92.9841 21.3313 94.6541 23.1213 94.6541 25.97C94.6541 28.8264 92.9929 30.6086 90.3591 30.6086C87.7263 30.6086 86.0652 28.8264 86.0652 25.97ZM92.7605 25.97C92.7605 24.0159 91.865 22.8625 90.3591 22.8625C88.8533 22.8625 87.9587 24.0247 87.9587 25.97C87.9587 27.9319 88.8533 29.0764 90.3591 29.0764C91.865 29.0764 92.7605 27.9319 92.7605 25.97H92.7605Z" fill="white"></path> <path d="M96.1863 21.4428H97.9587V22.9837H98.0017C98.1217 22.5025 98.4036 22.0771 98.8002 21.7792C99.1968 21.4814 99.6838 21.3291 100.179 21.348C100.394 21.3473 100.607 21.3705 100.816 21.4174V23.1556C100.546 23.073 100.264 23.0351 99.9812 23.0433C99.7112 23.0324 99.4421 23.08 99.1922 23.1829C98.9424 23.2858 98.7178 23.4415 98.5338 23.6394C98.3498 23.8373 98.2108 24.0726 98.1264 24.3293C98.042 24.586 98.0141 24.8579 98.0447 25.1263V30.4965H96.1863L96.1863 21.4428Z" fill="white"></path> <path d="M109.385 27.8372C109.135 29.4807 107.534 30.6086 105.486 30.6086C102.852 30.6086 101.218 28.844 101.218 26.0129C101.218 23.1731 102.861 21.3313 105.408 21.3313C107.913 21.3313 109.488 23.052 109.488 25.7971V26.4338H103.094V26.5461C103.064 26.8793 103.106 27.215 103.216 27.5308C103.326 27.8467 103.502 28.1355 103.733 28.378C103.963 28.6206 104.242 28.8113 104.552 28.9376C104.862 29.0639 105.195 29.1229 105.529 29.1106C105.968 29.1517 106.409 29.05 106.786 28.8206C107.162 28.5911 107.455 28.2462 107.62 27.8371L109.385 27.8372ZM103.102 25.135H107.629C107.645 24.8354 107.6 24.5356 107.495 24.2544C107.391 23.9732 107.229 23.7166 107.02 23.5009C106.812 23.2851 106.561 23.1148 106.284 23.0006C106.006 22.8863 105.708 22.8307 105.408 22.8372C105.105 22.8354 104.805 22.8935 104.525 23.0082C104.245 23.123 103.991 23.292 103.776 23.5057C103.562 23.7193 103.392 23.9733 103.276 24.2529C103.161 24.5326 103.102 24.8324 103.102 25.135V25.135Z" fill="white"></path> <path d="M37.1623 9.00567C37.5531 8.98226 37.9454 9.03153 38.3107 9.14991C38.6759 9.26829 39.0052 9.45284 39.2747 9.69024C39.5441 9.92764 39.7471 10.212 39.8688 10.5227C39.9906 10.8335 40.0283 11.1629 39.979 11.4873C39.979 13.0828 38.9454 14 37.1623 14H35V9.00567H37.1623ZM35.9298 13.2937H37.0584C37.3377 13.3076 37.6172 13.2694 37.8766 13.1819C38.136 13.0943 38.3687 12.9596 38.5578 12.7875C38.7469 12.6154 38.8876 12.4104 38.9698 12.1872C39.0519 11.964 39.0733 11.7284 39.0325 11.4975C39.0704 11.2674 39.0468 11.0332 38.9634 10.8117C38.88 10.5902 38.7389 10.3868 38.5502 10.2161C38.3615 10.0454 38.13 9.91165 37.872 9.8244C37.6141 9.73715 37.3363 9.69858 37.0584 9.71145H35.9298V13.2937Z" fill="white"></path> <path d="M41.0094 11.9983C40.9829 11.7452 41.0146 11.4898 41.1026 11.2486C41.1905 11.0073 41.3328 10.7855 41.5202 10.5974C41.7076 10.4092 41.9361 10.2589 42.1909 10.156C42.4458 10.0531 42.7213 10 43 10C43.2787 10 43.5542 10.0531 43.8091 10.156C44.0639 10.2589 44.2924 10.4092 44.4798 10.5974C44.6672 10.7855 44.8095 11.0073 44.8974 11.2486C44.9854 11.4898 45.0171 11.7452 44.9906 11.9983C45.0176 12.2516 44.9863 12.5074 44.8985 12.749C44.8108 12.9907 44.6686 13.2129 44.4812 13.4014C44.2937 13.5899 44.0651 13.7406 43.81 13.8436C43.5549 13.9467 43.279 14 43 14C42.721 14 42.4451 13.9467 42.19 13.8436C41.9349 13.7406 41.7063 13.5899 41.5188 13.4014C41.3314 13.2129 41.1892 12.9907 41.1015 12.749C41.0137 12.5074 40.9824 12.2516 41.0094 11.9983V11.9983ZM44.1337 11.9983C44.1337 11.1635 43.7227 10.6753 43.0014 10.6753C42.2773 10.6753 41.8699 11.1635 41.8699 11.9983C41.8699 12.8398 42.2773 13.3243 43.0014 13.3243C43.7227 13.3242 44.1338 12.8365 44.1338 11.9983H44.1337Z" fill="white"></path> <path d="M49.8113 14H48.9249L48.0301 11.054H47.9625L47.0714 14H46.1934L45 10H45.8667L46.6423 13.0522H46.7061L47.5963 10H48.416L49.3061 13.0522H49.3737L50.1455 10H51L49.8113 14Z" fill="white"></path> <path d="M52 10.0795H52.8911V10.7023H52.9603C53.0776 10.4786 53.2756 10.2911 53.5265 10.1659C53.7774 10.0407 54.0688 9.98407 54.36 10.0039C54.5883 9.98952 54.8174 10.0183 55.0306 10.088C55.2437 10.1578 55.4353 10.2667 55.5912 10.4067C55.7471 10.5467 55.8634 10.7143 55.9313 10.897C55.9992 11.0797 56.0171 11.2728 55.9836 11.462V14H55.0579V11.6563C55.0579 11.0263 54.7303 10.713 54.0457 10.713C53.8907 10.7069 53.7361 10.729 53.5923 10.7776C53.4484 10.8262 53.3189 10.9002 53.2125 10.9946C53.1061 11.0889 53.0254 11.2014 52.9759 11.3243C52.9264 11.4472 52.9093 11.5775 52.9257 11.7065V14H52L52 10.0795Z" fill="white"></path> <path d="M57 8H58V14H57V8Z" fill="white"></path> <path d="M59.0094 11.9983C58.9829 11.7452 59.0146 11.4899 59.1026 11.2486C59.1906 11.0073 59.3328 10.7855 59.5203 10.5974C59.7077 10.4092 59.9361 10.2589 60.191 10.156C60.4458 10.0531 60.7214 10 61 10C61.2786 10 61.5542 10.0531 61.809 10.156C62.0639 10.2589 62.2923 10.4092 62.4797 10.5974C62.6672 10.7855 62.8094 11.0073 62.8974 11.2486C62.9854 11.4899 63.0171 11.7452 62.9906 11.9983C63.0176 12.2517 62.9862 12.5074 62.8985 12.7491C62.8107 12.9907 62.6685 13.2129 62.4811 13.4014C62.2936 13.5899 62.065 13.7406 61.8099 13.8437C61.5549 13.9467 61.279 14 61 14C60.721 14 60.4451 13.9467 60.1901 13.8437C59.935 13.7406 59.7064 13.5899 59.5189 13.4014C59.3315 13.2129 59.1893 12.9907 59.1015 12.7491C59.0138 12.5074 58.9824 12.2517 59.0094 11.9983V11.9983ZM62.1334 11.9983C62.1334 11.1635 61.7224 10.6753 61.0011 10.6753C60.2771 10.6753 59.8698 11.1635 59.8698 11.9983C59.8698 12.8399 60.2771 13.3243 61.0011 13.3243C61.7224 13.3243 62.1334 12.8365 62.1334 11.9983H62.1334Z" fill="white"></path> <path d="M64 12.8398C64 12.1457 64.6388 11.7456 65.7726 11.6887L67.0636 11.6285V11.2957C67.0636 10.8885 66.7307 10.6585 66.0879 10.6585C65.5628 10.6585 65.199 10.8145 65.0946 11.0871H64.184C64.2801 10.4248 65.0501 10 66.1313 10C67.3261 10 68 10.4812 68 11.2957V13.9302H67.0946V13.3884H67.0202C66.8691 13.5827 66.657 13.7412 66.4055 13.8475C66.154 13.9539 65.8721 14.0044 65.5886 13.9937C65.3886 14.0106 65.1863 13.9933 64.995 13.9431C64.8037 13.8928 64.6275 13.8107 64.4779 13.7019C64.3282 13.5932 64.2083 13.4603 64.126 13.3118C64.0437 13.1633 64.0008 13.0025 64 12.8398V12.8398ZM67.0636 12.5103V12.188L65.8997 12.2482C65.2434 12.2837 64.9457 12.4643 64.9457 12.8042C64.9457 13.1513 65.3178 13.3532 65.8295 13.3532C65.9794 13.3655 66.1308 13.3533 66.2748 13.3172C66.4187 13.2812 66.5523 13.2221 66.6674 13.1434C66.7825 13.0648 66.8769 12.9682 66.945 12.8594C67.0131 12.7507 67.0534 12.6319 67.0636 12.5103V12.5103Z" fill="white"></path> <path d="M69 11.7948C69 10.4474 69.6958 9.59386 70.778 9.59386C71.0457 9.58158 71.3114 9.64541 71.544 9.77789C71.7766 9.91036 71.9665 10.106 72.0915 10.342H72.1547V8H73V13.9287H72.19V13.255H72.1231C71.9884 13.4894 71.7919 13.6826 71.5548 13.8137C71.3177 13.9449 71.049 14.0089 70.778 13.999C69.6883 13.999 69 13.1455 69 11.7948ZM69.8732 11.7948C69.8732 12.6993 70.3015 13.2435 71.0177 13.2435C71.7302 13.2435 72.1705 12.6914 72.1705 11.7985C72.1705 10.9098 71.7255 10.3499 71.0177 10.3499C70.3061 10.3499 69.8732 10.8978 69.8732 11.7948H69.8732Z" fill="white"></path> <path d="M77.0094 11.9983C76.9829 11.7452 77.0146 11.4898 77.1026 11.2486C77.1905 11.0073 77.3328 10.7855 77.5202 10.5974C77.7076 10.4092 77.9361 10.2589 78.1909 10.156C78.4458 10.0531 78.7213 10 79 10C79.2787 10 79.5542 10.0531 79.8091 10.156C80.0639 10.2589 80.2923 10.4092 80.4798 10.5974C80.6672 10.7855 80.8095 11.0073 80.8974 11.2486C80.9854 11.4898 81.0171 11.7452 80.9906 11.9983C81.0176 12.2516 80.9863 12.5074 80.8985 12.749C80.8108 12.9907 80.6686 13.2129 80.4812 13.4014C80.2937 13.5899 80.0651 13.7406 79.81 13.8436C79.5549 13.9467 79.279 14 79 14C78.721 14 78.4451 13.9467 78.19 13.8436C77.9349 13.7406 77.7063 13.5899 77.5188 13.4014C77.3314 13.2129 77.1892 12.9907 77.1015 12.749C77.0137 12.5074 76.9824 12.2516 77.0094 11.9983V11.9983ZM80.1337 11.9983C80.1337 11.1635 79.7227 10.6753 79.0014 10.6753C78.2773 10.6753 77.8699 11.1635 77.8699 11.9983C77.8699 12.8398 78.2773 13.3243 79.0014 13.3243C79.7227 13.3242 80.1337 12.8365 80.1337 11.9983Z" fill="white"></path> <path d="M82 10.0795H82.6683V10.7023H82.7202C82.8082 10.4786 82.9567 10.2911 83.1449 10.1659C83.333 10.0407 83.5516 9.98407 83.77 10.0039C83.9412 9.98952 84.1131 10.0183 84.2729 10.088C84.4328 10.1578 84.5765 10.2667 84.6934 10.4067C84.8104 10.5467 84.8975 10.7143 84.9485 10.897C84.9994 11.0797 85.0128 11.2728 84.9877 11.462V14H84.2934V11.6563C84.2934 11.0263 84.0477 10.713 83.5343 10.713C83.4181 10.7069 83.302 10.729 83.1942 10.7776C83.0863 10.8262 82.9892 10.9002 82.9094 10.9946C82.8296 11.0889 82.7691 11.2014 82.7319 11.3243C82.6948 11.4472 82.682 11.5775 82.6943 11.7065V14H82V10.0795Z" fill="white"></path> <path d="M90.2438 9V10.0105H91V10.673H90.2438V12.7225C90.2438 13.14 90.3944 13.3228 90.7373 13.3228C90.8251 13.3224 90.9128 13.3164 91 13.3046V13.9598C90.8763 13.9851 90.7509 13.9985 90.6253 14C89.8592 14 89.5541 13.6923 89.5541 12.9238V10.673H89V10.0104H89.5541V9H90.2438Z" fill="white"></path> <path d="M92 8H92.9062V10.3781H92.9785C93.1001 10.1296 93.3009 9.92201 93.5537 9.78368C93.8064 9.64534 94.0988 9.58297 94.391 9.60506C94.6153 9.59369 94.8394 9.62856 95.0475 9.70719C95.2556 9.78581 95.4425 9.90625 95.5949 10.0599C95.7473 10.2136 95.8614 10.3967 95.9291 10.5961C95.9967 10.7956 96.0163 11.0065 95.9864 11.2139V14H95.0713V11.424C95.0713 10.7347 94.7266 10.3856 94.0807 10.3856C93.9235 10.3736 93.7655 10.3937 93.6176 10.4445C93.4697 10.4954 93.3355 10.5757 93.2244 10.6799C93.1133 10.7841 93.028 10.9097 92.9744 11.0478C92.9208 11.186 92.9003 11.3333 92.9143 11.4796V14H92L92 8Z" fill="white"></path> <path d="M100.948 12.8792C100.83 13.2304 100.575 13.5342 100.227 13.7374C99.8797 13.9406 99.4616 14.0304 99.046 13.9909C98.7569 13.9976 98.4695 13.9491 98.2039 13.8488C97.9384 13.7485 97.7009 13.5988 97.508 13.4101C97.3151 13.2214 97.1714 12.9982 97.0869 12.756C97.0025 12.5138 96.9792 12.2584 97.0187 12.0076C96.9802 11.7559 97.0039 11.5 97.0882 11.2571C97.1725 11.0141 97.3154 10.7899 97.5073 10.5996C97.6992 10.4092 97.9355 10.2572 98.2003 10.1537C98.4651 10.0503 98.7522 9.9979 99.0422 10.0001C100.263 10.0001 101 10.7305 101 11.9371V12.2017H97.901V12.2442C97.8874 12.3853 97.9077 12.5272 97.9604 12.6609C98.0132 12.7947 98.0973 12.9173 98.2073 13.021C98.3174 13.1246 98.4509 13.207 98.5995 13.2628C98.748 13.3186 98.9082 13.3466 99.0698 13.345C99.277 13.3668 99.4869 13.3342 99.6728 13.2512C99.8587 13.1683 100.012 13.0388 100.114 12.8792L100.948 12.8792ZM97.901 11.6409H100.118C100.129 11.5119 100.109 11.3824 100.059 11.2606C100.009 11.1388 99.931 11.0275 99.8293 10.9337C99.7276 10.84 99.6046 10.7659 99.4682 10.7163C99.3318 10.6666 99.1851 10.6425 99.0374 10.6455C98.8876 10.6438 98.739 10.6685 98.6002 10.7179C98.4614 10.7674 98.3354 10.8406 98.2295 10.9334C98.1236 11.0262 98.04 11.1366 97.9835 11.2581C97.9271 11.3796 97.8991 11.5097 97.901 11.6409H97.901Z" fill="white"></path> </svg> 