<?xml version="1.0" encoding="UTF-8"?> <svg xmlns="http://www.w3.org/2000/svg" width="660" height="229" viewBox="0 0 660 229" fill="none"> <mask id="mask0" mask-type="alpha" maskUnits="userSpaceOnUse" x="0" y="0" width="660" height="229"> <rect width="660" height="229" rx="16" fill="#434760"></rect> </mask> <g mask="url(#mask0)"> <path opacity="0.47" d="M310 253.64C330.422 194.718 373.5 191.36 390.5 195.5C390.5 195.5 439.535 209.562 463.5 156.91C494.5 105.64 517.959 141.936 527 154.64C538 173.086 558 174.36 570.5 164.5C583 154.64 609.987 66.8549 635.055 60.5857C660.123 54.3165 662.5 100.586 697.5 94.0857C716.729 86.5026 723.342 80.2031 725.364 76.0215C726.193 74.308 725.5 74.378 725.5 76.2814V307.64L310 253.64Z" fill="url(#paint0_linear)"></path> <path d="M267 248C291.133 248 301.262 190.36 324.5 188C348.749 183.209 367.218 213.861 393.5 213C429.331 211.823 431.744 165.205 461 157C490.256 148.795 500 190 521.5 190C543 190 542.708 68.6163 572 67C621.5 57.5 608.5 124.5 632 124.5C655.5 124.5 645.239 47 676 47" stroke="#0085FF" stroke-width="2" stroke-linecap="round" stroke-linejoin="round"></path> <g filter="url(#filter0_d)"> <circle cx="577" cy="69" r="15" fill="white"></circle> </g> <circle cx="577" cy="69" r="6" fill="#0085FF"></circle> </g> <path d="M555.411 33.1333H558.194V34.7593H555.411V37.9307H553.683V34.7593H550.885V33.1333H553.683V30.167H555.411V33.1333ZM564.75 36.2168C564.75 35.8018 564.618 35.46 564.354 35.1914C564.09 34.918 563.651 34.6738 563.036 34.459C562.42 34.2393 561.942 34.0366 561.6 33.8511C560.462 33.2407 559.894 32.3374 559.894 31.1411C559.894 30.3306 560.14 29.6641 560.633 29.1416C561.126 28.6191 561.795 28.3091 562.64 28.2114V26.6147H563.812V28.2261C564.662 28.3481 565.318 28.7095 565.782 29.3101C566.246 29.9058 566.478 30.6821 566.478 31.6392H564.706C564.706 31.0239 564.566 30.5405 564.288 30.189C564.015 29.8325 563.641 29.6543 563.167 29.6543C562.699 29.6543 562.333 29.7812 562.069 30.0352C561.805 30.2891 561.673 30.6528 561.673 31.1265C561.673 31.5513 561.803 31.8931 562.062 32.1519C562.325 32.4058 562.77 32.6475 563.395 32.877C564.02 33.1064 564.51 33.3188 564.867 33.5142C565.223 33.7095 565.523 33.9341 565.768 34.188C566.012 34.437 566.2 34.7251 566.332 35.0522C566.463 35.3794 566.529 35.7627 566.529 36.2021C566.529 37.0273 566.275 37.6963 565.768 38.209C565.265 38.7217 564.562 39.0244 563.658 39.1172V40.5454H562.494V39.1245C561.527 39.0171 560.782 38.6704 560.26 38.0845C559.742 37.4985 559.483 36.7222 559.483 35.7554H561.263C561.263 36.3706 561.417 36.8467 561.725 37.1836C562.037 37.5205 562.477 37.689 563.043 37.689C563.6 37.689 564.022 37.5547 564.31 37.2861C564.603 37.0176 564.75 36.6611 564.75 36.2168ZM575.129 39H573.357V30.438L570.742 31.3315V29.8301L574.902 28.2993H575.129V39ZM579.312 33.7119L579.89 28.3359H585.618V29.874H581.37L581.077 32.4229C581.57 32.1396 582.126 31.998 582.747 31.998C583.762 31.998 584.551 32.3228 585.112 32.9722C585.679 33.6216 585.962 34.4956 585.962 35.5942C585.962 36.6782 585.649 37.5425 585.024 38.187C584.399 38.8267 583.542 39.1465 582.454 39.1465C581.477 39.1465 580.667 38.8706 580.022 38.3188C579.382 37.7622 579.036 37.0298 578.982 36.1216H580.703C580.771 36.6392 580.957 37.0371 581.26 37.3154C581.562 37.5889 581.958 37.7256 582.446 37.7256C582.993 37.7256 583.418 37.5303 583.721 37.1396C584.028 36.749 584.182 36.2168 584.182 35.543C584.182 34.8936 584.014 34.3809 583.677 34.0049C583.34 33.624 582.876 33.4336 582.285 33.4336C581.963 33.4336 581.689 33.4775 581.465 33.5654C581.24 33.6484 580.996 33.8145 580.732 34.0635L579.312 33.7119ZM594.312 34.5103C594.312 36.0435 594.023 37.2007 593.447 37.9819C592.876 38.7583 592.004 39.1465 590.833 39.1465C589.68 39.1465 588.811 38.7681 588.225 38.0112C587.644 37.2495 587.346 36.124 587.332 34.6348V32.7891C587.332 31.2559 587.617 30.106 588.188 29.3394C588.765 28.5728 589.641 28.1895 590.818 28.1895C591.985 28.1895 592.854 28.563 593.425 29.3101C594.001 30.0571 594.297 31.1753 594.312 32.6646V34.5103ZM592.532 32.5181C592.532 31.5171 592.395 30.7847 592.122 30.3208C591.848 29.8521 591.414 29.6177 590.818 29.6177C590.237 29.6177 589.81 29.8398 589.536 30.2842C589.263 30.7236 589.119 31.4121 589.104 32.3496V34.7666C589.104 35.7627 589.243 36.5049 589.521 36.9932C589.8 37.4814 590.237 37.7256 590.833 37.7256C591.404 37.7256 591.826 37.501 592.1 37.0518C592.373 36.5977 592.517 35.8896 592.532 34.9277V32.5181ZM602.837 34.5103C602.837 36.0435 602.549 37.2007 601.973 37.9819C601.401 38.7583 600.53 39.1465 599.358 39.1465C598.206 39.1465 597.336 38.7681 596.75 38.0112C596.169 37.2495 595.872 36.124 595.857 34.6348V32.7891C595.857 31.2559 596.143 30.106 596.714 29.3394C597.29 28.5728 598.167 28.1895 599.343 28.1895C600.51 28.1895 601.379 28.563 601.951 29.3101C602.527 30.0571 602.822 31.1753 602.837 32.6646V34.5103ZM601.057 32.5181C601.057 31.5171 600.92 30.7847 600.647 30.3208C600.374 29.8521 599.939 29.6177 599.343 29.6177C598.762 29.6177 598.335 29.8398 598.062 30.2842C597.788 30.7236 597.644 31.4121 597.629 32.3496V34.7666C597.629 35.7627 597.769 36.5049 598.047 36.9932C598.325 37.4814 598.762 37.7256 599.358 37.7256C599.929 37.7256 600.352 37.501 600.625 37.0518C600.898 36.5977 601.042 35.8896 601.057 34.9277V32.5181Z" fill="#0085FF"></path> <defs> <filter id="filter0_d" x="552" y="48" width="50" height="50" filterUnits="userSpaceOnUse" color-interpolation-filters="sRGB"> <feFlood flood-opacity="0" result="BackgroundImageFix"></feFlood> <feColorMatrix in="SourceAlpha" type="matrix" values="0 0 0 0 0 0 0 0 0 0 0 0 0 0 0 0 0 0 127 0"></feColorMatrix> <feOffset dy="4"></feOffset> <feGaussianBlur stdDeviation="5"></feGaussianBlur> <feColorMatrix type="matrix" values="0 0 0 0 0 0 0 0 0 0 0 0 0 0 0 0 0 0 0.07 0"></feColorMatrix> <feBlend mode="normal" in2="BackgroundImageFix" result="effect1_dropShadow"></feBlend> <feBlend mode="normal" in="SourceGraphic" in2="effect1_dropShadow" result="shape"></feBlend> </filter> <linearGradient id="paint0_linear" x1="518" y1="41.5" x2="519.895" y2="262.505" gradientUnits="userSpaceOnUse"> <stop stop-color="#98CDFE"></stop> <stop offset="1" stop-color="#98CDFE" stop-opacity="0"></stop> </linearGradient> </defs> </svg> 