<?xml version="1.0" encoding="UTF-8"?> <svg xmlns="http://www.w3.org/2000/svg" width="126" height="30" viewBox="0 0 126 30" fill="none"> <path d="M100.695 4.64362C99.2258 3.50221 98.3578 2.63403 99.0088 1.30312C99.6598 -0.0277867 100.944 -0.102704 102.304 0.064761C108.442 0.808886 114.495 2.10717 120.387 3.9429C121.75 4.36761 123.037 4.99652 124.202 5.80706C126.915 7.71969 126.463 11.0073 123.488 12.4175C118.786 14.6607 114.677 17.75 110.686 21.02C109.98 21.5973 109.162 22.8048 108.281 22.2319C107.295 21.5929 108.335 20.5088 108.62 19.6626C109.827 16.093 112.539 13.6471 115.491 11.2276C114.795 10.5313 113.918 10.6371 113.185 10.5269C102.755 8.89048 92.1137 9.00375 81.722 10.8619C79.5566 11.2585 77.9834 11.7433 78.0422 14.4492C78.0829 16.212 76.8804 17.75 75.6418 19.0809C70.6402 24.5588 63.9678 28.3279 56.6055 29.8339C52.017 30.8035 48.9204 27.3969 50.3851 23.0251C51.1717 20.6983 52.8534 19.0148 54.743 17.5164C57.6528 15.1784 60.8219 13.1651 64.1911 11.5141C64.7697 11.2321 65.502 11.1043 65.8818 10.0951C63.589 9.76372 61.2633 9.706 58.9562 9.92318C47.2103 10.612 35.6102 12.8171 24.4594 16.4808C17.4882 18.8645 10.7559 21.8665 4.34717 25.449C3.10852 26.1277 1.47206 27.6525 0.36903 26.1012C-0.87866 24.3384 1.34548 23.4218 2.47564 22.6065C10.2647 16.9832 19.1341 13.5413 28.2974 10.7076C38.8485 7.45086 49.6934 5.81588 60.6966 5.12398C64.9229 4.85752 69.1594 5.45804 73.1328 6.88678C73.9827 7.19086 74.7738 7.55664 75.7412 7.32748C83.8799 5.24899 92.2872 4.34476 100.695 4.64362V4.64362ZM56.6236 24.7262C58.7 24.3443 60.7056 23.6594 62.5727 22.6946C66.1892 20.8745 69.5525 18.6887 72.1925 15.6038C72.5949 15.1322 73.2368 14.5197 72.6446 13.8807C72.1654 13.3562 71.5054 13.8498 70.9765 14.0525C67.431 15.4568 64.0574 17.2424 60.9181 19.3762C59.196 20.5499 57.6184 21.9133 56.2167 23.4394C55.9681 23.7038 55.6787 24.0167 55.8822 24.4133C55.9509 24.5398 56.0618 24.6397 56.1965 24.6966C56.3313 24.7535 56.4819 24.7639 56.6236 24.7262V24.7262Z" fill="#F5B53D"></path> </svg> 