<?xml version="1.0" encoding="UTF-8"?> <svg xmlns="http://www.w3.org/2000/svg" width="136" height="40" viewBox="0 0 136 40" fill="none"> <rect x="0.5" y="0.5" width="135" height="39" rx="7.5" stroke="#333647"></rect> <path d="M68.1001 21.8001C65.7001 21.8001 63.8001 23.6001 63.8001 26.1001C63.8001 28.5001 65.7001 30.4001 68.1001 30.4001C70.5001 30.4001 72.4001 28.6001 72.4001 26.1001C72.4001 23.5001 70.5001 21.8001 68.1001 21.8001ZM68.1001 28.6001C66.8001 28.6001 65.7001 27.5001 65.7001 26.0001C65.7001 24.5001 66.8001 23.4001 68.1001 23.4001C69.4001 23.4001 70.5001 24.4001 70.5001 26.0001C70.5001 27.5001 69.4001 28.6001 68.1001 28.6001ZM58.8001 21.8001C56.4001 21.8001 54.5001 23.6001 54.5001 26.1001C54.5001 28.5001 56.4001 30.4001 58.8001 30.4001C61.2001 30.4001 63.1001 28.6001 63.1001 26.1001C63.1001 23.5001 61.2001 21.8001 58.8001 21.8001ZM58.8001 28.6001C57.5001 28.6001 56.4001 27.5001 56.4001 26.0001C56.4001 24.5001 57.5001 23.4001 58.8001 23.4001C60.1001 23.4001 61.2001 24.4001 61.2001 26.0001C61.2001 27.5001 60.1001 28.6001 58.8001 28.6001ZM47.7001 23.1001V24.9001H52.0001C51.9001 25.9001 51.5001 26.7001 51.0001 27.2001C50.4001 27.8001 49.4001 28.5001 47.7001 28.5001C45.0001 28.5001 43.0001 26.4001 43.0001 23.7001C43.0001 21.0001 45.1001 18.9001 47.7001 18.9001C49.1001 18.9001 50.2001 19.5001 51.0001 20.2001L52.3001 18.9001C51.2001 17.9001 49.8001 17.1001 47.8001 17.1001C44.2001 17.1001 41.1001 20.1001 41.1001 23.7001C41.1001 27.3001 44.2001 30.3001 47.8001 30.3001C49.8001 30.3001 51.2001 29.7001 52.4001 28.4001C53.6001 27.2001 54.0001 25.5001 54.0001 24.2001C54.0001 23.8001 54.0001 23.4001 53.9001 23.1001H47.7001V23.1001ZM93.1001 24.5001C92.7001 23.5001 91.7001 21.8001 89.5001 21.8001C87.3001 21.8001 85.5001 23.5001 85.5001 26.1001C85.5001 28.5001 87.3001 30.4001 89.7001 30.4001C91.6001 30.4001 92.8001 29.2001 93.2001 28.5001L91.8001 27.5001C91.3001 28.2001 90.7001 28.7001 89.7001 28.7001C88.7001 28.7001 88.1001 28.3001 87.6001 27.4001L93.3001 25.0001L93.1001 24.5001ZM87.3001 25.9001C87.3001 24.3001 88.6001 23.4001 89.5001 23.4001C90.2001 23.4001 90.9001 23.8001 91.1001 24.3001L87.3001 25.9001ZM82.6001 30.0001H84.5001V17.5001H82.6001V30.0001ZM79.6001 22.7001C79.1001 22.2001 78.3001 21.7001 77.3001 21.7001C75.2001 21.7001 73.2001 23.6001 73.2001 26.0001C73.2001 28.4001 75.1001 30.2001 77.3001 30.2001C78.3001 30.2001 79.1001 29.7001 79.5001 29.2001H79.6001V29.8001C79.6001 31.4001 78.7001 32.3001 77.3001 32.3001C76.2001 32.3001 75.4001 31.5001 75.2001 30.8001L73.6001 31.5001C74.1001 32.6001 75.3001 34.0001 77.4001 34.0001C79.6001 34.0001 81.4001 32.7001 81.4001 29.6001V22.0001H79.6001V22.7001V22.7001ZM77.4001 28.6001C76.1001 28.6001 75.0001 27.5001 75.0001 26.0001C75.0001 24.5001 76.1001 23.4001 77.4001 23.4001C78.7001 23.4001 79.7001 24.5001 79.7001 26.0001C79.7001 27.5001 78.7001 28.6001 77.4001 28.6001ZM101.8 17.5001H97.3001V30.0001H99.2001V25.3001H101.8C103.9 25.3001 105.9 23.8001 105.9 21.4001C105.9 19.0001 103.9 17.5001 101.8 17.5001ZM101.9 23.5001H99.2001V19.2001H101.9C103.3 19.2001 104.1 20.4001 104.1 21.3001C104 22.4001 103.2 23.5001 101.9 23.5001ZM113.4 21.7001C112 21.7001 110.6 22.3001 110.1 23.6001L111.8 24.3001C112.2 23.6001 112.8 23.4001 113.5 23.4001C114.5 23.4001 115.4 24.0001 115.5 25.0001V25.1001C115.2 24.9001 114.4 24.6001 113.6 24.6001C111.8 24.6001 110 25.6001 110 27.4001C110 29.1001 111.5 30.2001 113.1 30.2001C114.4 30.2001 115 29.6001 115.5 29.0001H115.6V30.0001H117.4V25.2001C117.2 23.0001 115.5 21.7001 113.4 21.7001ZM113.2 28.6001C112.6 28.6001 111.7 28.3001 111.7 27.5001C111.7 26.5001 112.8 26.2001 113.7 26.2001C114.5 26.2001 114.9 26.4001 115.4 26.6001C115.2 27.8001 114.2 28.6001 113.2 28.6001ZM123.7 22.0001L121.6 27.4001H121.5L119.3 22.0001H117.3L120.6 29.6001L118.7 33.8001H120.6L125.7 22.0001H123.7ZM106.9 30.0001H108.8V17.5001H106.9V30.0001Z" fill="white"></path> <path d="M10.3999 7.5C10.0999 7.8 9.8999 8.3 9.8999 8.9V31C9.8999 31.6 10.0999 32.1 10.3999 32.4L10.4999 32.5L22.8999 20.1V20V19.9L10.3999 7.5Z" fill="url(#paint0_linear)"></path> <path d="M26.9999 24.2998L22.8999 20.1998V19.9998V19.8998L26.9999 15.7998L27.0999 15.8998L31.9999 18.6998C33.3999 19.4998 33.3999 20.7998 31.9999 21.5998L26.9999 24.2998Z" fill="url(#paint1_linear)"></path> <path d="M27.0999 24.2L22.8999 20L10.3999 32.5C10.8999 33 11.5999 33 12.4999 32.6L27.0999 24.2Z" fill="url(#paint2_linear)"></path> <path d="M27.0999 15.7999L12.4999 7.49987C11.5999 6.99987 10.8999 7.09987 10.3999 7.59987L22.8999 19.9999L27.0999 15.7999Z" fill="url(#paint3_linear)"></path> <path opacity="0.2" d="M26.9999 24.0999L12.4999 32.2999C11.6999 32.7999 10.9999 32.6999 10.4999 32.2999L10.3999 32.3999L10.4999 32.4999C10.9999 32.8999 11.6999 32.9999 12.4999 32.4999L26.9999 24.0999Z" fill="black"></path> <path opacity="0.12" d="M10.4 32.2999C10.1 31.9999 10 31.4999 10 30.8999V30.9999C10 31.5999 10.2 32.0999 10.5 32.3999V32.2999H10.4Z" fill="black"></path> <path opacity="0.12" d="M32 21.3L27 24.1L27.1 24.2L32 21.4C32.7 21 33 20.5 33 20C33 20.5 32.6 20.9 32 21.3Z" fill="black"></path> <path opacity="0.25" d="M12.5 7.59988L32 18.6999C32.6 19.0999 33 19.4999 33 19.9999C33 19.4999 32.7 18.9999 32 18.5999L12.5 7.49988C11.1 6.69988 10 7.39988 10 8.99988V9.09988C10 7.49988 11.1 6.79988 12.5 7.59988Z" fill="white"></path> <path d="M77.3107 14C76.2207 14 75.3019 13.6572 74.5753 12.9823C73.8547 12.3263 73.4523 11.4219 73.4703 10.4987C73.4703 9.51331 73.8426 8.67914 74.5753 8.01774C75.2989 7.34285 76.2177 7 77.3077 7C78.3856 7 79.3044 7.34285 80.0431 8.01774C80.7757 8.70073 81.148 9.5349 81.148 10.4987C81.136 11.4867 80.7637 12.3209 80.0431 12.9796C79.3194 13.6599 78.4006 14 77.3107 14ZM44.8794 14C43.8135 14 42.8886 13.6626 42.132 12.9958C41.3813 12.3317 41 11.4921 41 10.5014C41 9.51061 41.3813 8.67104 42.132 8.00694C42.8736 7.34015 43.7984 7.0027 44.8794 7.0027C45.4078 7.0027 45.9213 7.09719 46.4137 7.28885C46.8971 7.47513 47.2905 7.72889 47.5817 8.03934L47.6538 8.11763L46.8401 8.83571L46.756 8.74663C46.2966 8.2553 45.6811 8.01504 44.8674 8.01504C44.1407 8.01504 43.5072 8.2472 42.9847 8.70613C42.4593 9.16776 42.192 9.77246 42.192 10.5041C42.192 11.2356 42.4593 11.8403 42.9847 12.302C43.5072 12.7609 44.1407 12.9931 44.8674 12.9931C45.642 12.9931 46.2936 12.7609 46.8011 12.302C47.1013 12.032 47.2875 11.6541 47.3535 11.1762H44.7443V10.1666H48.4735L48.4885 10.2584C48.5156 10.4285 48.5426 10.6039 48.5426 10.7659C48.5426 11.6973 48.2303 12.4504 47.6118 13.0066C46.9092 13.6653 45.9904 14 44.8794 14ZM88 13.8569H86.85L83.3279 8.78982L83.3579 9.70228V13.8542H82.2079V7.14578H83.5201L83.5561 7.19707L86.868 11.9699L86.838 11.0602V7.14578H88V13.8569V13.8569ZM68.6691 13.8569H67.5041V8.15542H65.4834V7.14578H70.6869V8.15542H68.6661V13.8569H68.6691ZM64.5345 13.8569H63.3725V7.14578H64.5345V13.8569ZM58.0038 13.8569H56.8418V8.15542H54.8211V7.14578H60.0246V8.15542H58.0038V13.8569ZM54.0854 13.8461H49.6295V7.14578H54.0854V8.15542H50.7945V9.99653H53.7641V10.9954H50.7945V12.8365H54.0854V13.8461ZM75.428 12.2885C75.9475 12.7555 76.578 12.9904 77.3107 12.9904C78.0643 12.9904 78.6799 12.7609 79.1933 12.2885C79.7038 11.8295 79.962 11.2275 79.962 10.5014C79.962 9.77516 79.7038 9.17046 79.1963 8.71423C78.6769 8.2472 78.0433 8.01234 77.3137 8.01234C76.56 8.01234 75.9445 8.2418 75.434 8.71423C74.9236 9.17316 74.6654 9.77516 74.6654 10.5014C74.6654 11.2275 74.9206 11.8322 75.428 12.2885Z" fill="white"></path> <defs> <linearGradient id="paint0_linear" x1="21.7996" y1="8.7097" x2="5.0172" y2="25.4921" gradientUnits="userSpaceOnUse"> <stop stop-color="#00A0FF"></stop> <stop offset="0.00657445" stop-color="#00A1FF"></stop> <stop offset="0.2601" stop-color="#00BEFF"></stop> <stop offset="0.5122" stop-color="#00D2FF"></stop> <stop offset="0.7604" stop-color="#00DFFF"></stop> <stop offset="1" stop-color="#00E3FF"></stop> </linearGradient> <linearGradient id="paint1_linear" x1="33.8343" y1="20.0012" x2="9.6374" y2="20.0012" gradientUnits="userSpaceOnUse"> <stop stop-color="#FFE000"></stop> <stop offset="0.4087" stop-color="#FFBD00"></stop> <stop offset="0.7754" stop-color="#FFA500"></stop> <stop offset="1" stop-color="#FF9C00"></stop> </linearGradient> <linearGradient id="paint2_linear" x1="24.8269" y1="22.2961" x2="2.0686" y2="45.0544" gradientUnits="userSpaceOnUse"> <stop stop-color="#FF3A44"></stop> <stop offset="1" stop-color="#C31162"></stop> </linearGradient> <linearGradient id="paint3_linear" x1="7.2972" y1="0.176068" x2="17.4598" y2="10.3386" gradientUnits="userSpaceOnUse"> <stop stop-color="#32A071"></stop> <stop offset="0.0685" stop-color="#2DA771"></stop> <stop offset="0.4762" stop-color="#15CF74"></stop> <stop offset="0.8009" stop-color="#06E775"></stop> <stop offset="1" stop-color="#00F076"></stop> </linearGradient> </defs> </svg> 