<?xml version="1.0" encoding="UTF-8"?> <svg xmlns="http://www.w3.org/2000/svg" width="134" height="46" viewBox="0 0 134 46" fill="none"> <path d="M55.096 20.5702C57.9364 22.8691 61.1982 24.59 64.6981 25.6362C73.1897 28.3059 81.9408 29.7364 90.7646 30.7478C97.6135 31.5223 104.471 32.2148 111.329 32.9392C111.759 32.9422 112.189 32.9224 112.617 32.8799C110.274 31.536 108.308 30.4517 106.383 29.2854C105.455 28.7732 104.605 28.1321 103.857 27.3811C102.683 26.0781 103.325 24.4699 105.063 24.192C105.588 24.121 106.123 24.1583 106.633 24.3014C114.679 26.4882 122.815 28.3333 130.693 31.1123C131.267 31.3083 131.825 31.5474 132.363 31.8276C134.465 32.9802 134.588 35.0758 132.468 36.233C130.688 37.208 128.713 37.8366 126.811 38.5838C121.245 40.766 115.434 42.4107 110.324 45.618C109.946 45.8549 109.55 46.2467 109.131 45.7865C108.713 45.3264 109.045 44.93 109.232 44.5246C110.041 42.8779 111.274 41.4768 112.804 40.4653C114.215 39.4631 115.716 38.5838 117.541 37.4175C114.397 37.1715 111.593 36.9619 108.79 36.7296C98.1459 35.8731 87.4699 35.2353 76.9805 33.085C69.6311 31.5861 62.227 30.1693 55.7058 26.0918C53.6216 24.7889 51.7057 23.3219 50.5408 21.0804C49.9446 19.9324 49.0071 19.5907 47.7876 19.4221C35.2401 17.6406 22.9661 14.2871 11.2543 9.44036C8.30149 8.24289 5.50993 6.68027 2.94467 4.7889C2.32297 4.35432 1.73153 3.8779 1.17444 3.36293C0.337105 2.54289 -0.577593 1.42216 0.469075 0.442661C1.51574 -0.536835 2.43044 0.255886 3.15401 1.39484C3.87757 2.53378 5.2792 3.06681 6.48969 3.67273C17.0656 9.08047 28.4925 11.8094 39.9922 14.2786C42.3631 14.7889 44.775 15.0896 47.155 15.5634C48.6294 15.8549 49.485 15.4996 50.1676 14.0053C52.1972 9.56338 58.5546 7.35837 63.0234 9.39025C66.0997 10.7934 66.5593 14.9483 63.9335 17.6818C62.7499 18.8821 61.1993 19.6518 59.5284 19.8686L55.096 20.5702ZM56.3611 16.2285C58.1814 16.2741 59.7605 16.2285 61.1212 15.2171C61.45 15.0225 61.7127 14.7333 61.875 14.3871C62.0373 14.041 62.0918 13.6539 62.0313 13.2763C61.8539 12.3652 61.0575 12.2194 60.2793 12.1693C58.8502 12.0265 57.4075 12.2119 56.0608 12.7114C54.823 13.2035 53.4578 13.946 53.7035 15.3629C53.9629 16.8754 55.5875 15.9779 56.3611 16.224V16.2285ZM116.362 30.5793C118.246 31.4904 120.281 32.1783 121.983 33.3583C124.572 35.1487 125.168 35.3264 127.844 33.4722C124.133 32.0939 120.283 31.1239 116.362 30.5793V30.5793Z" fill="#F5B53D"></path> </svg> 