<?xml version="1.0" encoding="UTF-8"?> <svg xmlns="http://www.w3.org/2000/svg" width="300" height="345" viewBox="0 0 300 345" fill="none"> <g clip-path="url(#clip0)"> <g clip-path="url(#clip1)"> <path d="M51.2091 287.615L51.0203 308.194L64.0254 295.917L105.047 267.994L71.5653 275.313C71.5653 275.313 54.8444 281.664 54.0021 282.629C53.1599 283.594 51.2091 287.615 51.2091 287.615Z" fill="#DCECF9"></path> <path d="M34.7112 277.249L105.057 268L51.2061 287.615L34.7112 277.249Z" fill="url(#paint0_linear)"></path> <path d="M76.3406 305.175L56.0618 292.566L105.057 268L76.3406 305.175Z" fill="url(#paint1_linear)"></path> <path d="M-37.997 372.548C-37.9846 370.894 -37.8812 369.242 -37.6874 367.599C-37.5078 366.082 -37.2477 364.543 -36.9133 363.029L-35.2814 363.392C-35.5911 364.853 -35.8543 366.337 -36.0277 367.798C-36.2201 369.38 -36.3235 370.972 -36.3374 372.567C-36.3374 373.029 -36.3374 373.497 -36.3374 373.953L-38.0063 373.991C-37.9971 373.513 -38.0001 373.026 -37.997 372.548ZM-33.4112 352.611C-31.8992 349.282 -30.1027 346.091 -28.0419 343.073L-26.664 344.023C-28.6739 346.969 -30.4268 350.083 -31.9032 353.33L-33.4112 352.611ZM18.7581 342.763C18.6528 342.717 18.5506 342.664 18.4484 342.611L19.1978 341.112C19.2876 341.156 19.3774 341.202 19.4548 341.237C19.5113 341.254 19.5694 341.265 19.6282 341.271C20.5572 341.382 22.9291 341.085 24.1615 340.123C25.2465 339.244 26.0489 338.065 26.4683 336.732L28.0475 337.281C27.5184 338.919 26.5241 340.367 25.1864 341.448C23.4771 342.785 20.5943 343.076 19.4301 342.937C19.1981 342.916 18.971 342.858 18.7581 342.763ZM-21.2297 334.507C-18.7694 331.822 -16.1436 329.293 -13.3678 326.937L-12.2901 328.218C-15.0101 330.53 -17.5822 333.01 -19.9911 335.646L-21.2297 334.507ZM10.5493 330.588C10.3501 328.94 10.3501 327.273 10.5493 325.624C10.6629 324.685 10.8304 323.752 11.051 322.832L12.6767 323.226C12.4704 324.081 12.3142 324.947 12.2091 325.82C12.0233 327.334 12.0233 328.866 12.2091 330.381C12.3413 331.426 12.5778 332.455 12.9151 333.452L11.3359 333.995C10.9562 332.889 10.6896 331.748 10.5401 330.588H10.5493ZM17.4762 321.113L17.2532 321.036L17.7734 319.441L18.015 319.522C21.6409 320.763 24.8024 323.179 26.6851 326.155L25.2793 327.058C23.5824 324.399 20.7368 322.233 17.4762 321.113ZM-3.81825 321.461C-2.04707 320.666 1.18567 319.289 2.93827 318.979C4.29762 318.743 5.55165 318.572 6.76857 318.46L6.92029 320.133C5.74982 320.241 4.53912 320.406 3.22002 320.632C2.07123 320.831 -0.248035 321.69 -3.14014 322.984L-3.81825 321.461ZM15.5719 312.724C17.6029 309.637 20.0779 306.867 22.9167 304.505L23.9819 305.799C21.269 308.055 18.9045 310.701 16.9653 313.651L15.5719 312.724Z" fill="#DCECF9"></path> <path d="M32.9589 300.351C34.6144 299.662 36.3244 299.113 38.0712 298.709L37.6997 297.071C35.8619 297.495 34.0627 298.072 32.321 298.796L32.9589 300.351Z" fill="#DCECF9"></path> </g> <path d="M271.178 261.547L271.309 275.755L262.33 267.279L234.007 248L257.124 253.053C257.124 253.053 268.669 257.438 269.25 258.104C269.832 258.771 271.178 261.547 271.178 261.547Z" fill="#DCECF9"></path> <path d="M282.569 254.39L234.001 248.004L271.181 261.547L282.569 254.39Z" fill="url(#paint2_linear)"></path> <path d="M253.827 273.671L267.828 264.965L234 248.004L253.827 273.671Z" fill="url(#paint3_linear)"></path> <path d="M332.769 320.187C332.76 319.045 332.689 317.904 332.555 316.77C332.431 315.723 332.251 314.66 332.02 313.615L330.894 313.865C331.108 314.874 331.289 315.898 331.409 316.907C331.542 318 331.613 319.099 331.623 320.2C331.623 320.519 331.623 320.842 331.623 321.157L332.775 321.183C332.769 320.853 332.771 320.517 332.769 320.187ZM329.603 306.422C328.559 304.124 327.318 301.921 325.895 299.837L324.944 300.492C326.332 302.526 327.542 304.676 328.561 306.919L329.603 306.422ZM293.584 299.623C293.656 299.59 293.727 299.554 293.797 299.518L293.28 298.483C293.218 298.513 293.156 298.545 293.103 298.569C293.064 298.581 293.023 298.588 292.983 298.592C292.341 298.669 290.704 298.464 289.853 297.8C289.104 297.193 288.55 296.379 288.26 295.458L287.17 295.837C287.535 296.968 288.222 297.968 289.145 298.714C290.325 299.638 292.316 299.839 293.12 299.743C293.28 299.728 293.437 299.688 293.584 299.623ZM321.192 293.922C319.493 292.068 317.681 290.323 315.764 288.696L315.02 289.58C316.898 291.176 318.674 292.889 320.337 294.709L321.192 293.922ZM299.251 291.217C299.389 290.079 299.389 288.928 299.251 287.79C299.173 287.141 299.057 286.497 298.905 285.862L297.782 286.134C297.925 286.724 298.033 287.322 298.105 287.925C298.233 288.97 298.233 290.028 298.105 291.073C298.014 291.795 297.851 292.505 297.618 293.194L298.708 293.569C298.97 292.806 299.154 292.018 299.257 291.217H299.251ZM294.469 284.675L294.623 284.621L294.263 283.52L294.097 283.576C291.593 284.433 289.41 286.102 288.111 288.156L289.081 288.779C290.253 286.943 292.217 285.448 294.469 284.675ZM309.171 284.915C307.948 284.366 305.716 283.415 304.506 283.201C303.567 283.038 302.702 282.921 301.861 282.843L301.757 283.998C302.565 284.073 303.401 284.187 304.311 284.343C305.105 284.48 306.706 285.073 308.703 285.967L309.171 284.915ZM295.783 278.883C294.381 276.751 292.672 274.839 290.712 273.208L289.977 274.102C291.85 275.659 293.482 277.486 294.821 279.523L295.783 278.883Z" fill="#DCECF9"></path> <path d="M283.779 270.34C282.636 269.864 281.455 269.485 280.249 269.207L280.506 268.076C281.775 268.368 283.017 268.767 284.219 269.267L283.779 270.34Z" fill="#DCECF9"></path> <path d="M180.579 311.906L181.606 323.859L188.288 316.035L209.96 297.626L191.419 303.673C191.419 303.673 182.308 308.257 181.884 308.862C181.461 309.467 180.579 311.906 180.579 311.906Z" fill="#DCECF9"></path> <path d="M170.241 306.757L209.96 297.626L180.238 311.813L170.241 306.757Z" fill="url(#paint4_linear)"></path> <path d="M195.52 320.913L183.167 314.653L209.96 297.626L195.52 320.913Z" fill="url(#paint5_linear)"></path> </g> <defs> <linearGradient id="paint0_linear" x1="77.9109" y1="276.187" x2="63.235" y2="249.069" gradientUnits="userSpaceOnUse"> <stop stop-color="#E3F3FF"></stop> <stop offset="1" stop-color="#F6FBFF" stop-opacity="0.37"></stop> </linearGradient> <linearGradient id="paint1_linear" x1="73.1705" y1="282.65" x2="96.9956" y2="309.529" gradientUnits="userSpaceOnUse"> <stop stop-color="#E3F3FF"></stop> <stop offset="1" stop-color="#F6FBFF" stop-opacity="0.37"></stop> </linearGradient> <linearGradient id="paint2_linear" x1="252.743" y1="253.657" x2="262.876" y2="234.934" gradientUnits="userSpaceOnUse"> <stop stop-color="#E3F3FF"></stop> <stop offset="1" stop-color="#F6FBFF" stop-opacity="0.37"></stop> </linearGradient> <linearGradient id="paint3_linear" x1="256.016" y1="258.119" x2="239.566" y2="276.677" gradientUnits="userSpaceOnUse"> <stop stop-color="#E3F3FF"></stop> <stop offset="1" stop-color="#F6FBFF" stop-opacity="0.37"></stop> </linearGradient> <linearGradient id="paint4_linear" x1="194.884" y1="303.801" x2="184.962" y2="289.062" gradientUnits="userSpaceOnUse"> <stop stop-color="#E3F3FF"></stop> <stop offset="1" stop-color="#F6FBFF" stop-opacity="0.37"></stop> </linearGradient> <linearGradient id="paint5_linear" x1="192.449" y1="307.926" x2="207.865" y2="322.076" gradientUnits="userSpaceOnUse"> <stop stop-color="#E3F3FF"></stop> <stop offset="1" stop-color="#F6FBFF" stop-opacity="0.37"></stop> </linearGradient> <clipPath id="clip0"> <rect width="300" height="345" fill="white"></rect> </clipPath> <clipPath id="clip1"> <rect width="143.057" height="106" fill="white" transform="translate(-38 268)"></rect> </clipPath> </defs> </svg> 