<?xml version="1.0" encoding="UTF-8"?> <svg xmlns="http://www.w3.org/2000/svg" width="660" height="229" viewBox="0 0 660 229" fill="none"> <mask id="mask0" mask-type="alpha" maskUnits="userSpaceOnUse" x="0" y="0" width="660" height="229"> <rect width="660" height="229" rx="16" fill="#434760"></rect> </mask> <g mask="url(#mask0)"> <path opacity="0.47" d="M310 253.64C330.422 194.718 373.5 191.36 390.5 195.5C390.5 195.5 439.535 209.562 463.5 156.91C494.5 105.64 517.959 141.936 527 154.64C538 173.086 558 174.36 570.5 164.5C583 154.64 609.987 66.8549 635.055 60.5857C660.123 54.3165 662.5 100.586 697.5 94.0857C716.729 86.5026 723.342 80.2031 725.364 76.0215C726.193 74.308 725.5 74.378 725.5 76.2814V307.64L310 253.64Z" fill="url(#paint0_linear)"></path> <path d="M267 248C291.133 248 301.262 190.36 324.5 188C348.749 183.209 367.218 213.861 393.5 213C429.331 211.823 431.744 165.205 461 157C490.256 148.795 500 190 521.5 190C543 190 542.708 68.6163 572 67C621.5 57.5 608.5 124.5 632 124.5C655.5 124.5 645.239 47 676 47" stroke="#0085FF" stroke-width="2" stroke-linecap="round" stroke-linejoin="round"></path> <g filter="url(#filter0_d)"> <circle cx="577" cy="69" r="15" fill="white"></circle> </g> <circle cx="577" cy="69" r="6" fill="#0085FF"></circle> </g> <path d="M545.277 33.1333H548.06V34.7593H545.277V37.9307H543.548V34.7593H540.75V33.1333H543.548V30.167H545.277V33.1333ZM559.867 31.1484C559.867 31.6709 559.732 32.1372 559.464 32.5474C559.195 32.9526 558.829 33.2725 558.365 33.5068C558.922 33.7656 559.349 34.1196 559.647 34.5688C559.95 35.0181 560.101 35.5259 560.101 36.0923C560.101 37.0298 559.784 37.7744 559.149 38.3262C558.514 38.873 557.669 39.1465 556.615 39.1465C555.555 39.1465 554.706 38.8706 554.066 38.3188C553.431 37.7671 553.114 37.0249 553.114 36.0923C553.114 35.521 553.265 35.0083 553.568 34.5542C553.871 34.1001 554.295 33.751 554.842 33.5068C554.383 33.2725 554.02 32.9526 553.751 32.5474C553.487 32.1372 553.355 31.6709 553.355 31.1484C553.355 30.2402 553.648 29.52 554.234 28.9878C554.82 28.4556 555.611 28.1895 556.607 28.1895C557.608 28.1895 558.402 28.4556 558.988 28.9878C559.574 29.52 559.867 30.2402 559.867 31.1484ZM558.321 36.0044C558.321 35.4771 558.163 35.0522 557.845 34.73C557.533 34.4028 557.118 34.2393 556.6 34.2393C556.083 34.2393 555.667 34.4004 555.355 34.7227C555.047 35.0449 554.894 35.4722 554.894 36.0044C554.894 36.5269 555.045 36.9443 555.348 37.2568C555.655 37.5693 556.078 37.7256 556.615 37.7256C557.152 37.7256 557.569 37.5742 557.867 37.2715C558.17 36.9688 558.321 36.5464 558.321 36.0044ZM558.094 31.2144C558.094 30.7505 557.96 30.3696 557.691 30.0718C557.423 29.769 557.062 29.6177 556.607 29.6177C556.153 29.6177 555.794 29.7617 555.531 30.0498C555.267 30.333 555.135 30.7212 555.135 31.2144C555.135 31.7026 555.267 32.0908 555.531 32.3789C555.799 32.667 556.161 32.811 556.615 32.811C557.069 32.811 557.428 32.667 557.691 32.3789C557.96 32.0908 558.094 31.7026 558.094 31.2144ZM568.626 34.5103C568.626 36.0435 568.338 37.2007 567.762 37.9819C567.191 38.7583 566.319 39.1465 565.147 39.1465C563.995 39.1465 563.126 38.7681 562.54 38.0112C561.959 37.2495 561.661 36.124 561.646 34.6348V32.7891C561.646 31.2559 561.932 30.106 562.503 29.3394C563.08 28.5728 563.956 28.1895 565.133 28.1895C566.3 28.1895 567.169 28.563 567.74 29.3101C568.316 30.0571 568.612 31.1753 568.626 32.6646V34.5103ZM566.847 32.5181C566.847 31.5171 566.71 30.7847 566.437 30.3208C566.163 29.8521 565.729 29.6177 565.133 29.6177C564.552 29.6177 564.125 29.8398 563.851 30.2842C563.578 30.7236 563.434 31.4121 563.419 32.3496V34.7666C563.419 35.7627 563.558 36.5049 563.836 36.9932C564.115 37.4814 564.552 37.7256 565.147 37.7256C565.719 37.7256 566.141 37.501 566.415 37.0518C566.688 36.5977 566.832 35.8896 566.847 34.9277V32.5181ZM580.887 34.5103C580.887 36.0435 580.599 37.2007 580.023 37.9819C579.452 38.7583 578.58 39.1465 577.408 39.1465C576.256 39.1465 575.387 38.7681 574.801 38.0112C574.22 37.2495 573.922 36.124 573.907 34.6348V32.7891C573.907 31.2559 574.193 30.106 574.764 29.3394C575.34 28.5728 576.217 28.1895 577.394 28.1895C578.561 28.1895 579.43 28.563 580.001 29.3101C580.577 30.0571 580.873 31.1753 580.887 32.6646V34.5103ZM579.107 32.5181C579.107 31.5171 578.971 30.7847 578.697 30.3208C578.424 29.8521 577.989 29.6177 577.394 29.6177C576.812 29.6177 576.385 29.8398 576.112 30.2842C575.838 30.7236 575.694 31.4121 575.68 32.3496V34.7666C575.68 35.7627 575.819 36.5049 576.097 36.9932C576.375 37.4814 576.812 37.7256 577.408 37.7256C577.979 37.7256 578.402 37.501 578.675 37.0518C578.949 36.5977 579.093 35.8896 579.107 34.9277V32.5181ZM589.413 34.5103C589.413 36.0435 589.125 37.2007 588.548 37.9819C587.977 38.7583 587.105 39.1465 585.934 39.1465C584.781 39.1465 583.912 38.7681 583.326 38.0112C582.745 37.2495 582.447 36.124 582.433 34.6348V32.7891C582.433 31.2559 582.718 30.106 583.29 29.3394C583.866 28.5728 584.742 28.1895 585.919 28.1895C587.086 28.1895 587.955 28.563 588.526 29.3101C589.103 30.0571 589.398 31.1753 589.413 32.6646V34.5103ZM587.633 32.5181C587.633 31.5171 587.496 30.7847 587.223 30.3208C586.949 29.8521 586.515 29.6177 585.919 29.6177C585.338 29.6177 584.911 29.8398 584.637 30.2842C584.364 30.7236 584.22 31.4121 584.205 32.3496V34.7666C584.205 35.7627 584.344 36.5049 584.623 36.9932C584.901 37.4814 585.338 37.7256 585.934 37.7256C586.505 37.7256 586.927 37.501 587.201 37.0518C587.474 36.5977 587.618 35.8896 587.633 34.9277V32.5181ZM597.938 34.5103C597.938 36.0435 597.65 37.2007 597.074 37.9819C596.502 38.7583 595.631 39.1465 594.459 39.1465C593.307 39.1465 592.438 38.7681 591.852 38.0112C591.271 37.2495 590.973 36.124 590.958 34.6348V32.7891C590.958 31.2559 591.244 30.106 591.815 29.3394C592.391 28.5728 593.268 28.1895 594.444 28.1895C595.611 28.1895 596.48 28.563 597.052 29.3101C597.628 30.0571 597.923 31.1753 597.938 32.6646V34.5103ZM596.158 32.5181C596.158 31.5171 596.021 30.7847 595.748 30.3208C595.475 29.8521 595.04 29.6177 594.444 29.6177C593.863 29.6177 593.436 29.8398 593.163 30.2842C592.889 30.7236 592.745 31.4121 592.73 32.3496V34.7666C592.73 35.7627 592.87 36.5049 593.148 36.9932C593.426 37.4814 593.863 37.7256 594.459 37.7256C595.03 37.7256 595.453 37.501 595.726 37.0518C596 36.5977 596.144 35.8896 596.158 34.9277V32.5181ZM608.448 37.3081H606.09V39H604.244V37.3081H602.743V35.8213H604.244V35.0376H602.743V33.5508H604.244V28.3359H608.324C609.5 28.3359 610.44 28.6436 611.144 29.2588C611.847 29.8691 612.198 30.6821 612.198 31.6978C612.198 32.7329 611.864 33.5459 611.195 34.1367C610.526 34.7227 609.596 35.0229 608.404 35.0376H606.09V35.8213H608.448V37.3081ZM606.09 33.5508H608.294C608.958 33.5508 609.466 33.397 609.818 33.0894C610.169 32.7817 610.345 32.3228 610.345 31.7124C610.345 31.1655 610.172 30.7188 609.825 30.3721C609.483 30.0254 609.01 29.8447 608.404 29.8301H606.09V33.5508Z" fill="#0085FF"></path> <defs> <filter id="filter0_d" x="552" y="48" width="50" height="50" filterUnits="userSpaceOnUse" color-interpolation-filters="sRGB"> <feFlood flood-opacity="0" result="BackgroundImageFix"></feFlood> <feColorMatrix in="SourceAlpha" type="matrix" values="0 0 0 0 0 0 0 0 0 0 0 0 0 0 0 0 0 0 127 0"></feColorMatrix> <feOffset dy="4"></feOffset> <feGaussianBlur stdDeviation="5"></feGaussianBlur> <feColorMatrix type="matrix" values="0 0 0 0 0 0 0 0 0 0 0 0 0 0 0 0 0 0 0.07 0"></feColorMatrix> <feBlend mode="normal" in2="BackgroundImageFix" result="effect1_dropShadow"></feBlend> <feBlend mode="normal" in="SourceGraphic" in2="effect1_dropShadow" result="shape"></feBlend> </filter> <linearGradient id="paint0_linear" x1="518" y1="41.5" x2="519.895" y2="262.505" gradientUnits="userSpaceOnUse"> <stop stop-color="#98CDFE"></stop> <stop offset="1" stop-color="#98CDFE" stop-opacity="0"></stop> </linearGradient> </defs> </svg> 