<?xml version="1.0" encoding="UTF-8"?> <svg xmlns="http://www.w3.org/2000/svg" width="1286" height="347" viewBox="0 0 1286 347" fill="none"> <path d="M355.351 302.623C346.385 301.635 338.534 302.776 330.743 303.705C313.111 305.804 295.41 307.38 277.882 310.289C266.526 312.171 255.17 314.201 243.844 316.216C229.421 318.745 214.861 320.252 200.325 321.956C184.481 323.782 168.552 324.772 152.604 324.92C146.02 325.021 139.443 324.426 132.983 323.146C123.636 321.24 114.221 319.476 105.037 316.962C90.8337 313.137 77.6663 306.18 66.5 296.602C59.2568 290.393 51.7321 284.535 44.7456 278.005C35.641 269.495 28.0274 259.962 22.1617 248.908C17.1452 239.459 11.8918 230.138 7.92702 220.18C3.48331 209.072 1.25154 197.607 0.362802 185.639C-0.486575 173.494 0.156811 161.289 2.27854 149.3C5.0682 132.882 11.003 117.614 18.9424 103.068C22.8085 95.9898 26.793 89.0105 31.8687 82.6634C37.6258 75.4568 44.7061 69.989 52.606 65.3756C54.4428 64.2988 56.3141 63.2961 59.1185 61.7353C56.3338 61.3599 54.4971 61.2018 52.6998 60.8462C51.2186 60.5548 49.8065 59.888 49.53 58.1592C49.2535 56.4304 50.3644 55.3339 51.7321 54.6621C57.6671 51.7718 64.1093 50.0688 70.6969 49.6487C74.1531 49.4066 75.9849 52.0492 75.3776 55.6105C74.9628 58.0802 73.8519 60.2979 72.7805 62.5256C69.6452 69.0505 66.5988 75.6248 63.3302 82.0855C61.8736 84.9602 61.7601 88.4029 59.079 91.9346C56.3486 82.4312 61.2466 75.3087 63.5227 67.8403C62.0958 66.7537 61.1182 67.7119 60.1653 68.1861C48.8931 73.7972 39.3835 81.5224 32.5698 92.1964C21.9642 108.822 13.5606 126.416 9.50204 145.887C6.53956 160.187 6.23346 174.536 7.29501 189.097C8.52443 205.965 14.8197 221 22.6455 235.596C25.5191 240.96 28.4915 246.275 31.5083 251.565C38.2331 263.36 47.9155 272.473 58.2545 280.989C62.0613 284.125 65.8236 287.321 69.5761 290.527C82.1666 301.324 96.4852 308.733 112.779 312.127C121.172 313.885 129.413 316.152 137.891 317.407C140.332 317.763 142.792 317.984 145.257 318.069C166.691 318.819 187.942 316.77 209.232 314.542C232.828 312.072 256.009 307.133 279.433 303.675C294.403 301.467 309.438 299.823 324.487 298.277C333.646 297.338 342.756 296.044 352.018 296.197C354.981 296.247 358.042 295.802 360.881 296.41C366.337 297.585 371.21 296.054 376.256 294.434C397.956 287.519 420.17 282.989 442.783 280.337C454.383 278.996 466.054 278.363 477.731 278.44C498.137 278.544 518.549 278.322 538.955 278.727C550.608 278.959 562.265 279.818 573.868 281.137C578.776 281.69 583.743 281.967 588.621 282.209C603.972 282.974 618.962 285.908 634.001 288.719C662.663 294.073 690.856 301.324 718.925 309.119C728.124 311.672 737.347 314.127 746.812 315.54C747.78 315.727 748.758 315.864 749.74 315.95C758.957 316.299 768.158 316.628 777.345 316.938C778.002 316.938 778.659 316.938 779.32 316.903C783.813 316.646 784.524 316.083 784.559 311.657C784.556 307.35 785.902 303.151 788.41 299.65C791.585 295.13 796.098 292.972 801.371 292.478C806.249 292.023 810.012 294.241 812.372 298.529C815.176 303.621 814.954 308.659 811.503 313.386C808.994 316.844 805.578 318.968 801.534 320.331C799.9 320.884 797.91 320.761 796.537 322.524C797.954 324.776 800.225 325.779 802.368 326.876C809.177 330.333 816.573 332.022 823.955 333.731C853.53 340.582 883.555 341.916 913.728 340.563C928.989 339.881 944.202 338.167 959.444 337.07C991.043 334.798 1022 328.782 1053.09 323.156C1085.5 317.293 1117.69 310.635 1149.51 302.154C1163.17 298.514 1176.9 295.017 1190.22 290.176C1210.57 282.767 1228.45 271.318 1245.02 257.463C1263 242.422 1273.78 223.307 1277.86 200.527C1280.21 187.432 1280.66 174.15 1279.79 160.725C1277.99 133.312 1269.59 107.839 1258.59 83.0388C1254.28 73.3329 1247.63 65.1188 1241.03 56.8601C1227.2 39.5723 1209.75 26.7893 1190.47 16.466C1181.21 11.5019 1171.18 8.06906 1161.34 4.26575C1159.13 3.41123 1156.68 2.94199 1155.01 0.961307C1156.38 -0.639048 1157.67 0.195706 1158.87 0.39822C1166.57 1.68246 1173.61 5.01653 1180.91 7.52573C1196.55 12.8998 1210.04 21.9141 1222.91 32.0497C1242.38 47.4062 1257.44 66.2005 1267.02 89.2179C1274.82 107.988 1281.21 127.142 1284 147.359C1286.62 166.391 1286.96 185.486 1283.25 204.34C1279.48 223.445 1271.12 240.471 1257.08 254.341C1235.22 275.906 1209.72 291.268 1180.14 299.828C1148.54 308.985 1116.67 317.259 1084.32 323.443C1058.96 328.287 1033.55 332.897 1008.09 337.273C992.043 340.017 975.863 341.936 959.616 343.022C944.202 344.045 928.831 345.872 913.407 346.519C897.641 347.176 881.856 347.28 866.057 346.06C848.179 344.626 830.452 341.696 813.063 337.303C804.175 335.085 795.826 331.721 789.585 324.554C788.41 323.206 787.018 322.741 785.216 322.84C773.529 323.497 761.866 322.707 750.209 322.094C743.934 321.768 737.865 320.119 731.783 318.731C717.01 315.372 702.597 310.67 687.908 307.009C663.305 300.919 638.618 295.323 613.595 291.11C602.732 289.272 591.717 288.536 580.741 287.652C567.637 286.615 554.513 285.775 541.394 284.856C540.086 284.767 538.768 284.698 537.444 284.693C512.92 284.693 488.396 284.343 463.876 284.772C445.608 285.093 427.551 288.171 409.658 291.915C399.823 293.974 390.111 296.489 380.497 299.393C379.095 299.818 377.535 300.218 376.464 301.102C374.982 302.297 376.464 303.838 376.607 305.231C376.908 308.225 375.832 310.734 373.871 312.887C369.23 318 363.206 320.533 356.59 321.576C355.115 321.858 353.589 321.69 352.209 321.095C350.83 320.5 349.661 319.504 348.853 318.237C346.987 315.451 347.372 312.665 348.893 309.84C350.295 307.207 352.63 305.36 355.351 302.623ZM808.372 305.093C808.283 301.211 805.563 298.035 802.25 297.956C795.703 297.793 788.771 306.293 790.237 312.705C790.681 314.68 791.6 316.162 793.901 315.831C798.004 315.253 801.998 314.315 805.257 311.524C807.251 309.845 808.466 307.775 808.372 305.098V305.093ZM366.934 304.411C365.018 304.65 363.181 305.326 361.567 306.387C358.95 308.027 356.111 309.42 354.428 312.206C353.904 313.075 353.603 314.038 354.304 314.942C354.564 315.266 354.913 315.505 355.309 315.629C355.705 315.753 356.128 315.756 356.526 315.638C361.306 314.423 365.981 312.956 369.452 309.148C370.242 308.284 370.855 307.222 370.326 306.022C369.714 304.668 368.435 304.372 366.934 304.416V304.411Z" fill="#F5B53D"></path> </svg> 