<?xml version="1.0" encoding="UTF-8"?> <svg xmlns="http://www.w3.org/2000/svg" width="81" height="73" viewBox="0 0 81 73" fill="none"> <path opacity="0.3" d="M81 0V12.4582C76.2343 13.756 72.5957 15.5728 70.0841 17.9087C67.6368 20.2446 65.6726 23.2294 64.1914 26.863C62.7102 30.4318 61.9696 34.8116 61.9696 40.0025C68.0233 40.0025 72.4991 41.7545 75.3971 45.2583C78.3596 48.7622 79.8408 52.4932 79.8408 56.4513C79.8408 61.0582 78.2308 64.9514 75.0107 68.1308C71.7907 71.3103 68.0233 72.9 63.7084 72.9C58.1055 72.9 53.3077 70.4992 49.3148 65.6976C45.322 60.8311 43.3256 54.2127 43.3256 45.8423C43.3256 38.4453 44.9034 31.5348 48.059 25.1111C51.2147 18.6224 55.5295 13.1071 61.0036 8.56502C66.4776 3.95808 73.1431 1.10307 81 0ZM37.5778 0V12.4582C32.8122 13.756 29.1735 15.5728 26.6619 17.9087C24.2147 20.2446 22.2504 23.2294 20.7692 26.863C19.288 30.4318 18.5474 34.8116 18.5474 40.0025C24.7299 40.0025 29.2701 41.7545 32.1682 45.2583C35.0662 48.7622 36.5152 52.4932 36.5152 56.4513C36.5152 61.0582 34.873 64.9514 31.5885 68.1308C28.3685 71.3103 24.6333 72.9 20.3828 72.9C14.8444 72.9 10.0465 70.4992 5.98927 65.6976C1.99642 60.8311 0 54.2127 0 45.8423C0 38.4453 1.57782 31.5348 4.73345 25.1111C7.88909 18.6224 12.1717 13.1071 17.5814 8.56502C23.0555 3.95808 29.7209 1.10307 37.5778 0Z" fill="#292B37"></path> </svg> 