<?xml version="1.0" encoding="UTF-8"?> <svg xmlns="http://www.w3.org/2000/svg" width="660" height="264" viewBox="0 0 660 264" fill="none"> <mask id="mask0" mask-type="alpha" maskUnits="userSpaceOnUse" x="0" y="0" width="660" height="264"> <rect width="660" height="264" rx="16" fill="white"></rect> </mask> <g mask="url(#mask0)"> <path d="M552.437 83.6451C553.311 82.1169 554.553 80.6622 556.001 79.5415C556.001 81.0173 556.131 84.4872 556.649 86.5601C556.941 87.7271 556.444 88.5276 555.662 89.7885C554.708 91.3274 553.328 93.5518 552.437 97.9648C549.585 98.1302 544.828 96.7907 545.308 92.714C545.682 89.5368 547.135 88.5165 548.795 87.3506C550.012 86.4959 551.341 85.5631 552.437 83.6451Z" fill="#FDA37E"></path> <path fill-rule="evenodd" clip-rule="evenodd" d="M622.106 94.6574C628.262 97.2485 638.438 107.354 633.772 127.046C627.939 151.662 604.932 154.577 592.942 144.536C590.047 142.112 588.097 142.086 586.461 143.268C581.324 146.981 579.297 162.617 560.862 153.281C553.467 149.536 548.225 144.342 549.521 135.791C550.061 132.224 551.921 131.553 554.375 131.526C556.257 135.524 558.604 138.61 561.51 140.265C563.755 141.543 566.333 141.967 569.287 141.298C574.288 140.165 578.01 137.836 580.739 134.82C588.621 126.109 588.226 111.666 586.461 103.726C585.489 105.994 579.332 109.232 572.528 109.556C567.924 110.079 557.887 108.617 553.493 98.868C557.142 88.8274 560.538 89.4751 561.51 90.1229C562.482 90.7707 571.879 93.0379 571.879 89.4751C571.879 87.3105 569.248 86.9393 566.455 86.5454C564.652 86.291 562.781 86.0272 561.51 85.2646C558.917 83.7099 558.701 79.7045 558.917 77.8961C561.125 77.0877 563.523 77.1745 565.723 78.7867C569.607 81.6342 579.657 87.5318 586.461 89.1513C588.946 89.6911 595.664 90.8355 602.663 91.0946C611.413 91.4185 614.992 91.663 622.106 94.6574ZM620.485 127.046C619.189 127.824 618.136 127.128 617.893 126.075C617.582 124.73 617.966 122.955 618.379 121.047C619.259 116.98 620.27 112.305 614.977 109.88C609.739 107.481 607.294 112.279 605.365 116.065C604.43 117.9 603.616 119.498 602.663 119.921C599.748 121.216 599.423 119.597 600.071 113.119C600.719 106.641 610.764 95.9528 620.485 104.698C630.206 113.443 622.106 126.075 620.485 127.046Z" fill="#FDA37E"></path> <path fill-rule="evenodd" clip-rule="evenodd" d="M640.576 110.727C641.314 110.607 642.356 110.893 643.905 111.318C645.959 111.881 648.904 112.688 653.213 113.119C666.175 114.415 679.569 103.078 684.645 97.2484C683.349 95.305 680.692 91.0297 680.433 89.4751C680.174 87.9206 685.294 88.8274 687.886 89.4751C689.713 82.6939 689.018 72.342 685.294 66.8763C684.429 65.8212 682.118 64.344 679.785 66.8763C678.899 67.8376 676.937 70.449 674.426 73.7917C668.669 81.4553 660.023 92.9634 654.834 97.2484C652.477 99.1942 650.185 100.759 648.153 102.147C643.758 105.148 640.576 107.32 640.576 110.727Z" fill="#FDA37E"></path> <path fill-rule="evenodd" clip-rule="evenodd" d="M532.1 159.082L532.065 159.111C532.062 159.08 532.059 159.05 532.055 159.02L532.1 159.082Z" fill="#FDA37E"></path> <path d="M540.044 184.699C540.692 185.346 539.072 187.614 537.452 186.642L535.468 183.799L521.567 163.884L517.597 158.196L510.312 147.759L498.567 130.933L499.215 129.961L500.511 129.637L512.421 146.225L520.378 157.307L521.607 159.02C521.61 159.05 521.613 159.08 521.617 159.111L521.652 159.082L535.684 178.626L540.044 184.699Z" fill="#FFCAB3"></path> <path d="M485.209 117.345L484.277 109.141C484.03 106.972 486.413 105.489 488.251 106.667L495.714 111.449C496.079 111.683 496.537 111.719 496.935 111.544L503.6 108.619C505.75 107.676 507.946 109.846 507.028 112.005L504.449 118.071C504.227 118.593 504.37 119.199 504.803 119.566L510.201 124.144C511.932 125.612 511.072 128.438 508.816 128.694L500.511 129.637L499.215 129.961L498.567 130.933L495.577 137.086C494.6 139.096 491.707 139.011 490.85 136.947L487.881 129.789C487.68 129.305 487.208 128.99 486.684 128.99H480.329C478.001 128.99 476.853 126.161 478.522 124.54L484.825 118.421C485.113 118.141 485.255 117.744 485.209 117.345Z" fill="#FFB024"></path> <path fill-rule="evenodd" clip-rule="evenodd" d="M500.68 121.376L498.24 123.092C498.031 123.239 497.739 123.185 497.589 122.97L496.223 121.027L498.447 119.463C498.551 119.39 498.586 119.25 498.529 119.133L498.032 118.105C497.96 117.957 497.775 117.906 497.643 117.998L493.942 120.602L496.263 123.903C496.941 124.868 498.253 125.113 499.195 124.45L500.521 123.518L501.231 124.528C500.755 125.245 500.257 125.73 499.533 126.239C497.644 127.568 495.904 127.277 494.508 125.428L494.504 125.43L492.048 121.934L489.191 123.944C489.087 124.017 489.052 124.157 489.109 124.274L489.606 125.302C489.678 125.45 489.863 125.501 489.995 125.408L491.676 124.226L493.178 126.363L493.181 126.361C494.112 127.607 495.258 128.401 496.49 128.636C497.787 128.884 499.17 128.525 500.488 127.597C501.598 126.816 502.308 126.036 503.036 124.738C503.124 124.581 503.112 124.384 503.006 124.234L501.046 121.445C500.961 121.324 500.797 121.293 500.68 121.376Z" fill="#F27032"></path> <path fill-rule="evenodd" clip-rule="evenodd" d="M488.529 122.379L491.093 120.576L489.045 117.661L490.456 115.641L492.988 119.243L496.981 116.434C497.085 116.361 497.12 116.221 497.063 116.104L496.566 115.076C496.494 114.928 496.309 114.877 496.177 114.97L493.359 116.952L490.649 113.095C490.543 112.944 490.323 112.941 490.22 113.089L487.15 117.482C487.086 117.573 487.087 117.696 487.152 117.788L488.812 120.15L487.725 120.915C487.621 120.988 487.587 121.128 487.643 121.245L488.141 122.273C488.212 122.421 488.398 122.472 488.529 122.379Z" fill="#F27032"></path> <path d="M639.604 81.054C633.901 75.3535 628.802 80.4062 626.966 83.6451C626.39 83.485 625.85 83.2738 625.346 83.0225C626.966 79.8832 630.725 70.3007 632.799 57.086C635.194 41.821 640.357 44.8118 643.94 46.8872C644.234 47.0576 644.518 47.2219 644.788 47.3693C648.353 49.3126 658.398 66.8026 650.297 79.4343C643.816 89.5397 636.858 94.8731 634.189 96.2766C631.937 89.5073 636.631 83.4506 639.604 81.054Z" fill="#F27032"></path> <path d="M523.194 145.233C528.51 146.987 533.776 152.539 535.184 167.209C535.615 171.708 535.732 175.404 535.684 178.626L521.652 159.082C526.309 155.19 524.623 148.232 523.194 145.233Z" fill="#F27032"></path> <path d="M633.771 127.046C638.438 107.354 628.262 97.2485 622.106 94.6574C618.541 92.822 613.032 86.4306 619.513 75.5479C619.986 77.4403 621.771 81.2401 625.346 83.0225C625.85 83.2738 626.39 83.485 626.966 83.6451C628.802 80.4062 633.901 75.3535 639.604 81.054C636.631 83.4506 631.937 89.5073 634.189 96.2766C634.473 97.131 634.868 97.9968 635.391 98.868C636.327 100.428 638.222 100.684 639.604 99.7303C640.349 99.2163 641.062 98.7518 641.783 98.2828C645.45 95.8956 649.298 93.3903 658.398 83.6451C662.107 79.6733 665.079 76.1631 667.569 73.2221C674.216 65.371 677.429 61.5768 682.053 63.8878C683.315 64.5185 684.393 65.5545 685.293 66.8763C684.429 65.8212 682.118 64.344 679.785 66.8763C678.899 67.8376 676.937 70.449 674.426 73.7918C668.669 81.4553 660.023 92.9634 654.834 97.2484C652.477 99.1942 650.185 100.759 648.153 102.147C643.758 105.148 640.576 107.32 640.576 110.727C639.204 110.951 638.631 113.119 638.631 116.682C638.631 148.515 641.289 182.332 632.088 202.189C642.188 217.861 640.795 239.566 626.966 247.577C604.923 260.345 556.325 249.477 532.1 249.477C522.036 249.477 510.163 254.077 507.402 259.517C504.593 258.114 495.916 257.328 493.14 259.517C494.282 244.79 516.115 233.596 528.653 227.029C519.18 214.481 512.383 199.992 517.361 183.403C519.946 174.789 521.14 169.454 521.567 163.884L535.468 183.799C535.377 185.159 535.268 186.451 535.159 187.713C534.697 193.017 541.887 202.189 552.112 202.189C560.239 202.189 572.419 181.714 577.388 174.01C584.905 161.314 586.569 148.225 586.461 143.268C588.097 142.086 590.047 142.112 592.942 144.536C604.932 154.577 627.939 151.662 633.771 127.046Z" fill="#F27032"></path> <path d="M617.892 126.075C618.135 127.128 619.188 127.824 620.485 127.047C622.105 126.075 630.206 113.443 620.485 104.698C610.763 95.9529 600.718 106.641 600.07 113.119C599.422 119.597 599.747 121.216 602.663 119.921C603.615 119.498 604.429 117.9 605.364 116.065C607.293 112.279 609.738 107.481 614.976 109.88C620.269 112.305 619.258 116.98 618.378 121.047C617.966 122.955 617.582 124.73 617.892 126.075Z" fill="#262626"></path> <path d="M518.657 144.537C520.112 144.537 521.655 144.726 523.194 145.234C524.623 148.233 526.308 155.19 521.652 159.082L521.607 159.02C521.535 158.346 521.416 157.825 521.249 157.492C521.059 157.397 520.762 157.318 520.378 157.308L512.42 146.225C514.24 145.183 516.424 144.537 518.657 144.537Z" fill="#262626"></path> <path d="M520.378 157.308C520.762 157.318 521.059 157.397 521.249 157.492C521.416 157.825 521.535 158.346 521.607 159.02L520.378 157.308Z" fill="#262626"></path> <path d="M516.389 159.111C513.472 161.703 506.668 155.873 507.964 151.338C508.333 150.047 509.167 148.813 510.311 147.759L517.597 158.197C517.212 158.438 516.807 158.739 516.389 159.111Z" fill="#262626"></path> <path d="M493.14 259.517C495.916 257.328 504.592 258.114 507.402 259.517C505.667 263.597 504.623 268.124 503.929 272.519C503.778 273.085 503.013 273.176 502.733 272.661L499.744 267.144C499.528 266.745 498.98 266.686 498.683 267.029L494.871 272.661C494.478 273.115 493.731 272.837 493.732 272.236C493.155 267.89 493.148 264.207 493.14 259.861L493.14 259.517Z" fill="#262626"></path> <path d="M580.739 134.82C578.009 137.836 574.288 140.164 569.287 141.297C566.332 141.967 563.754 141.543 561.51 140.265C561.834 137.802 563.843 132.423 569.287 130.609C574.731 128.795 579.19 132.66 580.739 134.82Z" fill="#FA5656"></path> <path d="M558.917 77.896C558.701 79.7044 558.917 83.7098 561.51 85.2645C562.781 86.0271 564.652 86.2909 566.455 86.5453C569.247 86.9392 571.879 87.3104 571.879 89.4751C571.879 93.0379 562.482 90.7706 561.51 90.1229C560.537 89.4751 557.142 88.8273 553.493 98.8679C553.351 98.5527 553.215 98.2289 553.085 97.8962C552.884 97.9284 552.666 97.9515 552.437 97.9648C553.328 93.5518 554.707 91.3273 555.662 89.7884C556.444 88.5276 556.941 87.727 556.649 86.5601C556.13 84.4871 556.001 81.0172 556.001 79.5414C556.905 78.8416 557.891 78.272 558.917 77.896Z" fill="#FA5656"></path> <path d="M570.097 132.301C571.025 131.836 573.231 131.186 574.624 132.301C576.365 133.694 564.873 135.087 570.097 132.301Z" fill="#F2F9FF"></path> <path d="M567.991 126.723C571.668 120.843 573.046 118.366 572.527 109.556C579.332 109.233 585.489 105.994 586.461 103.726C588.226 111.666 588.621 126.11 580.739 134.82C579.19 132.661 574.731 128.796 569.287 130.609C563.843 132.423 561.834 137.802 561.51 140.265C558.604 138.61 556.257 135.524 554.375 131.526C555.05 131.518 555.771 131.559 556.521 131.602C560.222 131.814 564.649 132.067 567.991 126.723Z" fill="#E04141"></path> <path d="M605.288 183.124C606.875 183.335 609.985 185.088 609.731 190.413C609.413 197.068 603.066 194.849 603.384 202.455M588.669 197.654C589.41 200.19 588.278 205.562 584.724 206.829M589.938 172.693C590.785 175.546 591.716 181.884 588.669 184.419C585.623 186.954 589.515 188.856 591.843 189.49M605.288 155.069C604.336 156.971 603.765 162.105 609.096 167.43M594.393 156.527C592.87 158.809 592.489 162.549 592.489 164.133M623.612 167.927C621.814 170.145 618.915 175.279 621.708 178.068C624.5 180.857 625.199 184.512 625.199 185.991M627.271 150.758C630.572 153.547 629.704 156.991 628.858 158.364M574.972 190.413C576.03 192.737 572.635 198.783 570.096 203.347M620.658 197.596C621.61 199.498 622.181 204.632 616.85 209.956M634.189 96.2764C631.937 89.5071 636.63 83.4504 639.603 81.0538C633.9 75.3533 628.802 80.406 626.966 83.6449C624.805 82.6732 620.29 79.6933 619.513 75.5475M598.306 208.222C590.176 221.675 560.344 216.051 536.315 223.894C533.863 224.695 529.999 226.324 528.653 227.029" stroke="#E04141" stroke-linecap="round" stroke-linejoin="round"></path> <path d="M505.235 55.3447L506.041 53.4933C506.254 53.0038 506.94 52.9809 507.185 53.4551L508.181 55.3798C508.23 55.474 508.322 55.5376 508.428 55.5493L510.197 55.7444C510.768 55.8074 510.968 56.5354 510.509 56.8805L509.221 57.85C509.11 57.9335 509.066 58.0793 509.113 58.2099L509.696 59.8392C509.883 60.3617 509.356 60.8551 508.846 60.6337L506.972 59.8184L506.658 59.7286L506.402 59.8551L505.016 60.7929C504.563 61.0992 503.961 60.7275 504.032 60.1857L504.278 58.3068C504.295 58.1798 504.234 58.0552 504.123 57.9912L502.777 57.2145C502.284 56.93 502.387 56.1906 502.939 56.0513L505.022 55.5255C505.117 55.5015 505.196 55.4347 505.235 55.3447Z" fill="#0085FF"></path> <path d="M511.747 99.0407L512.626 97.0221C512.858 96.4885 513.606 96.4635 513.873 96.9805L514.959 99.0789C515.012 99.1816 515.113 99.2509 515.228 99.2636L517.157 99.4764C517.779 99.545 517.997 100.339 517.497 100.715L516.092 101.772C515.972 101.863 515.924 102.022 515.975 102.164L516.611 103.941C516.815 104.51 516.239 105.048 515.684 104.807L513.641 103.918L513.298 103.82L513.019 103.958L511.508 104.98C511.014 105.314 510.357 104.909 510.435 104.318L510.704 102.27C510.722 102.131 510.655 101.996 510.534 101.926L509.067 101.079C508.529 100.769 508.641 99.9628 509.243 99.8109L511.515 99.2377C511.618 99.2116 511.704 99.1388 511.747 99.0407Z" fill="#AD00FF"></path> <path d="M467.97 75.4725L467.721 73.2852C467.655 72.7069 468.291 72.3115 468.781 72.6256L470.771 73.9004C470.868 73.9628 470.99 73.9724 471.096 73.9259L472.873 73.146C473.446 72.8946 474.032 73.4731 473.787 74.0488L473.099 75.6661C473.04 75.8053 473.079 75.9668 473.194 76.0646L474.633 77.2852C475.095 77.6767 474.865 78.4301 474.264 78.4984L472.05 78.7499L471.704 78.8363L471.531 79.0953L470.734 80.7359C470.474 81.2718 469.702 81.249 469.474 80.6987L468.682 78.7903C468.629 78.6613 468.503 78.5772 468.363 78.5772H466.669C466.048 78.5772 465.742 77.823 466.187 77.3908L467.867 75.7593C467.944 75.6847 467.982 75.5788 467.97 75.4725Z" fill="#AD00FF"></path> <path d="M522.213 73.3711L523.984 72.0622C524.452 71.7162 525.112 72.0684 525.085 72.6497L524.975 75.0095C524.97 75.125 525.023 75.2355 525.116 75.3039L526.68 76.4524C527.185 76.8227 526.976 77.6189 526.355 77.6949L524.61 77.9083C524.46 77.9266 524.339 78.0405 524.312 78.1893L523.974 80.0453C523.865 80.6406 523.098 80.8189 522.738 80.3324L521.413 78.5414L521.165 78.2854L520.855 78.2654L519.034 78.3956C518.44 78.4381 518.074 77.7589 518.437 77.2861L519.694 75.6466C519.779 75.5358 519.789 75.3847 519.719 75.2637L518.872 73.797C518.562 73.2598 519.062 72.6178 519.659 72.787L521.913 73.4257C522.016 73.4549 522.127 73.4347 522.213 73.3711Z" fill="#FF3049"></path> <path d="M480.537 41.2474C470.554 65.5711 475.203 83.6868 484.271 102.735C484.495 103.328 484.728 103.816 484.969 104.187C484.733 103.702 484.501 103.219 484.271 102.735C480.752 93.4393 479.312 58.2677 480.537 41.2474Z" fill="#CDE0F2"></path> <path d="M538.083 46.8483C513.817 56.9922 504.288 73.0876 497.224 92.9656C496.964 93.5433 496.783 94.0526 496.691 94.4854C496.868 93.9764 497.045 93.4697 497.224 92.9656C501.313 83.9055 525.176 58.0178 538.083 46.8483Z" fill="#CDE0F2"></path> <path d="M519.286 88.6715C506.972 90.3347 500.655 96.5147 495 104.722C494.81 104.954 494.665 105.164 494.571 105.35C494.713 105.14 494.856 104.93 495 104.722C497.974 101.087 512.03 92.1909 519.286 88.6715Z" fill="#CDE0F2"></path> <path d="M476.293 107.015L477.421 102.808C477.835 101.587 476.513 98.7432 470.026 97.0061C463.865 95.3559 461.289 97.1847 460.963 98.4003L459.892 102.398C459.812 102.695 459.832 103.013 459.98 103.283C462.842 108.491 473.766 109.671 476.056 107.457C476.179 107.339 476.249 107.18 476.293 107.015Z" fill="#FFB024"></path> <path d="M477.083 102.932C476.111 104.551 473.035 105.629 468.071 104.299C462.744 102.872 460.881 100.017 461.529 98.0734" stroke="#262626" stroke-linecap="round" stroke-linejoin="round"></path> <path d="M493.41 67.3226V62.967C493.494 61.6806 491.479 59.2756 484.765 59.2756C478.386 59.2756 476.371 61.7086 476.371 62.967V67.1054C476.371 67.4132 476.473 67.7156 476.686 67.9378C480.799 72.2281 491.656 70.5414 493.295 67.8111C493.383 67.6646 493.41 67.4934 493.41 67.3226Z" fill="#FFB024"></path> <path d="M493.115 63.1738C492.595 64.9896 489.903 66.8259 484.764 66.8259C479.249 66.8259 476.71 64.5496 476.833 62.5048" stroke="#262626" stroke-linecap="round" stroke-linejoin="round"></path> <path d="M531.026 42.4546L527.252 40.2768C526.18 39.5609 523.089 40.1019 519.731 45.9145C516.542 51.4362 517.643 54.3963 518.733 55.0255L522.319 57.0948C522.585 57.2487 522.898 57.3117 523.197 57.2384C528.971 55.8236 532.938 45.5823 531.392 42.7983C531.309 42.649 531.174 42.54 531.026 42.4546Z" fill="#FFB024"></path> <path d="M527.284 40.6349C528.598 41.9928 528.843 45.2414 526.273 49.6896C523.515 54.464 520.274 55.5233 518.563 54.3946" stroke="#262626" stroke-linecap="round" stroke-linejoin="round"></path> <path d="M517.186 83.6669L515.007 79.8948C514.437 78.7388 511.489 77.6626 505.674 81.0185C500.15 84.2065 499.622 87.3202 500.252 88.41L502.322 91.994C502.476 92.2605 502.715 92.4716 503.011 92.5575C508.719 94.2177 517.277 87.331 517.331 84.1474C517.334 83.9766 517.272 83.8148 517.186 83.6669Z" fill="#FFB024"></path> <path d="M514.856 80.221C515.314 82.0534 513.901 84.9891 509.451 87.5573C504.674 90.3138 501.337 89.6111 500.421 87.7789" stroke="#262626" stroke-linecap="round" stroke-linejoin="round"></path> <path d="M556.474 62.7692C544.149 61.1901 536.447 65.5254 528.86 71.9901C528.616 72.1649 528.422 72.3307 528.283 72.486C528.475 72.3194 528.667 72.154 528.86 71.9901C532.673 69.2487 548.554 64.2916 556.474 62.7692Z" fill="#CDE0F2"></path> <path d="M575.558 48.8728C563.466 46.0146 555.353 49.5214 547.131 55.158C546.871 55.3064 546.66 55.451 546.505 55.5909C546.714 55.4453 546.922 55.3009 547.131 55.158C551.21 52.8301 567.522 49.5593 575.558 48.8728Z" fill="#CDE0F2"></path> <path d="M510.391 32.2304C500.558 39.8248 498.179 48.3338 497.388 58.2677C497.339 58.5633 497.319 58.8177 497.33 59.0264C497.348 58.7726 497.367 58.5197 497.388 58.2677C498.145 53.6339 505.867 38.9046 510.391 32.2304Z" fill="#CDE0F2"></path> <path d="M499.983 64.6231C489.162 78.8185 489.026 91.5127 491.623 105.595C491.666 106.023 491.733 106.383 491.826 106.669C491.757 106.31 491.689 105.952 491.623 105.595C490.95 98.8815 496.188 75.5678 499.983 64.6231Z" fill="#CDE0F2"></path> <path d="M483.87 88.2114L484.169 86.2145C484.249 85.6865 484.905 85.4869 485.265 85.8815L486.725 87.4831C486.797 87.5615 486.903 87.599 487.007 87.5829L488.767 87.3137C489.335 87.2269 489.716 87.8784 489.363 88.3304L488.369 89.6002C488.284 89.7094 488.279 89.8616 488.358 89.9757L489.343 91.3985C489.659 91.8549 489.277 92.468 488.728 92.3858L486.707 92.0832L486.38 92.0777L486.165 92.2663L485.069 93.5307C484.711 93.9437 484.033 93.7404 483.962 93.1986L483.713 91.32C483.697 91.193 483.605 91.0886 483.481 91.0554L481.98 90.6533C481.43 90.5061 481.338 89.7653 481.835 89.4879L483.711 88.4411C483.797 88.3933 483.856 88.3085 483.87 88.2114Z" fill="#FF3049"></path> <path d="M635.233 87.0823L630.182 89.0972C629.57 89.3415 629.475 90.2264 629.957 90.6847C633.469 94.0244 635.106 100.654 635.674 105.109C635.77 105.862 636.695 106.114 637.041 105.444C640.294 99.1455 638.098 91.3406 636.207 87.4541C636.028 87.087 635.605 86.9336 635.233 87.0823Z" fill="#E04141"></path> </g> </svg> 