<?xml version="1.0" encoding="UTF-8"?> <svg xmlns="http://www.w3.org/2000/svg" width="300" height="345" viewBox="0 0 300 345" fill="none"> <g clip-path="url(#clip0)"> <circle cx="24" cy="283" r="34" fill="url(#paint0_linear)"></circle> <path d="M15.6953 290H8.04688V288.695L11.8359 284.562C12.3828 283.953 12.7708 283.445 13 283.039C13.2344 282.628 13.3516 282.216 13.3516 281.805C13.3516 281.263 13.1979 280.826 12.8906 280.492C12.5885 280.159 12.1797 279.992 11.6641 279.992C11.0495 279.992 10.5729 280.18 10.2344 280.555C9.89583 280.93 9.72656 281.443 9.72656 282.094H7.82812C7.82812 281.401 7.98438 280.779 8.29688 280.227C8.61458 279.669 9.0651 279.237 9.64844 278.93C10.237 278.622 10.9141 278.469 11.6797 278.469C12.7839 278.469 13.6536 278.747 14.2891 279.305C14.9297 279.857 15.25 280.622 15.25 281.602C15.25 282.169 15.0885 282.766 14.7656 283.391C14.4479 284.01 13.9245 284.716 13.1953 285.508L10.4141 288.484H15.6953V290ZM23.5625 285.945H24.9766V287.469H23.5625V290H21.6641V287.469H16.75L16.6953 286.312L21.6016 278.625H23.5625V285.945ZM18.6875 285.945H21.6641V281.195L21.5234 281.445L18.6875 285.945ZM26.8906 290.977H25.3984L29.875 278.625H31.3672L26.8906 290.977ZM40.1328 279.68L35.5859 290H33.5938L38.1328 280.148H32.25V278.625H40.1328V279.68Z" fill="white"></path> <circle cx="198" cy="314" r="24" fill="url(#paint1_linear)"></circle> <path d="M192.81 318.353H188.029V317.537L190.397 314.954C190.739 314.574 190.982 314.256 191.125 314.002C191.271 313.745 191.345 313.488 191.345 313.231C191.345 312.892 191.249 312.619 191.057 312.411C190.868 312.202 190.612 312.098 190.29 312.098C189.906 312.098 189.608 312.215 189.396 312.45C189.185 312.684 189.079 313.005 189.079 313.411H187.893C187.893 312.979 187.99 312.59 188.186 312.245C188.384 311.896 188.666 311.626 189.03 311.434C189.398 311.242 189.821 311.146 190.3 311.146C190.99 311.146 191.534 311.32 191.931 311.668C192.331 312.013 192.531 312.492 192.531 313.104C192.531 313.459 192.43 313.831 192.229 314.222C192.03 314.609 191.703 315.05 191.247 315.545L189.509 317.406H192.81V318.353ZM197.727 315.819H198.61V316.771H197.727V318.353H196.54V316.771H193.469L193.435 316.048L196.501 311.244H197.727V315.819ZM194.68 315.819H196.54V312.85L196.452 313.006L194.68 315.819ZM199.807 318.963H198.874L201.672 311.244H202.604L199.807 318.963ZM208.083 311.903L205.241 318.353H203.996L206.833 312.196H203.156V311.244H208.083V311.903Z" fill="white"></path> <path fill-rule="evenodd" clip-rule="evenodd" d="M265.696 291.141C265.028 291.703 264.039 291.658 263.422 291.042L256.266 283.882C255.938 283.552 255.758 283.099 255.774 282.635C255.791 282.167 256 281.729 256.352 281.423C265.545 273.412 277.318 269 289.503 269C301.689 269 313.462 273.412 322.653 281.423C323.004 281.73 323.213 282.169 323.23 282.635C323.247 283.1 323.067 283.553 322.738 283.883L315.581 291.042C315.253 291.368 314.822 291.535 314.389 291.535C314.007 291.535 313.622 291.405 313.307 291.141C306.651 285.549 298.197 282.469 289.501 282.469C280.805 282.469 272.352 285.549 265.696 291.141ZM327.577 286.347C327.27 285.995 326.831 285.786 326.365 285.771C325.9 285.729 325.447 285.934 325.115 286.263L317.958 293.422C317.34 294.04 317.298 295.026 317.859 295.696C323.453 302.35 326.531 310.806 326.531 319.502C326.531 328.197 323.451 336.651 317.859 343.307C317.298 343.975 317.34 344.962 317.958 345.581L325.115 352.74C325.432 353.057 325.86 353.234 326.307 353.234C326.326 353.234 326.346 353.234 326.365 353.232C326.831 353.217 327.27 353.008 327.577 352.656C335.588 343.462 340 331.689 340 319.503C340 307.317 335.589 295.541 327.577 286.347ZM261.141 343.306C255.547 336.652 252.469 328.196 252.469 319.5C252.469 310.804 255.549 302.351 261.141 295.695C261.702 295.027 261.66 294.04 261.042 293.42L253.884 286.261C253.554 285.933 253.098 285.741 252.635 285.769C252.169 285.784 251.729 285.993 251.423 286.345C243.412 295.54 239 307.313 239 319.499C239 331.684 243.412 343.457 251.423 352.652C251.729 353.004 252.169 353.213 252.635 353.228C252.642 353.228 252.65 353.229 252.658 353.229C252.669 353.229 252.681 353.229 252.692 353.229C253.138 353.229 253.566 353.053 253.884 352.736L261.042 345.577C261.659 344.96 261.703 343.974 261.141 343.306ZM315.58 347.959C314.963 347.341 313.974 347.295 313.306 347.859C306.65 353.451 298.197 356.532 289.501 356.532C280.805 356.532 272.351 353.451 265.695 347.859C265.027 347.296 264.039 347.341 263.421 347.959L256.263 355.118C255.935 355.448 255.755 355.901 255.772 356.365C255.788 356.831 255.997 357.271 256.349 357.577C265.54 365.588 277.315 370 289.499 370C301.683 370 313.458 365.588 322.651 357.577C323.002 357.271 323.211 356.833 323.228 356.365C323.245 355.901 323.065 355.448 322.736 355.118L315.58 347.959ZM289.505 290.887C290.082 290.888 290.619 291.185 290.927 291.673C291.185 292.079 297.018 300.983 311.383 300.981C311.829 300.981 312.258 301.16 312.575 301.476C312.891 301.795 313.068 302.224 313.066 302.672L313.004 319.199C313.004 327.646 310.233 335.608 305.203 341.607C300.649 347.041 295.364 349.798 289.5 349.798C283.635 349.798 278.351 347.043 273.796 341.607C268.766 335.608 265.995 327.646 265.995 319.194L265.933 302.674C265.933 302.226 266.108 301.795 266.424 301.478C266.739 301.16 267.169 300.983 267.616 300.983C282.005 300.983 287.833 292.052 288.074 291.671C288.384 291.181 288.922 290.902 289.505 290.887ZM300.852 313.938C300.909 313.849 300.965 313.76 301.022 313.671C301.521 312.886 301.29 311.846 300.504 311.344C299.718 310.848 298.678 311.078 298.179 311.861L287.702 328.326L284.113 323.54C283.556 322.796 282.501 322.648 281.757 323.204C281.012 323.761 280.861 324.816 281.42 325.558C281.437 325.581 281.455 325.604 281.472 325.627C281.489 325.651 281.507 325.674 281.524 325.696C281.777 326.034 282.03 326.372 282.283 326.709C282.604 327.136 282.925 327.564 283.245 327.991C283.758 328.675 284.271 329.36 284.786 330.045C285.041 330.385 285.296 330.725 285.551 331.065C285.634 331.176 285.718 331.294 285.804 331.415C286.368 332.208 287.015 333.116 288.094 332.928C288.853 332.795 289.221 332.214 289.597 331.621C289.61 331.6 289.623 331.58 289.636 331.56C290.033 330.94 290.428 330.318 290.823 329.697L290.916 329.551C292.511 327.044 294.107 324.537 295.702 322.03C297.301 319.517 298.9 317.005 300.499 314.492C300.617 314.308 300.734 314.123 300.852 313.938Z" fill="url(#paint2_linear)"></path> <path fill-rule="evenodd" clip-rule="evenodd" d="M79.1584 318.084C78.8541 318.34 78.404 318.319 78.1226 318.039L74.8636 314.778C74.7141 314.628 74.6321 314.422 74.6397 314.21C74.6474 313.997 74.7425 313.797 74.9027 313.658C79.0895 310.01 84.4518 308 90.0015 308C95.5512 308 100.913 310.01 105.099 313.658C105.259 313.798 105.354 313.998 105.362 314.21C105.37 314.422 105.288 314.628 105.138 314.778L101.878 318.039C101.729 318.188 101.533 318.263 101.336 318.263C101.162 318.263 100.986 318.204 100.843 318.084C97.8113 315.537 93.9611 314.134 90.0005 314.134C86.04 314.134 82.1898 315.537 79.1584 318.084ZM107.342 315.901C107.202 315.74 107.002 315.645 106.79 315.638C106.578 315.619 106.372 315.713 106.221 315.862L102.961 319.123C102.68 319.404 102.661 319.853 102.916 320.159C105.464 323.189 106.866 327.04 106.866 331.001C106.866 334.961 105.463 338.811 102.916 341.843C102.661 342.147 102.68 342.596 102.961 342.879L106.221 346.139C106.365 346.283 106.56 346.364 106.764 346.364L106.778 346.364C106.782 346.364 106.786 346.363 106.79 346.363C107.002 346.356 107.202 346.261 107.342 346.101C110.991 341.913 113 336.551 113 331.001C113 325.451 110.991 320.088 107.342 315.901ZM77.084 341.842C74.5364 338.812 73.1343 334.961 73.1343 331C73.1343 327.04 74.5373 323.189 77.084 320.158C77.3394 319.854 77.3202 319.404 77.0388 319.122L73.7789 315.861C73.6286 315.712 73.4207 315.624 73.21 315.638C72.9977 315.644 72.7975 315.74 72.658 315.9C69.0095 320.087 67 325.449 67 330.999C67 336.549 69.0095 341.911 72.658 346.099C72.7975 346.259 72.9977 346.354 73.21 346.361C73.2184 346.362 73.2276 346.362 73.236 346.362C73.4391 346.362 73.6339 346.281 73.7789 346.137L77.0388 342.876C77.32 342.596 77.34 342.147 77.084 341.842ZM101.878 343.961C101.597 343.68 101.147 343.659 100.842 343.916C97.811 346.463 93.9608 347.866 90.0003 347.866C86.0397 347.866 82.1895 346.463 79.1581 343.916C78.8538 343.659 78.4037 343.68 78.1223 343.961L74.8624 347.222C74.7129 347.372 74.6309 347.578 74.6385 347.79C74.6461 348.002 74.7412 348.203 74.9015 348.342C79.0875 351.991 84.4503 354 89.9995 354C95.5486 354 100.911 351.99 105.098 348.342C105.259 348.203 105.354 348.003 105.361 347.79C105.369 347.578 105.287 347.372 105.137 347.222L101.878 343.961ZM90.0023 317.968C90.2653 317.969 90.5099 318.104 90.6502 318.326C90.7674 318.511 93.4241 322.567 99.9666 322.566C100.17 322.566 100.365 322.647 100.509 322.791C100.654 322.936 100.734 323.132 100.733 323.336L100.705 330.863C100.705 334.71 99.4429 338.336 97.1522 341.069C95.0777 343.544 92.6711 344.799 90 344.799C87.3288 344.799 84.9224 343.544 82.8477 341.069C80.557 338.336 79.295 334.71 79.295 330.861L79.2666 323.337C79.2666 323.132 79.3463 322.936 79.4905 322.792C79.6339 322.647 79.8294 322.567 80.0333 322.567C86.5867 322.567 89.2411 318.499 89.3507 318.326C89.4917 318.102 89.7369 317.975 90.0023 317.968ZM95.1703 328.467C95.1961 328.426 95.222 328.386 95.2479 328.345C95.4749 327.988 95.3699 327.514 95.0117 327.286C94.6538 327.059 94.1801 327.164 93.9531 327.521L89.1814 335.02L87.5468 332.84C87.293 332.501 86.8124 332.434 86.4734 332.687C86.1345 332.941 86.0654 333.421 86.32 333.759C86.3246 333.765 86.3291 333.771 86.3335 333.777C86.3449 333.792 86.3561 333.807 86.3676 333.822C86.4828 333.976 86.5981 334.13 86.7132 334.283C86.8593 334.478 87.0053 334.672 87.1511 334.867C87.3829 335.176 87.6152 335.486 87.8475 335.795C87.9655 335.953 88.0834 336.11 88.2014 336.267C88.2393 336.318 88.2776 336.371 88.3167 336.426C88.5738 336.788 88.8681 337.202 89.3599 337.116C89.7053 337.055 89.873 336.791 90.0445 336.52C90.0504 336.511 90.0563 336.502 90.0622 336.492C90.2432 336.21 90.4234 335.926 90.6036 335.643L90.6449 335.578C91.3731 334.434 92.101 333.29 92.829 332.146C93.5558 331.004 94.2826 329.861 95.0096 328.719C95.0633 328.635 95.1168 328.551 95.1703 328.467Z" fill="url(#paint3_linear)"></path> <path fill-rule="evenodd" clip-rule="evenodd" d="M129.78 264.111C129.535 264.317 129.173 264.3 128.946 264.075L126.325 261.452C126.205 261.331 126.139 261.165 126.145 260.995C126.151 260.824 126.228 260.663 126.356 260.551C129.724 257.616 134.037 256 138.501 256C142.965 256 147.278 257.616 150.645 260.551C150.774 260.663 150.85 260.824 150.857 260.995C150.863 261.165 150.797 261.331 150.676 261.452L148.054 264.075C147.934 264.194 147.776 264.255 147.618 264.255C147.478 264.255 147.337 264.208 147.221 264.111C144.783 262.063 141.686 260.934 138.5 260.934C135.315 260.934 132.218 262.063 129.78 264.111ZM152.449 262.355C152.337 262.226 152.176 262.149 152.005 262.144C151.835 262.128 151.669 262.204 151.547 262.324L148.925 264.947C148.699 265.173 148.684 265.534 148.889 265.78C150.938 268.217 152.066 271.315 152.066 274.501C152.066 277.686 150.938 280.783 148.889 283.222C148.684 283.466 148.699 283.828 148.925 284.055L151.547 286.677C151.663 286.793 151.82 286.858 151.984 286.858C151.991 286.858 151.998 286.858 152.005 286.857C152.176 286.852 152.337 286.775 152.449 286.646C155.384 283.278 157 278.965 157 274.501C157 270.037 155.384 265.723 152.449 262.355ZM128.111 283.221C126.062 280.783 124.934 277.686 124.934 274.5C124.934 271.314 126.063 268.218 128.111 265.779C128.317 265.535 128.301 265.173 128.075 264.946L125.453 262.323C125.332 262.203 125.165 262.133 124.995 262.143C124.824 262.149 124.663 262.225 124.551 262.354C121.616 265.722 120 270.035 120 274.5C120 278.964 121.616 283.277 124.551 286.645C124.663 286.774 124.824 286.85 124.995 286.856C125.002 286.856 125.009 286.856 125.016 286.856C125.179 286.856 125.336 286.792 125.453 286.676L128.075 284.053C128.301 283.827 128.317 283.466 128.111 283.221ZM148.054 284.926C147.828 284.699 147.466 284.683 147.221 284.889C144.783 286.938 141.686 288.066 138.5 288.066C135.315 288.066 132.218 286.938 129.779 284.889C129.535 284.683 129.173 284.699 128.946 284.926L126.324 287.548C126.204 287.669 126.138 287.835 126.144 288.005C126.15 288.176 126.227 288.337 126.356 288.449C129.723 291.384 134.036 293 138.5 293C142.963 293 147.277 291.384 150.644 288.449C150.773 288.337 150.85 288.177 150.856 288.005C150.862 287.835 150.796 287.669 150.676 287.548L148.054 284.926ZM138.502 264.018C138.713 264.019 138.91 264.127 139.023 264.306C139.117 264.455 141.254 267.717 146.517 267.716C146.68 267.716 146.837 267.781 146.953 267.897C147.069 268.014 147.134 268.171 147.133 268.335L147.111 274.39C147.111 277.484 146.095 280.401 144.253 282.599C142.584 284.589 140.649 285.6 138.5 285.6C136.351 285.6 134.416 284.59 132.747 282.599C130.905 280.401 129.889 277.484 129.889 274.388L129.867 268.336C129.867 268.172 129.931 268.014 130.047 267.898C130.162 267.781 130.319 267.717 130.483 267.717C135.755 267.717 137.89 264.445 137.978 264.305C138.091 264.126 138.288 264.023 138.502 264.018ZM142.659 272.462C142.68 272.43 142.7 272.397 142.721 272.365C142.904 272.077 142.819 271.696 142.531 271.512C142.243 271.33 141.862 271.415 141.68 271.702L137.842 277.733L136.527 275.98C136.323 275.708 135.936 275.653 135.663 275.857C135.391 276.061 135.335 276.448 135.54 276.72C135.548 276.729 135.555 276.74 135.563 276.75C135.568 276.756 135.573 276.763 135.578 276.77C135.671 276.894 135.764 277.018 135.857 277.141C135.974 277.298 136.091 277.454 136.209 277.611C136.395 277.86 136.583 278.109 136.77 278.359C136.864 278.485 136.959 278.611 137.053 278.737C137.084 278.777 137.115 278.821 137.146 278.865C137.353 279.156 137.59 279.488 137.985 279.419C138.263 279.37 138.398 279.158 138.536 278.94C138.541 278.933 138.545 278.925 138.55 278.918C138.696 278.69 138.841 278.462 138.986 278.234L139.019 278.182C139.603 277.264 140.188 276.345 140.773 275.426C141.358 274.506 141.944 273.586 142.53 272.665C142.573 272.598 142.616 272.53 142.659 272.462Z" fill="url(#paint4_linear)"></path> </g> <defs> <linearGradient id="paint0_linear" x1="-85.5" y1="249" x2="84.9241" y2="303.097" gradientUnits="userSpaceOnUse"> <stop stop-color="#98CDFE"></stop> <stop offset="1" stop-color="#98CDFE" stop-opacity="0"></stop> </linearGradient> <linearGradient id="paint1_linear" x1="120.706" y1="290" x2="241.005" y2="328.186" gradientUnits="userSpaceOnUse"> <stop stop-color="#98CDFE"></stop> <stop offset="1" stop-color="#98CDFE" stop-opacity="0"></stop> </linearGradient> <linearGradient id="paint2_linear" x1="206" y1="218" x2="333.211" y2="372.503" gradientUnits="userSpaceOnUse"> <stop stop-color="#98CDFE"></stop> <stop offset="1" stop-color="#98CDFE" stop-opacity="0"></stop> </linearGradient> <linearGradient id="paint3_linear" x1="51.9703" y1="284.772" x2="109.908" y2="355.14" gradientUnits="userSpaceOnUse"> <stop stop-color="#98CDFE"></stop> <stop offset="1" stop-color="#98CDFE" stop-opacity="0"></stop> </linearGradient> <linearGradient id="paint4_linear" x1="107.911" y1="237.317" x2="154.513" y2="293.917" gradientUnits="userSpaceOnUse"> <stop stop-color="#98CDFE"></stop> <stop offset="1" stop-color="#98CDFE" stop-opacity="0"></stop> </linearGradient> <clipPath id="clip0"> <rect width="300" height="345" fill="white"></rect> </clipPath> </defs> </svg> 