<?xml version="1.0" encoding="UTF-8"?> <svg xmlns="http://www.w3.org/2000/svg" width="557" height="256" viewBox="0 0 557 256" fill="none"> <path d="M12.8592 246.493C16.0924 245.395 18.86 244.402 21.658 243.514C24.2253 242.699 26.8493 242.111 29.5646 242.207C30.5053 242.229 31.44 242.362 32.3496 242.603C33.2982 242.869 34.6124 243.161 34.5253 244.346C34.4427 245.434 33.098 245.003 32.3496 245.256C24.63 247.795 16.9932 250.543 9.72182 254.202C7.97961 255.1 6.09511 255.689 4.1519 255.944C0.927439 256.353 -0.787041 254.489 0.35305 251.406C1.52835 248.127 2.91055 244.927 4.49131 241.824C8.2249 234.681 12.1412 227.638 17.3674 221.436C17.9287 220.77 18.4596 220.073 19.0732 219.463C20.0914 218.457 21.2837 217.969 22.5761 218.923C23.9512 219.934 23.8555 221.306 23.1157 222.617C22.4369 223.81 21.584 224.903 20.8094 226.044L14.6259 235.191C15.6094 235.304 15.9096 234.755 16.2578 234.363C34.8386 214.328 57.8624 200.923 82.6094 190.191C108.644 178.869 135.975 170.803 163.982 166.175C176.075 164.176 188.268 163.074 200.509 162.382C211.314 161.772 222.114 161.868 232.91 162.121C244.568 162.391 256.212 163.183 267.844 164.08C273.332 164.502 278.828 164.814 284.332 165.017C290.859 165.27 297.386 165.361 303.913 165.531C326.106 166.114 348.299 165.966 370.491 165.905C381.509 165.871 392.536 165.844 403.563 165.444C429.598 164.499 455.476 162.112 480.884 155.94C498.034 151.777 514.391 145.788 528.316 134.599C541.766 123.793 549.895 109.569 551.544 92.4739C552.88 78.6282 548.672 65.7493 540.3 54.4646C531.927 43.1798 521.149 34.4952 509.252 27.1825C495.832 18.9073 481.755 12.1957 466.268 8.75933C455.564 6.46863 444.699 5.01247 433.771 4.40396C424.054 3.7855 414.341 3.85954 404.642 4.16006C391.979 4.55204 379.29 4.98758 366.827 7.68356C366.166 7.82728 365.239 8.36299 364.917 7.43094C364.538 6.32032 365.613 5.97189 366.405 5.6888C371.605 3.72452 377.071 2.9362 382.541 2.29161C399.397 0.348577 416.372 -0.360326 433.331 0.170544C467.808 1.14615 498.96 11.6252 526.127 33.1886C536.344 41.2983 545.33 50.6101 550.774 62.6265C558.554 79.7997 559.538 97.1385 550.896 114.516C546.883 122.587 542.288 130.196 535.557 136.245C527.45 143.523 518.181 149.102 508.194 153.384C491.602 160.496 474.096 164.272 456.346 166.92C438.784 169.539 421.075 171.046 403.323 171.432C372.798 172.107 342.272 171.733 311.746 171.654C302.908 171.654 294.066 171.302 285.241 170.827C273.161 170.169 261.099 169.233 249.028 168.436C245.917 168.231 242.805 168.035 239.694 167.922C229.115 167.534 218.533 167.103 207.95 167.486C180.823 168.466 154.135 172.208 128.004 179.847C106.281 186.193 85.2725 194.198 65.1816 204.651C45.4389 214.925 28.3941 228.562 13.7687 245.286C13.5381 245.543 13.3553 245.835 12.8592 246.493Z" fill="#F5B53D"></path> </svg> 