<?xml version="1.0" encoding="UTF-8"?> <svg xmlns="http://www.w3.org/2000/svg" width="328" height="15" viewBox="0 0 328 15" fill="none"> <path d="M308.729 7.27335C303.976 6.52153 299.136 6.41482 294.296 6.47303C266.706 6.6622 239.141 6.80285 211.562 7.10358C196.557 7.2685 181.553 7.47707 166.596 8.07368C142.337 9.05833 118.112 9.86837 93.8191 9.31057C74.7164 8.85462 55.6137 8.53126 36.511 8.34047C26.2062 8.21921 15.9063 7.49163 5.60632 7.03569C4.15204 7.00562 2.7147 6.71655 1.36145 6.18199C0.572501 5.84731 -0.0325253 5.29921 0.00135616 4.36791C0.0352376 3.43662 0.79515 2.96126 1.62283 2.8594C4.04293 2.56352 6.41947 2.2725 8.82989 2.13668C18.5103 1.59343 28.1568 2.02027 37.8227 2.00087C63.3887 1.95236 88.9401 3.02918 114.501 3.05343C134.661 3.05343 154.781 1.7826 174.926 1.20054C185.401 0.89981 195.885 0.623326 206.364 0.603924C237.656 0.540868 268.943 -0.366172 300.235 0.167383C307.173 0.24187 314.087 1.01045 320.873 2.46167C322.694 2.83157 324.464 3.42115 326.144 4.21755C326.745 4.47425 327.247 4.91704 327.578 5.48096C327.909 6.04488 328.051 6.70026 327.983 7.35096C327.949 7.96477 327.726 8.55294 327.346 9.03546C326.966 9.51799 326.446 9.87147 325.859 10.0478C324.956 10.3949 324.018 10.6406 323.061 10.7803C314.915 11.9153 306.904 13.8943 298.7 14.5976C297.277 14.7189 295.06 15.6987 294.591 14.0689C294.121 12.4391 296.527 11.9929 297.785 11.3332C301.232 9.53368 304.944 8.34046 308.729 7.27335Z" fill="#FF3049"></path> </svg> 