<?xml version="1.0" encoding="UTF-8"?> <svg xmlns="http://www.w3.org/2000/svg" width="120" height="40" viewBox="0 0 120 40" fill="none"> <path d="M112.455 39.9873C112.15 39.9941 111.837 39.998 111.531 39.998L112.455 39.9873ZM112.455 39.9873C113.128 39.9789 113.798 39.9198 114.461 39.8105L112.455 39.9873ZM7.55 0.514768L7.54798 0.5148C6.90026 0.522396 6.25407 0.579196 5.61501 0.684701C5.00172 0.788441 4.40767 0.98384 3.8529 1.26428C3.30021 1.5466 2.79524 1.91335 2.35628 2.3512L2.35486 2.35262L2.35485 2.35261C1.91443 2.7884 1.54735 3.29206 1.2677 3.8442L1.26727 3.84505C0.985577 4.39858 0.790272 4.9917 0.688071 5.60392L0.687927 5.60478C0.580582 6.24096 0.52282 6.88446 0.515157 7.52953L0.515048 7.53876L0.514962 7.53875C0.508778 7.74249 0.506397 7.94339 0.503954 8.14937C0.50279 8.24761 0.501611 8.34701 0.5 8.44843V31.5547C0.501589 31.6559 0.502757 31.7542 0.503908 31.851C0.506367 32.0578 0.508746 32.2579 0.514968 32.4656L0.515239 32.4746H0.515157C0.522823 33.1196 0.580585 33.7631 0.687926 34.3992L0.688117 34.4004C0.790017 35.0128 0.9853 35.6062 1.26721 36.1598L1.26745 36.1603C1.54677 36.7103 1.91364 37.2115 2.35383 37.6446L2.35776 37.6484C2.7943 38.0875 3.29878 38.4539 3.85193 38.7335L3.8525 38.7338C4.40743 39.0151 5.00161 39.2119 5.61518 39.3174C6.25453 39.422 6.90083 39.4788 7.54868 39.4873L7.55308 39.4874C7.86003 39.4942 8.16089 39.498 8.46364 39.498H8.46637C8.83083 39.5 9.19213 39.5 9.55934 39.5H9.56145H110.444H110.446C110.806 39.5 111.17 39.5 111.528 39.498L111.531 39.498C111.832 39.498 112.142 39.4942 112.444 39.4874L112.449 39.4873C113.096 39.4793 113.74 39.4225 114.378 39.3175C114.994 39.2112 115.591 39.0144 116.149 38.7335C116.702 38.4538 117.206 38.0874 117.642 37.6486L117.645 37.6457C118.084 37.2103 118.453 36.7086 118.736 36.1592C119.015 35.6056 119.208 35.0129 119.309 34.4015L119.309 34.3991C119.417 33.7626 119.477 33.119 119.488 32.4737C119.492 32.1669 119.492 31.8694 119.492 31.5586V31.5479L119.492 31.5479C119.5 31.1908 119.5 30.8349 119.5 30.4648V9.53623C119.5 9.1691 119.5 8.81123 119.492 8.45523L119.492 8.44444C119.492 8.13738 119.492 7.83304 119.488 7.53022C119.477 6.88489 119.417 6.24133 119.309 5.60486L119.309 5.60275C119.208 4.99139 119.015 4.3988 118.736 3.84526C118.165 2.73685 117.26 1.83424 116.148 1.26437C115.591 0.98449 114.994 0.789053 114.378 0.684518C113.741 0.578607 113.096 0.521819 112.45 0.514659L112.447 0.514632C112.391 0.51372 112.334 0.512784 112.277 0.511848L7.55 0.514768ZM7.55 0.514768C7.61513 0.51374 7.67976 0.512677 7.74403 0.51162C7.9877 0.507612 8.22615 0.50369 8.46659 0.502121L7.55 0.514768ZM110.444 0.50013H110.88H9.56145H110.444Z" stroke="#333647"></path> <path d="M24.769 20.3008C24.7797 19.4662 25.0014 18.6478 25.4135 17.9218C25.8255 17.1959 26.4145 16.5859 27.1256 16.1488C26.6738 15.5036 26.0779 14.9727 25.385 14.5981C24.6922 14.2236 23.9216 14.0157 23.1344 13.9911C21.4552 13.8148 19.8272 14.9959 18.9715 14.9959C18.0992 14.9959 16.7817 14.0086 15.363 14.0378C14.4453 14.0674 13.551 14.3343 12.7671 14.8123C11.9832 15.2904 11.3365 15.9633 10.8901 16.7656C8.95607 20.1141 10.3987 25.0351 12.2513 27.7417C13.1782 29.0671 14.2615 30.5475 15.6789 30.495C17.066 30.4375 17.584 29.6105 19.2583 29.6105C20.9171 29.6105 21.4031 30.495 22.8493 30.4616C24.3377 30.4375 25.2754 29.1304 26.1698 27.7925C26.8358 26.8481 27.3483 25.8044 27.6882 24.7C26.8235 24.3343 26.0856 23.7221 25.5665 22.9398C25.0474 22.1575 24.77 21.2397 24.769 20.3008Z" fill="white"></path> <path d="M22.0373 12.2111C22.8489 11.2369 23.2487 9.98469 23.1518 8.72046C21.912 8.85068 20.7668 9.44324 19.9443 10.3801C19.5421 10.8377 19.2341 11.3702 19.0379 11.9469C18.8416 12.5237 18.761 13.1335 18.8006 13.7415C19.4207 13.7478 20.0342 13.6134 20.5949 13.3483C21.1555 13.0833 21.6487 12.6944 22.0373 12.2111Z" fill="white"></path> <path d="M42.3025 27.1399H37.5691L36.4324 30.4964H34.4275L38.9109 18.0784H40.9939L45.4773 30.4964H43.4382L42.3025 27.1399ZM38.0593 25.5911H41.8113L39.9617 20.1438H39.91L38.0593 25.5911Z" fill="white"></path> <path d="M55.1599 25.9699C55.1599 28.7834 53.6541 30.591 51.3816 30.591C50.806 30.6211 50.2335 30.4885 49.7297 30.2084C49.2259 29.9283 48.8112 29.5119 48.533 29.007H48.49V33.4914H46.6316V21.4426H48.4305V22.9485H48.4646C48.7556 22.446 49.1773 22.0318 49.6849 21.7499C50.1926 21.4681 50.7671 21.3291 51.3474 21.3479C53.6453 21.3479 55.1599 23.1643 55.1599 25.9699ZM53.2498 25.9699C53.2498 24.1369 52.3025 22.9319 50.8572 22.9319C49.4373 22.9319 48.4822 24.1623 48.4822 25.9699C48.4822 27.7942 49.4373 29.0158 50.8572 29.0158C52.3025 29.0158 53.2498 27.8196 53.2498 25.9699Z" fill="white"></path> <path d="M65.1248 25.9699C65.1248 28.7834 63.6189 30.591 61.3465 30.591C60.7708 30.6211 60.1983 30.4885 59.6945 30.2084C59.1907 29.9283 58.776 29.5119 58.4978 29.007H58.4548V33.4914H56.5964V21.4426H58.3953V22.9484H58.4294C58.7204 22.446 59.1421 22.0318 59.6498 21.7499C60.1574 21.4681 60.7319 21.3291 61.3123 21.3479C63.6101 21.3479 65.1248 23.1643 65.1248 25.9699ZM63.2146 25.9699C63.2146 24.1369 62.2674 22.9318 60.822 22.9318C59.4021 22.9318 58.447 24.1623 58.447 25.9699C58.447 27.7942 59.4021 29.0158 60.822 29.0158C62.2674 29.0158 63.2146 27.8195 63.2146 25.9699H63.2146Z" fill="white"></path> <path d="M71.7107 27.0364C71.8484 28.2679 73.0447 29.0764 74.6795 29.0764C76.2459 29.0764 77.3728 28.2678 77.3728 27.1575C77.3728 26.1936 76.6931 25.6165 75.0838 25.221L73.4744 24.8333C71.1941 24.2825 70.1355 23.2161 70.1355 21.4856C70.1355 19.343 72.0027 17.8713 74.6541 17.8713C77.2781 17.8713 79.0769 19.343 79.1375 21.4856H77.2615C77.1492 20.2463 76.1248 19.4983 74.6277 19.4983C73.1306 19.4983 72.1062 20.2551 72.1062 21.3567C72.1062 22.2346 72.7605 22.7512 74.3611 23.1467L75.7292 23.4826C78.2771 24.0852 79.3357 25.1086 79.3357 26.925C79.3357 29.2483 77.4851 30.7033 74.5417 30.7033C71.7878 30.7033 69.9285 29.2824 69.8083 27.0363L71.7107 27.0364Z" fill="white"></path> <path d="M83.3464 19.3V21.4426H85.0681V22.9143H83.3464V27.9055C83.3464 28.6809 83.6912 29.0422 84.448 29.0422C84.6524 29.0387 84.8564 29.0243 85.0593 28.9992V30.4621C84.719 30.5257 84.3732 30.5545 84.0271 30.5481C82.1941 30.5481 81.4792 29.8596 81.4792 28.1037V22.9143H80.1628V21.4426H81.4792V19.3H83.3464Z" fill="white"></path> <path d="M86.0652 25.97C86.0652 23.1213 87.7429 21.3313 90.3591 21.3313C92.9841 21.3313 94.6541 23.1213 94.6541 25.97C94.6541 28.8264 92.9929 30.6086 90.3591 30.6086C87.7263 30.6086 86.0652 28.8264 86.0652 25.97ZM92.7605 25.97C92.7605 24.0159 91.865 22.8625 90.3591 22.8625C88.8533 22.8625 87.9587 24.0247 87.9587 25.97C87.9587 27.9319 88.8533 29.0764 90.3591 29.0764C91.865 29.0764 92.7605 27.9319 92.7605 25.97H92.7605Z" fill="white"></path> <path d="M96.1863 21.4428H97.9587V22.9837H98.0017C98.1217 22.5025 98.4036 22.0771 98.8002 21.7792C99.1968 21.4814 99.6838 21.3291 100.179 21.348C100.394 21.3473 100.607 21.3705 100.816 21.4174V23.1556C100.546 23.073 100.264 23.0351 99.9812 23.0433C99.7112 23.0324 99.4421 23.08 99.1922 23.1829C98.9424 23.2858 98.7178 23.4415 98.5338 23.6394C98.3498 23.8373 98.2108 24.0726 98.1264 24.3293C98.042 24.586 98.0141 24.8579 98.0447 25.1263V30.4965H96.1863L96.1863 21.4428Z" fill="white"></path> <path d="M109.385 27.8372C109.135 29.4807 107.534 30.6086 105.486 30.6086C102.852 30.6086 101.218 28.844 101.218 26.0129C101.218 23.1731 102.861 21.3313 105.408 21.3313C107.913 21.3313 109.488 23.052 109.488 25.7971V26.4338H103.094V26.5461C103.064 26.8793 103.106 27.215 103.216 27.5308C103.326 27.8467 103.502 28.1355 103.733 28.378C103.963 28.6206 104.242 28.8113 104.552 28.9376C104.862 29.0639 105.195 29.1229 105.529 29.1106C105.968 29.1517 106.409 29.05 106.786 28.8206C107.162 28.5911 107.455 28.2462 107.62 27.8371L109.385 27.8372ZM103.102 25.135H107.629C107.645 24.8354 107.6 24.5356 107.495 24.2544C107.391 23.9732 107.229 23.7166 107.02 23.5009C106.812 23.2851 106.561 23.1148 106.284 23.0006C106.006 22.8863 105.708 22.8307 105.408 22.8372C105.105 22.8354 104.805 22.8935 104.525 23.0082C104.245 23.123 103.991 23.292 103.776 23.5057C103.562 23.7193 103.392 23.9733 103.276 24.2529C103.161 24.5326 103.102 24.8324 103.102 25.135V25.135Z" fill="white"></path> <path d="M36.7383 11.2536H37.5361C37.6735 11.2707 37.8129 11.2592 37.9455 11.2198C38.0782 11.1803 38.2013 11.1138 38.307 11.0245C38.4127 10.9351 38.4987 10.8248 38.5596 10.7005C38.6206 10.5763 38.6552 10.4407 38.6611 10.3025C38.6611 9.75217 38.2471 9.3967 37.5449 9.3967C37.4042 9.37704 37.261 9.38577 37.1237 9.42238C36.9864 9.45899 36.8579 9.52273 36.7456 9.60985C36.6334 9.69696 36.5397 9.80569 36.4702 9.92959C36.4007 10.0535 36.3567 10.1901 36.3408 10.3313H35.4648C35.4799 10.075 35.5476 9.82452 35.6636 9.59551C35.7797 9.3665 35.9417 9.16383 36.1394 9.00013C36.3372 8.83643 36.5666 8.71519 36.8133 8.64397C37.0599 8.57275 37.3186 8.55307 37.5732 8.58615C38.748 8.58615 39.5752 9.24386 39.5752 10.1906C39.578 10.5078 39.4719 10.8163 39.2746 11.0647C39.0773 11.3131 38.8008 11.4863 38.4912 11.5554V11.6257C38.8582 11.642 39.2038 11.8029 39.4525 12.0733C39.7012 12.3437 39.8328 12.7015 39.8184 13.0686C39.7912 13.3325 39.7116 13.5883 39.5843 13.821C39.457 14.0538 39.2845 14.2588 39.077 14.424C38.8694 14.5892 38.631 14.7113 38.3756 14.7832C38.1202 14.8551 37.8531 14.8752 37.5898 14.8425C37.326 14.8785 37.0577 14.861 36.8008 14.791C36.5439 14.721 36.3037 14.6001 36.0946 14.4353C35.8854 14.2705 35.7116 14.0653 35.5834 13.832C35.4553 13.5986 35.3754 13.3418 35.3486 13.0769H36.2383C36.292 13.6477 36.8164 14.0159 37.5898 14.0159C38.3633 14.0159 38.8682 13.6023 38.8682 13.0193C38.8682 12.428 38.3926 12.0637 37.5615 12.0637H36.7383V11.2536Z" fill="white"></path> <path d="M40.8291 13.4246C40.8291 12.614 41.4336 12.1467 42.5039 12.0803L43.7236 12.01V11.6213C43.7236 11.1457 43.4102 10.8772 42.8018 10.8772C42.3057 10.8772 41.9629 11.0593 41.8633 11.3777H41.0029C41.0937 10.6042 41.8223 10.1082 42.8438 10.1082C43.9727 10.1082 44.6094 10.6702 44.6094 11.6213V14.698H43.7529V14.0652H43.6826C43.5399 14.2922 43.3395 14.4772 43.1019 14.6014C42.8643 14.7256 42.5979 14.7846 42.3301 14.7722C42.141 14.7918 41.95 14.7717 41.7692 14.713C41.5885 14.6543 41.422 14.5584 41.2806 14.4314C41.1392 14.3044 41.0259 14.1492 40.9482 13.9758C40.8704 13.8024 40.8298 13.6146 40.8291 13.4246ZM43.7236 13.0398V12.6633L42.624 12.7336C42.0039 12.7751 41.7226 12.9861 41.7226 13.383C41.7226 13.7883 42.0742 14.0242 42.5576 14.0242C42.6993 14.0385 42.8423 14.0242 42.9784 13.9821C43.1144 13.94 43.2405 13.871 43.3493 13.7792C43.4581 13.6873 43.5473 13.5745 43.6116 13.4475C43.6759 13.3205 43.714 13.1818 43.7236 13.0398Z" fill="white"></path> <path d="M46.9678 10.9431V14.698H46.0791V10.1951H49.044V10.9431L46.9678 10.9431Z" fill="white"></path> <path d="M54.4297 12.4445C54.4297 13.8752 53.7061 14.7722 52.5693 14.7722C52.2903 14.7912 52.0116 14.7302 51.7661 14.5962C51.5206 14.4622 51.3185 14.2608 51.1836 14.0158H51.1133V16.195H50.2246V10.195H51.0801V10.9392H51.1465C51.2838 10.6856 51.4886 10.475 51.7381 10.3305C51.9877 10.186 52.2723 10.1132 52.5606 10.1203C53.7061 10.1203 54.4297 11.0134 54.4297 12.4445ZM53.5156 12.4445C53.5156 11.4934 53.0654 10.9187 52.3125 10.9187C51.5645 10.9187 51.0967 11.5056 51.0967 12.4484C51.0967 13.3869 51.5645 13.9743 52.3086 13.9743C53.0654 13.9743 53.5156 13.3996 53.5156 12.4445Z" fill="white"></path> <path d="M55.6133 16.3108V15.5457C55.7095 15.5579 55.8064 15.5634 55.9033 15.5623C56.0927 15.5763 56.2805 15.5199 56.4308 15.4039C56.5811 15.2879 56.6833 15.1205 56.7178 14.9338L56.7842 14.7146L55.1543 10.1951H56.1221L57.251 13.7717H57.3213L58.4463 10.1951H59.3887L57.71 14.884C57.3252 15.9797 56.8995 16.3313 55.9815 16.3313C55.9073 16.3313 55.6963 16.323 55.6133 16.3108Z" fill="white"></path> <path d="M60.0811 13.42H60.9658C61.0527 13.817 61.4248 14.024 61.9453 14.024C62.5371 14.024 62.9004 13.7633 62.9004 13.358C62.9004 12.9239 62.5742 12.7169 61.9453 12.7169H61.2715V12.0265H61.9336C62.4707 12.0265 62.7441 11.8199 62.7441 11.4435C62.7441 11.1129 62.4795 10.8605 61.9336 10.8605C61.4365 10.8605 61.0732 11.0714 61.0156 11.4269H60.1592C60.2232 11.0184 60.445 10.6514 60.7768 10.4048C61.1086 10.1581 61.524 10.0516 61.9336 10.108C63.0039 10.108 63.6162 10.5919 63.6162 11.3527C63.6212 11.5645 63.5533 11.7717 63.4239 11.9395C63.2945 12.1073 63.1114 12.2256 62.9053 12.2746V12.3449C63.1507 12.3765 63.376 12.4972 63.5384 12.6839C63.7007 12.8707 63.7889 13.1106 63.7861 13.358C63.7861 14.214 63.0576 14.7804 61.9453 14.7804C60.9619 14.7804 60.1631 14.3297 60.0811 13.42Z" fill="white"></path> <path d="M65.0659 14.698V10.1951H65.9468V13.2922H66.0171L68.0923 10.1951H68.9731V14.698H68.0923V11.5842H68.0259L65.9468 14.698L65.0659 14.698Z" fill="white"></path> <path d="M73.8257 10.9431H72.4077V14.6979H71.5181V10.9431H70.1001V10.1951H73.8257V10.9431Z" fill="white"></path> <path d="M78.6127 13.4823C78.4916 13.8938 78.2298 14.2497 77.873 14.4878C77.5162 14.7259 77.087 14.8311 76.6606 14.785C76.3639 14.7928 76.0691 14.736 75.7966 14.6185C75.5241 14.5009 75.2804 14.3255 75.0825 14.1044C74.8846 13.8832 74.7372 13.6217 74.6505 13.3379C74.5638 13.054 74.5399 12.7548 74.5805 12.4608C74.541 12.1659 74.5653 11.866 74.6518 11.5813C74.7383 11.2966 74.8849 11.0338 75.0818 10.8108C75.2786 10.5877 75.5211 10.4095 75.7928 10.2883C76.0646 10.1671 76.3591 10.1057 76.6567 10.1082C77.9096 10.1082 78.6664 10.9642 78.6664 12.3782V12.6883H75.4867V12.7381C75.4727 12.9034 75.4933 13.0698 75.5474 13.2266C75.6014 13.3835 75.6877 13.5272 75.8007 13.6487C75.9136 13.7702 76.0507 13.8667 76.2032 13.9321C76.3556 13.9974 76.5201 14.0301 76.686 14.0281C76.8984 14.0535 77.1136 14.0152 77.3042 13.918C77.4947 13.8208 77.6521 13.6691 77.7563 13.4822L78.6127 13.4823ZM75.4867 12.0311H77.7601C77.7714 11.88 77.7509 11.7283 77.7 11.5856C77.6491 11.443 77.569 11.3125 77.4647 11.2027C77.3604 11.0928 77.2343 11.006 77.0945 10.9478C76.9546 10.8896 76.8042 10.8612 76.6527 10.8646C76.499 10.8625 76.3464 10.8912 76.2039 10.9491C76.0615 11.007 75.9321 11.0929 75.8234 11.2016C75.7147 11.3104 75.6289 11.4398 75.5711 11.5823C75.5133 11.7247 75.4846 11.8773 75.4867 12.0311H75.4867Z" fill="white"></path> <path d="M82.3804 10.1951H84.4106C85.2915 10.1951 85.8081 10.6414 85.8081 11.3401C85.8095 11.5618 85.7347 11.7772 85.5962 11.9504C85.4577 12.1235 85.264 12.2439 85.0474 12.2912V12.3615C85.3103 12.3782 85.5569 12.4951 85.7361 12.6883C85.9153 12.8815 86.0134 13.1362 86.0103 13.3996C86.0103 14.1853 85.4194 14.698 84.4312 14.698H82.3804V10.1951ZM83.2612 10.8772V12.0432H84.1421C84.6792 12.0432 84.936 11.8367 84.936 11.4558C84.936 11.1047 84.7124 10.8772 84.2407 10.8772L83.2612 10.8772ZM83.2612 12.6965V14.0159H84.315C84.8404 14.0159 85.1216 13.7839 85.1216 13.3582C85.1216 12.9075 84.8033 12.6965 84.2036 12.6965L83.2612 12.6965Z" fill="white"></path> </svg> 