<?xml version="1.0" encoding="UTF-8"?> <svg xmlns="http://www.w3.org/2000/svg" width="187" height="44" viewBox="0 0 187 44" fill="none"> <path fill-rule="evenodd" clip-rule="evenodd" d="M72.7629 37.6874H75.9582V37.6536C75.9582 36.6324 75.2959 36.0113 74.3587 36.0113C73.4568 36.0113 72.7629 36.6578 72.7629 37.6874ZM74.3587 35.0872C76.3502 35.0872 77.0602 36.5977 76.9854 38.2468C76.9779 38.4133 76.8464 38.5514 76.6784 38.5514H72.7668V38.6191C72.7668 39.5691 73.3839 40.2419 74.3587 40.2419C74.9475 40.2419 75.3954 40.0864 75.8028 39.6459C75.9201 39.5191 75.9906 39.4879 76.1667 39.4879H76.5541C76.7689 39.4879 76.8825 39.6518 76.7817 39.8688C76.4139 40.6598 75.4102 41.1798 74.3587 41.1806C72.5994 41.1819 71.7262 39.7406 71.7262 38.0889C71.7262 36.439 72.6302 35.0872 74.3587 35.0872ZM42.7339 40.2919C43.6993 40.2919 44.6136 39.6013 44.5653 38.54L44.5499 38.2009L43.1334 38.4481C42.4097 38.5743 41.6984 38.786 41.6984 39.4767C41.6984 40.0168 42.1563 40.2919 42.7339 40.2919ZM40.6309 39.5895C40.6309 38.2749 41.6424 37.8536 42.7571 37.6636L44.5653 37.3553C44.5653 36.4869 44.1243 36.0225 43.2349 36.0225C42.6835 36.0225 42.3641 36.2292 42.0409 36.667C41.9431 36.7995 41.8374 36.825 41.6769 36.825H41.2786C41.1143 36.825 40.9951 36.6884 41.0288 36.5203C41.2205 35.5649 42.4319 35.0872 43.2349 35.0872C44.6317 35.0872 45.6001 35.8952 45.6001 37.3215V40.763C45.6001 40.9299 45.4612 41.0677 45.293 41.0677H44.8723C44.704 41.0677 44.5653 40.9299 44.5653 40.763V40.3004C44.2303 40.8579 43.4051 41.1806 42.6095 41.1806C41.6458 41.1806 40.6309 40.6613 40.6309 39.5895ZM63.6712 40.2919C64.6366 40.2919 65.5509 39.6013 65.5027 38.54L65.4872 38.2009L64.0708 38.4481C63.347 38.5743 62.6357 38.786 62.6357 39.4767C62.6357 40.0168 63.0937 40.2919 63.6712 40.2919ZM61.5682 39.5895C61.5682 38.2749 62.5797 37.8536 63.6944 37.6636L65.5027 37.3553C65.5027 36.4869 65.0617 36.0225 64.1722 36.0225C63.6208 36.0225 63.3014 36.2292 62.9781 36.667C62.8804 36.7995 62.7747 36.825 62.6144 36.825H62.216C62.0516 36.825 61.9324 36.6884 61.9661 36.5203C62.1579 35.5649 63.3692 35.0872 64.1722 35.0872C65.5691 35.0872 66.5374 35.8952 66.5374 37.3215V40.763C66.5374 40.9299 66.3986 41.0677 66.2304 41.0677H65.8096C65.6415 41.0677 65.5027 40.9299 65.5027 40.763V40.3004C65.1675 40.8579 64.3424 41.1806 63.5468 41.1806C62.5831 41.1806 61.5682 40.6613 61.5682 39.5895ZM69.5541 39.0931C69.5541 39.7461 69.7696 40.0973 70.4732 40.0973H71.0529C71.2195 40.0973 71.3483 40.2398 71.3483 40.402V40.763C71.3483 40.9253 71.2197 41.0677 71.0529 41.0677H70.3637C69.0545 41.0677 68.5586 40.3241 68.5586 39.0931V36.1706H67.749C67.5825 36.1706 67.4536 36.0279 67.4536 35.8659V35.5048C67.4536 35.3427 67.5825 35.2002 67.749 35.2002H68.5586V33.3609C68.5586 33.1989 68.6874 33.0562 68.854 33.0562H69.2587C69.4252 33.0562 69.5541 33.199 69.5541 33.3609V35.2002H70.9435C71.1102 35.2002 71.2388 35.3427 71.2388 35.5048V35.8659C71.2388 36.0279 71.1102 36.1706 70.9435 36.1706H69.5541V39.0931ZM60.5229 34.0041C60.5229 34.1662 60.3942 34.3087 60.2275 34.3087H59.604C59.4374 34.3087 59.3086 34.1662 59.3086 34.0041V33.3609C59.3086 33.1989 59.4374 33.0562 59.604 33.0562H60.2275C60.3941 33.0562 60.5229 33.1989 60.5229 33.3609V34.0041ZM60.4136 40.7631C60.4136 40.9251 60.2848 41.0678 60.1182 41.0678H59.7134C59.5468 41.0678 59.4179 40.9251 59.4179 40.7631V35.5048C59.4179 35.3428 59.5469 35.2002 59.7134 35.2002H60.1182C60.2848 35.2002 60.4136 35.3428 60.4136 35.5048V40.7631ZM57.6703 40.763C57.6703 40.9253 57.5416 41.0677 57.3749 41.0677H56.9702C56.8036 41.0677 56.6746 40.9251 56.6746 40.763V33.3609C56.6746 33.199 56.8037 33.0562 56.9702 33.0562H57.3749C57.5415 33.0562 57.6703 33.1989 57.6703 33.3609V40.763ZM54.927 40.763C54.927 40.9251 54.7982 41.0677 54.6315 41.0677H54.2267C54.0603 41.0677 53.9313 40.9251 53.9313 40.763V36.1706H51.9512V40.763C51.9512 40.9252 51.8225 41.0677 51.6558 41.0677H51.2511C51.0844 41.0677 50.9557 40.9251 50.9557 40.763V36.1706H48.6473V40.763C48.6473 40.9251 48.5186 41.0677 48.3519 41.0677H47.9472C47.7806 41.0677 47.6518 40.9251 47.6518 40.763V36.1706H46.7328C46.5663 36.1706 46.4373 36.0279 46.4373 35.8659V35.5047C46.4373 35.3427 46.5662 35.2002 46.7328 35.2002H47.6518V34.636C47.6518 33.3944 48.1577 32.7178 49.4569 32.7178H50.1462C50.3126 32.7178 50.4415 32.8603 50.4415 33.0224V33.3835C50.4415 33.5455 50.3126 33.688 50.1462 33.688H49.5663C48.8626 33.688 48.6473 34.0395 48.6473 34.6923V35.2002H50.9557V34.636C50.9557 33.3945 51.4615 32.7178 52.7607 32.7178H54.6315C54.7982 32.7178 54.927 32.8603 54.927 33.0224V33.3835C54.927 33.5456 54.7982 33.688 54.6315 33.688H52.8702C52.1553 33.688 51.9512 34.0546 51.9512 34.6923V35.2002H54.6315C54.7982 35.2002 54.927 35.3427 54.927 35.5047V40.763Z" fill="#042158"></path> <path fill-rule="evenodd" clip-rule="evenodd" d="M88.3245 37.6873H91.5198V37.6534C91.5198 36.6322 90.8575 36.0113 89.9202 36.0113C89.0184 36.0113 88.3245 36.6577 88.3245 37.6873ZM89.9202 35.0872C91.9118 35.0872 92.6219 36.5977 92.547 38.2465C92.5395 38.413 92.408 38.5512 92.24 38.5512H88.3283V38.6189C88.3283 39.5688 88.9456 40.2415 89.9202 40.2415C90.509 40.2415 90.957 40.0861 91.3644 39.6456C91.4816 39.5188 91.5522 39.4876 91.7283 39.4876H92.1157C92.3304 39.4876 92.4442 39.6514 92.3432 39.8685C91.9756 40.6594 90.9718 41.1794 89.9202 41.1801C88.1609 41.1814 87.2878 39.7402 87.2878 38.0886C87.2878 36.4387 88.1917 35.0872 89.9202 35.0872ZM117.885 37.3679L120.25 35.3917C120.386 35.2779 120.509 35.1999 120.694 35.1999H121.207C121.469 35.1999 121.646 35.4063 121.359 35.6436L118.664 37.8745L121.591 40.5636C121.795 40.7502 121.788 41.0596 121.53 41.0671H120.91C120.737 41.0722 120.569 40.995 120.444 40.8753L117.885 38.4263V40.7624C117.885 40.9291 117.746 41.0671 117.578 41.0671H117.157C116.99 41.0671 116.85 40.9293 116.85 40.7624V33.3666C116.85 33.1999 116.989 33.0621 117.157 33.0621H117.578C117.746 33.0621 117.885 33.2007 117.885 33.3666V37.3679ZM115.822 35.2001C115.988 35.2001 116.117 35.3426 116.117 35.5047V35.8657C116.117 36.0279 115.988 36.1704 115.822 36.1704H115.187C114.349 36.1704 113.929 36.6029 113.929 37.4679V40.7626C113.929 40.9247 113.801 41.0673 113.634 41.0673H113.229C113.063 41.0673 112.934 40.9247 112.934 40.7626V35.5047C112.934 35.3426 113.063 35.2001 113.229 35.2001H113.634C113.8 35.2001 113.929 35.3426 113.929 35.5047V35.8545C114.075 35.6289 114.25 35.4633 114.454 35.358C114.659 35.2527 114.925 35.2001 115.253 35.2001H115.822ZM110.571 38.1394C110.571 37.0662 110.218 36.0577 108.951 36.0577C107.686 36.0577 107.332 37.0663 107.332 38.1394C107.332 39.2081 107.695 40.2099 108.951 40.2099C110.208 40.2099 110.571 39.2082 110.571 38.1394ZM108.951 35.0872C110.85 35.0872 111.555 36.4607 111.555 38.1393C111.555 39.813 110.838 41.1801 108.951 41.1801C107.077 41.1801 106.337 39.811 106.337 38.1393C106.337 36.4648 107.07 35.0872 108.951 35.0872ZM103.339 39.2394L104.565 35.4708C104.625 35.3045 104.756 35.2001 104.937 35.2001H105.298C105.496 35.2001 105.591 35.386 105.549 35.5612L103.875 40.7513C103.822 40.9175 103.745 41.0673 103.547 41.0673H103.208C103.014 41.0673 102.937 40.9067 102.869 40.7513L101.567 37.0053L100.265 40.7513C100.197 40.9067 100.12 41.0673 99.9259 41.0673H99.5868C99.3888 41.0673 99.3125 40.918 99.2586 40.7513L97.5848 35.5612C97.5425 35.3863 97.6387 35.2001 97.8364 35.2001H98.1974C98.3778 35.2001 98.5089 35.3045 98.5694 35.4708L99.7946 39.2394L101.108 35.4708C101.168 35.3044 101.258 35.2001 101.447 35.2001H101.687C101.876 35.2001 101.966 35.3044 102.027 35.4708L103.339 39.2394ZM95.3202 39.0928C95.3202 39.7691 95.5553 40.097 96.2392 40.097H96.819C96.9856 40.097 97.1144 40.2395 97.1144 40.4016V40.7627C97.1144 40.9248 96.9857 41.0673 96.819 41.0673H96.1298C94.8206 41.0673 94.3246 40.3238 94.3246 39.0928V36.1705H93.5151C93.3486 36.1705 93.2196 36.0278 93.2196 35.8658V35.5047C93.2196 35.3428 93.3486 35.2001 93.5151 35.2001H94.3246V33.361C94.3246 33.1989 94.4535 33.0564 94.62 33.0564H95.0248C95.1912 33.0564 95.3202 33.199 95.3202 33.361V35.2001H96.7096C96.8762 35.2001 97.0049 35.3426 97.0049 35.5047V35.8658C97.0049 36.0279 96.8762 36.1705 96.7096 36.1705H95.3202V39.0928ZM86.1961 40.7626C86.1961 40.9248 86.0674 41.0673 85.9009 41.0673H85.496C85.3293 41.0673 85.2005 40.9248 85.2005 40.7626V37.7839C85.2005 36.7736 84.7613 36.0576 83.6689 36.0576C82.5991 36.0576 82.1373 36.7939 82.1373 37.7839V40.7626C82.1373 40.9248 82.0086 41.0673 81.8419 41.0673H81.4372C81.2707 41.0673 81.1418 40.9247 81.1418 40.7626V35.5047C81.1418 35.3426 81.2707 35.2001 81.4372 35.2001H81.8419C82.0086 35.2001 82.1373 35.3426 82.1373 35.5047V35.8545C82.5381 35.3107 83.174 35.0872 83.8331 35.0872C85.3418 35.0872 86.1961 36.178 86.1961 37.6146V40.7626Z" fill="#042158"></path> <path fill-rule="evenodd" clip-rule="evenodd" d="M64.601 21.0417C64.1322 21.3428 63.3771 21.7068 62.567 21.7068C61.6863 21.7068 61.3101 21.3491 61.3101 20.6215C61.3101 19.8958 61.8177 19.5173 62.8102 19.5173H64.6014L64.601 21.0417ZM62.2602 17.0961C59.6804 17.0961 57.6143 18.3961 57.6143 21.3055C57.6143 23.6209 59.1905 24.8587 61.4795 24.8587C63.0826 24.8587 64.2165 24.2249 64.8962 23.6378L65.0502 24.2593C65.1113 24.5057 65.3341 24.6792 65.5902 24.6792H67.7451C68.0516 24.6792 68.312 24.4331 68.3129 24.1292V16.4502C68.3129 14.0928 67.2036 12.1424 63.3685 12.1424C61.6528 12.1424 60.2574 12.3714 59.0698 12.6954C58.8308 12.7605 58.6683 12.9799 58.6683 13.2257V14.7414C58.6683 15.0461 58.9172 15.2932 59.2243 15.2932L62.9198 15.2935C63.7938 15.2935 64.6021 15.6456 64.6021 16.693L64.602 17.0961H62.2602Z" fill="#042158"></path> <path fill-rule="evenodd" clip-rule="evenodd" d="M39.8857 20.2247C39.8857 23.3466 41.1346 24.8588 44.0435 24.8588C45.2958 24.8588 46.4107 24.5626 47.0916 24.2824C47.2962 24.1981 47.4252 23.9961 47.4252 23.7763V22.2586C47.4252 21.9539 47.1763 21.7069 46.8693 21.7068L44.8753 21.7064C44.1753 21.7062 43.608 21.143 43.6081 20.4485L43.6089 15.4721H46.3148C46.6339 15.4721 46.8924 15.2154 46.8924 14.8989V12.8932C46.8924 12.5767 46.6339 12.32 46.3148 12.32H43.6095L43.6101 8.86932C43.6101 8.48777 43.2291 8.22127 42.867 8.34968L40.2784 9.26693C40.0575 9.34525 39.9099 9.55257 39.9094 9.7854L39.9036 12.32H38.4175C38.0984 12.32 37.8398 12.5767 37.8398 12.8932V14.8989C37.8398 15.2154 38.0984 15.4721 38.4175 15.4721H39.8964L39.8857 20.2247Z" fill="#042158"></path> <path fill-rule="evenodd" clip-rule="evenodd" d="M56.5988 12.1424C54.5375 12.1424 53.3016 12.9896 52.809 13.4173L52.6593 12.7517C52.6027 12.4994 52.377 12.3199 52.1167 12.3199H49.9726C49.6654 12.3199 49.4164 12.5669 49.4164 12.8717V24.1276C49.4164 24.4324 49.6654 24.6794 49.9726 24.6794H52.56C52.8671 24.6794 53.1161 24.4324 53.1161 24.1276V16.0458C53.5605 15.6293 54.27 15.2935 55.8596 15.2935H56.6421C56.9492 15.2935 57.1982 15.0466 57.1982 14.7419V12.6948C57.1982 12.3741 56.922 12.1424 56.5988 12.1424Z" fill="#042158"></path> <path fill-rule="evenodd" clip-rule="evenodd" d="M73.2814 12.7055C73.2109 12.4752 72.9936 12.32 72.7512 12.32H69.8161C69.502 12.32 69.2596 12.5649 69.2596 12.8598C69.2596 12.9262 69.2692 12.9944 69.2942 13.0621L73.4621 24.318C73.5425 24.5351 73.751 24.6795 73.984 24.6795H76.7179C76.951 24.6795 77.1593 24.5351 77.2398 24.318L81.4079 13.0621C81.4327 12.9949 81.4425 12.9269 81.4425 12.8609C81.4425 12.5705 81.2005 12.32 80.8861 12.32H78.0974C77.8548 12.32 77.6376 12.4752 77.5672 12.7055L75.4243 19.7078L73.2814 12.7055Z" fill="#042158"></path> <path fill-rule="evenodd" clip-rule="evenodd" d="M145.183 21.7069C144.17 21.7069 143.207 21.072 143.207 18.5002C143.207 15.9285 144.17 15.2936 145.183 15.2936C146.196 15.2936 147.16 15.9285 147.16 18.5002C147.16 21.072 146.196 21.7069 145.183 21.7069ZM145.183 12.1424C141.413 12.1424 139.485 14.3721 139.485 18.4997C139.485 22.627 141.413 24.8587 145.183 24.8587C148.954 24.8587 150.882 22.627 150.882 18.4997C150.882 14.3721 148.954 12.1424 145.183 12.1424Z" fill="#042158"></path> <path fill-rule="evenodd" clip-rule="evenodd" d="M138.272 12.32H135.619C135.335 12.32 135.082 12.5004 134.992 12.7679L132.819 19.2164L130.533 12.7025C130.452 12.4736 130.235 12.32 129.99 12.32H127.053C126.727 12.32 126.478 12.5535 126.478 12.8783C126.478 12.9533 126.49 13.0306 126.521 13.1064L131.001 23.9345L128.97 29.2959C128.832 29.6568 129.101 30.0427 129.49 30.0427H132.113C132.346 30.0427 132.554 29.8987 132.635 29.6821L138.811 13.0874C138.836 13.0194 138.847 12.9507 138.847 12.8837C138.847 12.5819 138.599 12.32 138.272 12.32Z" fill="#042158"></path> <path fill-rule="evenodd" clip-rule="evenodd" d="M183.989 17.4292C183.331 17.2232 182.016 16.8113 181.359 16.6055C180.96 16.4807 180.576 16.3633 180.576 15.9798C180.576 15.4738 181.079 15.2937 182.001 15.2937L185.506 15.2935C185.813 15.2935 186.059 15.0466 186.059 14.7418V13.1801C186.059 12.9359 185.898 12.7179 185.661 12.6508C184.388 12.2894 183.31 12.1424 181.851 12.1424C179.733 12.1424 176.777 13.0037 176.777 16.0903C176.777 16.8316 176.993 18.5664 179.068 19.2197C179.918 19.4872 181.618 20.0223 182.468 20.29C182.797 20.3933 183.1 20.6165 183.1 21.0286C183.1 21.5053 182.746 21.7069 182.156 21.7069H177.679C177.372 21.7069 177.123 21.9538 177.123 22.2585V23.8059C177.123 24.0492 177.281 24.2619 177.515 24.3336C178.15 24.5277 179.453 24.8588 181.476 24.8588C186.76 24.8588 187 21.9136 187 20.8035C187 19.3962 186.203 18.1227 183.989 17.4292Z" fill="#042158"></path> <path fill-rule="evenodd" clip-rule="evenodd" d="M121.877 21.0417C121.408 21.3428 120.653 21.7068 119.843 21.7068C118.962 21.7068 118.586 21.3491 118.586 20.6215C118.586 19.8958 119.093 19.5173 120.086 19.5173H121.877L121.877 21.0417ZM120.644 12.1424C118.928 12.1424 117.533 12.3714 116.345 12.6954C116.107 12.7605 115.944 12.9799 115.944 13.2258V14.7414C115.944 15.0461 116.193 15.2932 116.5 15.2932H120.195C121.07 15.2932 121.878 15.6456 121.878 16.693L121.878 17.0961H119.536C116.956 17.0961 114.89 18.3961 114.89 21.3055C114.89 23.6209 116.466 24.8587 118.755 24.8587C120.358 24.8587 121.492 24.2249 122.172 23.6378L122.326 24.2593C122.387 24.5057 122.61 24.6792 122.866 24.6792H125.032C125.339 24.6792 125.588 24.4322 125.588 24.1276V16.4502C125.588 14.0928 124.479 12.1424 120.644 12.1424Z" fill="#042158"></path> <path fill-rule="evenodd" clip-rule="evenodd" d="M163.209 12.32H160.621C160.314 12.32 160.065 12.567 160.065 12.8718V21.0561C159.539 21.4106 158.845 21.7069 158.108 21.7069C156.987 21.7069 156.702 21.0638 156.702 19.719V12.8727C156.702 12.568 156.453 12.3209 156.146 12.3209H153.559C153.252 12.3209 153.003 12.568 153.003 12.8727V19.6031C153.003 21.14 152.799 24.8588 156.785 24.8588C158.331 24.8588 159.569 24.3443 160.398 23.6082L160.528 24.2379C160.581 24.495 160.808 24.6795 161.073 24.6795H163.209C163.516 24.6795 163.765 24.4325 163.765 24.1277V12.8718C163.765 12.567 163.516 12.32 163.209 12.32Z" fill="#042158"></path> <path fill-rule="evenodd" clip-rule="evenodd" d="M174.854 21.7068L172.86 21.7064C172.16 21.7062 171.592 21.143 171.592 20.4485L171.593 15.4721H174.299C174.618 15.4721 174.877 15.2154 174.877 14.8989V12.8932C174.877 12.5767 174.618 12.32 174.299 12.32H171.594L171.594 8.86932C171.594 8.48777 171.213 8.22127 170.851 8.34968L168.263 9.26693C168.042 9.34525 167.894 9.55257 167.894 9.7854L167.888 12.32H166.402C166.083 12.32 165.824 12.5767 165.824 12.8932V14.8989C165.824 15.2154 166.083 15.4721 166.402 15.4721H167.881L167.87 20.2247C167.87 23.3466 169.119 24.8588 172.028 24.8588C173.28 24.8588 174.395 24.5626 175.076 24.2824C175.281 24.1981 175.41 23.9961 175.41 23.7763V22.2586C175.41 21.9539 175.161 21.7069 174.854 21.7068Z" fill="#042158"></path> <path fill-rule="evenodd" clip-rule="evenodd" d="M99.0849 24.1278L99.0869 6.80901C99.0871 6.42753 98.7062 6.16111 98.344 6.28945L95.7556 7.20663C95.5346 7.28495 95.3868 7.49255 95.3866 7.72538V24.127C95.3863 24.432 95.6119 24.6794 95.9193 24.6794H98.529C98.836 24.6794 99.0849 24.4325 99.0849 24.1278Z" fill="#042158"></path> <path fill-rule="evenodd" clip-rule="evenodd" d="M87.76 15.2936C89.2448 15.2936 89.485 16.6079 89.485 17.2033H86.0105C86.0105 15.8858 86.7465 15.2936 87.76 15.2936ZM92.2957 22.1466C92.2957 21.9037 92.0973 21.7068 91.8526 21.7068L88.522 21.7064C87.0351 21.7064 85.9288 21.3291 85.9288 19.6121H92.1098C92.8041 19.6121 93.1219 19.3432 93.1219 18.3208C93.1219 13.7189 90.7159 12.1424 87.76 12.1424C83.9894 12.1424 82.0615 14.5007 82.0615 18.4964C82.0615 21.9378 83.2718 24.8587 87.9068 24.8587C89.4628 24.8587 90.877 24.6503 91.8972 24.3426C92.1339 24.2711 92.2957 24.0575 92.2957 23.8119V22.1466Z" fill="#042158"></path> <path fill-rule="evenodd" clip-rule="evenodd" d="M107.331 21.7069C106.678 21.7069 106.123 21.5955 105.679 21.4554V16.058C106.145 15.6567 106.838 15.2936 107.548 15.2936C108.586 15.2936 109.655 16.0227 109.655 18.4997C109.655 20.9338 108.639 21.7069 107.331 21.7069ZM108.735 12.1424C107.167 12.1424 106.059 12.8159 105.385 13.4755L105.222 12.7517C105.165 12.4993 104.94 12.3199 104.679 12.3199H102.535C102.228 12.3199 101.979 12.5669 101.979 12.8717V29.4909C101.979 29.7956 102.228 30.0426 102.535 30.0426H105.123C105.43 30.0426 105.679 29.7956 105.679 29.4909V24.5617C106.263 24.7345 106.969 24.8587 107.808 24.8587C111.496 24.8587 113.364 22.4817 113.364 18.3542C113.364 14.4025 111.74 12.1424 108.735 12.1424Z" fill="#042158"></path> <path fill-rule="evenodd" clip-rule="evenodd" d="M28.8972 31.6878H21.2849C20.6319 31.6878 20.1024 31.1624 20.1024 30.5144V24.64H27.0426C27.3677 24.64 27.645 24.4069 27.6987 24.0889L28.1687 21.3022C28.2365 20.8999 27.9238 20.5333 27.5126 20.5333H15.9637V30.5144C15.9637 33.4305 18.3461 35.7944 21.2849 35.7944H25.4236V38.8483C23.3759 39.6202 21.6236 39.8933 19.3656 39.8933C13.6034 39.8933 10.2111 36.7191 10.0512 31.0933V20.5333H1.1353C0.810331 20.5333 0.532889 20.7664 0.479307 21.0844L0.00926553 23.8711C-0.0585062 24.2735 0.254116 24.64 0.665328 24.64H5.9125V31.0933C6.00332 34.6133 6.92412 37.8453 9.49176 40.4133C11.8378 42.7597 15.2521 44 19.3656 44C22.8313 44 25.4574 43.4317 28.8839 41.8417C29.2986 41.6492 29.5624 41.2344 29.5624 40.7801V32.3478C29.5624 31.9832 29.2646 31.6878 28.8972 31.6878Z" fill="#0085FF"></path> <path fill-rule="evenodd" clip-rule="evenodd" d="M2.05056 16.4266H10.0512V7.61491L15.9637 5.53745V16.4266H28.4271C28.7521 16.4266 29.0294 16.1936 29.0831 15.8755L29.5531 13.0889C29.6209 12.6865 29.3082 12.32 28.897 12.32H20.1024V0.660493C20.1024 0.204873 19.6481 -0.113687 19.2152 0.0384062L6.35557 4.55691C6.09003 4.65027 5.91251 4.89953 5.91251 5.17907V12.32H2.52052C2.19556 12.32 1.91812 12.553 1.86446 12.8711L1.39457 15.6577C1.32665 16.0601 1.63934 16.4266 2.05056 16.4266Z" fill="#0085FF"></path> </svg> 