<?xml version="1.0" encoding="UTF-8"?> <svg xmlns="http://www.w3.org/2000/svg" width="80" height="80" viewBox="0 0 80 80" fill="none"> <circle cx="40" cy="40" r="40" fill="#F6FBFF"></circle> <path fill-rule="evenodd" clip-rule="evenodd" d="M51.6432 47.9264H45.4149C44.8806 47.9264 44.4474 47.4965 44.4474 46.9664V42.16H50.1258C50.3917 42.16 50.6187 41.9693 50.6626 41.7091L51.0471 39.4291C51.1026 39.0999 50.8468 38.8 50.5103 38.8H41.0612V46.9664C41.0612 49.3523 43.0104 51.2864 45.4149 51.2864H48.8012V53.785C47.1258 54.4166 45.692 54.64 43.8446 54.64C39.13 54.64 36.3546 52.0429 36.2237 47.44V38.8H28.9289C28.663 38.8 28.436 38.9907 28.3922 39.2509L28.0076 41.5309C27.9521 41.8601 28.2079 42.16 28.5444 42.16H32.8375V47.44C32.9118 50.32 33.6652 52.9644 35.766 55.0655C37.6854 56.9852 40.479 58 43.8446 58C46.6802 58 48.8288 57.535 51.6323 56.2341C51.9716 56.0766 52.1874 55.7373 52.1874 55.3656V48.4664C52.1874 48.1681 51.9438 47.9264 51.6432 47.9264Z" fill="#0085FF"></path> <path fill-rule="evenodd" clip-rule="evenodd" d="M29.6777 35.44H36.2237V28.2304L41.0612 26.5306V35.44H51.2586C51.5244 35.44 51.7514 35.2493 51.7953 34.9891L52.1798 32.7091C52.2353 32.3799 51.9795 32.08 51.643 32.08H44.4474V22.5404C44.4474 22.1676 44.0757 21.907 43.7215 22.0314L33.2 25.7284C32.9828 25.8048 32.8375 26.0087 32.8375 26.2374V32.08H30.0622C29.7964 32.08 29.5694 32.2707 29.5255 32.5309L29.141 34.8109C29.0854 35.1401 29.3413 35.44 29.6777 35.44Z" fill="#0085FF"></path> </svg> 