<?xml version="1.0" encoding="UTF-8"?> <svg xmlns="http://www.w3.org/2000/svg" xmlns:xlink="http://www.w3.org/1999/xlink" id="Слой_1" data-name="Слой 1" viewBox="0 0 137 41"> <defs> <style>.cls-1,.cls-8,.cls-9{fill:#fff;}.cls-2{fill:url(#Безымянный_градиент);}.cls-3{fill:url(#Безымянный_градиент_2);}.cls-4{fill:url(#Безымянный_градиент_3);}.cls-5{fill:url(#Безымянный_градиент_4);}.cls-6{opacity:0.2;}.cls-6,.cls-7,.cls-8{isolation:isolate;}.cls-7{opacity:0.12;}.cls-8{opacity:0.25;}.cls-9{stroke:#fff;stroke-width:0.2px;}.cls-10,.cls-9{stroke-miterlimit:10;}.cls-10{fill:none;stroke:#333647;}</style> <linearGradient id="Безымянный_градиент" x1="21.77" y1="33.32" x2="4.99" y2="16.54" gradientTransform="matrix(1, 0, 0, -1, 0, 42)" gradientUnits="userSpaceOnUse"> <stop offset="0" stop-color="#00a0ff"></stop> <stop offset="0.01" stop-color="#00a1ff"></stop> <stop offset="0.26" stop-color="#00beff"></stop> <stop offset="0.51" stop-color="#00d2ff"></stop> <stop offset="0.76" stop-color="#00dfff"></stop> <stop offset="1" stop-color="#00e3ff"></stop> </linearGradient> <linearGradient id="Безымянный_градиент_2" x1="33.83" y1="21.95" x2="9.64" y2="21.95" gradientTransform="matrix(1, 0, 0, -1, 0, 42)" gradientUnits="userSpaceOnUse"> <stop offset="0" stop-color="#ffe000"></stop> <stop offset="0.41" stop-color="#ffbd00"></stop> <stop offset="0.78" stop-color="orange"></stop> <stop offset="1" stop-color="#ff9c00"></stop> </linearGradient> <linearGradient id="Безымянный_градиент_3" x1="24.82" y1="19.72" x2="2.06" y2="-3.04" gradientTransform="matrix(1, 0, 0, -1, 0, 42)" gradientUnits="userSpaceOnUse"> <stop offset="0" stop-color="#ff3a44"></stop> <stop offset="1" stop-color="#c31162"></stop> </linearGradient> <linearGradient id="Безымянный_градиент_4" x1="7.26" y1="41.79" x2="17.42" y2="31.63" gradientTransform="matrix(1, 0, 0, -1, 0, 42)" gradientUnits="userSpaceOnUse"> <stop offset="0" stop-color="#32a071"></stop> <stop offset="0.07" stop-color="#2da771"></stop> <stop offset="0.48" stop-color="#15cf74"></stop> <stop offset="0.8" stop-color="#06e775"></stop> <stop offset="1" stop-color="#00f076"></stop> </linearGradient> </defs> <path class="cls-1" d="M68.1,21.8a4.21,4.21,0,0,0-4.3,4.3,4.27,4.27,0,0,0,4.3,4.3,4.21,4.21,0,0,0,4.3-4.3A4.15,4.15,0,0,0,68.1,21.8Zm0,6.8a2.61,2.61,0,0,1,0-5.2A2.42,2.42,0,0,1,70.5,26,2.48,2.48,0,0,1,68.1,28.6Zm-9.3-6.8a4.21,4.21,0,0,0-4.3,4.3,4.27,4.27,0,0,0,4.3,4.3,4.21,4.21,0,0,0,4.3-4.3A4.15,4.15,0,0,0,58.8,21.8Zm0,6.8a2.61,2.61,0,0,1,0-5.2A2.42,2.42,0,0,1,61.2,26,2.48,2.48,0,0,1,58.8,28.6ZM47.7,23.1v1.8H52a3.78,3.78,0,0,1-1,2.3,4.43,4.43,0,0,1-3.3,1.3A4.66,4.66,0,0,1,43,23.7a4.72,4.72,0,0,1,4.7-4.8A5,5,0,0,1,51,20.2l1.3-1.3a6.41,6.41,0,0,0-4.5-1.8,6.75,6.75,0,0,0-6.7,6.6,6.75,6.75,0,0,0,6.7,6.6,5.75,5.75,0,0,0,4.6-1.9A6,6,0,0,0,54,24.2a3.75,3.75,0,0,0-.1-1.1Zm45.4,1.4a3.89,3.89,0,0,0-3.6-2.7,4,4,0,0,0-4,4.3,4.18,4.18,0,0,0,4.2,4.3,4.1,4.1,0,0,0,3.5-1.9l-1.4-1a2.44,2.44,0,0,1-2.1,1.2,2.17,2.17,0,0,1-2.1-1.3L93.3,25Zm-5.8,1.4a2.43,2.43,0,0,1,2.2-2.5,1.77,1.77,0,0,1,1.6.9ZM82.6,30h1.9V17.5H82.6Zm-3-7.3a3.29,3.29,0,0,0-2.3-1A4.3,4.3,0,0,0,73.2,26a4.14,4.14,0,0,0,4.1,4.2,2.87,2.87,0,0,0,2.2-1h.1v.6a2.27,2.27,0,0,1-4.4,1l-1.6.7A4.13,4.13,0,0,0,77.4,34c2.2,0,4-1.3,4-4.4V22H79.6v.7Zm-2.2,5.9a2.61,2.61,0,0,1,0-5.2A2.41,2.41,0,0,1,79.7,26,2.41,2.41,0,0,1,77.4,28.6Zm24.4-11.1H97.3V30h1.9V25.3h2.6a3.9,3.9,0,1,0,0-7.8Zm.1,6H99.2V19.2h2.7a2.2,2.2,0,0,1,2.2,2.1A2.29,2.29,0,0,1,101.9,23.5Zm11.5-1.8a3.36,3.36,0,0,0-3.3,1.9l1.7.7a1.77,1.77,0,0,1,1.7-.9,1.88,1.88,0,0,1,2,1.6v.1a4,4,0,0,0-1.9-.5c-1.8,0-3.6,1-3.6,2.8a2.93,2.93,0,0,0,3.1,2.8,2.81,2.81,0,0,0,2.4-1.2h.1v1h1.8V25.2A3.78,3.78,0,0,0,113.4,21.7Zm-.2,6.9c-.6,0-1.5-.3-1.5-1.1,0-1,1.1-1.3,2-1.3a3.87,3.87,0,0,1,1.7.4A2.33,2.33,0,0,1,113.2,28.6ZM123.7,22l-2.1,5.4h-.1L119.3,22h-2l3.3,7.6-1.9,4.2h1.9L125.7,22Zm-16.8,8h1.9V17.5h-1.9Z" transform="translate(0.19 0)"></path> <path class="cls-2" d="M10.4,7.5a2,2,0,0,0-.5,1.4V31a2,2,0,0,0,.5,1.4l.1.1L22.9,20.1v-.2Z" transform="translate(0.19 0)"></path> <path class="cls-3" d="M27,24.3l-4.1-4.1v-.3L27,15.8l.1.1L32,18.7c1.4.8,1.4,2.1,0,2.9Z" transform="translate(0.19 0)"></path> <path class="cls-4" d="M27.1,24.2,22.9,20,10.4,32.5c.5.5,1.2.5,2.1.1Z" transform="translate(0.19 0)"></path> <path class="cls-5" d="M27.1,15.8,12.5,7.5a1.62,1.62,0,0,0-2.1.1L22.9,20Z" transform="translate(0.19 0)"></path> <path class="cls-6" d="M27,24.1,12.5,32.3a1.64,1.64,0,0,1-2,0l-.1.1.1.1a1.64,1.64,0,0,0,2,0Z" transform="translate(0.19 0)"></path> <path class="cls-7" d="M10.4,32.3a2,2,0,0,1-.4-1.4V31a2,2,0,0,0,.5,1.4v-.1Z" transform="translate(0.19 0)"></path> <path class="cls-7" d="M32,21.3l-5,2.8.1.1L32,21.4A1.66,1.66,0,0,0,33,20C33,20.5,32.6,20.9,32,21.3Z" transform="translate(0.19 0)"></path> <path class="cls-8" d="M12.5,7.6,32,18.7c.6.4,1,.8,1,1.3a1.66,1.66,0,0,0-1-1.4L12.5,7.5C11.1,6.7,10,7.4,10,9v.1C10,7.5,11.1,6.8,12.5,7.6Z" transform="translate(0.19 0)"></path> <path class="cls-9" d="M42.1,14.3h-.7v-2H42a2.89,2.89,0,0,0,.8-2.3V7h4v5.3h.7v2h-.7V13H42.2v1.3ZM43.5,10a4.14,4.14,0,0,1-.6,2.3h3V7.8H43.4V10Z" transform="translate(0.19 0)"></path> <path class="cls-9" d="M53.4,12.2A3.1,3.1,0,0,1,48.1,10a3.1,3.1,0,1,1,6.2,0A2.94,2.94,0,0,1,53.4,12.2Zm-3.8-.5a2.36,2.36,0,0,0,1.6.7,2,2,0,0,0,1.6-.7,2.41,2.41,0,0,0,.7-1.7,2.06,2.06,0,0,0-.7-1.7,2.36,2.36,0,0,0-1.6-.7,2,2,0,0,0-1.6.7,2.41,2.41,0,0,0-.7,1.7A2.06,2.06,0,0,0,49.6,11.7Z" transform="translate(0.19 0)"></path> <path class="cls-9" d="M58.2,13.1A3.07,3.07,0,0,1,55.1,10a3.07,3.07,0,0,1,3.1-3.1,2.7,2.7,0,0,1,2.2,1l-.5.5a2.14,2.14,0,0,0-1.7-.8,2.19,2.19,0,0,0-1.7.7,2.06,2.06,0,0,0-.7,1.7,2.06,2.06,0,0,0,.7,1.7,2.41,2.41,0,0,0,1.7.7,2.27,2.27,0,0,0,1.8-.9l.5.5a3.92,3.92,0,0,1-1,.8A2.77,2.77,0,0,1,58.2,13.1Z" transform="translate(0.19 0)"></path> <path class="cls-9" d="M63.7,13h-.8V7.7H61.2V7h4.1v.7H63.6V13Z" transform="translate(0.19 0)"></path> <path class="cls-9" d="M70.6,7l-2.3,5.1a1.57,1.57,0,0,1-1.4,1.1,1.27,1.27,0,0,1-.6-.1l.2-.7a.6.6,0,0,0,.4.1c.2,0,.3,0,.4-.1a1.38,1.38,0,0,0,.3-.4l.2-.5-2-4.4h.9l1.5,3.4,1.4-3.4h1Z" transform="translate(0.19 0)"></path> <path class="cls-9" d="M71.5,13V7h4.3v6H75V7.7H72.2V13Z" transform="translate(0.19 0)"></path> <path class="cls-9" d="M77.2,13V7H78V9.6h3V7h.8v6H81V10.3H78V13Z" transform="translate(0.19 0)"></path> <path class="cls-9" d="M88.1,12.2A3.1,3.1,0,0,1,82.8,10,3.1,3.1,0,1,1,89,10,4,4,0,0,1,88.1,12.2Zm-3.9-.5a2.36,2.36,0,0,0,1.6.7,2,2,0,0,0,1.6-.7,2.41,2.41,0,0,0,.7-1.7,2.06,2.06,0,0,0-.7-1.7,2.36,2.36,0,0,0-1.6-.7,2,2,0,0,0-1.6.7,2.41,2.41,0,0,0,0,3.4Z" transform="translate(0.19 0)"></path> <path class="cls-9" d="M92.1,13V7h2.2A1.71,1.71,0,0,1,96,8.7a2.35,2.35,0,0,1-.2.8,1,1,0,0,1-.6.5,1.79,1.79,0,0,1,.7.5,1.22,1.22,0,0,1,.3.9,1.66,1.66,0,0,1-.5,1.2,2.11,2.11,0,0,1-1.3.5H92.1Zm.8-3.4h1.4a.91.91,0,0,0,.7-.3.86.86,0,0,0,.3-.6.86.86,0,0,0-.3-.6.91.91,0,0,0-.7-.3H92.9Zm0,2.7h1.6a1,1,0,0,0,1-1,1.08,1.08,0,0,0-.3-.7.91.91,0,0,0-.7-.3H93v2Z" transform="translate(0.19 0)"></path> <rect class="cls-10" x="0.5" y="0.5" width="136" height="40" rx="8"></rect> </svg> 