<?xml version="1.0" encoding="UTF-8"?> <svg xmlns="http://www.w3.org/2000/svg" width="213" height="18" viewBox="0 0 213 18" fill="none"> <path d="M188.347 9.29008C184.359 9.05673 180.376 8.69355 176.387 8.6086C146.588 7.97208 116.782 7.57669 86.979 7.69611C62.8239 7.81141 38.667 8.28844 14.5156 8.63564C11.7832 8.67294 9.04978 8.91894 6.32172 9.05829C5.51517 9.09449 4.70688 9.07027 3.90421 8.98586C2.59441 8.84943 1.18829 8.63368 1.01243 7.0606C0.836568 5.48753 2.23655 4.99832 3.52408 4.75434C7.24605 4.10055 10.9728 3.46533 14.7182 2.95542C19.9878 2.25375 25.3167 2.28049 30.6219 2.19117C44.3857 1.94488 58.1412 1.40174 71.9144 1.20187C102.866 0.731114 133.779 1.1135 164.706 1.49133C178.777 1.66862 192.88 2.21244 206.785 4.72167C207.341 4.82185 207.896 4.9174 208.437 5.06388C210.369 5.57445 211.873 6.55593 211.988 8.64813C212.103 10.7403 210.675 11.9158 208.83 12.5651C205.255 13.8225 201.49 14.3184 197.749 14.8515C190.432 15.8861 183.204 17.6632 175.715 17.2732C174.942 17.2322 173.939 17.575 173.552 16.6872C173.131 15.7205 174.043 15.1268 174.674 14.5873C177.258 12.4391 180.492 11.6855 183.673 10.8203C185.208 10.4059 186.786 10.1263 188.345 9.78631C188.351 9.64256 188.347 9.44776 188.347 9.29008Z" fill="#FF3049"></path> </svg> 