<?xml version="1.0" encoding="UTF-8"?> <svg xmlns="http://www.w3.org/2000/svg" width="300" height="345" viewBox="0 0 300 345" fill="none"> <g clip-path="url(#clip0)"> <path d="M24.2619 298.238C41.7904 297.817 55.659 283.267 55.2382 265.738C54.8174 248.21 40.2666 234.341 22.7381 234.762C5.20963 235.183 -8.65888 249.733 -8.23809 267.262C-7.81729 284.79 6.73345 298.659 24.2619 298.238Z" fill="url(#paint0_linear)"></path> <path fill-rule="evenodd" clip-rule="evenodd" d="M14.7245 277.318C14.1843 276.53 13.8371 275.551 12.7849 275.272C12.4011 275.126 12.608 274.852 12.6989 274.634C14.3794 270.598 16.052 266.582 17.7325 262.546C17.8511 262.261 17.9539 262.014 18.3424 261.975C21.8791 261.526 24.4019 258.944 27.2617 257.017C28.7098 256.065 29.9788 254.836 30.9933 253.402C32.0078 251.968 32.7471 250.359 33.1671 248.67C33.4178 247.72 33.9895 247.464 34.8363 247.566C35.2801 247.575 35.6992 247.73 36.0328 248.01C36.3664 248.289 36.5973 248.677 36.6919 249.119C36.8382 251.081 36.6531 253.079 36.1448 255.026C35.6818 256.61 34.5433 257.904 33.736 259.346C33.1395 260.406 32.4438 261.406 31.7808 262.452C31.9517 262.737 32.2858 262.754 32.5625 262.859L42.1582 266.507C43.5061 267.019 43.9966 267.679 43.7886 268.699C43.6468 269.325 43.3139 269.9 42.8405 270.338C42.3671 270.775 41.7792 271.051 41.1664 271.123C40.874 271.155 40.488 270.866 40.2912 271.264C40.0944 271.662 40.5605 271.784 40.7125 272.04C41.512 273.323 40.5742 274.979 38.8162 275.477C38.392 275.601 37.8146 275.25 37.5872 275.746C37.3598 276.243 38.0013 276.366 38.1545 276.743C38.6517 278.032 37.4324 279.768 35.7791 279.965C35.5608 279.956 35.3414 279.961 35.1218 279.979C34.9137 280.032 34.7066 280.107 34.9241 280.453C35.8688 282.033 35.2331 283.486 33.4295 284.043L32.8794 284.197C32.2375 284.332 31.5859 284.247 31.0263 283.954C26.0098 282.048 20.9932 280.141 15.9767 278.234C15.7107 278.185 15.4618 278.079 15.246 277.921C15.0303 277.763 14.8526 277.558 14.7245 277.318V277.318Z" fill="#DCECF9"></path> <path fill-rule="evenodd" clip-rule="evenodd" d="M3.00156 263.967C4.06281 261.414 5.12012 258.871 6.18136 256.318C6.39361 255.807 6.5441 255.569 7.13859 255.795C10.0578 256.907 12.9682 258.015 15.8874 259.126C16.4642 259.346 16.4703 259.578 16.2374 260.114C14.1018 265.251 11.9689 270.382 9.83854 275.507C9.56734 276.16 9.32409 276.275 8.71578 276.033C5.90395 274.918 3.07641 273.842 0.233137 272.803C-0.476708 272.532 -0.468209 272.24 -0.172408 271.553C0.896812 269.08 1.94032 266.52 3.00156 263.967Z" fill="#DCECF9"></path> <path d="M298.478 294.702C296.521 295.702 294.415 296.382 292.242 296.715C287.029 297.531 281.7 296.351 277.319 293.412C272.937 290.472 269.825 285.988 268.603 280.856C267.381 275.723 268.139 270.318 270.727 265.719C273.314 261.121 277.539 257.667 282.561 256.046C287.582 254.426 293.03 254.758 297.817 256.977C302.604 259.196 306.379 263.138 308.388 268.017C310.397 272.895 310.492 278.352 308.656 283.299C306.819 288.245 303.185 292.317 298.478 294.702V294.702Z" fill="url(#paint1_linear)"></path> <path d="M295.554 274.159C295.446 275.416 294.968 276.614 294.18 277.599C293.392 278.584 292.329 279.314 291.126 279.695C289.923 280.076 288.634 280.092 287.422 279.74C286.21 279.388 285.13 278.685 284.318 277.719C283.506 276.753 282.999 275.567 282.861 274.313C282.724 273.059 282.961 271.792 283.543 270.672C284.126 269.553 285.027 268.631 286.134 268.025C287.24 267.418 288.502 267.153 289.759 267.264C291.441 267.412 292.996 268.221 294.082 269.513C295.168 270.806 295.698 272.477 295.554 274.159V274.159Z" fill="#DCECF9"></path> <path d="M298.699 292.077L298.479 294.702C296.521 295.702 294.415 296.382 292.243 296.715C289.497 297.151 286.692 297.033 283.993 296.368C281.293 295.703 278.754 294.504 276.526 292.843L276.746 290.225C276.867 288.783 277.272 287.379 277.936 286.094C278.6 284.808 279.511 283.666 280.617 282.732C281.722 281.798 283.001 281.092 284.38 280.652C285.758 280.213 287.21 280.049 288.652 280.171C290.094 280.293 291.498 280.697 292.783 281.361C294.069 282.025 295.211 282.936 296.145 284.042C297.079 285.148 297.785 286.426 298.225 287.805C298.664 289.184 298.828 290.636 298.706 292.077L298.699 292.077Z" fill="#DCECF9"></path> <path d="M209.213 317.709L176.708 310.621L169.621 343.126L202.126 350.213L209.213 317.709Z" fill="url(#paint2_linear)"></path> <path d="M185.511 333.089L181.179 332.128C181.536 330.453 181.874 328.872 182.234 327.203L186.487 328.146C186.585 327.774 186.672 327.489 186.739 327.199C187.045 325.908 187.282 324.582 187.669 323.339C188.547 320.571 190.725 318.963 193.637 319.205C195.452 319.351 197.232 319.954 199.071 320.362C198.748 321.892 198.448 323.285 198.115 324.845C197.457 324.698 196.803 324.541 196.147 324.412C195.567 324.266 194.974 324.177 194.377 324.144C193.986 324.115 193.6 324.225 193.286 324.455C192.972 324.684 192.752 325.017 192.665 325.394C192.341 326.641 192.109 327.912 191.835 329.288L196.782 330.38C196.222 331.946 195.724 333.404 195.173 334.84C195.105 334.973 194.704 335.08 194.473 335.059C193.271 334.829 192.083 334.548 190.778 334.253C189.865 338.492 188.971 342.66 188.065 346.897L182.796 345.726C183.706 341.526 184.596 337.356 185.511 333.089Z" fill="#DCECF9"></path> <path d="M250.371 247.25L202.25 225.652L180.652 273.773L228.773 295.371L250.371 247.25Z" fill="url(#paint3_linear)"></path> <path d="M237.411 259.196C239.545 254.389 237.898 249.919 233.176 247.746C226.621 244.721 220.016 241.758 213.361 238.856C208.665 236.814 204.254 238.541 202.097 243.157C200.574 246.427 199.135 249.733 197.668 252.995C196.2 256.257 194.756 259.422 193.335 262.647C191.171 267.574 192.807 272.049 197.618 274.296C204.124 277.293 210.659 280.224 217.221 283.089C222.024 285.176 226.499 283.417 228.65 278.686C231.606 272.204 234.527 265.708 237.411 259.196ZM225.457 277.347C224.063 280.364 221.67 281.304 218.615 279.968C212.062 277.077 205.527 274.146 199.012 271.175C195.981 269.794 195.048 267.366 196.392 264.341C199.308 257.77 202.26 251.197 205.248 244.621C206.619 241.597 209.067 240.675 212.105 241.98C218.661 244.866 225.196 247.794 231.711 250.765C234.74 252.153 235.657 254.629 234.31 257.635C232.874 260.934 231.375 264.211 229.905 267.481C228.434 270.75 226.977 274.059 225.462 277.331L225.457 277.347Z" fill="#DCECF9"></path> <path d="M219.715 251.38C217.814 250.533 215.714 250.226 213.679 250.5C211.644 250.773 209.766 251.614 208.279 252.917C206.793 254.22 205.766 255.926 205.328 257.821C204.889 259.716 205.058 261.715 205.815 263.566C206.571 265.417 207.88 267.037 209.577 268.223C211.275 269.408 213.284 270.106 215.352 270.229C217.421 270.351 219.456 269.893 221.202 268.911C222.947 267.929 224.325 266.468 225.162 264.711C225.723 263.535 226.028 262.255 226.058 260.946C226.087 259.637 225.842 258.324 225.335 257.084C224.829 255.844 224.071 254.701 223.106 253.722C222.142 252.743 220.989 251.947 219.715 251.38ZM212.762 266.254C211.116 265.473 209.823 264.137 209.148 262.521C208.474 260.904 208.469 259.13 209.135 257.563C209.494 256.777 210.016 256.073 210.672 255.489C211.328 254.906 212.104 254.456 212.956 254.164C213.808 253.872 214.719 253.744 215.638 253.788C216.557 253.832 217.465 254.046 218.311 254.419C219.157 254.792 219.924 255.316 220.568 255.962C221.212 256.607 221.72 257.361 222.064 258.18C222.409 258.999 222.581 259.868 222.573 260.737C222.565 261.605 222.376 262.457 222.017 263.242C221.25 264.81 219.851 266.004 218.12 266.567C216.389 267.131 214.465 267.018 212.762 266.254V266.254Z" fill="#DCECF9"></path> <path d="M232.308 256.694C232.19 256.942 232 257.156 231.752 257.323C231.504 257.49 231.203 257.605 230.871 257.66C230.538 257.716 230.182 257.71 229.826 257.644C229.47 257.578 229.123 257.453 228.808 257.278C228.445 257.143 228.112 256.948 227.833 256.708C227.555 256.469 227.338 256.191 227.2 255.896C227.062 255.6 227.006 255.295 227.037 255.003C227.068 254.712 227.184 254.441 227.377 254.213C228.058 253.117 229.337 253.012 230.928 253.6C232.418 254.459 233.026 255.517 232.308 256.694Z" fill="#DCECF9"></path> <path d="M143.761 238.956L108.956 248.194L118.194 282.999L152.999 273.761L143.761 238.956Z" fill="url(#paint4_linear)"></path> <path d="M120.323 273.167C123.127 272.594 125.615 271.045 127.361 268.783C123.896 268.605 122.345 267.929 121.367 266.196L123.476 265.544C120.689 265.195 118.729 263.843 117.749 261.07L120.117 261.102C116.985 258.718 115.879 256.534 116.647 254.02C118.523 255.368 120.64 256.32 122.866 256.817C125.093 257.315 127.381 257.347 129.59 256.911C129.469 256.549 129.366 256.279 129.28 256.007C128.871 254.937 128.796 253.775 129.065 252.682C129.334 251.589 129.934 250.619 130.782 249.905C131.592 249.14 132.624 248.654 133.737 248.514C134.85 248.373 135.989 248.585 137.001 249.12C137.199 249.243 137.428 249.305 137.656 249.297C137.885 249.288 138.104 249.21 138.284 249.072C139.066 248.536 139.843 248.003 140.693 247.419C140.609 248.642 140.141 249.792 139.357 250.702C139.394 250.749 139.428 250.799 139.458 250.85L141.907 249.482L142.047 249.566C141.56 250.44 141.101 251.341 140.564 252.183C140.422 252.37 140.326 252.589 140.284 252.823C140.242 253.057 140.255 253.3 140.321 253.532C141.447 257.492 141.076 261.686 139.282 265.284C137.487 268.881 134.4 271.619 130.633 272.954C127.544 274.092 124.154 274.236 120.916 273.366C120.715 273.286 120.512 273.217 120.323 273.167Z" fill="#DCECF9"></path> <path d="M64.4154 337.074C61.5324 332.112 60.1859 326.406 60.5463 320.678C60.9066 314.951 62.9577 309.459 66.44 304.897C69.9223 300.335 74.6793 296.909 80.1093 295.051C85.5393 293.193 91.3983 292.988 96.9451 294.461C102.492 295.933 107.477 299.018 111.27 303.325C115.064 307.632 117.494 312.967 118.255 318.655C119.016 324.343 118.072 330.129 115.544 335.281C113.015 340.433 109.016 344.72 104.051 347.598C97.3983 351.455 89.4869 352.513 82.0549 350.539C74.6229 348.566 68.2784 343.723 64.4154 337.074V337.074Z" fill="url(#paint5_linear)"></path> <path d="M105.312 322.095C103.568 331.775 94.9725 339.723 94.9725 339.723C94.9725 339.723 83.3729 337.675 76.6982 330.479C71.0867 324.475 71.0723 316.228 76.1512 312.933C83.4192 308.212 89.5355 321.329 89.5355 321.329C89.5355 321.329 87.5184 307.014 96.2173 307.056C102.276 307.086 106.754 313.992 105.312 322.095Z" fill="#DCECF9"></path> </g> <defs> <linearGradient id="paint0_linear" x1="4.95485" y1="231.508" x2="47.0686" y2="326.868" gradientUnits="userSpaceOnUse"> <stop stop-color="#E3F3FF"></stop> <stop offset="1" stop-color="#F6FBFF" stop-opacity="0.37"></stop> </linearGradient> <linearGradient id="paint1_linear" x1="307.33" y1="259.72" x2="246.357" y2="308.442" gradientUnits="userSpaceOnUse"> <stop stop-color="#E3F3FF"></stop> <stop offset="1" stop-color="#F6FBFF" stop-opacity="0.37"></stop> </linearGradient> <linearGradient id="paint2_linear" x1="184.31" y1="310.306" x2="193.938" y2="364.07" gradientUnits="userSpaceOnUse"> <stop stop-color="#E3F3FF"></stop> <stop offset="1" stop-color="#F6FBFF" stop-opacity="0.37"></stop> </linearGradient> <linearGradient id="paint3_linear" x1="214.148" y1="227.641" x2="225.682" y2="348.09" gradientUnits="userSpaceOnUse"> <stop stop-color="#E3F3FF"></stop> <stop offset="1" stop-color="#F6FBFF" stop-opacity="0.37"></stop> </linearGradient> <linearGradient id="paint4_linear" x1="106.252" y1="244.343" x2="177.605" y2="292.714" gradientUnits="userSpaceOnUse"> <stop stop-color="#E3F3FF"></stop> <stop offset="1" stop-color="#F6FBFF" stop-opacity="0.37"></stop> </linearGradient> <linearGradient id="paint5_linear" x1="68.0828" y1="293.329" x2="118.831" y2="373.946" gradientUnits="userSpaceOnUse"> <stop stop-color="#E3F3FF"></stop> <stop offset="1" stop-color="#F6FBFF" stop-opacity="0.37"></stop> </linearGradient> <clipPath id="clip0"> <rect width="300" height="345" fill="white"></rect> </clipPath> </defs> </svg> 