<?xml version="1.0" encoding="UTF-8"?> <svg xmlns="http://www.w3.org/2000/svg" width="210" height="29" viewBox="0 0 210 29" fill="none"> <path d="M191.361 12.4455C188.161 11.6741 185.2 10.9698 182.239 10.2488C180.838 9.905 179.829 9.142 180.171 7.59506C180.513 6.04811 181.799 5.8427 183.192 6.08585C191.31 7.51541 199.427 9.02044 207.647 9.60735C208.686 9.68281 209.643 10.0266 209.929 11.1627C210.215 12.2988 209.604 13.1624 208.669 13.8122C206.572 15.2106 204.245 16.2431 201.79 16.8642C195.979 18.4908 190.139 20.0126 184.328 21.6308C183.666 21.8152 182.824 22.3602 182.38 21.6308C181.936 20.9013 182.893 20.4653 183.384 20.0335C184.875 18.7214 186.695 17.8871 188.597 16.7552C186.588 16.2311 184.82 16.8558 183.042 16.86C169.744 16.86 156.442 16.86 143.137 16.86C141.082 16.86 139.023 16.6336 136.976 16.4408C136.066 16.3527 134.939 16.1599 135.003 14.9735C135.058 13.9505 136.079 13.8793 136.951 13.7409C139.566 13.3217 142.202 13.4223 144.829 13.3762C153.998 13.2043 163.175 13.2504 172.335 12.8857C178.595 12.63 184.85 12.6803 191.361 12.4455Z" fill="white"></path> <path d="M12.984 23C12.824 23 12.688 22.944 12.576 22.832C12.464 22.72 12.408 22.584 12.408 22.424V9.2H7.2V12.224C7.2 14.864 7.016 16.952 6.648 18.488C6.296 20.008 5.688 21.128 4.824 21.848C3.96 22.552 2.76 22.928 1.224 22.976C1.064 22.992 0.92 22.944 0.792 22.832C0.68 22.72 0.624 22.576 0.624 22.4V20.6C0.624 20.44 0.672 20.312 0.768 20.216C0.864 20.12 1 20.056 1.176 20.024C2.12 19.864 2.816 19.12 3.264 17.792C3.728 16.448 3.96 14.448 3.96 11.792V6.776C3.96 6.6 4.016 6.464 4.128 6.368C4.24 6.256 4.376 6.2 4.536 6.2H15.144C15.32 6.2 15.464 6.256 15.576 6.368C15.688 6.48 15.744 6.624 15.744 6.8V22.424C15.744 22.6 15.688 22.744 15.576 22.856C15.464 22.952 15.32 23 15.144 23H12.984ZM30.105 10.52C30.249 10.52 30.377 10.576 30.489 10.688C30.601 10.784 30.657 10.904 30.657 11.048V22.424C30.657 22.584 30.601 22.72 30.489 22.832C30.377 22.944 30.241 23 30.081 23H28.089C27.929 23 27.793 22.944 27.681 22.832C27.569 22.72 27.513 22.584 27.513 22.424V14.72L21.753 22.616C21.609 22.872 21.393 23 21.105 23H19.281C19.137 23 19.009 22.952 18.897 22.856C18.785 22.744 18.729 22.608 18.729 22.448V11.096C18.729 10.936 18.785 10.8 18.897 10.688C19.009 10.576 19.145 10.52 19.305 10.52H21.297C21.473 10.52 21.609 10.576 21.705 10.688C21.817 10.784 21.873 10.92 21.873 11.096V18.824L27.633 10.904C27.809 10.648 28.025 10.52 28.281 10.52H30.105ZM38.6021 23.24C36.8421 23.24 35.4341 22.752 34.3781 21.776C33.3381 20.8 32.7861 19.448 32.7221 17.72L32.6981 16.76L32.7221 15.8C32.7861 14.072 33.3381 12.72 34.3781 11.744C35.4341 10.768 36.8421 10.28 38.6021 10.28C39.8501 10.28 40.9061 10.504 41.7701 10.952C42.6501 11.4 43.2981 11.952 43.7141 12.608C44.1461 13.248 44.3781 13.856 44.4101 14.432C44.4261 14.592 44.3701 14.728 44.2421 14.84C44.1301 14.952 43.9941 15.008 43.8341 15.008H41.7221C41.5621 15.008 41.4341 14.976 41.3381 14.912C41.2581 14.832 41.1781 14.704 41.0981 14.528C40.8581 13.904 40.5381 13.456 40.1381 13.184C39.7541 12.912 39.2581 12.776 38.6501 12.776C37.8341 12.776 37.1941 13.04 36.7301 13.568C36.2661 14.08 36.0181 14.864 35.9861 15.92L35.9621 16.808L35.9861 17.6C36.0501 19.696 36.9381 20.744 38.6501 20.744C39.2741 20.744 39.7781 20.608 40.1621 20.336C40.5461 20.064 40.8581 19.616 41.0981 18.992C41.1781 18.816 41.2581 18.696 41.3381 18.632C41.4341 18.552 41.5621 18.512 41.7221 18.512H43.8341C43.9941 18.512 44.1301 18.568 44.2421 18.68C44.3701 18.792 44.4261 18.928 44.4101 19.088C44.3781 19.648 44.1541 20.248 43.7381 20.888C43.3221 21.528 42.6821 22.08 41.8181 22.544C40.9541 23.008 39.8821 23.24 38.6021 23.24ZM50.2491 23C50.0891 23 49.9531 22.944 49.8411 22.832C49.7291 22.72 49.6731 22.584 49.6731 22.424V13.064H45.7611C45.6011 13.064 45.4651 13.008 45.3531 12.896C45.2411 12.784 45.1851 12.64 45.1851 12.464V11.096C45.1851 10.92 45.2411 10.784 45.3531 10.688C45.4651 10.576 45.6011 10.52 45.7611 10.52H56.6571C56.8331 10.52 56.9771 10.576 57.0891 10.688C57.2011 10.8 57.2571 10.936 57.2571 11.096V12.464C57.2571 12.624 57.2011 12.768 57.0891 12.896C56.9771 13.008 56.8331 13.064 56.6571 13.064H52.7691V22.424C52.7691 22.584 52.7131 22.72 52.6011 22.832C52.5051 22.944 52.3691 23 52.1931 23H50.2491ZM62.3036 23.24C61.4876 23.24 60.7356 23.08 60.0476 22.76C59.3756 22.424 58.8396 21.976 58.4396 21.416C58.0556 20.856 57.8636 20.24 57.8636 19.568C57.8636 18.48 58.3036 17.6 59.1836 16.928C60.0636 16.256 61.2716 15.8 62.8076 15.56L66.0956 15.08V14.576C66.0956 13.872 65.9196 13.344 65.5676 12.992C65.2156 12.64 64.6476 12.464 63.8636 12.464C63.3356 12.464 62.9036 12.568 62.5676 12.776C62.2476 12.968 61.9916 13.16 61.7996 13.352C61.6076 13.56 61.4796 13.696 61.4156 13.76C61.3516 13.952 61.2316 14.048 61.0556 14.048H59.2076C59.0636 14.048 58.9356 14 58.8236 13.904C58.7276 13.808 58.6796 13.68 58.6796 13.52C58.6956 13.12 58.8876 12.664 59.2556 12.152C59.6396 11.64 60.2236 11.2 61.0076 10.832C61.7916 10.464 62.7516 10.28 63.8876 10.28C65.7756 10.28 67.1516 10.704 68.0156 11.552C68.8796 12.4 69.3116 13.512 69.3116 14.888V22.424C69.3116 22.584 69.2556 22.72 69.1436 22.832C69.0476 22.944 68.9116 23 68.7356 23H66.7916C66.6316 23 66.4956 22.944 66.3836 22.832C66.2716 22.72 66.2156 22.584 66.2156 22.424V21.488C65.8636 22 65.3596 22.424 64.7036 22.76C64.0636 23.08 63.2636 23.24 62.3036 23.24ZM63.1196 20.96C63.9996 20.96 64.7196 20.672 65.2796 20.096C65.8396 19.52 66.1196 18.68 66.1196 17.576V17.072L63.7196 17.456C62.7916 17.6 62.0876 17.832 61.6076 18.152C61.1436 18.472 60.9116 18.864 60.9116 19.328C60.9116 19.84 61.1276 20.24 61.5596 20.528C61.9916 20.816 62.5116 20.96 63.1196 20.96ZM83.2866 10.52C83.4306 10.52 83.5586 10.576 83.6706 10.688C83.7826 10.784 83.8386 10.904 83.8386 11.048V22.424C83.8386 22.584 83.7826 22.72 83.6706 22.832C83.5586 22.944 83.4226 23 83.2626 23H81.2706C81.1106 23 80.9746 22.944 80.8626 22.832C80.7506 22.72 80.6946 22.584 80.6946 22.424V14.72L74.9346 22.616C74.7906 22.872 74.5746 23 74.2866 23H72.4626C72.3186 23 72.1906 22.952 72.0786 22.856C71.9666 22.744 71.9106 22.608 71.9106 22.448V11.096C71.9106 10.936 71.9666 10.8 72.0786 10.688C72.1906 10.576 72.3266 10.52 72.4866 10.52H74.4786C74.6546 10.52 74.7906 10.576 74.8866 10.688C74.9986 10.784 75.0546 10.92 75.0546 11.096V18.824L80.8146 10.904C80.9906 10.648 81.2066 10.52 81.4626 10.52H83.2866ZM78.0066 8.888C76.6466 8.888 75.6546 8.592 75.0306 8C74.4066 7.392 74.0946 6.616 74.0946 5.672C74.0946 5.544 74.1346 5.44 74.2146 5.36C74.2946 5.264 74.4066 5.216 74.5506 5.216H75.9186C76.0626 5.216 76.1746 5.264 76.2546 5.36C76.3346 5.44 76.3746 5.544 76.3746 5.672C76.3746 6.584 76.9186 7.04 78.0066 7.04C79.0946 7.04 79.6386 6.584 79.6386 5.672C79.6386 5.544 79.6786 5.44 79.7586 5.36C79.8386 5.264 79.9506 5.216 80.0946 5.216H81.4866C81.6306 5.216 81.7426 5.264 81.8226 5.36C81.9026 5.44 81.9426 5.544 81.9426 5.672C81.9426 6.616 81.6226 7.392 80.9826 8C80.3586 8.592 79.3666 8.888 78.0066 8.888ZM90.1997 23C90.0397 23 89.9037 22.944 89.7917 22.832C89.6797 22.72 89.6237 22.584 89.6237 22.424V13.064H85.7117C85.5517 13.064 85.4157 13.008 85.3037 12.896C85.1917 12.784 85.1357 12.64 85.1357 12.464V11.096C85.1357 10.92 85.1917 10.784 85.3037 10.688C85.4157 10.576 85.5517 10.52 85.7117 10.52H96.6077C96.7837 10.52 96.9277 10.576 97.0397 10.688C97.1517 10.8 97.2077 10.936 97.2077 11.096V12.464C97.2077 12.624 97.1517 12.768 97.0397 12.896C96.9277 13.008 96.7837 13.064 96.6077 13.064H92.7197V22.424C92.7197 22.584 92.6637 22.72 92.5517 22.832C92.4557 22.944 92.3197 23 92.1437 23H90.1997ZM104.006 23.24C102.23 23.24 100.814 22.728 99.7582 21.704C98.7182 20.664 98.1662 19.208 98.1022 17.336L98.0782 16.736L98.1022 16.136C98.1822 14.312 98.7422 12.88 99.7822 11.84C100.838 10.8 102.246 10.28 104.006 10.28C105.894 10.28 107.35 10.856 108.374 12.008C109.414 13.16 109.934 14.696 109.934 16.616V17.12C109.934 17.28 109.878 17.416 109.766 17.528C109.654 17.64 109.51 17.696 109.334 17.696H101.366V17.888C101.398 18.768 101.638 19.512 102.086 20.12C102.55 20.712 103.182 21.008 103.982 21.008C104.926 21.008 105.686 20.64 106.262 19.904C106.406 19.728 106.518 19.616 106.598 19.568C106.694 19.52 106.83 19.496 107.006 19.496H109.07C109.214 19.496 109.334 19.544 109.43 19.64C109.542 19.72 109.598 19.824 109.598 19.952C109.598 20.336 109.366 20.792 108.902 21.32C108.454 21.832 107.806 22.28 106.958 22.664C106.11 23.048 105.126 23.24 104.006 23.24ZM106.67 15.68V15.608C106.67 14.664 106.43 13.904 105.95 13.328C105.486 12.752 104.838 12.464 104.006 12.464C103.174 12.464 102.526 12.752 102.062 13.328C101.598 13.904 101.366 14.664 101.366 15.608V15.68H106.67Z" fill="white"></path> </svg> 