<?xml version="1.0" encoding="UTF-8"?> <svg xmlns="http://www.w3.org/2000/svg" width="660" height="258" viewBox="0 0 660 258" fill="none"> <mask id="mask0" mask-type="alpha" maskUnits="userSpaceOnUse" x="0" y="0" width="660" height="258"> <rect width="660" height="258" rx="16" fill="#434760"></rect> </mask> <g mask="url(#mask0)"> <circle cx="487" cy="35" r="42" fill="url(#paint0_linear)"></circle> <path d="M478.695 40.1177H471.047V38.813L474.836 34.6802C475.383 34.0708 475.771 33.563 476 33.1567C476.234 32.7453 476.352 32.3338 476.352 31.9224C476.352 31.3807 476.198 30.9432 475.891 30.6099C475.589 30.2765 475.18 30.1099 474.664 30.1099C474.049 30.1099 473.573 30.2974 473.234 30.6724C472.896 31.0474 472.727 31.5604 472.727 32.2114H470.828C470.828 31.5187 470.984 30.8963 471.297 30.3442C471.615 29.7869 472.065 29.3547 472.648 29.0474C473.237 28.7401 473.914 28.5864 474.68 28.5864C475.784 28.5864 476.654 28.8651 477.289 29.4224C477.93 29.9744 478.25 30.7401 478.25 31.7192C478.25 32.2869 478.089 32.8833 477.766 33.5083C477.448 34.1281 476.924 34.8338 476.195 35.6255L473.414 38.6021H478.695V40.1177ZM486.562 36.063H487.977V37.5864H486.562V40.1177H484.664V37.5864H479.75L479.695 36.4302L484.602 28.7427H486.562V36.063ZM481.688 36.063H484.664V31.313L484.523 31.563L481.688 36.063ZM489.891 41.0942H488.398L492.875 28.7427H494.367L489.891 41.0942ZM503.133 29.7974L498.586 40.1177H496.594L501.133 30.2661H495.25V28.7427H503.133V29.7974Z" fill="white"></path> <circle cx="536" cy="158" r="24" fill="url(#paint1_linear)"></circle> <path d="M530.81 162.353H526.029V161.538L528.397 158.954C528.739 158.574 528.982 158.256 529.125 158.002C529.271 157.745 529.345 157.488 529.345 157.231C529.345 156.892 529.249 156.619 529.057 156.411C528.868 156.202 528.612 156.098 528.29 156.098C527.906 156.098 527.608 156.215 527.396 156.45C527.185 156.684 527.079 157.005 527.079 157.412H525.893C525.893 156.979 525.99 156.59 526.186 156.245C526.384 155.896 526.666 155.626 527.03 155.434C527.398 155.242 527.821 155.146 528.3 155.146C528.99 155.146 529.534 155.32 529.931 155.668C530.331 156.013 530.531 156.492 530.531 157.104C530.531 157.459 530.43 157.831 530.229 158.222C530.03 158.609 529.703 159.051 529.247 159.545L527.509 161.406H530.81V162.353ZM535.727 159.819H536.61V160.771H535.727V162.353H534.54V160.771H531.469L531.435 160.048L534.501 155.244H535.727V159.819ZM532.68 159.819H534.54V156.85L534.452 157.006L532.68 159.819ZM537.807 162.963H536.874L539.672 155.244H540.604L537.807 162.963ZM546.083 155.903L543.241 162.353H541.996L544.833 156.196H541.156V155.244H546.083V155.903Z" fill="white"></path> <path fill-rule="evenodd" clip-rule="evenodd" d="M594.696 50.1411C594.028 50.7035 593.039 50.6579 592.422 50.0418L585.266 42.8823C584.938 42.5523 584.758 42.0994 584.774 41.635C584.791 41.1671 585 40.7292 585.352 40.4229C594.545 32.4122 606.318 28 618.503 28C630.689 28 642.462 32.4122 651.653 40.4233C652.004 40.7297 652.213 41.1692 652.23 41.6354C652.247 42.0999 652.067 42.5527 651.738 42.8827L644.581 50.0418C644.253 50.3683 643.822 50.5351 643.389 50.5351C643.007 50.5351 642.622 50.4053 642.307 50.1411C635.651 44.5494 627.197 41.4687 618.501 41.4687C609.805 41.4687 601.352 44.549 594.696 50.1411ZM656.577 45.3469C656.27 44.995 655.831 44.7861 655.365 44.7711C654.9 44.729 654.447 44.9344 654.115 45.2626L646.958 52.4217C646.34 53.0396 646.298 54.0261 646.859 54.6959C652.453 61.3502 655.531 69.8055 655.531 78.5015C655.531 87.1975 652.451 95.6511 646.859 102.307C646.298 102.975 646.34 103.962 646.958 104.581L654.115 111.74C654.432 112.057 654.86 112.234 655.307 112.234C655.326 112.234 655.346 112.234 655.365 112.232C655.831 112.217 656.27 112.008 656.577 111.656C664.588 102.462 669 90.6885 669 78.5028C669 66.3171 664.589 54.5413 656.577 45.3469ZM590.141 102.306C584.547 95.6516 581.469 87.1962 581.469 78.5002C581.469 69.8042 584.549 61.3506 590.141 54.6947C590.702 54.0265 590.66 53.04 590.042 52.4204L582.884 45.2609C582.554 44.9327 582.098 44.7406 581.635 44.7694C581.169 44.7844 580.729 44.9933 580.423 45.3452C572.412 54.5396 568 66.3128 568 78.4985C568 90.6842 572.412 102.457 580.423 111.652C580.729 112.004 581.169 112.213 581.635 112.228C581.642 112.228 581.65 112.229 581.658 112.229C581.669 112.229 581.681 112.229 581.692 112.229C582.138 112.229 582.566 112.053 582.884 111.736L590.042 104.577C590.659 103.96 590.703 102.974 590.141 102.306ZM644.58 106.959C643.963 106.341 642.974 106.295 642.306 106.859C635.65 112.451 627.197 115.532 618.501 115.532C609.805 115.532 601.351 112.451 594.695 106.859C594.027 106.296 593.039 106.341 592.421 106.959L585.263 114.118C584.935 114.448 584.755 114.901 584.772 115.365C584.788 115.831 584.997 116.271 585.349 116.577C594.54 124.588 606.315 129 618.499 129C630.683 129 642.458 124.588 651.651 116.577C652.002 116.271 652.211 115.833 652.228 115.365C652.245 114.901 652.065 114.448 651.736 114.118L644.58 106.959ZM618.505 49.8867C619.082 49.8884 619.619 50.1849 619.927 50.673C620.185 51.0786 626.018 59.9834 640.383 59.9812C640.829 59.9812 641.258 60.1595 641.575 60.4762C641.891 60.7946 642.068 61.2238 642.066 61.6715L642.004 78.1986C642.004 86.6458 639.233 94.6079 634.203 100.607C629.649 106.041 624.364 108.798 618.5 108.798C612.635 108.798 607.351 106.043 602.796 100.607C597.766 94.6079 594.995 86.6458 594.995 78.1939L594.933 61.6737C594.933 61.2255 595.108 60.795 595.424 60.4784C595.739 60.16 596.169 59.9834 596.616 59.9834C611.005 59.9834 616.833 51.0515 617.074 50.6713C617.384 50.1814 617.922 49.9017 618.505 49.8867ZM629.852 72.9382C629.909 72.8491 629.965 72.7598 630.022 72.6705C630.521 71.8864 630.29 70.8462 629.504 70.3443C628.718 69.8476 627.678 70.0784 627.179 70.8612L616.702 87.326L613.113 82.5404C612.556 81.7962 611.501 81.6479 610.757 82.2035C610.012 82.7608 609.861 83.816 610.42 84.5585C610.437 84.5813 610.455 84.6044 610.472 84.6275C610.489 84.6505 610.507 84.6736 610.524 84.6964C610.777 85.0343 611.03 85.3717 611.283 85.709C611.604 86.1364 611.925 86.5636 612.245 86.9908C612.757 87.675 613.271 88.36 613.786 89.0452C614.041 89.3849 614.296 89.7248 614.551 90.0646C614.634 90.1758 614.718 90.2938 614.804 90.4146C615.368 91.2081 616.014 92.1164 617.094 91.9281C617.853 91.7948 618.221 91.2144 618.597 90.6207C618.61 90.6004 618.623 90.58 618.636 90.5596C619.033 89.9399 619.428 89.3183 619.823 88.6969L619.916 88.5514C621.511 86.0443 623.107 83.5372 624.702 81.03C626.301 78.5174 627.9 76.0047 629.499 73.492C629.617 73.3079 629.734 73.1232 629.852 72.9382Z" fill="url(#paint2_linear)"></path> <path fill-rule="evenodd" clip-rule="evenodd" d="M457.158 192.084C456.854 192.34 456.404 192.319 456.123 192.039L452.864 188.778C452.714 188.628 452.632 188.422 452.64 188.21C452.647 187.997 452.742 187.797 452.903 187.658C457.09 184.01 462.452 182 468.002 182C473.551 182 478.913 184.01 483.099 187.658C483.259 187.798 483.354 187.998 483.362 188.21C483.37 188.422 483.288 188.628 483.138 188.778L479.878 192.039C479.729 192.188 479.533 192.263 479.336 192.263C479.162 192.263 478.986 192.204 478.843 192.084C475.811 189.537 471.961 188.134 468.001 188.134C464.04 188.134 460.19 189.537 457.158 192.084ZM485.342 189.901C485.202 189.74 485.002 189.645 484.79 189.638C484.578 189.619 484.372 189.713 484.221 189.862L480.961 193.123C480.68 193.404 480.661 193.853 480.916 194.159C483.464 197.189 484.866 201.04 484.866 205.001C484.866 208.961 483.463 212.811 480.916 215.843C480.661 216.147 480.68 216.596 480.961 216.879L484.221 220.139C484.365 220.283 484.56 220.364 484.764 220.364L484.778 220.364C484.782 220.364 484.786 220.363 484.79 220.363C485.002 220.356 485.202 220.261 485.342 220.101C488.991 215.913 491 210.551 491 205.001C491 199.451 488.991 194.088 485.342 189.901ZM455.084 215.842C452.536 212.812 451.134 208.961 451.134 205C451.134 201.04 452.537 197.189 455.084 194.158C455.339 193.854 455.32 193.404 455.039 193.122L451.779 189.861C451.629 189.712 451.421 189.624 451.21 189.638C450.998 189.644 450.797 189.74 450.658 189.9C447.01 194.087 445 199.449 445 204.999C445 210.549 447.01 215.911 450.658 220.099C450.797 220.259 450.998 220.354 451.21 220.361C451.218 220.362 451.228 220.362 451.236 220.362C451.439 220.362 451.634 220.281 451.779 220.137L455.039 216.876C455.32 216.596 455.34 216.147 455.084 215.842ZM479.878 217.961C479.597 217.68 479.147 217.659 478.842 217.916C475.811 220.463 471.961 221.866 468 221.866C464.04 221.866 460.19 220.463 457.158 217.916C456.854 217.659 456.404 217.68 456.122 217.961L452.862 221.222C452.713 221.372 452.631 221.578 452.638 221.79C452.646 222.002 452.741 222.203 452.902 222.342C457.087 225.991 462.45 228 467.999 228C473.549 228 478.911 225.99 483.098 222.342C483.259 222.203 483.354 222.003 483.361 221.79C483.369 221.578 483.287 221.372 483.137 221.222L479.878 217.961ZM468.002 191.968C468.265 191.969 468.51 192.104 468.65 192.326C468.767 192.511 471.424 196.567 477.967 196.566C478.17 196.566 478.365 196.647 478.509 196.791C478.654 196.936 478.734 197.132 478.733 197.336L478.705 204.863C478.705 208.71 477.443 212.336 475.152 215.069C473.078 217.544 470.671 218.799 468 218.799C465.329 218.799 462.922 217.544 460.848 215.069C458.557 212.336 457.295 208.71 457.295 204.861L457.267 197.337C457.267 197.132 457.346 196.936 457.49 196.792C457.634 196.647 457.829 196.567 458.033 196.567C464.587 196.567 467.241 192.499 467.351 192.326C467.492 192.102 467.737 191.975 468.002 191.968ZM473.17 202.467C473.196 202.426 473.222 202.386 473.248 202.345C473.475 201.988 473.37 201.514 473.012 201.286C472.654 201.059 472.18 201.164 471.953 201.521L467.181 209.02L465.547 206.84C465.293 206.501 464.812 206.434 464.473 206.687C464.135 206.941 464.065 207.421 464.32 207.759C464.325 207.765 464.329 207.771 464.334 207.777C464.345 207.792 464.356 207.807 464.368 207.822C464.483 207.976 464.598 208.13 464.713 208.283C464.859 208.478 465.005 208.672 465.151 208.867C465.383 209.176 465.615 209.486 465.848 209.795C465.965 209.953 466.083 210.11 466.201 210.267C466.239 210.318 466.278 210.371 466.317 210.426C466.574 210.788 466.868 211.202 467.36 211.116C467.705 211.055 467.873 210.791 468.045 210.52C468.05 210.511 468.056 210.502 468.062 210.492C468.243 210.21 468.423 209.926 468.604 209.643L468.645 209.578C469.373 208.434 470.101 207.29 470.829 206.146C471.556 205.004 472.283 203.861 473.01 202.719C473.063 202.635 473.117 202.551 473.17 202.467Z" fill="url(#paint3_linear)"></path> <path fill-rule="evenodd" clip-rule="evenodd" d="M591.537 222.057C591.173 222.363 590.635 222.339 590.299 222.003L586.402 218.104C586.223 217.925 586.125 217.678 586.134 217.425C586.143 217.17 586.257 216.932 586.449 216.765C591.455 212.403 597.866 210 604.502 210C611.137 210 617.548 212.403 622.553 216.765C622.745 216.932 622.859 217.171 622.868 217.425C622.877 217.678 622.779 217.925 622.6 218.104L618.702 222.003C618.524 222.181 618.289 222.272 618.053 222.272C617.845 222.272 617.636 222.201 617.464 222.057C613.84 219.012 609.236 217.334 604.501 217.334C599.765 217.334 595.162 219.012 591.537 222.057ZM625.235 219.446C625.068 219.255 624.829 219.141 624.575 219.133C624.322 219.11 624.076 219.222 623.895 219.4L619.997 223.299C619.661 223.635 619.638 224.173 619.943 224.537C622.99 228.161 624.666 232.765 624.666 237.501C624.666 242.236 622.988 246.84 619.943 250.464C619.638 250.828 619.661 251.365 619.997 251.703L623.895 255.601C624.067 255.774 624.3 255.87 624.544 255.87C624.554 255.87 624.565 255.87 624.575 255.869C624.829 255.861 625.068 255.747 625.235 255.555C629.598 250.549 632 244.137 632 237.502C632 230.866 629.599 224.453 625.235 219.446ZM589.057 250.464C586.011 246.84 584.334 242.236 584.334 237.5C584.334 232.765 586.012 228.161 589.057 224.537C589.362 224.173 589.339 223.636 589.003 223.298L585.105 219.4C584.925 219.221 584.677 219.116 584.425 219.132C584.171 219.14 583.932 219.254 583.765 219.445C579.403 224.452 577 230.863 577 237.499C577 244.135 579.403 250.546 583.765 255.553C583.932 255.745 584.171 255.858 584.425 255.867C584.435 255.868 584.446 255.868 584.456 255.868C584.699 255.868 584.932 255.771 585.105 255.599L589.003 251.7C589.339 251.365 589.363 250.827 589.057 250.464ZM618.702 252.997C618.366 252.661 617.828 252.636 617.464 252.943C613.839 255.989 609.236 257.666 604.5 257.666C599.765 257.666 595.161 255.988 591.537 252.943C591.173 252.636 590.635 252.661 590.299 252.997L586.401 256.896C586.222 257.076 586.124 257.322 586.133 257.575C586.142 257.829 586.256 258.068 586.447 258.235C591.452 262.598 597.865 265 604.499 265C611.134 265 617.546 262.597 622.552 258.235C622.744 258.068 622.858 257.83 622.867 257.575C622.876 257.322 622.778 257.076 622.599 256.896L618.702 252.997ZM604.503 221.919C604.817 221.919 605.11 222.081 605.277 222.347C605.417 222.568 608.594 227.417 616.416 227.416C616.659 227.416 616.893 227.513 617.065 227.685C617.238 227.858 617.334 228.092 617.333 228.336L617.299 237.336C617.299 241.936 615.79 246.272 613.051 249.539C610.571 252.498 607.694 253.999 604.5 253.999C601.306 253.999 598.429 252.499 595.948 249.539C593.209 246.272 591.7 241.936 591.7 237.333L591.666 228.337C591.666 228.093 591.762 227.859 591.934 227.686C592.106 227.513 592.339 227.417 592.583 227.417C600.419 227.417 603.592 222.553 603.723 222.346C603.892 222.079 604.185 221.927 604.503 221.919ZM610.682 234.471C610.713 234.422 610.744 234.374 610.775 234.326C611.046 233.899 610.92 233.332 610.492 233.059C610.064 232.788 609.498 232.914 609.226 233.34L603.521 242.306L601.567 239.7C601.263 239.295 600.689 239.214 600.283 239.517C599.878 239.82 599.795 240.395 600.1 240.799C600.119 240.824 600.138 240.85 600.157 240.874C600.295 241.058 600.433 241.242 600.57 241.426C600.745 241.659 600.919 241.891 601.094 242.124C601.373 242.497 601.653 242.87 601.933 243.243C602.072 243.428 602.211 243.613 602.349 243.798C602.395 243.858 602.44 243.922 602.487 243.988C602.795 244.42 603.147 244.915 603.734 244.812C604.148 244.74 604.348 244.424 604.553 244.1C604.56 244.089 604.567 244.078 604.574 244.067C604.791 243.729 605.006 243.39 605.222 243.051L605.271 242.974C606.141 241.607 607.011 240.24 607.88 238.873C608.75 237.507 609.62 236.14 610.49 234.773C610.554 234.672 610.618 234.572 610.682 234.471Z" fill="url(#paint4_linear)"></path> </g> <defs> <linearGradient id="paint0_linear" x1="351.735" y1="-7" x2="562.259" y2="59.8259" gradientUnits="userSpaceOnUse"> <stop stop-color="#98CDFE"></stop> <stop offset="1" stop-color="#98CDFE" stop-opacity="0"></stop> </linearGradient> <linearGradient id="paint1_linear" x1="458.706" y1="134" x2="579.005" y2="172.186" gradientUnits="userSpaceOnUse"> <stop stop-color="#98CDFE"></stop> <stop offset="1" stop-color="#98CDFE" stop-opacity="0"></stop> </linearGradient> <linearGradient id="paint2_linear" x1="535" y1="-23" x2="662.211" y2="131.503" gradientUnits="userSpaceOnUse"> <stop stop-color="#98CDFE"></stop> <stop offset="1" stop-color="#98CDFE" stop-opacity="0"></stop> </linearGradient> <linearGradient id="paint3_linear" x1="429.97" y1="158.772" x2="487.908" y2="229.14" gradientUnits="userSpaceOnUse"> <stop stop-color="#98CDFE"></stop> <stop offset="1" stop-color="#98CDFE" stop-opacity="0"></stop> </linearGradient> <linearGradient id="paint4_linear" x1="559.03" y1="182.228" x2="628.303" y2="266.363" gradientUnits="userSpaceOnUse"> <stop stop-color="#98CDFE"></stop> <stop offset="1" stop-color="#98CDFE" stop-opacity="0"></stop> </linearGradient> </defs> </svg> 