<?xml version="1.0" encoding="UTF-8"?> <svg xmlns="http://www.w3.org/2000/svg" width="32" height="32" viewBox="0 0 32 32" fill="none"> <path fill-rule="evenodd" clip-rule="evenodd" d="M25.5395 10.8573C25.6802 10.3883 25.5395 10.0601 24.883 10.0601H22.6946C22.1318 10.0601 21.8817 10.3571 21.741 10.6853C21.741 10.6853 20.6312 13.4052 19.0524 15.156C18.5366 15.6718 18.3177 15.8281 18.0363 15.8281C17.8957 15.8281 17.6924 15.6718 17.6924 15.2029V10.8573C17.6924 10.2945 17.5361 10.0601 17.0672 10.0601H13.6282C13.2843 10.0601 13.0655 10.3258 13.0655 10.5603C13.0655 11.0917 13.8471 11.2168 13.9409 12.6862V15.9063C13.9409 16.6097 13.8158 16.7348 13.5344 16.7348C12.7998 16.7348 10.9865 14.0149 9.92353 10.8885C9.70469 10.3102 9.50148 10.0601 8.93874 10.0601H6.75032C6.12505 10.0601 6 10.3571 6 10.6853C6 11.2637 6.73469 14.1399 9.45459 17.9384C11.2679 20.5332 13.8158 21.9401 16.1293 21.9401C17.5205 21.9401 17.6924 21.6275 17.6924 21.096V19.1264C17.6924 18.5011 17.8175 18.3761 18.2708 18.3761C18.5991 18.3761 19.1462 18.5324 20.4436 19.7829C21.9286 21.2679 22.1787 21.9401 23.0072 21.9401H25.1956C25.8209 21.9401 26.1335 21.6275 25.9459 21.0178C25.7427 20.4082 25.0393 19.5172 24.1014 18.4542C23.5856 17.8446 22.8196 17.2037 22.6008 16.8754C22.2725 16.4534 22.3663 16.2658 22.6008 15.9063C22.6008 15.8906 25.2738 12.1391 25.5395 10.8573Z" fill="#64687E"></path> </svg> 