<?xml version="1.0" encoding="UTF-8"?> <svg xmlns="http://www.w3.org/2000/svg" width="71" height="116" viewBox="0 0 71 116" fill="none"> <path d="M36.3895 0.00634766C38.8195 0.453182 40.4333 1.26503 41.5573 3.22229C45.8962 10.7744 52.6839 14.5505 61.1105 15.8092C62.9943 16.0798 64.8278 16.4385 66.6739 16.7721C68.7711 17.1749 70.4414 18.1692 70.9123 20.416C71.3456 22.4802 70.1148 23.8396 68.6078 24.8843C59.3524 31.3351 55.07 40.8256 52.3825 51.3168C51.6353 54.2117 51.786 57.1445 51.8739 60.0772C51.943 62.5443 51.6416 64.9546 48.7343 65.3889C45.8271 65.8231 44.7533 63.7903 44.094 61.3233C42.3421 54.7781 39.6672 48.6483 35.41 43.3304C33.7083 41.2032 31.9313 39.0005 28.5908 40.8634C27.4417 41.4927 26.0791 40.964 25.3005 39.7746C24.3335 38.346 24.748 36.9803 25.6145 35.6776C29.382 30.0135 31.6613 23.72 33.3504 17.2189C34.5434 12.631 34.7318 7.9109 34.7004 3.18453C34.669 1.65522 34.7067 0.13851 36.3895 0.00634766ZM38.964 12.6436C38.5482 17.6952 37.478 22.6711 35.7804 27.4457C33.7837 33.1728 33.8527 33.1665 38.5558 37.0621C39.6644 38.016 40.6837 39.0692 41.6012 40.2088C42.9889 41.864 44.2698 43.6073 45.9401 45.7408C48.8159 37.767 52.5207 30.7939 57.6633 24.6326C58.8689 23.1851 57.3996 22.9396 56.4074 22.669C53.253 21.8934 50.2543 20.5822 47.5413 18.7923C44.7345 16.8476 41.9968 14.8148 38.964 12.6373V12.6436Z" fill="#FF3049"></path> <path d="M1.01875 95.2324C1.1647 94.2547 1.60252 93.3442 2.27459 92.6206C7.5428 87.2649 9.92259 80.5309 11.3919 73.3753C11.6494 72.1166 11.7122 70.732 13.2757 70.4803C14.6571 70.26 16.2394 70.4803 16.8987 71.7893C19.4418 76.8241 24.4337 77.315 29.0112 78.5107C29.8149 78.7184 30.6815 78.7058 31.4789 78.9135C34.405 79.6876 35.4159 82.2616 33.3062 84.3321C27.1149 90.399 25.6581 98.291 24.4588 106.303C24.283 107.498 24.6535 108.782 24.7728 110.028C24.9863 112.218 25.0491 114.515 22.2611 114.95C19.4732 115.384 18.7071 113.307 18.2613 111.104C17.4858 106.84 15.4719 102.899 12.4719 99.7762C10.4877 97.7435 8.48467 95.1191 5.23207 98.2343C4.45973 98.9707 3.2353 98.7693 2.28715 98.1148C1.82897 97.8003 1.46748 97.3639 1.24339 96.8546C1.01929 96.3454 0.941495 95.7835 1.01875 95.2324V95.2324ZM15.0715 79.933C14.2615 79.8764 14.2552 80.6442 14.0606 81.1917C13.4326 82.8595 12.9491 84.5587 12.315 86.2265C10.5631 90.7452 10.5568 90.72 14.5378 93.6464C15.4898 94.2823 16.3552 95.0397 17.1122 95.8995C19.109 98.3665 19.8876 97.3784 20.5218 94.9366C21.0155 93.1292 21.6452 91.362 22.4056 89.6501C24.553 84.6531 24.5656 84.6972 19.7746 82.5259C18.1985 81.7393 16.6978 80.7952 15.0715 79.933Z" fill="#FF3049"></path> </svg> 