<?xml version="1.0" encoding="UTF-8"?> <svg xmlns="http://www.w3.org/2000/svg" width="32" height="32" viewBox="0 0 32 32" fill="none"> <path d="M25.3333 7.32834L21.9594 24.5558C21.9594 24.5558 21.4867 25.7509 20.1899 25.178L15.3526 21.4224L15.3884 21.4507L12.309 24.2952C12.309 24.2952 12.0679 24.4795 11.8043 24.3644L12.4266 18.9889C12.4266 18.9889 21.0628 11.1271 21.4167 10.7925C21.7706 10.458 21.6518 10.3864 21.6518 10.3864C21.6756 9.98019 21.0153 10.3864 21.0153 10.3864L9.57161 17.7469L4.80697 16.1223C4.80697 16.1223 4.07541 15.8593 4.00415 15.2853C3.93171 14.7124 4.83072 14.4013 4.83072 14.4013L23.7752 6.87403C23.7752 6.87403 25.3333 6.18141 25.3333 7.32834Z" fill="#64687E"></path> </svg> 