<?xml version="1.0" encoding="UTF-8"?> <svg xmlns="http://www.w3.org/2000/svg" width="59" height="55" viewBox="0 0 59 55" fill="none"> <path d="M36.033 16.311C36.1748 13.3574 35.9976 10.805 36.5094 8.31552C36.848 6.64014 37.1788 4.97654 37.9347 3.42701C39.5923 0.0251154 42.616 -0.922691 45.9469 0.937536C47.9435 2.08239 49.7184 3.57558 51.1873 5.34623C54.0182 8.6616 56.1128 12.445 58.0814 16.2992C58.5814 17.2824 59.0735 18.3167 58.9909 19.4769C58.92 20.4286 58.6405 21.3017 57.6798 21.7343C56.7821 22.1276 56.0025 21.7579 55.3175 21.227C53.7426 20.0471 52.9551 18.2656 52.0063 16.6334C50.2188 13.5816 48.577 10.4314 46.2816 7.7138C45.3327 6.58901 44.2697 4.93723 42.7381 5.3541C41.3404 5.74739 41.5884 7.67054 41.3404 8.98017C40.6356 12.7006 41.0057 16.4171 41.5491 20.1219C41.6632 20.9084 41.8247 21.6714 41.9034 22.454C41.9921 23.0422 41.9031 23.6434 41.6478 24.1808C41.3925 24.7182 40.9825 25.1672 40.4703 25.4705C39.3994 26.1391 38.3324 25.8913 37.3205 25.3014C36.3913 24.7705 35.722 23.9603 35.0212 23.1777C32.6589 20.5387 30.2965 17.9077 27.2216 16.0357C23.8159 13.9434 22.2056 14.7811 22.056 18.6982C21.8867 23.1226 22.3513 27.4644 23.8986 31.649C24.0128 31.9557 24.123 32.2664 24.2057 32.5811C24.5994 34.0323 24.8199 35.5228 23.3631 36.4942C21.9064 37.4656 20.5047 36.8875 19.2212 35.8768C15.8273 33.2732 12.5594 30.536 8.67737 28.6522C5.38587 27.079 4.01966 27.8184 3.98028 31.5192C3.8976 37.6229 6.42134 42.8103 9.8034 47.7067C10.9846 49.4214 12.7169 50.5108 14.1894 51.8912C14.9021 52.5559 15.532 53.2756 14.906 54.2509C14.28 55.2263 13.3626 55.0886 12.4453 54.7347C9.83096 53.7279 7.93323 51.8008 6.35047 49.622C2.74793 44.6509 0.409236 39.1567 0.0194532 32.9468C-0.0887537 30.9095 0.255444 28.8735 1.02738 26.9847C1.97625 24.5817 4.41337 23.3075 7.09855 23.6535C10.2483 24.0468 12.902 25.62 15.5556 27.2127C16.0872 27.5274 16.6305 28.2589 17.2841 27.8027C17.8235 27.4094 17.3943 26.7054 17.3628 26.1312C17.1857 22.8001 16.851 19.4454 17.5439 16.1458C18.6464 10.8876 22.7568 8.74813 27.7807 10.7421C29.7795 11.5814 31.6382 12.7206 33.2927 14.1204C34.1077 14.7732 34.907 15.4064 36.033 16.311Z" fill="#F5B53D"></path> </svg> 