<?xml version="1.0" encoding="UTF-8"?> <svg xmlns="http://www.w3.org/2000/svg" width="300" height="345" viewBox="0 0 300 345" fill="none"> <g clip-path="url(#clip0)"> <mask id="mask0" mask-type="alpha" maskUnits="userSpaceOnUse" x="-297" y="163" width="606" height="211"> <rect x="-297" y="163" width="606" height="210.264" rx="16" fill="#434760"></rect> </mask> <g mask="url(#mask0)"> <path opacity="0.47" d="M-32.5 376C-13.7488 321.9 12 314.959 49 318C49 318 101.423 340.428 124.5 320.5C152.964 273.424 178.58 293.323 186.882 304.987C196.982 321.924 215.345 323.094 226.823 314.041C238.3 304.987 263.079 224.385 286.096 218.629C309.113 212.872 311.295 255.356 343.432 249.388C360.45 242.676 366.706 237.06 368.798 233.225C369.71 231.554 369.141 231.613 369.141 233.516V445.469L-32.5 376Z" fill="url(#paint0_linear)"></path> <path d="M-51.8455 390.709C-29.6874 390.709 -19.8368 309.321 1.5 307.155C23.765 302.756 39.368 338.245 63.5 337.455C96.3998 336.374 99.4191 314.688 126.282 307.155C153.145 299.621 162.091 337.455 181.832 337.455C201.573 337.455 201.304 226.002 228.2 224.518C273.65 215.795 261.714 277.314 283.291 277.314C304.868 277.314 295.446 206.155 323.691 206.155" stroke="#0085FF" stroke-width="2" stroke-linecap="round" stroke-linejoin="round"></path> <g filter="url(#filter0_d)"> <circle cx="232.791" cy="226.355" r="13.7727" fill="white"></circle> </g> <circle cx="232.791" cy="226.355" r="5.50909" fill="#0085FF"></circle> </g> <path d="M142.277 226.133H145.06V227.759H142.277V230.931H140.548V227.759H137.75V226.133H140.548V223.167H142.277V226.133ZM156.867 224.148C156.867 224.671 156.732 225.137 156.464 225.547C156.195 225.953 155.829 226.272 155.365 226.507C155.922 226.766 156.349 227.12 156.647 227.569C156.95 228.018 157.101 228.526 157.101 229.092C157.101 230.03 156.784 230.774 156.149 231.326C155.514 231.873 154.669 232.146 153.615 232.146C152.555 232.146 151.706 231.871 151.066 231.319C150.431 230.767 150.114 230.025 150.114 229.092C150.114 228.521 150.265 228.008 150.568 227.554C150.871 227.1 151.295 226.751 151.842 226.507C151.383 226.272 151.02 225.953 150.751 225.547C150.487 225.137 150.355 224.671 150.355 224.148C150.355 223.24 150.648 222.52 151.234 221.988C151.82 221.456 152.611 221.189 153.607 221.189C154.608 221.189 155.402 221.456 155.988 221.988C156.574 222.52 156.867 223.24 156.867 224.148ZM155.321 229.004C155.321 228.477 155.163 228.052 154.845 227.73C154.533 227.403 154.118 227.239 153.6 227.239C153.083 227.239 152.667 227.4 152.355 227.723C152.047 228.045 151.894 228.472 151.894 229.004C151.894 229.527 152.045 229.944 152.348 230.257C152.655 230.569 153.078 230.726 153.615 230.726C154.152 230.726 154.569 230.574 154.867 230.271C155.17 229.969 155.321 229.546 155.321 229.004ZM155.094 224.214C155.094 223.75 154.96 223.37 154.691 223.072C154.423 222.769 154.062 222.618 153.607 222.618C153.153 222.618 152.794 222.762 152.531 223.05C152.267 223.333 152.135 223.721 152.135 224.214C152.135 224.703 152.267 225.091 152.531 225.379C152.799 225.667 153.161 225.811 153.615 225.811C154.069 225.811 154.428 225.667 154.691 225.379C154.96 225.091 155.094 224.703 155.094 224.214ZM165.626 227.51C165.626 229.043 165.338 230.201 164.762 230.982C164.191 231.758 163.319 232.146 162.147 232.146C160.995 232.146 160.126 231.768 159.54 231.011C158.959 230.25 158.661 229.124 158.646 227.635V225.789C158.646 224.256 158.932 223.106 159.503 222.339C160.08 221.573 160.956 221.189 162.133 221.189C163.3 221.189 164.169 221.563 164.74 222.31C165.316 223.057 165.612 224.175 165.626 225.665V227.51ZM163.847 225.518C163.847 224.517 163.71 223.785 163.437 223.321C163.163 222.852 162.729 222.618 162.133 222.618C161.552 222.618 161.125 222.84 160.851 223.284C160.578 223.724 160.434 224.412 160.419 225.35V227.767C160.419 228.763 160.558 229.505 160.836 229.993C161.115 230.481 161.552 230.726 162.147 230.726C162.719 230.726 163.141 230.501 163.415 230.052C163.688 229.598 163.832 228.89 163.847 227.928V225.518ZM177.887 227.51C177.887 229.043 177.599 230.201 177.023 230.982C176.452 231.758 175.58 232.146 174.408 232.146C173.256 232.146 172.387 231.768 171.801 231.011C171.22 230.25 170.922 229.124 170.907 227.635V225.789C170.907 224.256 171.193 223.106 171.764 222.339C172.34 221.573 173.217 221.189 174.394 221.189C175.561 221.189 176.43 221.563 177.001 222.31C177.577 223.057 177.873 224.175 177.887 225.665V227.51ZM176.107 225.518C176.107 224.517 175.971 223.785 175.697 223.321C175.424 222.852 174.989 222.618 174.394 222.618C173.812 222.618 173.385 222.84 173.112 223.284C172.838 223.724 172.694 224.412 172.68 225.35V227.767C172.68 228.763 172.819 229.505 173.097 229.993C173.375 230.481 173.812 230.726 174.408 230.726C174.979 230.726 175.402 230.501 175.675 230.052C175.949 229.598 176.093 228.89 176.107 227.928V225.518ZM186.413 227.51C186.413 229.043 186.125 230.201 185.548 230.982C184.977 231.758 184.105 232.146 182.934 232.146C181.781 232.146 180.912 231.768 180.326 231.011C179.745 230.25 179.447 229.124 179.433 227.635V225.789C179.433 224.256 179.718 223.106 180.29 222.339C180.866 221.573 181.742 221.189 182.919 221.189C184.086 221.189 184.955 221.563 185.526 222.31C186.103 223.057 186.398 224.175 186.413 225.665V227.51ZM184.633 225.518C184.633 224.517 184.496 223.785 184.223 223.321C183.949 222.852 183.515 222.618 182.919 222.618C182.338 222.618 181.911 222.84 181.637 223.284C181.364 223.724 181.22 224.412 181.205 225.35V227.767C181.205 228.763 181.344 229.505 181.623 229.993C181.901 230.481 182.338 230.726 182.934 230.726C183.505 230.726 183.927 230.501 184.201 230.052C184.474 229.598 184.618 228.89 184.633 227.928V225.518ZM194.938 227.51C194.938 229.043 194.65 230.201 194.074 230.982C193.502 231.758 192.631 232.146 191.459 232.146C190.307 232.146 189.438 231.768 188.852 231.011C188.271 230.25 187.973 229.124 187.958 227.635V225.789C187.958 224.256 188.244 223.106 188.815 222.339C189.391 221.573 190.268 221.189 191.444 221.189C192.611 221.189 193.48 221.563 194.052 222.31C194.628 223.057 194.923 224.175 194.938 225.665V227.51ZM193.158 225.518C193.158 224.517 193.021 223.785 192.748 223.321C192.475 222.852 192.04 222.618 191.444 222.618C190.863 222.618 190.436 222.84 190.163 223.284C189.889 223.724 189.745 224.412 189.73 225.35V227.767C189.73 228.763 189.87 229.505 190.148 229.993C190.426 230.481 190.863 230.726 191.459 230.726C192.03 230.726 192.453 230.501 192.726 230.052C193 229.598 193.144 228.89 193.158 227.928V225.518ZM205.448 230.308H203.09V232H201.244V230.308H199.743V228.821H201.244V228.038H199.743V226.551H201.244V221.336H205.324C206.5 221.336 207.44 221.644 208.144 222.259C208.847 222.869 209.198 223.682 209.198 224.698C209.198 225.733 208.864 226.546 208.195 227.137C207.526 227.723 206.596 228.023 205.404 228.038H203.09V228.821H205.448V230.308ZM203.09 226.551H205.294C205.958 226.551 206.466 226.397 206.818 226.089C207.169 225.782 207.345 225.323 207.345 224.712C207.345 224.166 207.172 223.719 206.825 223.372C206.483 223.025 206.01 222.845 205.404 222.83H203.09V226.551Z" fill="#0085FF"></path> </g> <defs> <filter id="filter0_d" x="209.018" y="206.582" width="47.5455" height="47.5455" filterUnits="userSpaceOnUse" color-interpolation-filters="sRGB"> <feFlood flood-opacity="0" result="BackgroundImageFix"></feFlood> <feColorMatrix in="SourceAlpha" type="matrix" values="0 0 0 0 0 0 0 0 0 0 0 0 0 0 0 0 0 0 127 0"></feColorMatrix> <feOffset dy="4"></feOffset> <feGaussianBlur stdDeviation="5"></feGaussianBlur> <feColorMatrix type="matrix" values="0 0 0 0 0 0 0 0 0 0 0 0 0 0 0 0 0 0 0.07 0"></feColorMatrix> <feBlend mode="normal" in2="BackgroundImageFix" result="effect1_dropShadow"></feBlend> <feBlend mode="normal" in="SourceGraphic" in2="effect1_dropShadow" result="shape"></feBlend> </filter> <linearGradient id="paint0_linear" x1="178.618" y1="201.105" x2="180.358" y2="404.027" gradientUnits="userSpaceOnUse"> <stop stop-color="#98CDFE"></stop> <stop offset="1" stop-color="#98CDFE" stop-opacity="0"></stop> </linearGradient> <clipPath id="clip0"> <rect width="300" height="345" rx="16" fill="white"></rect> </clipPath> </defs> </svg> 