<?xml version="1.0" encoding="UTF-8"?> <svg xmlns="http://www.w3.org/2000/svg" width="32" height="32" viewBox="0 0 32 32" fill="none"> <path d="M12.2896 24.127C19.8368 24.127 23.9648 17.8742 23.9648 12.4518C23.9648 12.2742 23.9648 12.0974 23.9528 11.9214C24.7559 11.3405 25.4491 10.6213 26 9.79742C25.2511 10.1293 24.4567 10.3469 23.6432 10.443C24.4998 9.9302 25.1409 9.12363 25.4472 8.17342C24.6417 8.65138 23.7605 8.98823 22.8416 9.16942C22.2229 8.51156 21.4047 8.07595 20.5135 7.92999C19.6223 7.78402 18.7079 7.93585 17.9116 8.36196C17.1154 8.78808 16.4819 9.46473 16.109 10.2872C15.7361 11.1097 15.6446 12.0321 15.8488 12.9118C14.2174 12.83 12.6214 12.4061 11.1645 11.6675C9.70759 10.9289 8.42227 9.89217 7.392 8.62462C6.86727 9.52795 6.70656 10.5973 6.94258 11.615C7.17861 12.6326 7.79362 13.5221 8.6624 14.1022C8.00939 14.0829 7.37062 13.9067 6.8 13.5886C6.8 13.6054 6.8 13.623 6.8 13.6406C6.80026 14.588 7.12821 15.5061 7.72823 16.2393C8.32824 16.9724 9.16338 17.4754 10.092 17.663C9.4879 17.8278 8.85406 17.8519 8.2392 17.7334C8.50141 18.5488 9.01189 19.2617 9.69926 19.7727C10.3866 20.2836 11.2165 20.5669 12.0728 20.583C10.6198 21.725 8.82485 22.3449 6.9768 22.343C6.65032 22.3424 6.32416 22.3226 6 22.2838C7.87651 23.488 10.0599 24.1268 12.2896 24.1238V24.127Z" fill="#64687E"></path> </svg> 