<?xml version="1.0" encoding="UTF-8"?> <svg xmlns="http://www.w3.org/2000/svg" width="32" height="32" viewBox="0 0 32 32" fill="none"> <path fill-rule="evenodd" clip-rule="evenodd" d="M23.8068 9.38037C24.6705 9.61914 25.3523 10.3008 25.5795 11.1646C26 12.7329 26 16.0054 26 16.0054C26 16.0054 26 19.2783 25.5909 20.8462C25.3523 21.7212 24.6818 22.4033 23.8182 22.6304C22.25 23.0508 16 23.0508 16 23.0508C16 23.0508 9.75 23.0508 8.19318 22.6304C7.32953 22.3916 6.64771 21.71 6.42047 20.8462C6 19.2783 6 16.0054 6 16.0054C6 16.0054 6 12.7329 6.40912 11.1646C6.64771 10.2896 7.31818 9.60791 8.18182 9.38037C9.75 8.95996 16 8.95996 16 8.95996C16 8.95996 22.25 8.95996 23.8068 9.38037ZM13.9546 13.0283V18.9829L19.1819 16.0054L13.9546 13.0283Z" fill="#64687E"></path> </svg> 