<?xml version="1.0" encoding="UTF-8"?> <svg xmlns="http://www.w3.org/2000/svg" width="460" height="264" viewBox="0 0 460 264" fill="none"> <mask id="mask0" mask-type="alpha" maskUnits="userSpaceOnUse" x="0" y="0" width="460" height="264"> <rect width="460" height="264" rx="16" fill="white"></rect> </mask> <g mask="url(#mask0)"> <g clip-path="url(#clip0)"> <path d="M366.516 195.76L366.297 219.64L381.388 205.394L428.989 172.993L390.137 181.486C390.137 181.486 370.735 188.855 369.757 189.975C368.78 191.094 366.516 195.76 366.516 195.76Z" fill="#DCECF9"></path> <path d="M347.372 183.732L429 173L366.513 195.76L347.372 183.732Z" fill="url(#paint0_linear)"></path> <path d="M395.678 216.137L372.147 201.506L429 173L395.678 216.137Z" fill="url(#paint1_linear)"></path> <path d="M263.003 294.315C263.018 292.396 263.138 290.479 263.363 288.573C263.571 286.812 263.873 285.027 264.261 283.27L266.154 283.691C265.795 285.387 265.49 287.108 265.288 288.803C265.065 290.639 264.945 292.487 264.929 294.337C264.929 294.873 264.929 295.417 264.929 295.946L262.993 295.989C263.003 295.435 263 294.87 263.003 294.315ZM268.325 271.18C270.079 267.318 272.164 263.616 274.555 260.113L276.154 261.215C273.822 264.634 271.788 268.247 270.074 272.016L268.325 271.18ZM328.861 259.753C328.739 259.699 328.62 259.638 328.501 259.577L329.371 257.838C329.475 257.888 329.579 257.943 329.669 257.982C329.735 258.002 329.802 258.015 329.87 258.022C330.948 258.151 333.701 257.806 335.131 256.69C336.39 255.67 337.321 254.301 337.808 252.755L339.64 253.392C339.026 255.293 337.872 256.973 336.32 258.227C334.337 259.779 330.991 260.117 329.64 259.955C329.371 259.931 329.108 259.863 328.861 259.753ZM282.46 250.173C285.315 247.057 288.362 244.123 291.583 241.389L292.833 242.876C289.677 245.558 286.692 248.437 283.897 251.495L282.46 250.173ZM319.335 245.626C319.104 243.713 319.104 241.779 319.335 239.866C319.467 238.776 319.662 237.694 319.918 236.626L321.804 237.083C321.565 238.075 321.383 239.08 321.261 240.093C321.046 241.85 321.046 243.628 321.261 245.385C321.415 246.598 321.689 247.792 322.081 248.949L320.248 249.579C319.808 248.296 319.498 246.972 319.325 245.626H319.335ZM327.373 234.631L327.115 234.541L327.718 232.691L327.998 232.784C332.206 234.225 335.874 237.029 338.059 240.482L336.428 241.529C334.459 238.444 331.157 235.931 327.373 234.631ZM302.664 235.035C304.719 234.113 308.47 232.514 310.504 232.154C312.081 231.881 313.536 231.683 314.948 231.553L315.124 233.494C313.766 233.62 312.361 233.811 310.831 234.073C309.498 234.304 306.806 235.301 303.451 236.802L302.664 235.035ZM325.164 224.896C327.52 221.314 330.392 218.101 333.686 215.36L334.922 216.861C331.774 219.479 329.031 222.55 326.78 225.973L325.164 224.896Z" fill="#DCECF9"></path> <path d="M345.339 210.539C347.26 209.739 349.244 209.102 351.271 208.635L350.84 206.734C348.708 207.225 346.62 207.895 344.599 208.735L345.339 210.539Z" fill="#DCECF9"></path> </g> <path d="M404.371 37.9893L404.544 56.8575L392.62 45.6014L355.009 20L385.707 26.7104C385.707 26.7104 401.038 32.5333 401.81 33.418C402.582 34.3027 404.371 37.9893 404.371 37.9893Z" fill="#DCECF9"></path> <path d="M419.497 28.4854L355.001 20.0056L404.374 37.9892L419.497 28.4854Z" fill="url(#paint2_linear)"></path> <path d="M381.329 54.0896L399.921 42.5292L355 20.0056L381.329 54.0896Z" fill="url(#paint3_linear)"></path> <path d="M486.159 115.86C486.148 114.344 486.053 112.829 485.876 111.323C485.711 109.932 485.472 108.521 485.166 107.133L483.67 107.466C483.954 108.806 484.195 110.165 484.354 111.505C484.53 112.956 484.625 114.416 484.638 115.877C484.638 116.301 484.638 116.731 484.638 117.149L486.168 117.183C486.159 116.745 486.162 116.298 486.159 115.86ZM481.955 97.5808C480.569 94.5293 478.922 91.6036 477.032 88.8365L475.769 89.7069C477.612 92.4081 479.219 95.2632 480.572 98.2407L481.955 97.5808ZM434.124 88.552C434.22 88.5093 434.314 88.461 434.408 88.4126L433.72 87.0387C433.638 87.0785 433.556 87.1212 433.485 87.1525C433.433 87.1683 433.38 87.1788 433.326 87.1838C432.474 87.2862 430.299 87.0131 429.17 86.1312C428.175 85.3258 427.439 84.2443 427.055 83.0221L425.607 83.5256C426.092 85.0275 427.003 86.3551 428.23 87.3459C429.797 88.5719 432.44 88.8393 433.508 88.7113C433.72 88.6925 433.928 88.6387 434.124 88.552ZM470.786 80.9825C468.531 78.5204 466.123 76.2022 463.578 74.0417L462.59 75.2165C465.084 77.3358 467.442 79.6103 469.651 82.0265L470.786 80.9825ZM441.65 77.3898C441.833 75.8782 441.833 74.35 441.65 72.8384C441.546 71.9769 441.392 71.1221 441.19 70.2783L439.699 70.6396C439.889 71.4232 440.032 72.2172 440.128 73.0176C440.298 74.4063 440.298 75.8106 440.128 77.1992C440.007 78.1573 439.79 79.1007 439.481 80.0154L440.929 80.5132C441.277 79.4995 441.521 78.453 441.658 77.3898H441.65ZM435.299 68.7024L435.503 68.6312L435.026 67.1691L434.805 67.2431C431.481 68.3809 428.582 70.5969 426.856 73.3248L428.145 74.1526C429.7 71.7148 432.31 69.7293 435.299 68.7024ZM454.823 69.021C453.199 68.2928 450.235 67.0298 448.628 66.7453C447.382 66.5291 446.232 66.3726 445.116 66.2702L444.977 67.8035C446.05 67.903 447.16 68.0538 448.37 68.2615C449.423 68.4435 451.549 69.2315 454.201 70.4177L454.823 69.021ZM437.045 61.0106C435.183 58.1802 432.914 55.641 430.311 53.4752L429.334 54.6614C431.822 56.73 433.989 59.1562 435.767 61.8611L437.045 61.0106Z" fill="#DCECF9"></path> <path d="M421.103 49.6664C419.586 49.0347 418.018 48.5313 416.416 48.1616L416.757 46.6597C418.442 47.048 420.091 47.5771 421.688 48.2413L421.103 49.6664Z" fill="#DCECF9"></path> <path d="M349.579 126.906L350.606 138.859L357.288 131.035L378.96 112.626L360.418 118.673C360.418 118.673 351.307 123.257 350.884 123.862C350.461 124.467 349.579 126.906 349.579 126.906Z" fill="#DCECF9"></path> <path d="M339.241 121.757L378.959 112.626L349.238 126.813L339.241 121.757Z" fill="url(#paint4_linear)"></path> <path d="M364.52 135.913L352.167 129.653L378.96 112.626L364.52 135.913Z" fill="url(#paint5_linear)"></path> </g> <defs> <linearGradient id="paint0_linear" x1="397.5" y1="182.5" x2="380.471" y2="151.033" gradientUnits="userSpaceOnUse"> <stop stop-color="#E3F3FF"></stop> <stop offset="1" stop-color="#F6FBFF" stop-opacity="0.37"></stop> </linearGradient> <linearGradient id="paint1_linear" x1="392" y1="190" x2="419.646" y2="221.189" gradientUnits="userSpaceOnUse"> <stop stop-color="#E3F3FF"></stop> <stop offset="1" stop-color="#F6FBFF" stop-opacity="0.37"></stop> </linearGradient> <linearGradient id="paint2_linear" x1="379.89" y1="27.5118" x2="393.345" y2="2.64897" gradientUnits="userSpaceOnUse"> <stop stop-color="#E3F3FF"></stop> <stop offset="1" stop-color="#F6FBFF" stop-opacity="0.37"></stop> </linearGradient> <linearGradient id="paint3_linear" x1="384.235" y1="33.4378" x2="362.391" y2="58.081" gradientUnits="userSpaceOnUse"> <stop stop-color="#E3F3FF"></stop> <stop offset="1" stop-color="#F6FBFF" stop-opacity="0.37"></stop> </linearGradient> <linearGradient id="paint4_linear" x1="363.884" y1="118.801" x2="353.962" y2="104.062" gradientUnits="userSpaceOnUse"> <stop stop-color="#E3F3FF"></stop> <stop offset="1" stop-color="#F6FBFF" stop-opacity="0.37"></stop> </linearGradient> <linearGradient id="paint5_linear" x1="361.449" y1="122.926" x2="376.865" y2="137.076" gradientUnits="userSpaceOnUse"> <stop stop-color="#E3F3FF"></stop> <stop offset="1" stop-color="#F6FBFF" stop-opacity="0.37"></stop> </linearGradient> <clipPath id="clip0"> <rect width="166" height="123" fill="white" transform="translate(263 173)"></rect> </clipPath> </defs> </svg> 