<?xml version="1.0" encoding="UTF-8"?> <svg xmlns="http://www.w3.org/2000/svg" width="187" height="44" viewBox="0 0 187 44" fill="none"> <path fill-rule="evenodd" clip-rule="evenodd" d="M129.861 41.0662C129.692 41.0662 129.554 40.9284 129.554 40.7616V35.5046C129.554 35.3378 129.693 35.2 129.861 35.2H130.281C130.449 35.2 130.588 35.3378 130.588 35.5046V36.8578H131.816C133.441 36.8578 134.253 37.9099 134.253 38.962C134.253 40.014 133.441 41.0662 131.816 41.0662H129.861ZM133.249 38.9509C133.249 38.0689 132.499 37.8058 131.657 37.8058H130.588V40.096H131.657C132.499 40.096 133.249 39.8329 133.249 38.9509ZM128.534 35.2C128.702 35.2 128.841 35.3377 128.841 35.5046V35.8657C128.841 36.0323 128.702 36.1702 128.534 36.1702H126.567V40.7616C126.567 40.9284 126.428 41.0662 126.26 41.0662H125.84C125.671 41.0662 125.533 40.9285 125.533 40.7616V36.1702H123.566C123.398 36.1702 123.259 36.0323 123.259 35.8657V35.5046C123.259 35.3377 123.397 35.2 123.566 35.2H128.534ZM118.972 37.6866H122.167V37.6528C122.167 36.6319 121.505 36.011 120.568 36.011C119.666 36.011 118.972 36.6573 118.972 37.6866ZM120.568 35.0871C122.559 35.0871 123.269 36.5973 123.194 38.2459C123.187 38.4124 123.055 38.5505 122.887 38.5505H118.976V38.6182C118.976 39.568 119.593 40.2406 120.568 40.2406C121.156 40.2406 121.604 40.0852 122.012 39.6447C122.129 39.5179 122.199 39.4868 122.376 39.4868H122.763C122.978 39.4868 123.091 39.6506 122.99 39.8677C122.623 40.6584 121.619 41.1784 120.568 41.1791C118.809 41.1804 117.936 39.7394 117.936 38.088C117.936 36.4385 118.84 35.0871 120.568 35.0871ZM114.398 40.2089C115.094 40.2089 115.636 39.9834 115.933 39.3289C116.013 39.1523 116.096 39.0243 116.308 39.0243H116.742C116.895 39.0243 116.995 39.1673 116.956 39.3289C116.673 40.4941 115.672 41.1782 114.398 41.1791C112.473 41.1803 111.755 39.7671 111.72 38.1387C111.684 36.4728 112.578 35.0871 114.398 35.0871C115.745 35.0871 116.768 35.8291 116.956 36.9373C116.984 37.1053 116.893 37.2419 116.732 37.2419H116.308C116.097 37.2419 116.013 37.1139 115.933 36.9373C115.636 36.2828 115.094 36.0573 114.398 36.0573C113.163 36.0573 112.757 37.093 112.755 38.1443C112.754 39.1823 113.209 40.2089 114.398 40.2089Z" fill="#042158"></path> <path fill-rule="evenodd" clip-rule="evenodd" d="M63.6489 35.2001C63.8171 35.2001 63.9558 35.3378 63.9558 35.5046V35.8657C63.9558 36.0325 63.8169 36.1703 63.6489 36.1703H61.6819V40.7617C61.6819 40.9286 61.5432 41.0664 61.3751 41.0664H60.9544C60.7861 41.0664 60.6474 40.9287 60.6474 40.7617V36.1703H58.6805C58.5124 36.1703 58.3735 36.0325 58.3735 35.8657V35.5046C58.3735 35.3378 58.5123 35.2001 58.6805 35.2001H63.6489ZM72.3011 37.6868H75.4959V37.6529C75.4959 36.632 74.8337 36.0111 73.8966 36.0111C72.9949 36.0111 72.3011 36.6574 72.3011 37.6868ZM73.8966 35.0873C75.8878 35.0873 76.5977 36.5974 76.523 38.246C76.5155 38.4126 76.3839 38.5507 76.2159 38.5507H72.305V38.6183C72.305 39.5681 72.9222 40.2407 73.8966 40.2407C74.4853 40.2407 74.9332 40.0852 75.3405 39.6449C75.4577 39.5181 75.5283 39.487 75.7043 39.487H76.0917C76.3065 39.487 76.4201 39.6507 76.3192 39.8677C75.9516 40.6586 74.9479 41.1784 73.8966 41.1792C72.1376 41.1805 71.2646 39.7395 71.2646 38.0882C71.2646 36.4387 72.1684 35.0873 73.8966 35.0873ZM86.9185 40.209C87.6145 40.209 88.1571 39.9835 88.4535 39.329C88.5333 39.1524 88.6171 39.0245 88.8286 39.0245H89.2626C89.416 39.0245 89.516 39.1674 89.4766 39.329C89.1937 40.4942 88.1932 41.1783 86.9185 41.1792C84.9938 41.1804 84.2754 39.7673 84.2411 38.1388C84.2051 36.4729 85.099 35.0873 86.9185 35.0873C88.266 35.0873 89.2883 35.8293 89.4766 36.9375C89.5052 37.1054 89.4139 37.242 89.253 37.242H88.8286C88.6173 37.242 88.5332 37.1139 88.4535 36.9375C88.1571 36.2829 87.6145 36.0575 86.9185 36.0575C85.6838 36.0575 85.2774 37.0931 85.2761 38.1445C85.2747 39.1824 85.73 40.209 86.9185 40.209ZM103.45 37.1855C103.45 38.0111 104.017 38.1895 104.746 38.1895H106.247V36.1702H104.746C104.014 36.1702 103.45 36.3608 103.45 37.1855ZM106.975 35.2001C107.143 35.2001 107.282 35.3378 107.282 35.5046V40.7617C107.282 40.9286 107.143 41.0664 106.975 41.0664H106.554C106.386 41.0664 106.247 40.9286 106.247 40.7617V39.1025H104.849L103.496 40.8519C103.398 40.9781 103.302 41.0664 103.132 41.0664H102.501C102.283 41.0664 102.222 40.818 102.359 40.649L103.677 39.0132C102.789 38.7357 102.427 38.0806 102.427 37.1856C102.427 35.7414 103.405 35.2001 104.746 35.2001H106.975ZM98.2004 40.2907C99.1656 40.2907 100.08 39.6003 100.032 38.5393L100.016 38.2002L98.5999 38.4472C97.8763 38.5735 97.1651 38.7853 97.1651 39.4757C97.1651 40.0157 97.623 40.2907 98.2004 40.2907ZM96.0977 39.5885C96.0977 38.2742 97.1092 37.853 98.2236 37.663L100.032 37.3548C100.032 36.4866 99.5906 36.0223 98.7013 36.0223C98.1501 36.0223 97.8307 36.2291 97.5075 36.6667C97.4098 36.7992 97.3041 36.8246 97.1437 36.8246H96.7453C96.5811 36.8246 96.4618 36.6881 96.4957 36.52C96.6873 35.5649 97.8985 35.0873 98.7013 35.0873C100.098 35.0873 101.066 35.895 101.066 37.3209V40.7617C101.066 40.9286 100.927 41.0664 100.759 41.0664H100.339C100.17 41.0664 100.032 40.9286 100.032 40.7617V40.2992C99.6966 40.8565 98.8716 41.1792 98.076 41.1792C97.1126 41.1792 96.0977 40.66 96.0977 39.5885ZM48.4888 40.2907C49.4541 40.2907 50.3681 39.6003 50.3199 38.5393L50.3045 38.2002L48.8882 38.4472C48.1646 38.5735 47.4534 38.7853 47.4534 39.4757C47.4534 40.0157 47.9114 40.2907 48.4888 40.2907ZM46.3861 39.5885C46.3861 38.2742 47.3975 37.853 48.5121 37.663L50.3199 37.3548C50.3199 36.4866 49.8789 36.0223 48.9896 36.0223C48.4384 36.0223 48.119 36.2291 47.7959 36.6667C47.6981 36.7992 47.5924 36.8246 47.4321 36.8246H47.0337C46.8694 36.8246 46.7503 36.6881 46.784 36.52C46.9756 35.5649 48.1869 35.0873 48.9896 35.0873C50.3864 35.0873 51.3545 35.895 51.3545 37.3209V40.7617C51.3545 40.9286 51.2157 41.0664 51.0475 41.0664H50.6269C50.4587 41.0664 50.3199 40.9286 50.3199 40.7617V40.2992C49.9849 40.8565 49.1598 41.1792 48.3644 41.1792C47.4009 41.1792 46.3861 40.66 46.3861 39.5885ZM91.7924 37.3679L94.1572 35.3919C94.2933 35.2782 94.4164 35.2001 94.6006 35.2001H95.1139C95.3754 35.2001 95.5528 35.4065 95.266 35.6439L92.5708 37.8743L95.498 40.5629C95.7013 40.7495 95.6946 41.0405 95.4371 41.048L94.8166 41.0664C94.6438 41.0714 94.4755 40.9943 94.3505 40.8745L91.7924 38.4259V40.7617C91.7924 40.9284 91.6535 41.0664 91.4854 41.0664H91.0648C90.8967 41.0664 90.7578 40.9286 90.7578 40.7617V35.5046C90.7578 35.3379 90.8967 35.2001 91.0648 35.2001H91.4854C91.6537 35.2001 91.7924 35.3379 91.7924 35.5046V37.3679ZM78.8387 38.0936C78.8387 39.2081 79.1442 40.2089 80.4986 40.2089C81.7603 40.2089 82.1642 39.2402 82.1642 38.1332C82.1642 37.045 81.7739 36.0574 80.4986 36.0574C79.1896 36.0574 78.8387 36.9971 78.8387 38.0936ZM80.6123 41.1792C79.9314 41.1792 79.2756 40.9675 78.8501 40.412V42.9051C78.8501 43.072 78.7113 43.2098 78.5431 43.2098H78.1225C77.9545 43.2098 77.8155 43.0719 77.8155 42.9051V35.5046C77.8155 35.3379 77.9544 35.2001 78.1225 35.2001H78.5431C78.7113 35.2001 78.8501 35.3378 78.8501 35.5046V35.8544C79.2727 35.2885 79.9273 35.0873 80.6123 35.0873C82.4386 35.0873 83.2046 36.5522 83.2046 38.1388C83.2046 39.7654 82.3974 41.1792 80.6123 41.1792ZM53.9544 38.0936C53.9544 39.2081 54.26 40.2089 55.6143 40.2089C56.8761 40.2089 57.28 39.2402 57.28 38.1332C57.28 37.045 56.8896 36.0574 55.6143 36.0574C54.3054 36.0574 53.9544 36.9971 53.9544 38.0936ZM55.728 41.1792C55.0472 41.1792 54.3913 40.9675 53.9658 40.412V42.9051C53.9658 43.072 53.827 43.2098 53.6589 43.2098H53.2382C53.0702 43.2098 52.9313 43.0719 52.9313 42.9051V35.5046C52.9313 35.3379 53.0701 35.2001 53.2382 35.2001H53.6589C53.8271 35.2001 53.9658 35.3378 53.9658 35.5046V35.8544C54.3884 35.2885 55.043 35.0873 55.728 35.0873C57.5544 35.0873 58.3203 36.5522 58.3203 38.1388C58.3203 39.7654 57.5131 41.1792 55.728 41.1792ZM75.5453 33.993C75.5453 34.1598 75.4063 34.2976 75.2382 34.2976H74.5902C74.4221 34.2976 74.2833 34.1599 74.2833 33.993V33.35C74.2833 33.1832 74.4222 33.0454 74.5902 33.0454H75.2382C75.4062 33.0454 75.5453 33.1833 75.5453 33.35V33.993ZM73.4875 33.993C73.4875 34.1598 73.3485 34.2976 73.1804 34.2976H72.5324C72.3643 34.2976 72.2254 34.1598 72.2254 33.993V33.35C72.2254 33.1833 72.3644 33.0454 72.5324 33.0454H73.1804C73.3484 33.0454 73.4875 33.1833 73.4875 33.35V33.993ZM69.6369 35.2001C69.8051 35.2001 69.9438 35.3378 69.9438 35.5046V40.7617C69.9438 40.9286 69.8051 41.0664 69.6369 41.0664H69.2162C69.0481 41.0664 68.9093 40.9286 68.9093 40.7617V38.5619H65.703V40.7617C65.703 40.9286 65.5643 41.0664 65.3962 41.0664H64.9755C64.8001 41.0664 64.6684 40.9364 64.6684 40.7617V35.5046C64.6684 35.3379 64.8074 35.2001 64.9755 35.2001H65.3962C65.5643 35.2001 65.703 35.3378 65.703 35.5046V37.5918H68.9093V35.5046C68.9093 35.3379 69.0482 35.2001 69.2162 35.2001H69.6369ZM44.8776 35.2001C45.0459 35.2001 45.1846 35.3378 45.1846 35.5046V40.7617C45.1846 40.9286 45.0459 41.0664 44.8776 41.0664H44.457C44.2888 41.0664 44.1501 40.9286 44.1501 40.7617V36.1703H40.9438V40.7617C40.9438 40.9286 40.8051 41.0664 40.6369 41.0664H40.2163C40.048 41.0664 39.9092 40.9286 39.9092 40.7617V35.5046C39.9092 35.3379 40.0482 35.2001 40.2163 35.2001H44.8776Z" fill="#042158"></path> <path fill-rule="evenodd" clip-rule="evenodd" d="M64.6011 21.0417C64.1323 21.3428 63.3771 21.7068 62.567 21.7068C61.6864 21.7068 61.3102 21.3492 61.3102 20.6215C61.3102 19.8958 61.8178 19.5173 62.8103 19.5173H64.6014L64.6011 21.0417ZM62.2603 17.0961C59.6805 17.0961 57.6143 18.3961 57.6143 21.3056C57.6143 23.6209 59.1906 24.8587 61.4795 24.8587C63.0826 24.8587 64.2165 24.2249 64.8963 23.6379L65.0503 24.2593C65.1114 24.5058 65.3341 24.6792 65.5902 24.6792H67.7452C68.0517 24.6792 68.312 24.4332 68.313 24.1292V16.4502C68.313 14.0928 67.2037 12.1424 63.3685 12.1424C61.6529 12.1424 60.2575 12.3714 59.0698 12.6954C58.8309 12.7605 58.6683 12.98 58.6683 13.2257V14.7414C58.6683 15.0461 58.9173 15.2932 59.2243 15.2932L62.9199 15.2935C63.7939 15.2935 64.6022 15.6456 64.6022 16.693L64.602 17.0961H62.2603Z" fill="#042158"></path> <path fill-rule="evenodd" clip-rule="evenodd" d="M39.8857 20.2247C39.8857 23.3467 41.1346 24.8588 44.0435 24.8588C45.2958 24.8588 46.4107 24.5627 47.0916 24.2825C47.2963 24.1981 47.4252 23.9961 47.4252 23.7763V22.2586C47.4252 21.9539 47.1763 21.7069 46.8693 21.7068L44.8753 21.7064C44.1753 21.7063 43.608 21.143 43.6081 20.4485L43.6089 15.4721H46.3148C46.6339 15.4721 46.8924 15.2154 46.8924 14.8989V12.8932C46.8924 12.5767 46.6339 12.32 46.3148 12.32H43.6095L43.6101 8.86932C43.6101 8.48777 43.2291 8.22127 42.867 8.34968L40.2784 9.26693C40.0575 9.34525 39.9099 9.55257 39.9094 9.7854L39.9036 12.32H38.4175C38.0984 12.32 37.8398 12.5767 37.8398 12.8932V14.8989C37.8398 15.2154 38.0984 15.4721 38.4175 15.4721H39.8964L39.8857 20.2247Z" fill="#042158"></path> <path fill-rule="evenodd" clip-rule="evenodd" d="M56.5988 12.1424C54.5375 12.1424 53.3016 12.9896 52.809 13.4173L52.6593 12.7517C52.6027 12.4994 52.3771 12.32 52.1168 12.32H49.9726C49.6654 12.32 49.4165 12.5669 49.4165 12.8717V24.1277C49.4165 24.4324 49.6654 24.6794 49.9726 24.6794H52.5601C52.8671 24.6794 53.1161 24.4324 53.1161 24.1277V16.0458C53.5605 15.6293 54.27 15.2935 55.8597 15.2935H56.6422C56.9493 15.2935 57.1983 15.0466 57.1983 14.7419V12.6948C57.1983 12.3741 56.922 12.1424 56.5988 12.1424Z" fill="#042158"></path> <path fill-rule="evenodd" clip-rule="evenodd" d="M73.2815 12.7055C73.211 12.4752 72.9937 12.32 72.7513 12.32H69.8161C69.502 12.32 69.2597 12.5649 69.2597 12.8598C69.2597 12.9262 69.2692 12.9944 69.2943 13.0621L73.4622 24.318C73.5425 24.5352 73.751 24.6795 73.984 24.6795H76.718C76.9511 24.6795 77.1594 24.5352 77.2399 24.318L81.408 13.0621C81.4327 12.9949 81.4426 12.9269 81.4426 12.8609C81.4426 12.5705 81.2006 12.32 80.8861 12.32H78.0974C77.8549 12.32 77.6376 12.4752 77.5672 12.7055L75.4244 19.7078L73.2815 12.7055Z" fill="#042158"></path> <path fill-rule="evenodd" clip-rule="evenodd" d="M145.183 21.7069C144.17 21.7069 143.207 21.072 143.207 18.5002C143.207 15.9285 144.17 15.2936 145.183 15.2936C146.197 15.2936 147.16 15.9285 147.16 18.5002C147.16 21.072 146.197 21.7069 145.183 21.7069ZM145.183 12.1424C141.413 12.1424 139.485 14.3721 139.485 18.4997C139.485 22.627 141.413 24.8587 145.183 24.8587C148.954 24.8587 150.882 22.627 150.882 18.4997C150.882 14.3721 148.954 12.1424 145.183 12.1424Z" fill="#042158"></path> <path fill-rule="evenodd" clip-rule="evenodd" d="M138.272 12.32H135.619C135.335 12.32 135.083 12.5004 134.992 12.7679L132.819 19.2164L130.533 12.7025C130.452 12.4736 130.235 12.32 129.99 12.32H127.053C126.727 12.32 126.478 12.5535 126.478 12.8783C126.478 12.9533 126.49 13.0306 126.522 13.1064L131.002 23.9345L128.97 29.296C128.832 29.6568 129.101 30.0427 129.49 30.0427H132.113C132.346 30.0427 132.554 29.8988 132.635 29.6821L138.811 13.0874C138.836 13.0194 138.847 12.9507 138.847 12.8837C138.847 12.5819 138.599 12.32 138.272 12.32Z" fill="#042158"></path> <path fill-rule="evenodd" clip-rule="evenodd" d="M183.989 17.4292C183.331 17.2232 182.016 16.8113 181.359 16.6055C180.96 16.4807 180.576 16.3633 180.576 15.9798C180.576 15.4738 181.079 15.2937 182.001 15.2937L185.506 15.2935C185.813 15.2935 186.06 15.0466 186.06 14.7418V13.1801C186.06 12.936 185.898 12.7179 185.662 12.6508C184.388 12.2894 183.311 12.1424 181.851 12.1424C179.733 12.1424 176.777 13.0037 176.777 16.0903C176.777 16.8316 176.994 18.5664 179.069 19.2197C179.919 19.4872 181.619 20.0223 182.468 20.29C182.797 20.3933 183.1 20.6165 183.1 21.0287C183.1 21.5053 182.746 21.7069 182.156 21.7069H177.679C177.372 21.7069 177.123 21.9538 177.123 22.2585V23.8059C177.123 24.0493 177.281 24.2619 177.515 24.3336C178.15 24.5277 179.454 24.8588 181.476 24.8588C186.76 24.8588 187 21.9136 187 20.8035C187 19.3963 186.203 18.1228 183.989 17.4292Z" fill="#042158"></path> <path fill-rule="evenodd" clip-rule="evenodd" d="M121.877 21.0417C121.408 21.3428 120.653 21.7068 119.843 21.7068C118.962 21.7068 118.586 21.3492 118.586 20.6215C118.586 19.8958 119.093 19.5173 120.086 19.5173H121.877L121.877 21.0417ZM120.644 12.1424C118.929 12.1424 117.533 12.3714 116.345 12.6954C116.107 12.7605 115.944 12.98 115.944 13.2258V14.7414C115.944 15.0461 116.193 15.2932 116.5 15.2932H120.196C121.07 15.2932 121.878 15.6456 121.878 16.693L121.878 17.0961H119.536C116.956 17.0961 114.89 18.3961 114.89 21.3056C114.89 23.6209 116.466 24.8587 118.755 24.8587C120.358 24.8587 121.492 24.2249 122.172 23.6379L122.326 24.2593C122.387 24.5058 122.61 24.6792 122.866 24.6792H125.032C125.339 24.6792 125.588 24.4322 125.588 24.1276V16.4502C125.588 14.0928 124.479 12.1424 120.644 12.1424Z" fill="#042158"></path> <path fill-rule="evenodd" clip-rule="evenodd" d="M163.209 12.32H160.621C160.314 12.32 160.065 12.567 160.065 12.8718V21.0561C159.539 21.4106 158.845 21.7069 158.109 21.7069C156.987 21.7069 156.702 21.0638 156.702 19.719V12.8727C156.702 12.568 156.453 12.3209 156.146 12.3209H153.559C153.252 12.3209 153.003 12.568 153.003 12.8727V19.6031C153.003 21.14 152.799 24.8588 156.785 24.8588C158.332 24.8588 159.57 24.3443 160.399 23.6082L160.528 24.2379C160.581 24.495 160.809 24.6795 161.073 24.6795H163.209C163.516 24.6795 163.765 24.4325 163.765 24.1277V12.8718C163.765 12.567 163.516 12.32 163.209 12.32Z" fill="#042158"></path> <path fill-rule="evenodd" clip-rule="evenodd" d="M174.854 21.7068L172.86 21.7064C172.16 21.7063 171.592 21.1431 171.592 20.4485L171.593 15.4721H174.299C174.618 15.4721 174.877 15.2154 174.877 14.8989V12.8932C174.877 12.5767 174.618 12.32 174.299 12.32H171.594L171.595 8.86932C171.595 8.48777 171.214 8.22127 170.852 8.34968L168.263 9.26693C168.042 9.34525 167.894 9.55257 167.894 9.7854L167.888 12.32H166.402C166.083 12.32 165.824 12.5767 165.824 12.8932V14.8989C165.824 15.2154 166.083 15.4721 166.402 15.4721H167.881L167.87 20.2247C167.87 23.3467 169.119 24.8588 172.028 24.8588C173.28 24.8588 174.395 24.5627 175.076 24.2825C175.281 24.1981 175.41 23.9961 175.41 23.7763V22.2586C175.41 21.9539 175.161 21.7069 174.854 21.7068Z" fill="#042158"></path> <path fill-rule="evenodd" clip-rule="evenodd" d="M99.085 24.1278L99.0871 6.80901C99.0871 6.42753 98.7062 6.16111 98.3441 6.28945L95.7556 7.20663C95.5346 7.28495 95.387 7.49255 95.3867 7.72539V24.127C95.3864 24.432 95.612 24.6794 95.9194 24.6794H98.5291C98.8361 24.6794 99.085 24.4325 99.085 24.1278Z" fill="#042158"></path> <path fill-rule="evenodd" clip-rule="evenodd" d="M87.7601 15.2936C89.2449 15.2936 89.4851 16.6079 89.4851 17.2033H86.0106C86.0106 15.8858 86.7466 15.2936 87.7601 15.2936ZM92.2957 22.1466C92.2957 21.9037 92.0975 21.7068 91.8527 21.7068L88.5221 21.7064C87.0352 21.7064 85.9289 21.3291 85.9289 19.6121H92.1099C92.8041 19.6121 93.1219 19.3432 93.1219 18.3208C93.1219 13.7189 90.716 12.1424 87.7601 12.1424C83.9894 12.1424 82.0615 14.5007 82.0615 18.4964C82.0615 21.9378 83.2718 24.8587 87.9069 24.8587C89.4629 24.8587 90.8771 24.6503 91.8972 24.3426C92.134 24.2711 92.2957 24.0575 92.2957 23.812V22.1466Z" fill="#042158"></path> <path fill-rule="evenodd" clip-rule="evenodd" d="M107.331 21.7069C106.678 21.7069 106.123 21.5955 105.679 21.4554V16.058C106.145 15.6567 106.838 15.2936 107.548 15.2936C108.586 15.2936 109.655 16.0228 109.655 18.4997C109.655 20.9338 108.64 21.7069 107.331 21.7069ZM108.736 12.1424C107.167 12.1424 106.059 12.8159 105.385 13.4755L105.222 12.7517C105.165 12.4993 104.94 12.32 104.679 12.32H102.535C102.228 12.32 101.979 12.5669 101.979 12.8717V29.4909C101.979 29.7957 102.228 30.0427 102.535 30.0427H105.123C105.43 30.0427 105.679 29.7957 105.679 29.4909V24.5617C106.263 24.7345 106.969 24.8587 107.808 24.8587C111.496 24.8587 113.364 22.4817 113.364 18.3542C113.364 14.4025 111.74 12.1424 108.736 12.1424Z" fill="#042158"></path> <path fill-rule="evenodd" clip-rule="evenodd" d="M28.8973 31.6878H21.285C20.6319 31.6878 20.1025 31.1624 20.1025 30.5144V24.64H27.0427C27.3677 24.64 27.6451 24.4069 27.6987 24.0889L28.1687 21.3022C28.2366 20.8999 27.9239 20.5333 27.5126 20.5333H15.9637V30.5144C15.9637 33.4305 18.3461 35.7944 21.285 35.7944H25.4237V38.8483C23.376 39.6202 21.6236 39.8933 19.3656 39.8933C13.6034 39.8933 10.2111 36.7191 10.0512 31.0933V20.5333H1.1353C0.810333 20.5333 0.53289 20.7664 0.479308 21.0844L0.00926554 23.8711C-0.0585063 24.2735 0.254116 24.64 0.665329 24.64H5.91251V31.0933C6.00333 34.6133 6.92413 37.8453 9.49178 40.4133C11.8378 42.7597 15.2521 44 19.3656 44C22.8314 44 25.4575 43.4317 28.884 41.8417C29.2987 41.6492 29.5624 41.2344 29.5624 40.7801V32.3478C29.5624 31.9832 29.2647 31.6878 28.8973 31.6878Z" fill="#0085FF"></path> <path fill-rule="evenodd" clip-rule="evenodd" d="M2.05056 16.4266H10.0513V7.61491L15.9637 5.53745V16.4266H28.4272C28.7521 16.4266 29.0295 16.1936 29.0832 15.8755L29.5531 13.0889C29.621 12.6865 29.3083 12.32 28.8971 12.32H20.1025V0.660493C20.1025 0.204873 19.6482 -0.113687 19.2152 0.0384062L6.35558 4.55691C6.09004 4.65027 5.91252 4.89953 5.91252 5.17907V12.32H2.52053C2.19556 12.32 1.91812 12.553 1.86446 12.8711L1.39457 15.6577C1.32665 16.0601 1.63935 16.4266 2.05056 16.4266Z" fill="#0085FF"></path> </svg> 