<?xml version="1.0" encoding="UTF-8"?> <svg xmlns="http://www.w3.org/2000/svg" width="161" height="29" viewBox="0 0 161 29" fill="none"> <path d="M142.361 12.4455C139.161 11.6741 136.2 10.9698 133.239 10.2488C131.838 9.905 130.829 9.142 131.171 7.59506C131.513 6.04811 132.799 5.8427 134.192 6.08585C142.31 7.51541 150.427 9.02044 158.647 9.60735C159.686 9.68281 160.643 10.0266 160.929 11.1627C161.215 12.2988 160.604 13.1624 159.669 13.8122C157.572 15.2106 155.245 16.2431 152.79 16.8642C146.979 18.4908 141.139 20.0126 135.328 21.6308C134.666 21.8152 133.824 22.3602 133.38 21.6308C132.936 20.9013 133.893 20.4653 134.384 20.0335C135.875 18.7214 137.695 17.8871 139.597 16.7552C137.588 16.2311 135.82 16.8558 134.042 16.86C120.744 16.86 107.442 16.86 94.1374 16.86C92.0823 16.86 90.023 16.6336 87.9765 16.4408C87.0665 16.3527 85.9385 16.1599 86.0026 14.9735C86.0582 13.9505 87.0793 13.8793 87.9509 13.7409C90.5656 13.3217 93.2017 13.4223 95.8293 13.3762C104.998 13.2043 114.175 13.2504 123.335 12.8857C129.595 12.63 135.85 12.6803 142.361 12.4455Z" fill="white"></path> <path d="M7.704 23.24C6.28 23.24 5.056 23.024 4.032 22.592C3.008 22.16 2.232 21.592 1.704 20.888C1.176 20.184 0.896 19.424 0.864 18.608C0.864 18.464 0.912 18.344 1.008 18.248C1.104 18.152 1.224 18.104 1.368 18.104H3.504C3.696 18.104 3.84 18.144 3.936 18.224C4.048 18.288 4.152 18.4 4.248 18.56C4.408 19.104 4.776 19.56 5.352 19.928C5.928 20.296 6.712 20.48 7.704 20.48C8.84 20.48 9.696 20.296 10.272 19.928C10.848 19.544 11.136 19.016 11.136 18.344C11.136 17.896 10.984 17.528 10.68 17.24C10.392 16.952 9.952 16.704 9.36 16.496C8.784 16.288 7.92 16.032 6.768 15.728C4.88 15.28 3.496 14.688 2.616 13.952C1.752 13.2 1.32 12.136 1.32 10.76C1.32 9.832 1.568 9.008 2.064 8.288C2.576 7.568 3.304 7 4.248 6.584C5.208 6.168 6.32 5.96 7.584 5.96C8.896 5.96 10.032 6.192 10.992 6.656C11.952 7.12 12.68 7.704 13.176 8.408C13.688 9.096 13.96 9.784 13.992 10.472C13.992 10.616 13.944 10.736 13.848 10.832C13.752 10.928 13.632 10.976 13.488 10.976H11.256C10.92 10.976 10.688 10.824 10.56 10.52C10.464 10.008 10.144 9.584 9.6 9.248C9.056 8.896 8.384 8.72 7.584 8.72C6.688 8.72 5.984 8.888 5.472 9.224C4.96 9.56 4.704 10.048 4.704 10.688C4.704 11.136 4.832 11.504 5.088 11.792C5.344 12.08 5.744 12.336 6.288 12.56C6.848 12.784 7.648 13.032 8.688 13.304C10.096 13.624 11.216 13.984 12.048 14.384C12.896 14.784 13.52 15.288 13.92 15.896C14.32 16.504 14.52 17.28 14.52 18.224C14.52 19.248 14.232 20.144 13.656 20.912C13.096 21.664 12.296 22.24 11.256 22.64C10.232 23.04 9.048 23.24 7.704 23.24ZM21.9024 23.24C20.1424 23.24 18.7344 22.752 17.6784 21.776C16.6384 20.8 16.0864 19.448 16.0224 17.72L15.9984 16.76L16.0224 15.8C16.0864 14.072 16.6384 12.72 17.6784 11.744C18.7344 10.768 20.1424 10.28 21.9024 10.28C23.1504 10.28 24.2064 10.504 25.0704 10.952C25.9504 11.4 26.5984 11.952 27.0144 12.608C27.4464 13.248 27.6784 13.856 27.7104 14.432C27.7264 14.592 27.6704 14.728 27.5424 14.84C27.4304 14.952 27.2944 15.008 27.1344 15.008H25.0224C24.8624 15.008 24.7344 14.976 24.6384 14.912C24.5584 14.832 24.4784 14.704 24.3984 14.528C24.1584 13.904 23.8384 13.456 23.4384 13.184C23.0544 12.912 22.5584 12.776 21.9504 12.776C21.1344 12.776 20.4944 13.04 20.0304 13.568C19.5664 14.08 19.3184 14.864 19.2864 15.92L19.2624 16.808L19.2864 17.6C19.3504 19.696 20.2384 20.744 21.9504 20.744C22.5744 20.744 23.0784 20.608 23.4624 20.336C23.8464 20.064 24.1584 19.616 24.3984 18.992C24.4784 18.816 24.5584 18.696 24.6384 18.632C24.7344 18.552 24.8624 18.512 25.0224 18.512H27.1344C27.2944 18.512 27.4304 18.568 27.5424 18.68C27.6704 18.792 27.7264 18.928 27.7104 19.088C27.6784 19.648 27.4544 20.248 27.0384 20.888C26.6224 21.528 25.9824 22.08 25.1184 22.544C24.2544 23.008 23.1824 23.24 21.9024 23.24ZM30.3094 23C30.1494 23 30.0134 22.944 29.9014 22.832C29.7894 22.72 29.7334 22.584 29.7334 22.424V11.12C29.7334 10.96 29.7894 10.824 29.9014 10.712C30.0134 10.584 30.1494 10.52 30.3094 10.52H32.2534C32.4294 10.52 32.5734 10.576 32.6854 10.688C32.7974 10.8 32.8534 10.944 32.8534 11.12V12.104C33.2374 11.592 33.7174 11.2 34.2934 10.928C34.8854 10.656 35.5574 10.52 36.3094 10.52H37.2934C37.4694 10.52 37.6054 10.576 37.7014 10.688C37.8134 10.784 37.8694 10.92 37.8694 11.096V12.824C37.8694 12.984 37.8134 13.12 37.7014 13.232C37.6054 13.344 37.4694 13.4 37.2934 13.4H35.4214C34.6694 13.4 34.0774 13.616 33.6454 14.048C33.2134 14.48 32.9974 15.072 32.9974 15.824V22.424C32.9974 22.584 32.9414 22.72 32.8294 22.832C32.7174 22.944 32.5734 23 32.3974 23H30.3094ZM44.6171 23.24C42.7451 23.24 41.2971 22.76 40.2731 21.8C39.2491 20.824 38.6971 19.496 38.6171 17.816L38.5931 16.76L38.6171 15.704C38.6971 14.04 39.2571 12.72 40.2971 11.744C41.3371 10.768 42.7771 10.28 44.6171 10.28C46.4571 10.28 47.8971 10.768 48.9371 11.744C49.9771 12.72 50.5371 14.04 50.6171 15.704C50.6331 15.896 50.6411 16.248 50.6411 16.76C50.6411 17.272 50.6331 17.624 50.6171 17.816C50.5371 19.496 49.9851 20.824 48.9611 21.8C47.9371 22.76 46.4891 23.24 44.6171 23.24ZM44.6171 20.864C45.4651 20.864 46.1211 20.6 46.5851 20.072C47.0491 19.528 47.3051 18.736 47.3531 17.696C47.3691 17.536 47.3771 17.224 47.3771 16.76C47.3771 16.296 47.3691 15.984 47.3531 15.824C47.3051 14.784 47.0491 14 46.5851 13.472C46.1211 12.928 45.4651 12.656 44.6171 12.656C43.7691 12.656 43.1131 12.928 42.6491 13.472C42.1851 14 41.9291 14.784 41.8811 15.824L41.8571 16.76L41.8811 17.696C41.9291 18.736 42.1851 19.528 42.6491 20.072C43.1131 20.6 43.7691 20.864 44.6171 20.864ZM53.4203 23C53.2603 23 53.1243 22.944 53.0123 22.832C52.9003 22.72 52.8443 22.584 52.8443 22.424V6.536C52.8443 6.36 52.9003 6.224 53.0123 6.128C53.1243 6.016 53.2603 5.96 53.4203 5.96H55.4123C55.5883 5.96 55.7243 6.016 55.8203 6.128C55.9323 6.224 55.9883 6.36 55.9883 6.536V22.424C55.9883 22.584 55.9323 22.72 55.8203 22.832C55.7243 22.944 55.5883 23 55.4123 23H53.4203ZM59.2918 23C59.1318 23 58.9958 22.944 58.8838 22.832C58.7718 22.72 58.7158 22.584 58.7158 22.424V6.536C58.7158 6.36 58.7718 6.224 58.8838 6.128C58.9958 6.016 59.1318 5.96 59.2918 5.96H61.2838C61.4598 5.96 61.5958 6.016 61.6918 6.128C61.8038 6.224 61.8598 6.36 61.8598 6.536V22.424C61.8598 22.584 61.8038 22.72 61.6918 22.832C61.5958 22.944 61.4598 23 61.2838 23H59.2918Z" fill="white"></path> </svg> 