<?xml version="1.0" encoding="UTF-8"?> <svg xmlns="http://www.w3.org/2000/svg" width="460" height="264" viewBox="0 0 460 264" fill="none"> <mask id="mask0" mask-type="alpha" maskUnits="userSpaceOnUse" x="0" y="0" width="460" height="264"> <rect width="460" height="264" rx="16" fill="white"></rect> </mask> <g mask="url(#mask0)"> <g clip-path="url(#clip0)"> <path d="M366.516 195.76L366.297 219.64L381.388 205.394L428.989 172.993L390.137 181.486C390.137 181.486 370.735 188.855 369.757 189.975C368.78 191.094 366.516 195.76 366.516 195.76Z" fill="#DCECF9"></path> <path d="M347.373 183.732L429 173L366.513 195.76L347.373 183.732Z" fill="url(#paint0_linear)"></path> <path d="M395.678 216.137L372.147 201.506L429 173L395.678 216.137Z" fill="url(#paint1_linear)"></path> <path d="M263.003 294.315C263.018 292.396 263.138 290.479 263.363 288.573C263.571 286.812 263.873 285.027 264.261 283.27L266.155 283.691C265.795 285.387 265.49 287.108 265.289 288.803C265.065 290.639 264.945 292.487 264.929 294.337C264.929 294.873 264.929 295.417 264.929 295.946L262.993 295.989C263.003 295.435 263 294.87 263.003 294.315ZM268.325 271.18C270.079 267.318 272.164 263.616 274.555 260.113L276.154 261.215C273.822 264.634 271.788 268.247 270.075 272.016L268.325 271.18ZM328.861 259.753C328.739 259.699 328.62 259.638 328.502 259.577L329.371 257.838C329.475 257.888 329.579 257.943 329.669 257.982C329.735 258.002 329.802 258.015 329.871 258.022C330.948 258.151 333.701 257.806 335.131 256.69C336.39 255.67 337.321 254.301 337.808 252.755L339.64 253.392C339.026 255.293 337.872 256.973 336.32 258.227C334.337 259.779 330.992 260.117 329.641 259.955C329.371 259.931 329.108 259.863 328.861 259.753ZM282.46 250.173C285.315 247.057 288.362 244.123 291.583 241.389L292.833 242.876C289.677 245.558 286.692 248.437 283.897 251.495L282.46 250.173ZM319.336 245.626C319.104 243.713 319.104 241.779 319.336 239.866C319.467 238.776 319.662 237.694 319.918 236.626L321.804 237.083C321.565 238.075 321.384 239.08 321.262 240.093C321.046 241.85 321.046 243.628 321.262 245.385C321.415 246.598 321.689 247.792 322.081 248.949L320.248 249.579C319.808 248.296 319.498 246.972 319.325 245.626H319.336ZM327.373 234.631L327.115 234.541L327.718 232.691L327.999 232.784C332.206 234.225 335.875 237.029 338.059 240.482L336.428 241.529C334.459 238.444 331.157 235.931 327.373 234.631ZM302.664 235.035C304.719 234.113 308.47 232.514 310.504 232.154C312.081 231.881 313.536 231.683 314.948 231.553L315.125 233.494C313.766 233.62 312.361 233.811 310.831 234.073C309.498 234.304 306.807 235.301 303.451 236.802L302.664 235.035ZM325.164 224.896C327.52 221.314 330.392 218.101 333.686 215.36L334.922 216.861C331.774 219.479 329.031 222.55 326.781 225.973L325.164 224.896Z" fill="#DCECF9"></path> <path d="M345.339 210.539C347.26 209.739 349.245 209.102 351.271 208.635L350.84 206.734C348.708 207.225 346.62 207.895 344.599 208.735L345.339 210.539Z" fill="#DCECF9"></path> </g> <path d="M397.371 43.7982L397.544 62.6665L385.62 51.4104L348.009 25.809L378.707 32.5194C378.707 32.5194 394.038 38.3423 394.81 39.2269C395.582 40.1116 397.371 43.7982 397.371 43.7982Z" fill="#DCECF9"></path> <path d="M412.497 34.2943L348.001 25.8146L397.374 43.7981L412.497 34.2943Z" fill="url(#paint2_linear)"></path> <path d="M374.329 59.8986L392.921 48.3381L348 25.8146L374.329 59.8986Z" fill="url(#paint3_linear)"></path> <path d="M479.159 121.669C479.148 120.153 479.053 118.638 478.876 117.132C478.711 115.741 478.472 114.33 478.166 112.942L476.67 113.275C476.954 114.615 477.195 115.974 477.354 117.314C477.53 118.765 477.625 120.225 477.638 121.686C477.638 122.11 477.638 122.54 477.638 122.958L479.168 122.992C479.159 122.554 479.162 122.107 479.159 121.669ZM474.955 103.39C473.569 100.338 471.922 97.4126 470.032 94.6454L468.769 95.5159C470.612 98.217 472.219 101.072 473.572 104.05L474.955 103.39ZM427.124 94.361C427.22 94.3183 427.314 94.2699 427.408 94.2216L426.72 92.8476C426.638 92.8875 426.556 92.9301 426.485 92.9614C426.433 92.9773 426.38 92.9877 426.326 92.9927C425.474 93.0951 423.299 92.822 422.17 91.9402C421.175 91.1347 420.439 90.0533 420.055 88.8311L418.607 89.3346C419.092 90.8364 420.003 92.164 421.23 93.1549C422.797 94.3809 425.44 94.6483 426.508 94.5203C426.72 94.5015 426.928 94.4476 427.124 94.361ZM463.786 86.7915C461.531 84.3293 459.123 82.0112 456.578 79.8506L455.59 81.0255C458.084 83.1448 460.442 85.4193 462.651 87.8354L463.786 86.7915ZM434.65 83.1987C434.832 81.6871 434.832 80.159 434.65 78.6474C434.546 77.7859 434.392 76.9311 434.19 76.0872L432.699 76.4485C432.889 77.2321 433.032 78.0262 433.128 78.8266C433.298 80.2152 433.298 81.6195 433.128 83.0082C433.007 83.9662 432.79 84.9097 432.481 85.8243L433.929 86.3221C434.277 85.3084 434.521 84.2619 434.658 83.1987H434.65ZM428.299 74.5113L428.503 74.4402L428.026 72.9781L427.805 73.0521C424.481 74.1899 421.582 76.4058 419.856 79.1338L421.145 79.9616C422.7 77.5238 425.31 75.5382 428.299 74.5113ZM447.823 74.8299C446.199 74.1017 443.235 72.8387 441.628 72.5543C440.382 72.3381 439.232 72.1816 438.116 72.0792L437.977 73.6124C439.05 73.712 440.16 73.8628 441.37 74.0704C442.423 74.2525 444.549 75.0404 447.201 76.2266L447.823 74.8299ZM430.045 66.8195C428.183 63.9892 425.914 61.45 423.311 59.2842L422.334 60.4704C424.822 62.5389 426.989 64.9651 428.767 67.6701L430.045 66.8195Z" fill="#DCECF9"></path> <path d="M414.104 55.4754C412.586 54.8436 411.018 54.3403 409.416 53.9706L409.757 52.4686C411.442 52.857 413.092 53.386 414.688 54.0502L414.104 55.4754Z" fill="#DCECF9"></path> <path d="M367.579 128.906L368.606 140.859L375.288 133.035L396.96 114.626L378.419 120.673C378.419 120.673 369.308 125.257 368.884 125.862C368.461 126.467 367.579 128.906 367.579 128.906Z" fill="#DCECF9"></path> <path d="M357.241 123.757L396.96 114.626L367.238 128.813L357.241 123.757Z" fill="url(#paint4_linear)"></path> <path d="M382.521 137.913L370.167 131.653L396.96 114.626L382.521 137.913Z" fill="url(#paint5_linear)"></path> </g> <defs> <linearGradient id="paint0_linear" x1="397.5" y1="182.5" x2="380.471" y2="151.033" gradientUnits="userSpaceOnUse"> <stop stop-color="#E3F3FF"></stop> <stop offset="1" stop-color="#F6FBFF" stop-opacity="0.37"></stop> </linearGradient> <linearGradient id="paint1_linear" x1="392" y1="190" x2="419.646" y2="221.189" gradientUnits="userSpaceOnUse"> <stop stop-color="#E3F3FF"></stop> <stop offset="1" stop-color="#F6FBFF" stop-opacity="0.37"></stop> </linearGradient> <linearGradient id="paint2_linear" x1="372.89" y1="33.3208" x2="386.345" y2="8.45793" gradientUnits="userSpaceOnUse"> <stop stop-color="#E3F3FF"></stop> <stop offset="1" stop-color="#F6FBFF" stop-opacity="0.37"></stop> </linearGradient> <linearGradient id="paint3_linear" x1="377.235" y1="39.2468" x2="355.391" y2="63.89" gradientUnits="userSpaceOnUse"> <stop stop-color="#E3F3FF"></stop> <stop offset="1" stop-color="#F6FBFF" stop-opacity="0.37"></stop> </linearGradient> <linearGradient id="paint4_linear" x1="381.884" y1="120.801" x2="371.962" y2="106.062" gradientUnits="userSpaceOnUse"> <stop stop-color="#E3F3FF"></stop> <stop offset="1" stop-color="#F6FBFF" stop-opacity="0.37"></stop> </linearGradient> <linearGradient id="paint5_linear" x1="379.449" y1="124.926" x2="394.865" y2="139.076" gradientUnits="userSpaceOnUse"> <stop stop-color="#E3F3FF"></stop> <stop offset="1" stop-color="#F6FBFF" stop-opacity="0.37"></stop> </linearGradient> <clipPath id="clip0"> <rect width="166" height="123" fill="white" transform="translate(263 173)"></rect> </clipPath> </defs> </svg> 